<?xml version="1.0" encoding="UTF-8"?>
<svg version="1.1" xmlns="http://www.w3.org/2000/svg" width="512" height="512">
<path d="M0 0 C0.92256592 0.44400146 0.92256592 0.44400146 1.86376953 0.89697266 C17.39994161 8.45080888 31.21838669 18.47644572 43.52978516 30.56494141 C44.94142302 31.94282374 46.38231394 33.29054206 47.82421875 34.63671875 C73.84510235 59.46977314 90.29881123 94.5718414 95 130 C95.13019531 130.96679688 95.26039063 131.93359375 95.39453125 132.9296875 C97.03466033 147.6689808 96.39669537 163.15347718 93.453125 177.703125 C86.98501757 210.48973855 110.20987257 252.2407527 127.29736328 278.48925781 C135.325986 290.32842558 144.20460839 301.57891157 154 312 C155.69864391 313.97638427 157.352557 315.98055374 159 318 C160.134375 317.484375 161.26875 316.96875 162.4375 316.4375 C167.2566184 314.67813931 171.0931416 314.44346827 176 316 C177.84559822 317.3029232 177.84559822 317.3029232 179.66995239 318.96908569 C180.36458714 319.60280468 181.05922188 320.23652367 181.77490616 320.88944626 C185.83588881 324.74138363 189.8204764 328.66440238 193.78076172 332.61962891 C194.73416264 333.56838958 195.6877561 334.51695681 196.64152527 335.46534729 C199.20764925 338.01847618 201.77054234 340.57482294 204.33241034 343.1322217 C205.93542904 344.73229349 207.53902624 346.33178334 209.14279556 347.93110275 C214.16832333 352.94300031 219.19187846 357.95686249 224.21253479 362.97364008 C229.995679 368.75229034 235.78533171 374.52431466 241.58065021 380.29075491 C246.07272755 384.76122574 250.55903324 389.23743509 255.04098904 393.71805322 C257.71342193 396.38943895 260.38822136 399.05834706 263.06905746 401.72130203 C265.58572159 404.22149956 268.09514319 406.72874469 270.59919167 409.24157524 C271.95586748 410.59938884 273.31996945 411.94976978 274.6842804 413.2999115 C275.49164139 414.11284164 276.29900238 414.92577179 277.13082886 415.76333618 C277.83390608 416.46494684 278.5369833 417.1665575 279.26136589 417.88942909 C282.5973593 421.93907393 283.22477348 425.65112972 283.36328125 430.83984375 C282.31437908 437.07686415 278.28097439 441.16418871 273.9765625 445.421875 C273.3933725 446.00793518 272.8101825 446.59399536 272.20932007 447.19781494 C270.98079568 448.42837144 269.74851209 449.65518522 268.51269531 450.87841797 C266.62726702 452.74775233 264.75841533 454.63259165 262.890625 456.51953125 C261.6910651 457.71710913 260.49057514 458.91375629 259.2890625 460.109375 C258.73368805 460.67082214 258.1783136 461.23226929 257.60610962 461.81072998 C252.64115237 466.68718381 249.08938047 468.17831223 242.16015625 468.36328125 C236.92030408 467.48207645 233.09081707 464.4665079 229.4196167 460.80729675 C228.55601532 459.95360001 227.69241394 459.09990326 226.80264282 458.22033691 C225.87358124 457.28677368 224.94451965 456.35321045 223.98730469 455.39135742 C222.985362 454.3951222 221.98279182 453.39951773 220.97964478 452.40449524 C218.2662088 449.70896136 215.56237172 447.00399107 212.86073208 444.29664016 C210.60201897 442.03483182 208.33872409 439.7776363 206.07544827 437.5203951 C200.73616044 432.19514037 195.40469918 426.86213922 190.078125 421.52416992 C184.5866285 416.02118524 179.08246114 410.53111515 173.57184291 405.04728431 C168.83579909 400.33340087 164.10755698 395.61179221 159.38551641 390.88388139 C156.56739177 388.0623878 153.74645537 385.24386231 150.91805267 382.43266869 C148.25948593 379.78957496 145.61081814 377.13694357 142.96940231 374.47671318 C141.53801493 373.03988691 140.09676862 371.61290333 138.65524292 370.18624878 C137.80292084 369.32409256 136.95059875 368.46193634 136.07244873 367.57365417 C135.32990215 366.83089831 134.58735558 366.08814245 133.82230759 365.32287884 C131.24559445 362.03836613 130.03426199 358.76449248 129.953125 354.5859375 C130.10007812 353.49152344 130.10007812 353.49152344 130.25 352.375 C130.38148438 351.27285156 130.38148438 351.27285156 130.515625 350.1484375 C131.03199374 347.85809228 131.86880054 346.04914001 133 344 C124.49853896 335.82614825 115.52702285 328.54968198 106.05908203 321.52832031 C104.17598261 320.13062024 102.30440596 318.71875329 100.43359375 317.3046875 C91.45836624 310.61110019 81.93282862 305.14503359 72 300 C71.18644043 299.57686523 70.37288086 299.15373047 69.53466797 298.71777344 C44.15364391 285.6787975 14.7497149 274.22919172 -14.08203125 279.48828125 C-52.12331945 286.15951118 -94.23284075 274.93836588 -125.74243164 253.1940918 C-128.54494853 251.19040317 -131.27428027 249.10748004 -134 247 C-134.90492188 246.31808594 -135.80984375 245.63617188 -136.7421875 244.93359375 C-171.10845028 218.06264347 -194.60057609 177.94077821 -200.31689453 134.59716797 C-204.39233087 97.56829293 -196.13354467 61.00741611 -172.8125 31.5625 C-163.65125497 20.6989966 -153.88922893 11.78248672 -142 4 C-140.60587891 3.06220703 -140.60587891 3.06220703 -139.18359375 2.10546875 C-97.96072159 -23.87139095 -42.4823888 -20.84691341 0 0 Z M-86.25 21.875 C-87.12140625 22.04902344 -87.9928125 22.22304688 -88.890625 22.40234375 C-93.10938378 23.27053344 -97.06267923 24.19403882 -101 26 C-96.47008204 31.43733055 -91.65705784 36.46458931 -86.625 41.4375 C-85.88894531 42.16904297 -85.15289062 42.90058594 -84.39453125 43.65429688 C-82.59863926 45.43852723 -80.80044015 47.22036124 -79 49 C-74.1088516 44.93161827 -69.52649247 40.65561922 -65.0625 36.125 C-64.17981445 35.23554687 -64.17981445 35.23554687 -63.27929688 34.328125 C-61.85052326 32.88773534 -60.42491868 31.4442033 -59 30 C-60.96621444 25.79321563 -63.14017917 22.65075642 -67 20 C-73.35852603 18.90604287 -80.03779953 20.55584297 -86.25 21.875 Z M-54 21 C-53.34 21.66 -52.68 22.32 -52 23 C-51.67 22.34 -51.34 21.68 -51 21 C-51.99 21 -52.98 21 -54 21 Z M-44.1875 25.375 C-45.0846875 26.674375 -45.0846875 26.674375 -46 28 C-44.5735422 31.2586636 -42.83295838 33.4024854 -40.3046875 35.890625 C-39.58925781 36.59960938 -38.87382812 37.30859375 -38.13671875 38.0390625 C-37.01716797 39.13347656 -37.01716797 39.13347656 -35.875 40.25 C-35.12089844 40.99507812 -34.36679688 41.74015625 -33.58984375 42.5078125 C-31.73099228 44.3431342 -29.86762995 46.1736191 -28 48 C-25.18121988 46.71825282 -23.14758504 45.38992385 -20.984375 43.1796875 C-20.19160156 42.37724609 -20.19160156 42.37724609 -19.3828125 41.55859375 C-18.57457031 40.72521484 -18.57457031 40.72521484 -17.75 39.875 C-17.19570312 39.31167969 -16.64140625 38.74835938 -16.0703125 38.16796875 C-14.70895515 36.78313972 -13.35385141 35.39216796 -12 34 C-17.33668845 27.42724032 -30.70791276 24.16018131 -38.74609375 22.90234375 C-41.36037157 22.80402269 -41.36037157 22.80402269 -44.1875 25.375 Z M-117.625 33.5625 C-118.25293457 33.92021484 -118.88086914 34.27792969 -119.52783203 34.64648438 C-124.54460305 37.57972404 -128.82262562 40.95772551 -133 45 C-127.61359076 51.55377097 -121.64114873 57.47246635 -115.625 63.4375 C-114.59221405 64.46525983 -113.55966009 65.49325285 -112.52734375 66.52148438 C-110.02089713 69.01701598 -107.5113292 71.50938082 -105 74 C-101.7413364 72.5735422 -99.5975146 70.83295838 -97.109375 68.3046875 C-96.04589844 67.23154297 -96.04589844 67.23154297 -94.9609375 66.13671875 C-94.23132813 65.39035156 -93.50171875 64.64398438 -92.75 63.875 C-92.00492188 63.12089844 -91.25984375 62.36679688 -90.4921875 61.58984375 C-88.6568658 59.73099228 -86.8263809 57.86762995 -85 56 C-86.58363082 52.16394511 -89.02614122 49.71554351 -91.9375 46.796875 C-92.41823975 46.3142218 -92.89897949 45.8315686 -93.39428711 45.33428955 C-94.40721093 44.32000936 -95.42264638 43.30823196 -96.44042969 42.29882812 C-98.00173165 40.74828028 -99.55202497 39.18729497 -101.1015625 37.625 C-102.08790061 36.63998266 -103.0748585 35.65558547 -104.0625 34.671875 C-104.96097656 33.7756543 -105.85945313 32.87943359 -106.78515625 31.95605469 C-110.8183709 28.39409307 -113.53745304 31.22554267 -117.625 33.5625 Z M-54.85766602 36.74414062 C-55.64842529 37.54013672 -56.43918457 38.33613281 -57.25390625 39.15625 C-58.10791016 40.01347656 -58.96191406 40.87070313 -59.84179688 41.75390625 C-60.73962891 42.66011719 -61.63746094 43.56632812 -62.5625 44.5 C-63.91504883 45.85931641 -63.91504883 45.85931641 -65.29492188 47.24609375 C-67.53218341 49.49519265 -69.76708747 51.74658467 -72 54 C-70.5735422 57.2586636 -68.83295838 59.4024854 -66.3046875 61.890625 C-65.58925781 62.59960938 -64.87382812 63.30859375 -64.13671875 64.0390625 C-63.39035156 64.76867187 -62.64398438 65.49828125 -61.875 66.25 C-61.12089844 66.99507812 -60.36679688 67.74015625 -59.58984375 68.5078125 C-57.73099228 70.3431342 -55.86762995 72.1736191 -54 74 C-50.63664406 72.54254576 -48.45465995 70.68882146 -45.890625 68.0859375 C-45.13652344 67.32539062 -44.38242188 66.56484375 -43.60546875 65.78125 C-42.43951172 64.59015625 -42.43951172 64.59015625 -41.25 63.375 C-40.45722656 62.57320312 -39.66445312 61.77140625 -38.84765625 60.9453125 C-36.89385507 58.96797154 -34.94487897 56.98611091 -33 55 C-37.0612003 50.12748369 -41.31273219 45.53148262 -45.8125 41.0625 C-46.39708984 40.47404297 -46.98167969 39.88558594 -47.58398438 39.27929688 C-50.95463196 34.90961549 -50.95463196 34.90961549 -54.85766602 36.74414062 Z M-5.69580078 39.46875 C-6.35563965 40.1390625 -7.01547852 40.809375 -7.6953125 41.5 C-8.76845703 42.5828125 -8.76845703 42.5828125 -9.86328125 43.6875 C-10.98283203 44.8321875 -10.98283203 44.8321875 -12.125 46 C-12.87910156 46.763125 -13.63320312 47.52625 -14.41015625 48.3125 C-16.27796966 50.20395662 -18.14097267 52.09991362 -20 54 C-18.5735422 57.2586636 -16.83295838 59.4024854 -14.3046875 61.890625 C-13.58925781 62.59960938 -12.87382812 63.30859375 -12.13671875 64.0390625 C-11.39035156 64.76867187 -10.64398438 65.49828125 -9.875 66.25 C-9.12089844 66.99507812 -8.36679688 67.74015625 -7.58984375 68.5078125 C-5.73099228 70.3431342 -3.86762995 72.1736191 -2 74 C1.36335594 72.54254576 3.54534005 70.68882146 6.109375 68.0859375 C7.24052734 66.94511719 7.24052734 66.94511719 8.39453125 65.78125 C9.56048828 64.59015625 9.56048828 64.59015625 10.75 63.375 C11.54277344 62.57320312 12.33554688 61.77140625 13.15234375 60.9453125 C15.10614493 58.96797154 17.05512103 56.98611091 19 55 C15.65372327 51.56885393 12.21037746 48.4079209 8.5 45.375 C7.5821875 44.61960937 6.664375 43.86421875 5.71875 43.0859375 C0.28943641 38.23214675 0.28943641 38.23214675 -5.69580078 39.46875 Z M-140 52 C-145.83551725 58.35149983 -152.24109543 65.69637014 -155 74 C-153.64117985 77.89417334 -150.87939635 80.34910246 -147.9921875 83.203125 C-147.50670441 83.6857782 -147.02122131 84.1684314 -146.52102661 84.66571045 C-144.97700134 86.19858562 -143.42615176 87.72434004 -141.875 89.25 C-140.82375991 90.29120361 -139.77297343 91.33286541 -138.72265625 92.375 C-136.15366996 94.92199464 -133.57851839 97.46265177 -131 100 C-127.7413364 98.5735422 -125.5975146 96.83295838 -123.109375 94.3046875 C-122.04589844 93.23154297 -122.04589844 93.23154297 -120.9609375 92.13671875 C-120.23132813 91.39035156 -119.50171875 90.64398438 -118.75 89.875 C-118.00492188 89.12089844 -117.25984375 88.36679688 -116.4921875 87.58984375 C-114.6568658 85.73099228 -112.8263809 83.86762995 -111 82 C-112.63873844 77.81582597 -115.71294346 75.01602195 -118.84765625 71.921875 C-119.41955185 71.35043762 -119.99144745 70.77900024 -120.58067322 70.19024658 C-121.78619786 68.98773552 -122.99414454 67.78764828 -124.2043457 66.58984375 C-126.06457948 64.74794101 -127.91661217 62.89808634 -129.76757812 61.046875 C-130.93963188 59.87973386 -132.11214207 58.71305087 -133.28515625 57.546875 C-133.84243912 56.99070496 -134.39972198 56.43453491 -134.97389221 55.86151123 C-137.1325389 53.2074472 -137.1325389 53.2074472 -140 52 Z M-80.85766602 62.74414062 C-81.64842529 63.54013672 -82.43918457 64.33613281 -83.25390625 65.15625 C-84.10791016 66.01347656 -84.96191406 66.87070313 -85.84179688 67.75390625 C-86.73962891 68.66011719 -87.63746094 69.56632812 -88.5625 70.5 C-89.91504883 71.85931641 -89.91504883 71.85931641 -91.29492188 73.24609375 C-93.53218341 75.49519265 -95.76708747 77.74658467 -98 80 C-93.93161827 84.8911484 -89.65561922 89.47350753 -85.125 93.9375 C-84.23554688 94.82018555 -84.23554688 94.82018555 -83.328125 95.72070312 C-81.88773534 97.14947674 -80.4442033 98.57508132 -79 100 C-71.84198775 94.17371096 -65.47408234 87.5617015 -59 81 C-63.00620442 76.07809171 -67.33616202 71.55349248 -71.8125 67.0625 C-72.39990967 66.47057861 -72.98731934 65.87865723 -73.5925293 65.26879883 C-76.96078152 60.90679412 -76.96078152 60.90679412 -80.85766602 62.74414062 Z M-28.85766602 62.74414062 C-29.64842529 63.54013672 -30.43918457 64.33613281 -31.25390625 65.15625 C-32.10791016 66.01347656 -32.96191406 66.87070313 -33.84179688 67.75390625 C-34.73962891 68.66011719 -35.63746094 69.56632812 -36.5625 70.5 C-37.91504883 71.85931641 -37.91504883 71.85931641 -39.29492188 73.24609375 C-41.53218341 75.49519265 -43.76708747 77.74658467 -46 80 C-44.5735422 83.2586636 -42.83295838 85.4024854 -40.3046875 87.890625 C-39.58925781 88.59960938 -38.87382812 89.30859375 -38.13671875 90.0390625 C-37.39035156 90.76867187 -36.64398438 91.49828125 -35.875 92.25 C-35.12089844 92.99507812 -34.36679688 93.74015625 -33.58984375 94.5078125 C-31.73099228 96.3431342 -29.86762995 98.1736191 -28 100 C-24.63664406 98.54254576 -22.45465995 96.68882146 -19.890625 94.0859375 C-19.13652344 93.32539062 -18.38242188 92.56484375 -17.60546875 91.78125 C-16.43951172 90.59015625 -16.43951172 90.59015625 -15.25 89.375 C-14.45722656 88.57320312 -13.66445312 87.77140625 -12.84765625 86.9453125 C-10.89385507 84.96797154 -8.94487897 82.98611091 -7 81 C-11.0612003 76.12748369 -15.31273219 71.53148262 -19.8125 67.0625 C-20.39708984 66.47404297 -20.98167969 65.88558594 -21.58398438 65.27929688 C-24.95463196 60.90961549 -24.95463196 60.90961549 -28.85766602 62.74414062 Z M23.14233398 62.74414062 C22.35157471 63.54013672 21.56081543 64.33613281 20.74609375 65.15625 C19.89208984 66.01347656 19.03808594 66.87070313 18.15820312 67.75390625 C17.26037109 68.66011719 16.36253906 69.56632812 15.4375 70.5 C14.08495117 71.85931641 14.08495117 71.85931641 12.70507812 73.24609375 C10.46781659 75.49519265 8.23291253 77.74658467 6 80 C7.4264578 83.2586636 9.16704162 85.4024854 11.6953125 87.890625 C12.41074219 88.59960938 13.12617188 89.30859375 13.86328125 90.0390625 C14.60964844 90.76867187 15.35601562 91.49828125 16.125 92.25 C16.87910156 92.99507812 17.63320312 93.74015625 18.41015625 94.5078125 C20.26900772 96.3431342 22.13237005 98.1736191 24 100 C27.04332765 98.6415798 29.12309151 97.11536976 31.453125 94.7421875 C32.071875 94.11699219 32.690625 93.49179688 33.328125 92.84765625 C33.96234375 92.19667969 34.5965625 91.54570313 35.25 90.875 C35.8996875 90.21628906 36.549375 89.55757812 37.21875 88.87890625 C38.81711727 87.25703357 40.41061897 85.6306719 42 84 C40.54354927 79.75526391 38.4085862 76.61591845 35.6875 73.0625 C34.88699219 72.01707031 34.08648437 70.97164062 33.26171875 69.89453125 C30.89721645 66.86845836 28.5513529 63.87027202 26 61 C24.69681756 60.88592007 24.69681756 60.88592007 23.14233398 62.74414062 Z M-159 84 C-162.0678757 92.26539327 -164.03126246 100.23630462 -165 109 C-165.13148438 109.83789062 -165.26296875 110.67578125 -165.3984375 111.5390625 C-165.78009001 115.36874804 -165.60626496 117.21106132 -163.2109375 120.328125 C-161.21881304 122.34136739 -159.19002029 124.2059432 -157 126 C-153.63664406 124.54254576 -151.45465995 122.68882146 -148.890625 120.0859375 C-148.13652344 119.32539063 -147.38242188 118.56484375 -146.60546875 117.78125 C-145.82816406 116.9871875 -145.05085938 116.193125 -144.25 115.375 C-143.45722656 114.57320312 -142.66445312 113.77140625 -141.84765625 112.9453125 C-139.89385507 110.96797154 -137.94487897 108.98611091 -136 107 C-140.52216046 101.58052896 -145.30918427 96.53850008 -150.3125 91.5625 C-151.04017578 90.83095703 -151.76785156 90.09941406 -152.51757812 89.34570312 C-153.20916016 88.65541016 -153.90074219 87.96511719 -154.61328125 87.25390625 C-155.24016846 86.62814697 -155.86705566 86.0023877 -156.51293945 85.35766602 C-157.78748354 83.88762561 -157.78748354 83.88762561 -159 84 Z M-106.85766602 88.74414062 C-107.64842529 89.54013672 -108.43918457 90.33613281 -109.25390625 91.15625 C-110.10791016 92.01347656 -110.96191406 92.87070313 -111.84179688 93.75390625 C-112.73962891 94.66011719 -113.63746094 95.56632812 -114.5625 96.5 C-115.91504883 97.85931641 -115.91504883 97.85931641 -117.29492188 99.24609375 C-119.53218341 101.49519265 -121.76708747 103.74658467 -124 106 C-119.93161827 110.8911484 -115.65561922 115.47350753 -111.125 119.9375 C-110.23554687 120.82018555 -110.23554687 120.82018555 -109.328125 121.72070312 C-107.88773534 123.14947674 -106.4442033 124.57508132 -105 126 C-97.84198775 120.17371096 -91.47408234 113.5617015 -85 107 C-89.00620442 102.07809171 -93.33616202 97.55349248 -97.8125 93.0625 C-98.39990967 92.47057861 -98.98731934 91.87865723 -99.5925293 91.26879883 C-102.96078152 86.90679412 -102.96078152 86.90679412 -106.85766602 88.74414062 Z M-54.85766602 88.74414062 C-55.64842529 89.54013672 -56.43918457 90.33613281 -57.25390625 91.15625 C-58.10791016 92.01347656 -58.96191406 92.87070313 -59.84179688 93.75390625 C-60.73962891 94.66011719 -61.63746094 95.56632812 -62.5625 96.5 C-63.91504883 97.85931641 -63.91504883 97.85931641 -65.29492188 99.24609375 C-67.53218341 101.49519265 -69.76708747 103.74658467 -72 106 C-67.93161827 110.8911484 -63.65561922 115.47350753 -59.125 119.9375 C-58.23554688 120.82018555 -58.23554688 120.82018555 -57.328125 121.72070312 C-55.88773534 123.14947674 -54.4442033 124.57508132 -53 126 C-45.84198775 120.17371096 -39.47408234 113.5617015 -33 107 C-37.00620442 102.07809171 -41.33616202 97.55349248 -45.8125 93.0625 C-46.39990967 92.47057861 -46.98731934 91.87865723 -47.5925293 91.26879883 C-50.96078152 86.90679412 -50.96078152 86.90679412 -54.85766602 88.74414062 Z M-2.85766602 88.74414062 C-3.64842529 89.54013672 -4.43918457 90.33613281 -5.25390625 91.15625 C-6.10791016 92.01347656 -6.96191406 92.87070313 -7.84179688 93.75390625 C-8.73962891 94.66011719 -9.63746094 95.56632812 -10.5625 96.5 C-11.91504883 97.85931641 -11.91504883 97.85931641 -13.29492188 99.24609375 C-15.53218341 101.49519265 -17.76708747 103.74658467 -20 106 C-18.5735422 109.2586636 -16.83295838 111.4024854 -14.3046875 113.890625 C-13.58925781 114.59960938 -12.87382812 115.30859375 -12.13671875 116.0390625 C-11.39035156 116.76867187 -10.64398438 117.49828125 -9.875 118.25 C-9.12089844 118.99507812 -8.36679688 119.74015625 -7.58984375 120.5078125 C-5.73099228 122.3431342 -3.86762995 124.1736191 -2 126 C1.36335594 124.54254576 3.54534005 122.68882146 6.109375 120.0859375 C6.86347656 119.32539063 7.61757812 118.56484375 8.39453125 117.78125 C9.56048828 116.59015625 9.56048828 116.59015625 10.75 115.375 C11.54277344 114.57320312 12.33554688 113.77140625 13.15234375 112.9453125 C15.10614493 110.96797154 17.05512103 108.98611091 19 107 C14.9387997 102.12748369 10.68726781 97.53148262 6.1875 93.0625 C5.60291016 92.47404297 5.01832031 91.88558594 4.41601562 91.27929688 C1.04536804 86.90961549 1.04536804 86.90961549 -2.85766602 88.74414062 Z M44.50952148 92.37695312 C43.88634033 93.00537109 43.26315918 93.63378906 42.62109375 94.28125 C41.94755859 94.95800781 41.27402344 95.63476562 40.58007812 96.33203125 C39.87302734 97.04746094 39.16597656 97.76289062 38.4375 98.5 C37.72658203 99.21542969 37.01566406 99.93085938 36.28320312 100.66796875 C34.51989403 102.44311213 32.7589516 104.22054045 31 106 C35.06838173 110.8911484 39.34438078 115.47350753 43.875 119.9375 C44.46796875 120.52595703 45.0609375 121.11441406 45.671875 121.72070312 C47.11226466 123.14947674 48.5557967 124.57508132 50 126 C52.31 124.02 54.62 122.04 57 120 C54.93127756 109.77460052 51.12061791 100.52822332 47 91 C45.7842263 90.88690335 45.7842263 90.88690335 44.50952148 92.37695312 Z M-132.97119141 114.74414062 C-134.1494751 115.93813477 -134.1494751 115.93813477 -135.3515625 117.15625 C-136.20234375 118.01347656 -137.053125 118.87070313 -137.9296875 119.75390625 C-138.81914062 120.66011719 -139.70859375 121.56632813 -140.625 122.5 C-141.5221875 123.40621094 -142.419375 124.31242188 -143.34375 125.24609375 C-145.56701538 127.49301089 -147.78549657 129.74445216 -150 132 C-145.93161827 136.8911484 -141.65561922 141.47350753 -137.125 145.9375 C-136.23554688 146.82018555 -136.23554688 146.82018555 -135.328125 147.72070312 C-133.88773534 149.14947674 -132.4442033 150.57508132 -131 152 C-123.84198775 146.17371096 -117.47408234 139.5617015 -111 133 C-112.42062515 129.7731002 -114.14245441 127.60057488 -116.625 125.109375 C-117.33140625 124.40039062 -118.0378125 123.69140625 -118.765625 122.9609375 C-119.87164062 121.86652344 -119.87164062 121.86652344 -121 120.75 C-121.73734375 120.00492188 -122.4746875 119.25984375 -123.234375 118.4921875 C-123.94078125 117.78835937 -124.6471875 117.08453125 -125.375 116.359375 C-126.34566406 115.39209473 -126.34566406 115.39209473 -127.3359375 114.40527344 C-129.85307885 112.27958893 -130.52969833 112.58386981 -132.97119141 114.74414062 Z M-80.85766602 114.74414062 C-81.64842529 115.54013672 -82.43918457 116.33613281 -83.25390625 117.15625 C-84.10791016 118.01347656 -84.96191406 118.87070313 -85.84179688 119.75390625 C-86.73962891 120.66011719 -87.63746094 121.56632813 -88.5625 122.5 C-89.91504883 123.85931641 -89.91504883 123.85931641 -91.29492188 125.24609375 C-93.53218341 127.49519265 -95.76708747 129.74658467 -98 132 C-93.93161827 136.8911484 -89.65561922 141.47350753 -85.125 145.9375 C-84.23554688 146.82018555 -84.23554688 146.82018555 -83.328125 147.72070312 C-81.88773534 149.14947674 -80.4442033 150.57508132 -79 152 C-71.84198775 146.17371096 -65.47408234 139.5617015 -59 133 C-63.00620442 128.07809171 -67.33616202 123.55349248 -71.8125 119.0625 C-72.39990967 118.47057861 -72.98731934 117.87865723 -73.5925293 117.26879883 C-76.96078152 112.90679412 -76.96078152 112.90679412 -80.85766602 114.74414062 Z M-28.85766602 114.74414062 C-29.64842529 115.54013672 -30.43918457 116.33613281 -31.25390625 117.15625 C-32.10791016 118.01347656 -32.96191406 118.87070313 -33.84179688 119.75390625 C-34.73962891 120.66011719 -35.63746094 121.56632813 -36.5625 122.5 C-37.91504883 123.85931641 -37.91504883 123.85931641 -39.29492188 125.24609375 C-41.53218341 127.49519265 -43.76708747 129.74658467 -46 132 C-41.93161827 136.8911484 -37.65561922 141.47350753 -33.125 145.9375 C-32.23554688 146.82018555 -32.23554688 146.82018555 -31.328125 147.72070312 C-29.88773534 149.14947674 -28.4442033 150.57508132 -27 152 C-19.84198775 146.17371096 -13.47408234 139.5617015 -7 133 C-11.00620442 128.07809171 -15.33616202 123.55349248 -19.8125 119.0625 C-20.39990967 118.47057861 -20.98731934 117.87865723 -21.5925293 117.26879883 C-24.96078152 112.90679412 -24.96078152 112.90679412 -28.85766602 114.74414062 Z M22.02880859 114.74414062 C20.8505249 115.93813477 20.8505249 115.93813477 19.6484375 117.15625 C18.79765625 118.01347656 17.946875 118.87070313 17.0703125 119.75390625 C16.18085938 120.66011719 15.29140625 121.56632813 14.375 122.5 C13.4778125 123.40621094 12.580625 124.31242188 11.65625 125.24609375 C9.43298462 127.49301089 7.21450343 129.74445216 5 132 C9.06838173 136.8911484 13.34438078 141.47350753 17.875 145.9375 C18.76445312 146.82018555 18.76445312 146.82018555 19.671875 147.72070312 C21.11226466 149.14947674 22.5557967 150.57508132 24 152 C31.15801225 146.17371096 37.52591766 139.5617015 44 133 C42.57937485 129.7731002 40.85754559 127.60057488 38.375 125.109375 C37.66859375 124.40039062 36.9621875 123.69140625 36.234375 122.9609375 C35.12835938 121.86652344 35.12835938 121.86652344 34 120.75 C33.26265625 120.00492188 32.5253125 119.25984375 31.765625 118.4921875 C31.05921875 117.78835937 30.3528125 117.08453125 29.625 116.359375 C28.65433594 115.39209473 28.65433594 115.39209473 27.6640625 114.40527344 C25.14692115 112.27958893 24.47030167 112.58386981 22.02880859 114.74414062 Z M-164 131 C-163.67 131.99 -163.34 132.98 -163 134 C-163 133.01 -163 132.02 -163 131 C-163.33 131 -163.66 131 -164 131 Z M58 131 C58 134 58 134 58 134 Z M-159.6875 141.0625 C-162.35946279 143.79032303 -162.35946279 143.79032303 -161.82421875 147.14453125 C-160.90207685 151.45805759 -159.62480187 155.48408363 -158.125 159.625 C-157.86847656 160.36234375 -157.61195313 161.0996875 -157.34765625 161.859375 C-155.91991423 165.86279233 -154.35677328 169.42955904 -152 173 C-146.70987876 168.59156563 -141.81191572 163.92440206 -137 159 C-138.42062515 155.7731002 -140.14245441 153.60057488 -142.625 151.109375 C-143.33140625 150.40039062 -144.0378125 149.69140625 -144.765625 148.9609375 C-145.50296875 148.23132813 -146.2403125 147.50171875 -147 146.75 C-147.73734375 146.00492188 -148.4746875 145.25984375 -149.234375 144.4921875 C-149.94078125 143.78835937 -150.6471875 143.08453125 -151.375 142.359375 C-152.02210938 141.71452148 -152.66921875 141.06966797 -153.3359375 140.40527344 C-156.14546277 138.03267551 -156.79390209 138.84183183 -159.6875 141.0625 Z M-106.97119141 140.74414062 C-108.1494751 141.93813477 -108.1494751 141.93813477 -109.3515625 143.15625 C-110.20234375 144.01347656 -111.053125 144.87070313 -111.9296875 145.75390625 C-112.81914063 146.66011719 -113.70859375 147.56632813 -114.625 148.5 C-115.5221875 149.40621094 -116.419375 150.31242188 -117.34375 151.24609375 C-119.56701538 153.49301089 -121.78549657 155.74445216 -124 158 C-119.93161827 162.8911484 -115.65561922 167.47350753 -111.125 171.9375 C-110.23554687 172.82018555 -110.23554687 172.82018555 -109.328125 173.72070312 C-107.88773534 175.14947674 -106.4442033 176.57508132 -105 178 C-97.84198775 172.17371096 -91.47408234 165.5617015 -85 159 C-86.42062515 155.7731002 -88.14245441 153.60057488 -90.625 151.109375 C-91.33140625 150.40039062 -92.0378125 149.69140625 -92.765625 148.9609375 C-93.87164062 147.86652344 -93.87164062 147.86652344 -95 146.75 C-95.73734375 146.00492188 -96.4746875 145.25984375 -97.234375 144.4921875 C-97.94078125 143.78835937 -98.6471875 143.08453125 -99.375 142.359375 C-100.34566406 141.39209473 -100.34566406 141.39209473 -101.3359375 140.40527344 C-103.85307885 138.27958893 -104.52969833 138.58386981 -106.97119141 140.74414062 Z M-54.85766602 140.74414062 C-55.64842529 141.54013672 -56.43918457 142.33613281 -57.25390625 143.15625 C-58.10791016 144.01347656 -58.96191406 144.87070313 -59.84179688 145.75390625 C-60.73962891 146.66011719 -61.63746094 147.56632813 -62.5625 148.5 C-63.91504883 149.85931641 -63.91504883 149.85931641 -65.29492188 151.24609375 C-67.53218341 153.49519265 -69.76708747 155.74658467 -72 158 C-67.93161827 162.8911484 -63.65561922 167.47350753 -59.125 171.9375 C-58.23554688 172.82018555 -58.23554688 172.82018555 -57.328125 173.72070312 C-55.88773534 175.14947674 -54.4442033 176.57508132 -53 178 C-45.84198775 172.17371096 -39.47408234 165.5617015 -33 159 C-37.00620442 154.07809171 -41.33616202 149.55349248 -45.8125 145.0625 C-46.39990967 144.47057861 -46.98731934 143.87865723 -47.5925293 143.26879883 C-50.96078152 138.90679412 -50.96078152 138.90679412 -54.85766602 140.74414062 Z M-3.87939453 140.65234375 C-4.62302246 141.40644531 -5.36665039 142.16054687 -6.1328125 142.9375 C-6.93847656 143.74960938 -7.74414062 144.56171875 -8.57421875 145.3984375 C-9.41597656 146.25695312 -10.25773438 147.11546875 -11.125 148 C-11.97449219 148.85851562 -12.82398438 149.71703125 -13.69921875 150.6015625 C-15.80399951 152.72999249 -17.90398833 154.86293959 -20 157 C-18.5735422 160.2586636 -16.83295838 162.4024854 -14.3046875 164.890625 C-13.58925781 165.59960938 -12.87382812 166.30859375 -12.13671875 167.0390625 C-11.39035156 167.76867187 -10.64398438 168.49828125 -9.875 169.25 C-9.12089844 169.99507812 -8.36679688 170.74015625 -7.58984375 171.5078125 C-5.73099228 173.3431342 -3.86762995 175.1736191 -2 177 C1.2586636 175.5735422 3.4024854 173.83295838 5.890625 171.3046875 C6.59960938 170.58925781 7.30859375 169.87382812 8.0390625 169.13671875 C8.76867187 168.39035156 9.49828125 167.64398438 10.25 166.875 C10.99507812 166.12089844 11.74015625 165.36679688 12.5078125 164.58984375 C14.3431342 162.73099228 16.1736191 160.86762995 18 159 C16.57937485 155.7731002 14.85754559 153.60057488 12.375 151.109375 C11.66859375 150.40039062 10.9621875 149.69140625 10.234375 148.9609375 C9.12835938 147.86652344 9.12835938 147.86652344 8 146.75 C7.26265625 146.00492188 6.5253125 145.25984375 5.765625 144.4921875 C5.05921875 143.78835937 4.3528125 143.08453125 3.625 142.359375 C2.65433594 141.39209473 2.65433594 141.39209473 1.6640625 140.40527344 C-0.7901004 138.3327732 -1.48732111 138.54925815 -3.87939453 140.65234375 Z M48.02880859 140.74414062 C46.8505249 141.93813477 46.8505249 141.93813477 45.6484375 143.15625 C44.79765625 144.01347656 43.946875 144.87070313 43.0703125 145.75390625 C42.18085938 146.66011719 41.29140625 147.56632813 40.375 148.5 C39.4778125 149.40621094 38.580625 150.31242188 37.65625 151.24609375 C35.43298462 153.49301089 33.21450343 155.74445216 31 158 C35.52991796 163.43733055 40.34294216 168.46458931 45.375 173.4375 C46.47908203 174.53481445 46.47908203 174.53481445 47.60546875 175.65429688 C49.40136074 177.43852723 51.19955985 179.22036124 53 181 C58.59494044 172.60758934 61.31288895 156.84085788 60 147 C57.87393985 143.52326634 55.46582456 141.13965106 52 139 C49.81096779 138.77911402 49.81096779 138.77911402 48.02880859 140.74414062 Z M-132.69580078 166.46875 C-133.35563965 167.1390625 -134.01547852 167.809375 -134.6953125 168.5 C-135.76845703 169.5828125 -135.76845703 169.5828125 -136.86328125 170.6875 C-137.98283203 171.8321875 -137.98283203 171.8321875 -139.125 173 C-139.87910156 173.763125 -140.63320312 174.52625 -141.41015625 175.3125 C-143.27796966 177.20395662 -145.14097267 179.09991362 -147 181 C-145.40975677 185.21035405 -143.43286694 188.35237376 -140.6875 191.9375 C-139.48867187 193.50564453 -139.48867187 193.50564453 -138.265625 195.10546875 C-135.9011174 198.12633105 -133.50294163 201.0933581 -131 204 C-123.84198775 198.17371096 -117.47408234 191.5617015 -111 185 C-112.42062515 181.7731002 -114.14245441 179.60057488 -116.625 177.109375 C-117.33140625 176.40039062 -118.0378125 175.69140625 -118.765625 174.9609375 C-119.87164062 173.86652344 -119.87164062 173.86652344 -121 172.75 C-121.73734375 172.00492188 -122.4746875 171.25984375 -123.234375 170.4921875 C-123.94078125 169.78835937 -124.6471875 169.08453125 -125.375 168.359375 C-126.34566406 167.39209473 -126.34566406 167.39209473 -127.3359375 166.40527344 C-129.65773543 164.44455324 -130.40216028 164.48220504 -132.69580078 166.46875 Z M-80.97119141 166.74414062 C-82.1494751 167.93813477 -82.1494751 167.93813477 -83.3515625 169.15625 C-84.20234375 170.01347656 -85.053125 170.87070313 -85.9296875 171.75390625 C-86.81914062 172.66011719 -87.70859375 173.56632813 -88.625 174.5 C-89.5221875 175.40621094 -90.419375 176.31242188 -91.34375 177.24609375 C-93.56701538 179.49301089 -95.78549657 181.74445216 -98 184 C-93.93161827 188.8911484 -89.65561922 193.47350753 -85.125 197.9375 C-84.23554688 198.82018555 -84.23554688 198.82018555 -83.328125 199.72070312 C-81.88773534 201.14947674 -80.4442033 202.57508132 -79 204 C-71.84198775 198.17371096 -65.47408234 191.5617015 -59 185 C-60.42062515 181.7731002 -62.14245441 179.60057488 -64.625 177.109375 C-65.33140625 176.40039062 -66.0378125 175.69140625 -66.765625 174.9609375 C-67.87164062 173.86652344 -67.87164062 173.86652344 -69 172.75 C-69.73734375 172.00492188 -70.4746875 171.25984375 -71.234375 170.4921875 C-71.94078125 169.78835937 -72.6471875 169.08453125 -73.375 168.359375 C-74.34566406 167.39209473 -74.34566406 167.39209473 -75.3359375 166.40527344 C-77.85307885 164.27958893 -78.52969833 164.58386981 -80.97119141 166.74414062 Z M-29.87939453 166.65234375 C-30.62302246 167.40644531 -31.36665039 168.16054687 -32.1328125 168.9375 C-32.93847656 169.74960938 -33.74414062 170.56171875 -34.57421875 171.3984375 C-35.41597656 172.25695312 -36.25773438 173.11546875 -37.125 174 C-37.97449219 174.85851562 -38.82398438 175.71703125 -39.69921875 176.6015625 C-41.80399951 178.72999249 -43.90398833 180.86293959 -46 183 C-44.5735422 186.2586636 -42.83295838 188.4024854 -40.3046875 190.890625 C-39.58925781 191.59960938 -38.87382812 192.30859375 -38.13671875 193.0390625 C-37.39035156 193.76867187 -36.64398438 194.49828125 -35.875 195.25 C-35.12089844 195.99507812 -34.36679688 196.74015625 -33.58984375 197.5078125 C-31.73099228 199.3431342 -29.86762995 201.1736191 -28 203 C-24.7413364 201.5735422 -22.5975146 199.83295838 -20.109375 197.3046875 C-19.40039062 196.58925781 -18.69140625 195.87382812 -17.9609375 195.13671875 C-17.23132813 194.39035156 -16.50171875 193.64398438 -15.75 192.875 C-15.00492188 192.12089844 -14.25984375 191.36679688 -13.4921875 190.58984375 C-11.6568658 188.73099228 -9.8263809 186.86762995 -8 185 C-9.42062515 181.7731002 -11.14245441 179.60057488 -13.625 177.109375 C-14.33140625 176.40039062 -15.0378125 175.69140625 -15.765625 174.9609375 C-16.87164062 173.86652344 -16.87164062 173.86652344 -18 172.75 C-18.73734375 172.00492188 -19.4746875 171.25984375 -20.234375 170.4921875 C-20.94078125 169.78835937 -21.6471875 169.08453125 -22.375 168.359375 C-23.34566406 167.39209473 -23.34566406 167.39209473 -24.3359375 166.40527344 C-26.7901004 164.3327732 -27.48732111 164.54925815 -29.87939453 166.65234375 Z M22.12060547 166.65234375 C21.37697754 167.40644531 20.63334961 168.16054687 19.8671875 168.9375 C19.06152344 169.74960938 18.25585938 170.56171875 17.42578125 171.3984375 C16.58402344 172.25695312 15.74226562 173.11546875 14.875 174 C14.02550781 174.85851562 13.17601562 175.71703125 12.30078125 176.6015625 C10.19600049 178.72999249 8.09601167 180.86293959 6 183 C7.63778045 187.19625909 10.73323182 189.98676785 13.8828125 193.078125 C14.45707977 193.64956238 15.03134705 194.22099976 15.62301636 194.80975342 C17.4523581 196.62792945 19.28854193 198.43901492 21.125 200.25 C22.36894774 201.48391329 23.6124427 202.71828322 24.85546875 203.953125 C27.89842367 206.97406743 30.94753254 209.98867092 34 213 C38.02830963 209.09154407 38.02830963 209.09154407 41.38671875 204.625 C41.76763672 204.03203125 42.14855469 203.4390625 42.54101562 202.828125 C42.91935547 202.22484375 43.29769531 201.6215625 43.6875 201 C44.07744141 200.39671875 44.46738281 199.7934375 44.86914062 199.171875 C46.96881496 195.86982306 48.60513031 192.64602682 50 189 C46.62501264 185.57568181 43.24358951 182.15790288 39.85595703 178.74609375 C38.70375906 177.58382014 37.55336008 176.41976033 36.40478516 175.25390625 C34.75629586 173.58123721 33.10150495 171.91503765 31.4453125 170.25 C30.93066437 169.7250293 30.41601624 169.20005859 29.88577271 168.65917969 C28.62791148 167.40092288 27.31812737 166.19497502 26 165 C23.83325987 164.77990509 23.83325987 164.77990509 22.12060547 166.65234375 Z M-54.85766602 191.74414062 C-55.64842529 192.54013672 -56.43918457 193.33613281 -57.25390625 194.15625 C-58.10791016 195.01347656 -58.96191406 195.87070313 -59.84179688 196.75390625 C-60.73962891 197.66011719 -61.63746094 198.56632813 -62.5625 199.5 C-63.91504883 200.85931641 -63.91504883 200.85931641 -65.29492188 202.24609375 C-67.53218341 204.49519265 -69.76708747 206.74658467 -72 209 C-70.5735422 212.2586636 -68.83295838 214.4024854 -66.3046875 216.890625 C-65.58925781 217.59960938 -64.87382812 218.30859375 -64.13671875 219.0390625 C-63.39035156 219.76867187 -62.64398438 220.49828125 -61.875 221.25 C-61.12089844 221.99507812 -60.36679688 222.74015625 -59.58984375 223.5078125 C-57.73099228 225.3431342 -55.86762995 227.1736191 -54 229 C-50.63664406 227.54254576 -48.45465995 225.68882146 -45.890625 223.0859375 C-45.13652344 222.32539063 -44.38242188 221.56484375 -43.60546875 220.78125 C-42.43951172 219.59015625 -42.43951172 219.59015625 -41.25 218.375 C-40.45722656 217.57320312 -39.66445312 216.77140625 -38.84765625 215.9453125 C-36.89385507 213.96797154 -34.94487897 211.98611091 -33 210 C-37.0612003 205.12748369 -41.31273219 200.53148262 -45.8125 196.0625 C-46.39708984 195.47404297 -46.98167969 194.88558594 -47.58398438 194.27929688 C-50.95463196 189.90961549 -50.95463196 189.90961549 -54.85766602 191.74414062 Z M-106.97119141 192.74414062 C-108.1494751 193.93813477 -108.1494751 193.93813477 -109.3515625 195.15625 C-110.20234375 196.01347656 -111.053125 196.87070313 -111.9296875 197.75390625 C-112.81914063 198.66011719 -113.70859375 199.56632813 -114.625 200.5 C-115.5221875 201.40621094 -116.419375 202.31242188 -117.34375 203.24609375 C-119.56701538 205.49301089 -121.78549657 207.74445216 -124 210 C-117.66673601 216.49131335 -110.66941027 222.15616194 -103 227 C-99.95667235 225.6415798 -97.87690849 224.11536976 -95.546875 221.7421875 C-94.928125 221.11699219 -94.309375 220.49179688 -93.671875 219.84765625 C-93.03765625 219.19667969 -92.4034375 218.54570312 -91.75 217.875 C-91.1003125 217.21628906 -90.450625 216.55757812 -89.78125 215.87890625 C-88.18288273 214.25703357 -86.58938103 212.6306719 -85 211 C-86.42062515 207.7731002 -88.14245441 205.60057488 -90.625 203.109375 C-91.33140625 202.40039062 -92.0378125 201.69140625 -92.765625 200.9609375 C-93.87164062 199.86652344 -93.87164062 199.86652344 -95 198.75 C-95.73734375 198.00492188 -96.4746875 197.25984375 -97.234375 196.4921875 C-97.94078125 195.78835937 -98.6471875 195.08453125 -99.375 194.359375 C-100.34566406 193.39209473 -100.34566406 193.39209473 -101.3359375 192.40527344 C-103.85307885 190.27958893 -104.52969833 190.58386981 -106.97119141 192.74414062 Z M-3.87939453 192.65234375 C-4.62302246 193.40644531 -5.36665039 194.16054687 -6.1328125 194.9375 C-6.93847656 195.74960938 -7.74414062 196.56171875 -8.57421875 197.3984375 C-9.41597656 198.25695312 -10.25773438 199.11546875 -11.125 200 C-11.97449219 200.85851562 -12.82398438 201.71703125 -13.69921875 202.6015625 C-15.80399951 204.72999249 -17.90398833 206.86293959 -20 209 C-18.4152642 212.86328627 -15.94043113 215.28876923 -12.9921875 218.203125 C-12.50670441 218.6857782 -12.02122131 219.1684314 -11.52102661 219.66571045 C-9.97700134 221.19858562 -8.42615176 222.72434004 -6.875 224.25 C-5.82375991 225.29120361 -4.77297343 226.33286541 -3.72265625 227.375 C-1.15366996 229.92199464 1.42148161 232.46265177 4 235 C12.99065215 231.47968757 20.55326369 226.07970259 28 220 C23.07715135 214.0306274 17.72409764 208.53790055 12.2578125 203.07250977 C10.73407487 201.54655166 9.2185557 200.01271855 7.703125 198.47851562 C6.7348633 197.50732543 5.76613071 196.53660442 4.796875 195.56640625 C3.92385742 194.68927979 3.05083984 193.81215332 2.15136719 192.90844727 C-0.57252507 190.49212114 -1.13309314 190.23782468 -3.87939453 192.65234375 Z M-80.49047852 217.37695312 C-81.11365967 218.00537109 -81.73684082 218.63378906 -82.37890625 219.28125 C-83.05244141 219.95800781 -83.72597656 220.63476562 -84.41992188 221.33203125 C-85.12697266 222.04746094 -85.83402344 222.76289063 -86.5625 223.5 C-87.27341797 224.21542969 -87.98433594 224.93085938 -88.71679688 225.66796875 C-90.48010597 227.44311213 -92.2410484 229.22054045 -94 231 C-91.31948842 233.15213059 -88.88652936 234.60309886 -85.6640625 235.7890625 C-84.84679687 236.09070313 -84.02953125 236.39234375 -83.1875 236.703125 C-82.341875 237.00734375 -81.49625 237.3115625 -80.625 237.625 C-79.78710938 237.93695313 -78.94921875 238.24890625 -78.0859375 238.5703125 C-75.73708006 239.42712842 -73.37553809 240.22087439 -71 241 C-69.93523437 241.37898438 -68.87046875 241.75796875 -67.7734375 242.1484375 C-64.96875777 242.28700209 -64.96875777 242.28700209 -63.30322266 240.49462891 C-61.7628609 238.72121853 -60.35069603 236.92067059 -59 235 C-62.14182102 231.8293305 -65.28910875 228.66414446 -68.4375 225.5 C-69.33533203 224.59378906 -70.23316406 223.68757812 -71.15820312 222.75390625 C-72.01220703 221.89667969 -72.86621094 221.03945312 -73.74609375 220.15625 C-74.93223267 218.96225586 -74.93223267 218.96225586 -76.14233398 217.74414062 C-78.34217263 215.47938916 -78.34217263 215.47938916 -80.49047852 217.37695312 Z M-28.85766602 217.74414062 C-29.64842529 218.54013672 -30.43918457 219.33613281 -31.25390625 220.15625 C-32.10791016 221.01347656 -32.96191406 221.87070313 -33.84179688 222.75390625 C-34.73962891 223.66011719 -35.63746094 224.56632813 -36.5625 225.5 C-37.91504883 226.85931641 -37.91504883 226.85931641 -39.29492188 228.24609375 C-41.53218341 230.49519265 -43.76708747 232.74658467 -46 235 C-43.99783217 239.15834857 -42.21028265 242.80885823 -38 245 C-27.8855657 245.96031004 -12.61587504 243.74391669 -4 238 C-7.11165905 234.8636964 -10.22653321 231.73063335 -13.34448242 228.60058594 C-14.40560358 227.53442344 -15.4658272 226.46736689 -16.52514648 225.39941406 C-18.04438223 223.86810398 -19.56677416 222.3399957 -21.08984375 220.8125 C-22.00628662 219.89082031 -22.92272949 218.96914062 -23.86694336 218.01953125 C-26.39292244 215.36789854 -26.39292244 215.36789854 -28.85766602 217.74414062 Z M73 225 C72.64284912 225.44802979 72.28569824 225.89605957 71.91772461 226.35766602 C70.26202879 228.42948644 68.59981422 230.4959867 66.9375 232.5625 C66.37611328 233.26697266 65.81472656 233.97144531 65.23632812 234.69726562 C59.49297305 241.81902591 53.40066999 247.96967874 46.0625 253.4375 C45.47404297 253.88287109 44.88558594 254.32824219 44.27929688 254.78710938 C42.85649263 255.86288819 41.4287821 256.93217338 40 258 C41.26362535 260.52725069 42.10732669 260.63719987 44.69140625 261.6640625 C45.46403809 261.97778809 46.23666992 262.29151367 47.03271484 262.61474609 C47.86754395 262.94812988 48.70237305 263.28151367 49.5625 263.625 C56.81792853 266.5906925 63.8680858 269.79324163 70.83422852 273.38525391 C78.56258033 277.66289905 78.56258033 277.66289905 87 277 C89.93797922 274.71490505 91.62357569 272.99140558 92.94921875 269.5 C93.02857899 264.03024829 90.47007812 259.97482729 88 255.1875 C86.97656301 253.1386651 85.95705905 251.08786108 84.94140625 249.03515625 C84.43883301 248.0208252 83.93625977 247.00649414 83.41845703 245.96142578 C81.07100601 241.06046522 79.05649002 236.03601961 77.10742188 230.96557617 C75.8833647 227.29684064 75.8833647 227.29684064 73 225 Z M-53 242 C-53.33 242.66 -53.66 243.32 -54 244 C-53.01 243.67 -52.02 243.34 -51 243 C-51.66 242.67 -52.32 242.34 -53 242 Z " fill="#478EF6" transform="translate(215,30)"/>
<path d="M0 0 C1.93719378 -0.05406122 3.87481921 -0.09282025 5.8125 -0.125 C6.89144531 -0.14820313 7.97039062 -0.17140625 9.08203125 -0.1953125 C12 0 12 0 15 2 C15.33 1.67 15.66 1.34 16 1 C19.66344611 0.86431681 22.50615721 0.83538574 26 2 C24.66666667 4.66666667 23.33333333 7.33333333 22 10 C27.61 15.61 33.22 21.22 39 27 C42.20815804 25.39592098 43.66358318 24.58286066 46.015625 22.1796875 C46.54414063 21.64472656 47.07265625 21.10976562 47.6171875 20.55859375 C48.15601563 20.00300781 48.69484375 19.44742188 49.25 18.875 C50.08144531 18.03001953 50.08144531 18.03001953 50.9296875 17.16796875 C52.29104485 15.78313972 53.64614859 14.39216796 55 13 C59.10801767 14.18676066 60.89448334 14.89448334 64 18 C58.72 23.28 53.44 28.56 48 34 C49.72629846 37.45259693 50.83225473 39.07238601 53.4765625 41.671875 C54.146875 42.33574219 54.8171875 42.99960938 55.5078125 43.68359375 C56.20648438 44.36550781 56.90515625 45.04742187 57.625 45.75 C58.33140625 46.44738281 59.0378125 47.14476562 59.765625 47.86328125 C61.50598703 49.58012488 63.25084981 51.29211832 65 53 C68.2720594 51.57888017 70.31965496 49.86464013 72.75 47.26953125 C73.4409375 46.54958984 74.131875 45.82964844 74.84375 45.08789062 C76.28711156 43.56477811 77.72458502 42.03606515 79.15625 40.50195312 C79.8471875 39.78587891 80.538125 39.06980469 81.25 38.33203125 C82.18585938 37.33780151 82.18585938 37.33780151 83.140625 36.32348633 C85 35 85 35 87.12109375 35.2097168 C89.38523055 36.16203109 90.58123723 36.98386343 92 39 C91.61866749 42.76460202 89.82424614 44.52740378 87.18359375 47.109375 C86.41982422 47.86347656 85.65605469 48.61757812 84.86914062 49.39453125 C84.06669922 50.17183594 83.26425781 50.94914062 82.4375 51.75 C81.22803711 52.93916016 81.22803711 52.93916016 79.99414062 54.15234375 C78.00266222 56.10847046 76.00452279 58.05725719 74 60 C75.39347376 63.15204981 77.02485079 65.26171773 79.4765625 67.671875 C80.48203125 68.66767578 80.48203125 68.66767578 81.5078125 69.68359375 C82.20648438 70.36550781 82.90515625 71.04742187 83.625 71.75 C84.33140625 72.44738281 85.0378125 73.14476563 85.765625 73.86328125 C87.50598703 75.58012488 89.25084981 77.29211832 91 79 C94.04332765 77.6415798 96.12309151 76.11536976 98.453125 73.7421875 C99.38125 72.80439453 99.38125 72.80439453 100.328125 71.84765625 C100.96234375 71.19667969 101.5965625 70.54570313 102.25 69.875 C102.8996875 69.21628906 103.549375 68.55757813 104.21875 67.87890625 C105.81711727 66.25703357 107.41061897 64.6306719 109 63 C112.00469351 65.59496258 112.36858796 66.9214699 114 71 C109.05 75.95 104.1 80.9 99 86 C103.48422584 91.30719951 103.48422584 91.30719951 108.2109375 96.30859375 C108.73300781 96.82744141 109.25507813 97.34628906 109.79296875 97.88085938 C110.57607422 98.65139648 110.57607422 98.65139648 111.375 99.4375 C111.92027344 99.97826172 112.46554687 100.51902344 113.02734375 101.07617188 C114.34923464 102.38646723 115.67427618 103.69358284 117 105 C117.94875 104.175 118.8975 103.35 119.875 102.5 C122.75 100 122.75 100 125 100 C125.16834933 101.77067416 125.33461909 103.54154612 125.5 105.3125 C125.5928125 106.29863281 125.685625 107.28476563 125.78125 108.30078125 C126 111 126 111 126 114 C126.33 114.33 126.66 114.66 127 115 C127.07244053 117.01964199 127.08377188 119.04167124 127.0625 121.0625 C127.05347656 122.16722656 127.04445313 123.27195312 127.03515625 124.41015625 C127.01775391 125.69212891 127.01775391 125.69212891 127 127 C126.54109375 126.566875 126.0821875 126.13375 125.609375 125.6875 C124.68898438 124.8521875 124.68898438 124.8521875 123.75 124 C123.14671875 123.443125 122.5434375 122.88625 121.921875 122.3125 C119.837347 120.62402557 119.837347 120.62402557 116 121 C113.88487588 122.56273557 113.88487588 122.56273557 111.890625 124.71875 C111.13652344 125.48574219 110.38242187 126.25273437 109.60546875 127.04296875 C108.82816406 127.85378906 108.05085937 128.66460937 107.25 129.5 C106.45722656 130.31082031 105.66445312 131.12164062 104.84765625 131.95703125 C102.88918302 133.9626966 100.94062837 135.97708798 99 138 C103.52991796 143.43733055 108.34294216 148.46458931 113.375 153.4375 C114.47908203 154.53481445 114.47908203 154.53481445 115.60546875 155.65429688 C117.40136074 157.43852723 119.19955985 159.22036124 121 161 C119.125 166.75 119.125 166.75 118 169 C114.23396131 167.43717018 111.86360849 165.0936525 109.015625 162.2109375 C108.32493927 161.51600693 108.32493927 161.51600693 107.62030029 160.80703735 C106.15874922 159.33434102 104.70432832 157.85482597 103.25 156.375 C102.25697389 155.37193678 101.26348911 154.36932743 100.26953125 153.3671875 C97.84102059 150.91669165 95.41885325 148.4600333 93 146 C89.84795019 147.39347376 87.73828227 149.02485079 85.328125 151.4765625 C84.66425781 152.146875 84.00039062 152.8171875 83.31640625 153.5078125 C82.63449219 154.20648438 81.95257813 154.90515625 81.25 155.625 C80.55261719 156.33140625 79.85523438 157.0378125 79.13671875 157.765625 C77.41987512 159.50598703 75.70788168 161.25084981 74 163 C75.60794521 167.10248591 78.57533114 169.74541225 81.69921875 172.71875 C82.8370056 173.82639468 83.97436276 174.93448086 85.11132812 176.04296875 C86.90392005 177.77961149 88.70011477 179.5120604 90.50415039 181.23681641 C92.24692072 182.90727753 93.97384902 184.59284832 95.69921875 186.28125 C96.24495041 186.79490112 96.79068207 187.30855225 97.35295105 187.83776855 C98.8503418 189.31445313 98.8503418 189.31445313 101 192 C100.89628093 194.68559339 100.25019866 195.65448757 98.6875 197.8125 C97 199 97 199 95.07208252 198.73048401 C91.63237022 197.51786105 89.41414631 194.77752532 86.921875 192.21484375 C86.35043762 191.63916153 85.77900024 191.06347931 85.19024658 190.47035217 C83.36966198 188.63299681 81.55979432 186.78547868 79.75 184.9375 C78.51631747 183.68876862 77.28195022 182.44071331 76.046875 181.19335938 C73.02325345 178.1366898 70.00920079 175.07086474 67 172 C63.84795019 173.39347376 61.73828227 175.02485079 59.328125 177.4765625 C58.66425781 178.146875 58.00039062 178.8171875 57.31640625 179.5078125 C56.63449219 180.20648438 55.95257813 180.90515625 55.25 181.625 C54.55261719 182.33140625 53.85523438 183.0378125 53.13671875 183.765625 C51.41987512 185.50598703 49.70788168 187.25084981 48 189 C49.56282982 192.76603869 51.9063475 195.13639151 54.7890625 197.984375 C55.25234955 198.44483215 55.7156366 198.90528931 56.19296265 199.37969971 C57.66565898 200.84125078 59.14517403 202.29567168 60.625 203.75 C61.62806322 204.74302611 62.63067257 205.73651089 63.6328125 206.73046875 C66.08330835 209.15897941 68.5399667 211.58114675 71 214 C70.67 214.99 70.34 215.98 70 217 C66.535 217.99 66.535 217.99 63 219 C55.74 211.74 48.48 204.48 41 197 C35.69280049 201.48422584 35.69280049 201.48422584 30.69140625 206.2109375 C30.17255859 206.73300781 29.65371094 207.25507813 29.11914062 207.79296875 C28.34860352 208.57607422 28.34860352 208.57607422 27.5625 209.375 C27.02173828 209.92027344 26.48097656 210.46554687 25.92382812 211.02734375 C24.61353277 212.34923464 23.30641716 213.67427618 22 215 C23.27379719 217.73806872 24.65243188 219.96597375 26.625 222.25 C27.800625 223.61125 27.800625 223.61125 29 225 C27.06280622 225.05406122 25.12518079 225.09282025 23.1875 225.125 C22.10855469 225.14820313 21.02960938 225.17140625 19.91796875 225.1953125 C17 225 17 225 14 223 C13.67 223.33 13.34 223.66 13 224 C11.14227838 223.91015699 9.28752015 223.75388139 7.4375 223.5625 C6.42558594 223.46066406 5.41367188 223.35882813 4.37109375 223.25390625 C3.58863281 223.17011719 2.80617188 223.08632813 2 223 C3.42431487 219.93224489 4.90780074 217.78959901 7 215 C1.06 209.06 -4.88 203.12 -11 197 C-15.19093221 200.59222761 -19.10213793 203.98063236 -22.9375 207.875 C-23.70964844 208.65617188 -24.48179688 209.43734375 -25.27734375 210.2421875 C-25.84582031 210.82226562 -26.41429688 211.40234375 -27 212 C-29.64 210.68 -32.28 209.36 -35 208 C-30.01595832 201.96668638 -24.58084697 196.4815829 -19 191 C-20.39347376 187.84795019 -22.02485079 185.73828227 -24.4765625 183.328125 C-25.146875 182.66425781 -25.8171875 182.00039062 -26.5078125 181.31640625 C-27.20648438 180.63449219 -27.90515625 179.95257813 -28.625 179.25 C-29.33140625 178.55261719 -30.0378125 177.85523438 -30.765625 177.13671875 C-32.50598703 175.41987512 -34.25084981 173.70788168 -36 172 C-39.2720594 173.42111983 -41.31965496 175.13535987 -43.75 177.73046875 C-44.4409375 178.45041016 -45.131875 179.17035156 -45.84375 179.91210938 C-47.28711156 181.43522189 -48.72458502 182.96393485 -50.15625 184.49804688 C-50.8471875 185.21412109 -51.538125 185.93019531 -52.25 186.66796875 C-52.87390625 187.33078857 -53.4978125 187.9936084 -54.140625 188.67651367 C-56 190 -56 190 -58.12109375 189.7902832 C-60.38523055 188.83796891 -61.58123723 188.01613657 -63 186 C-62.61866749 182.23539798 -60.82424614 180.47259622 -58.18359375 177.890625 C-57.41982422 177.13652344 -56.65605469 176.38242188 -55.86914062 175.60546875 C-55.06669922 174.82816406 -54.26425781 174.05085937 -53.4375 173.25 C-52.63119141 172.45722656 -51.82488281 171.66445312 -50.99414062 170.84765625 C-49.00266222 168.89152954 -47.00452279 166.94274281 -45 165 C-46.39347376 161.84795019 -48.02485079 159.73828227 -50.4765625 157.328125 C-51.146875 156.66425781 -51.8171875 156.00039062 -52.5078125 155.31640625 C-53.20648438 154.63449219 -53.90515625 153.95257813 -54.625 153.25 C-55.33140625 152.55261719 -56.0378125 151.85523438 -56.765625 151.13671875 C-58.50598703 149.41987512 -60.25084981 147.70788168 -62 146 C-65.04332765 147.3584202 -67.12309151 148.88463024 -69.453125 151.2578125 C-70.071875 151.88300781 -70.690625 152.50820312 -71.328125 153.15234375 C-71.96234375 153.80332031 -72.5965625 154.45429688 -73.25 155.125 C-73.8996875 155.78371094 -74.549375 156.44242188 -75.21875 157.12109375 C-76.81711727 158.74296643 -78.41061897 160.3693281 -80 162 C-83.43015461 159.19350987 -83.4009765 157.79707049 -85 153 C-80.38 148.38 -75.76 143.76 -71 139 C-72.72629846 135.54740307 -73.83225473 133.92761399 -76.4765625 131.328125 C-77.146875 130.66425781 -77.8171875 130.00039062 -78.5078125 129.31640625 C-79.55582031 128.29353516 -79.55582031 128.29353516 -80.625 127.25 C-81.33140625 126.55261719 -82.0378125 125.85523438 -82.765625 125.13671875 C-84.50598703 123.41987512 -86.25084981 121.70788168 -88 120 C-90.93446886 121.41791563 -93.43332409 122.98332607 -96 125 C-97.17776237 121.31949259 -97.06978862 117.83837399 -97 114 C-97 113.01 -97 112.02 -97 111 C-97.33 110.67 -97.66 110.34 -98 110 C-98.07244053 107.98035801 -98.08377188 105.95832876 -98.0625 103.9375 C-98.05347656 102.83277344 -98.04445312 101.72804688 -98.03515625 100.58984375 C-98.02355469 99.73519531 -98.01195312 98.88054687 -98 98 C-97.54109375 98.433125 -97.0821875 98.86625 -96.609375 99.3125 C-95.99578125 99.869375 -95.3821875 100.42625 -94.75 101 C-94.14671875 101.556875 -93.5434375 102.11375 -92.921875 102.6875 C-90.837347 104.37597443 -90.837347 104.37597443 -87 104 C-84.88487588 102.43726443 -84.88487588 102.43726443 -82.890625 100.28125 C-82.13652344 99.51425781 -81.38242188 98.74726563 -80.60546875 97.95703125 C-79.82816406 97.14621094 -79.05085938 96.33539063 -78.25 95.5 C-77.45722656 94.68917969 -76.66445312 93.87835938 -75.84765625 93.04296875 C-73.88918302 91.0373034 -71.94062837 89.02291202 -70 87 C-73.20891385 83.11685939 -76.4733698 79.46854187 -80.12109375 75.9921875 C-80.82814453 75.31542969 -81.53519531 74.63867188 -82.26367188 73.94140625 C-83.7311871 72.54640975 -85.20803301 71.16117288 -86.69335938 69.78515625 C-87.39138672 69.11097656 -88.08941406 68.43679687 -88.80859375 67.7421875 C-89.76463501 66.84282471 -89.76463501 66.84282471 -90.73999023 65.92529297 C-92 64 -92 64 -91.82446289 61.51611328 C-91.06332123 59.19324506 -90.18561775 57.13411195 -89 55 C-83.19108254 59.81867247 -77.86934448 65.01256408 -72.5625 70.375 C-71.73556641 71.20644531 -70.90863281 72.03789063 -70.05664062 72.89453125 C-68.03544469 74.9274104 -66.01663665 76.96259963 -64 79 C-60.84795019 77.60652624 -58.73828227 75.97514921 -56.328125 73.5234375 C-55.66425781 72.853125 -55.00039062 72.1828125 -54.31640625 71.4921875 C-53.63449219 70.79351562 -52.95257813 70.09484375 -52.25 69.375 C-51.55261719 68.66859375 -50.85523438 67.9621875 -50.13671875 67.234375 C-48.41987512 65.49401297 -46.70788168 63.74915019 -45 62 C-46.60794521 57.89751409 -49.57533114 55.25458775 -52.69921875 52.28125 C-53.8370056 51.17360532 -54.97436276 50.06551914 -56.11132812 48.95703125 C-57.90392005 47.22038851 -59.70011477 45.4879396 -61.50415039 43.76318359 C-63.24692072 42.09272247 -64.97384902 40.40715168 -66.69921875 38.71875 C-67.24495041 38.20509888 -67.79068207 37.69144775 -68.35295105 37.16223145 C-69.8503418 35.68554688 -69.8503418 35.68554688 -72 33 C-71.89628093 30.31440661 -71.25019866 29.34551243 -69.6875 27.1875 C-68 26 -68 26 -66.07208252 26.26951599 C-62.63237022 27.48213895 -60.41414631 30.22247468 -57.921875 32.78515625 C-57.35043762 33.36083847 -56.77900024 33.93652069 -56.19024658 34.52964783 C-54.36966198 36.36700319 -52.55979432 38.21452132 -50.75 40.0625 C-49.51631747 41.31123138 -48.28195022 42.55928669 -47.046875 43.80664062 C-44.02325345 46.8633102 -41.00920079 49.92913526 -38 53 C-34.84795019 51.60652624 -32.73828227 49.97514921 -30.328125 47.5234375 C-29.33232422 46.51796875 -29.33232422 46.51796875 -28.31640625 45.4921875 C-27.63449219 44.79351562 -26.95257813 44.09484375 -26.25 43.375 C-25.55261719 42.66859375 -24.85523437 41.9621875 -24.13671875 41.234375 C-22.41987512 39.49401297 -20.70788168 37.74915019 -19 36 C-20.5847358 32.13671373 -23.05956887 29.71123077 -26.0078125 26.796875 C-26.49329559 26.3142218 -26.97877869 25.8315686 -27.47897339 25.33428955 C-29.02299866 23.80141438 -30.57384824 22.27565996 -32.125 20.75 C-33.17624009 19.70879639 -34.22702657 18.66713459 -35.27734375 17.625 C-37.84633004 15.07800536 -40.42148161 12.53734823 -43 10 C-42 8 -42 8 -39.6875 6.8125 C-36.6816981 5.90376919 -35.86795004 5.8707855 -33 7 C-30.61816406 9.04125977 -30.61816406 9.04125977 -28.015625 11.69140625 C-27.55516785 12.15610825 -27.09471069 12.62081024 -26.62030029 13.09959412 C-25.15632189 14.58031819 -23.70313959 16.07114519 -22.25 17.5625 C-21.25720551 18.57034664 -20.2637233 19.57751633 -19.26953125 20.58398438 C-16.83833527 23.04819461 -14.41671132 25.52157329 -12 28 C-7.29658874 24.07711742 -2.85726049 19.98981304 1.4375 15.625 C1.97826172 15.07972656 2.51902344 14.53445312 3.07617188 13.97265625 C4.38646723 12.65076536 5.69358284 11.32572382 7 10 C5.72620281 7.26193128 4.34756812 5.03402625 2.375 2.75 C1.199375 1.38875 1.199375 1.38875 0 0 Z M12.14233398 16.74414062 C11.35157471 17.54013672 10.56081543 18.33613281 9.74609375 19.15625 C8.89208984 20.01347656 8.03808594 20.87070313 7.15820312 21.75390625 C6.26037109 22.66011719 5.36253906 23.56632812 4.4375 24.5 C3.08495117 25.85931641 3.08495117 25.85931641 1.70507812 27.24609375 C-0.53218341 29.49519265 -2.76708747 31.74658467 -5 34 C-3.5735422 37.2586636 -1.83295838 39.4024854 0.6953125 41.890625 C1.41074219 42.59960938 2.12617188 43.30859375 2.86328125 44.0390625 C3.60964844 44.76867187 4.35601562 45.49828125 5.125 46.25 C5.87910156 46.99507812 6.63320312 47.74015625 7.41015625 48.5078125 C9.26900772 50.3431342 11.13237005 52.1736191 13 54 C16.36335594 52.54254576 18.54534005 50.68882146 21.109375 48.0859375 C21.86347656 47.32539062 22.61757812 46.56484375 23.39453125 45.78125 C24.56048828 44.59015625 24.56048828 44.59015625 25.75 43.375 C26.54277344 42.57320312 27.33554688 41.77140625 28.15234375 40.9453125 C30.10614493 38.96797154 32.05512103 36.98611091 34 35 C29.9387997 30.12748369 25.68726781 25.53148262 21.1875 21.0625 C20.60291016 20.47404297 20.01832031 19.88558594 19.41601562 19.27929688 C16.04536804 14.90961549 16.04536804 14.90961549 12.14233398 16.74414062 Z M-13.85766602 42.74414062 C-14.64842529 43.54013672 -15.43918457 44.33613281 -16.25390625 45.15625 C-17.10791016 46.01347656 -17.96191406 46.87070313 -18.84179688 47.75390625 C-19.73962891 48.66011719 -20.63746094 49.56632812 -21.5625 50.5 C-22.91504883 51.85931641 -22.91504883 51.85931641 -24.29492188 53.24609375 C-26.53218341 55.49519265 -28.76708747 57.74658467 -31 60 C-26.93161827 64.8911484 -22.65561922 69.47350753 -18.125 73.9375 C-17.23554688 74.82018555 -17.23554688 74.82018555 -16.328125 75.72070312 C-14.88773534 77.14947674 -13.4442033 78.57508132 -12 80 C-4.84198775 74.17371096 1.52591766 67.5617015 8 61 C3.99379558 56.07809171 -0.33616202 51.55349248 -4.8125 47.0625 C-5.39990967 46.47057861 -5.98731934 45.87865723 -6.5925293 45.26879883 C-9.96078152 40.90679412 -9.96078152 40.90679412 -13.85766602 42.74414062 Z M38.14233398 42.74414062 C37.35157471 43.54013672 36.56081543 44.33613281 35.74609375 45.15625 C34.89208984 46.01347656 34.03808594 46.87070313 33.15820312 47.75390625 C32.26037109 48.66011719 31.36253906 49.56632812 30.4375 50.5 C29.08495117 51.85931641 29.08495117 51.85931641 27.70507812 53.24609375 C25.46781659 55.49519265 23.23291253 57.74658467 21 60 C22.4264578 63.2586636 24.16704162 65.4024854 26.6953125 67.890625 C27.41074219 68.59960938 28.12617188 69.30859375 28.86328125 70.0390625 C29.60964844 70.76867187 30.35601562 71.49828125 31.125 72.25 C31.87910156 72.99507812 32.63320312 73.74015625 33.41015625 74.5078125 C35.26900772 76.3431342 37.13237005 78.1736191 39 80 C42.36335594 78.54254576 44.54534005 76.68882146 47.109375 74.0859375 C47.86347656 73.32539062 48.61757812 72.56484375 49.39453125 71.78125 C50.56048828 70.59015625 50.56048828 70.59015625 51.75 69.375 C52.54277344 68.57320312 53.33554688 67.77140625 54.15234375 66.9453125 C56.10614493 64.96797154 58.05512103 62.98611091 60 61 C55.9387997 56.12748369 51.68726781 51.53148262 47.1875 47.0625 C46.60291016 46.47404297 46.01832031 45.88558594 45.41601562 45.27929688 C42.04536804 40.90961549 42.04536804 40.90961549 38.14233398 42.74414062 Z M-39.85766602 68.74414062 C-40.64842529 69.54013672 -41.43918457 70.33613281 -42.25390625 71.15625 C-43.10791016 72.01347656 -43.96191406 72.87070313 -44.84179688 73.75390625 C-45.73962891 74.66011719 -46.63746094 75.56632812 -47.5625 76.5 C-48.91504883 77.85931641 -48.91504883 77.85931641 -50.29492188 79.24609375 C-52.53218341 81.49519265 -54.76708747 83.74658467 -57 86 C-52.93161827 90.8911484 -48.65561922 95.47350753 -44.125 99.9375 C-43.23554687 100.82018555 -43.23554687 100.82018555 -42.328125 101.72070312 C-40.88773534 103.14947674 -39.4442033 104.57508132 -38 106 C-30.84198775 100.17371096 -24.47408234 93.5617015 -18 87 C-22.00620442 82.07809171 -26.33616202 77.55349248 -30.8125 73.0625 C-31.39990967 72.47057861 -31.98731934 71.87865723 -32.5925293 71.26879883 C-35.96078152 66.90679412 -35.96078152 66.90679412 -39.85766602 68.74414062 Z M12.14233398 68.74414062 C11.35157471 69.54013672 10.56081543 70.33613281 9.74609375 71.15625 C8.89208984 72.01347656 8.03808594 72.87070313 7.15820312 73.75390625 C6.26037109 74.66011719 5.36253906 75.56632812 4.4375 76.5 C3.08495117 77.85931641 3.08495117 77.85931641 1.70507812 79.24609375 C-0.53218341 81.49519265 -2.76708747 83.74658467 -5 86 C-0.93161827 90.8911484 3.34438078 95.47350753 7.875 99.9375 C8.76445312 100.82018555 8.76445312 100.82018555 9.671875 101.72070312 C11.11226466 103.14947674 12.5557967 104.57508132 14 106 C21.15801225 100.17371096 27.52591766 93.5617015 34 87 C29.99379558 82.07809171 25.66383798 77.55349248 21.1875 73.0625 C20.60009033 72.47057861 20.01268066 71.87865723 19.4074707 71.26879883 C16.03921848 66.90679412 16.03921848 66.90679412 12.14233398 68.74414062 Z M64.14233398 68.74414062 C63.35157471 69.54013672 62.56081543 70.33613281 61.74609375 71.15625 C60.89208984 72.01347656 60.03808594 72.87070313 59.15820312 73.75390625 C58.26037109 74.66011719 57.36253906 75.56632812 56.4375 76.5 C55.08495117 77.85931641 55.08495117 77.85931641 53.70507812 79.24609375 C51.46781659 81.49519265 49.23291253 83.74658467 47 86 C48.4264578 89.2586636 50.16704162 91.4024854 52.6953125 93.890625 C53.41074219 94.59960938 54.12617188 95.30859375 54.86328125 96.0390625 C55.60964844 96.76867187 56.35601562 97.49828125 57.125 98.25 C57.87910156 98.99507812 58.63320312 99.74015625 59.41015625 100.5078125 C61.26900772 102.3431342 63.13237005 104.1736191 65 106 C68.36335594 104.54254576 70.54534005 102.68882146 73.109375 100.0859375 C73.86347656 99.32539063 74.61757812 98.56484375 75.39453125 97.78125 C76.56048828 96.59015625 76.56048828 96.59015625 77.75 95.375 C78.54277344 94.57320312 79.33554688 93.77140625 80.15234375 92.9453125 C82.10614493 90.96797154 84.05512103 88.98611091 86 87 C81.9387997 82.12748369 77.68726781 77.53148262 73.1875 73.0625 C72.60291016 72.47404297 72.01832031 71.88558594 71.41601562 71.27929688 C68.04536804 66.90961549 68.04536804 66.90961549 64.14233398 68.74414062 Z M-65.97119141 94.74414062 C-67.1494751 95.93813477 -67.1494751 95.93813477 -68.3515625 97.15625 C-69.20234375 98.01347656 -70.053125 98.87070313 -70.9296875 99.75390625 C-71.81914063 100.66011719 -72.70859375 101.56632812 -73.625 102.5 C-74.5221875 103.40621094 -75.419375 104.31242187 -76.34375 105.24609375 C-78.56701538 107.49301089 -80.78549657 109.74445216 -83 112 C-78.93161827 116.8911484 -74.65561922 121.47350753 -70.125 125.9375 C-69.23554687 126.82018555 -69.23554687 126.82018555 -68.328125 127.72070312 C-66.88773534 129.14947674 -65.4442033 130.57508132 -64 132 C-56.84198775 126.17371096 -50.47408234 119.5617015 -44 113 C-45.42062515 109.7731002 -47.14245441 107.60057488 -49.625 105.109375 C-50.33140625 104.40039062 -51.0378125 103.69140625 -51.765625 102.9609375 C-52.87164062 101.86652344 -52.87164062 101.86652344 -54 100.75 C-54.73734375 100.00492187 -55.4746875 99.25984375 -56.234375 98.4921875 C-56.94078125 97.78835937 -57.6471875 97.08453125 -58.375 96.359375 C-59.34566406 95.39209473 -59.34566406 95.39209473 -60.3359375 94.40527344 C-62.85307885 92.27958893 -63.52969833 92.58386981 -65.97119141 94.74414062 Z M-13.85766602 94.74414062 C-14.64842529 95.54013672 -15.43918457 96.33613281 -16.25390625 97.15625 C-17.10791016 98.01347656 -17.96191406 98.87070313 -18.84179688 99.75390625 C-19.73962891 100.66011719 -20.63746094 101.56632812 -21.5625 102.5 C-22.91504883 103.85931641 -22.91504883 103.85931641 -24.29492188 105.24609375 C-26.53218341 107.49519265 -28.76708747 109.74658467 -31 112 C-26.93161827 116.8911484 -22.65561922 121.47350753 -18.125 125.9375 C-17.23554688 126.82018555 -17.23554688 126.82018555 -16.328125 127.72070312 C-14.88773534 129.14947674 -13.4442033 130.57508132 -12 132 C-4.84198775 126.17371096 1.52591766 119.5617015 8 113 C3.99379558 108.07809171 -0.33616202 103.55349248 -4.8125 99.0625 C-5.39990967 98.47057861 -5.98731934 97.87865723 -6.5925293 97.26879883 C-9.96078152 92.90679412 -9.96078152 92.90679412 -13.85766602 94.74414062 Z M38.14233398 94.74414062 C37.35157471 95.54013672 36.56081543 96.33613281 35.74609375 97.15625 C34.89208984 98.01347656 34.03808594 98.87070313 33.15820312 99.75390625 C32.26037109 100.66011719 31.36253906 101.56632812 30.4375 102.5 C29.08495117 103.85931641 29.08495117 103.85931641 27.70507812 105.24609375 C25.46781659 107.49519265 23.23291253 109.74658467 21 112 C25.06838173 116.8911484 29.34438078 121.47350753 33.875 125.9375 C34.76445312 126.82018555 34.76445312 126.82018555 35.671875 127.72070312 C37.11226466 129.14947674 38.5557967 130.57508132 40 132 C47.15801225 126.17371096 53.52591766 119.5617015 60 113 C55.99379558 108.07809171 51.66383798 103.55349248 47.1875 99.0625 C46.60009033 98.47057861 46.01268066 97.87865723 45.4074707 97.26879883 C42.03921848 92.90679412 42.03921848 92.90679412 38.14233398 94.74414062 Z M89.02880859 94.74414062 C87.8505249 95.93813477 87.8505249 95.93813477 86.6484375 97.15625 C85.79765625 98.01347656 84.946875 98.87070313 84.0703125 99.75390625 C83.18085938 100.66011719 82.29140625 101.56632812 81.375 102.5 C80.4778125 103.40621094 79.580625 104.31242187 78.65625 105.24609375 C76.43298462 107.49301089 74.21450343 109.74445216 72 112 C76.06838173 116.8911484 80.34438078 121.47350753 84.875 125.9375 C85.76445312 126.82018555 85.76445312 126.82018555 86.671875 127.72070312 C88.11226466 129.14947674 89.5557967 130.57508132 91 132 C98.15801225 126.17371096 104.52591766 119.5617015 111 113 C109.57937485 109.7731002 107.85754559 107.60057488 105.375 105.109375 C104.66859375 104.40039062 103.9621875 103.69140625 103.234375 102.9609375 C102.12835938 101.86652344 102.12835938 101.86652344 101 100.75 C100.26265625 100.00492187 99.5253125 99.25984375 98.765625 98.4921875 C98.05921875 97.78835937 97.3528125 97.08453125 96.625 96.359375 C95.65433594 95.39209473 95.65433594 95.39209473 94.6640625 94.40527344 C92.14692115 92.27958893 91.47030167 92.58386981 89.02880859 94.74414062 Z M-39.97119141 120.74414062 C-41.1494751 121.93813477 -41.1494751 121.93813477 -42.3515625 123.15625 C-43.20234375 124.01347656 -44.053125 124.87070313 -44.9296875 125.75390625 C-45.81914063 126.66011719 -46.70859375 127.56632812 -47.625 128.5 C-48.5221875 129.40621094 -49.419375 130.31242188 -50.34375 131.24609375 C-52.56701538 133.49301089 -54.78549657 135.74445216 -57 138 C-52.93161827 142.8911484 -48.65561922 147.47350753 -44.125 151.9375 C-43.23554687 152.82018555 -43.23554687 152.82018555 -42.328125 153.72070312 C-40.88773534 155.14947674 -39.4442033 156.57508132 -38 158 C-30.84198775 152.17371096 -24.47408234 145.5617015 -18 139 C-19.42062515 135.7731002 -21.14245441 133.60057488 -23.625 131.109375 C-24.33140625 130.40039062 -25.0378125 129.69140625 -25.765625 128.9609375 C-26.87164062 127.86652344 -26.87164062 127.86652344 -28 126.75 C-28.73734375 126.00492187 -29.4746875 125.25984375 -30.234375 124.4921875 C-30.94078125 123.78835937 -31.6471875 123.08453125 -32.375 122.359375 C-33.34566406 121.39209473 -33.34566406 121.39209473 -34.3359375 120.40527344 C-36.85307885 118.27958893 -37.52969833 118.58386981 -39.97119141 120.74414062 Z M12.14233398 120.74414062 C11.35157471 121.54013672 10.56081543 122.33613281 9.74609375 123.15625 C8.89208984 124.01347656 8.03808594 124.87070313 7.15820312 125.75390625 C6.26037109 126.66011719 5.36253906 127.56632812 4.4375 128.5 C3.08495117 129.85931641 3.08495117 129.85931641 1.70507812 131.24609375 C-0.53218341 133.49519265 -2.76708747 135.74658467 -5 138 C-0.93161827 142.8911484 3.34438078 147.47350753 7.875 151.9375 C8.76445312 152.82018555 8.76445312 152.82018555 9.671875 153.72070312 C11.11226466 155.14947674 12.5557967 156.57508132 14 158 C21.15801225 152.17371096 27.52591766 145.5617015 34 139 C29.99379558 134.07809171 25.66383798 129.55349248 21.1875 125.0625 C20.60009033 124.47057861 20.01268066 123.87865723 19.4074707 123.26879883 C16.03921848 118.90679412 16.03921848 118.90679412 12.14233398 120.74414062 Z M63.12060547 120.65234375 C62.37697754 121.40644531 61.63334961 122.16054687 60.8671875 122.9375 C60.06152344 123.74960938 59.25585938 124.56171875 58.42578125 125.3984375 C57.58402344 126.25695312 56.74226562 127.11546875 55.875 128 C55.02550781 128.85851562 54.17601562 129.71703125 53.30078125 130.6015625 C51.19600049 132.72999249 49.09601167 134.86293959 47 137 C48.4264578 140.2586636 50.16704162 142.4024854 52.6953125 144.890625 C53.41074219 145.59960938 54.12617188 146.30859375 54.86328125 147.0390625 C55.60964844 147.76867187 56.35601562 148.49828125 57.125 149.25 C57.87910156 149.99507812 58.63320312 150.74015625 59.41015625 151.5078125 C61.26900772 153.3431342 63.13237005 155.1736191 65 157 C68.2586636 155.5735422 70.4024854 153.83295838 72.890625 151.3046875 C73.59960938 150.58925781 74.30859375 149.87382812 75.0390625 149.13671875 C75.76867187 148.39035156 76.49828125 147.64398438 77.25 146.875 C77.99507812 146.12089844 78.74015625 145.36679688 79.5078125 144.58984375 C81.3431342 142.73099228 83.1736191 140.86762995 85 139 C83.57937485 135.7731002 81.85754559 133.60057488 79.375 131.109375 C78.66859375 130.40039062 77.9621875 129.69140625 77.234375 128.9609375 C76.12835938 127.86652344 76.12835938 127.86652344 75 126.75 C74.26265625 126.00492187 73.5253125 125.25984375 72.765625 124.4921875 C72.05921875 123.78835937 71.3528125 123.08453125 70.625 122.359375 C69.65433594 121.39209473 69.65433594 121.39209473 68.6640625 120.40527344 C66.2098996 118.3327732 65.51267889 118.54925815 63.12060547 120.65234375 Z M-13.97119141 146.74414062 C-15.1494751 147.93813477 -15.1494751 147.93813477 -16.3515625 149.15625 C-17.20234375 150.01347656 -18.053125 150.87070313 -18.9296875 151.75390625 C-19.81914062 152.66011719 -20.70859375 153.56632813 -21.625 154.5 C-22.5221875 155.40621094 -23.419375 156.31242188 -24.34375 157.24609375 C-26.56701538 159.49301089 -28.78549657 161.74445216 -31 164 C-26.93161827 168.8911484 -22.65561922 173.47350753 -18.125 177.9375 C-17.23554688 178.82018555 -17.23554688 178.82018555 -16.328125 179.72070312 C-14.88773534 181.14947674 -13.4442033 182.57508132 -12 184 C-4.84198775 178.17371096 1.52591766 171.5617015 8 165 C6.57937485 161.7731002 4.85754559 159.60057488 2.375 157.109375 C1.66859375 156.40039062 0.9621875 155.69140625 0.234375 154.9609375 C-0.87164062 153.86652344 -0.87164062 153.86652344 -2 152.75 C-2.73734375 152.00492188 -3.4746875 151.25984375 -4.234375 150.4921875 C-4.94078125 149.78835937 -5.6471875 149.08453125 -6.375 148.359375 C-7.34566406 147.39209473 -7.34566406 147.39209473 -8.3359375 146.40527344 C-10.85307885 144.27958893 -11.52969833 144.58386981 -13.97119141 146.74414062 Z M37.12060547 146.65234375 C36.37697754 147.40644531 35.63334961 148.16054687 34.8671875 148.9375 C34.06152344 149.74960938 33.25585938 150.56171875 32.42578125 151.3984375 C31.58402344 152.25695312 30.74226562 153.11546875 29.875 154 C29.02550781 154.85851562 28.17601562 155.71703125 27.30078125 156.6015625 C25.19600049 158.72999249 23.09601167 160.86293959 21 163 C22.4264578 166.2586636 24.16704162 168.4024854 26.6953125 170.890625 C27.41074219 171.59960938 28.12617188 172.30859375 28.86328125 173.0390625 C29.60964844 173.76867187 30.35601562 174.49828125 31.125 175.25 C31.87910156 175.99507812 32.63320312 176.74015625 33.41015625 177.5078125 C35.26900772 179.3431342 37.13237005 181.1736191 39 183 C42.2586636 181.5735422 44.4024854 179.83295838 46.890625 177.3046875 C47.59960938 176.58925781 48.30859375 175.87382812 49.0390625 175.13671875 C49.76867187 174.39035156 50.49828125 173.64398438 51.25 172.875 C51.99507812 172.12089844 52.74015625 171.36679688 53.5078125 170.58984375 C55.3431342 168.73099228 57.1736191 166.86762995 59 165 C57.57937485 161.7731002 55.85754559 159.60057488 53.375 157.109375 C52.66859375 156.40039062 51.9621875 155.69140625 51.234375 154.9609375 C50.12835938 153.86652344 50.12835938 153.86652344 49 152.75 C48.26265625 152.00492188 47.5253125 151.25984375 46.765625 150.4921875 C46.05921875 149.78835937 45.3528125 149.08453125 44.625 148.359375 C43.65433594 147.39209473 43.65433594 147.39209473 42.6640625 146.40527344 C40.2098996 144.3327732 39.51267889 144.54925815 37.12060547 146.65234375 Z M12.14233398 171.74414062 C11.35157471 172.54013672 10.56081543 173.33613281 9.74609375 174.15625 C8.89208984 175.01347656 8.03808594 175.87070313 7.15820312 176.75390625 C6.26037109 177.66011719 5.36253906 178.56632813 4.4375 179.5 C3.08495117 180.85931641 3.08495117 180.85931641 1.70507812 182.24609375 C-0.53218341 184.49519265 -2.76708747 186.74658467 -5 189 C-3.5735422 192.2586636 -1.83295838 194.4024854 0.6953125 196.890625 C1.41074219 197.59960938 2.12617188 198.30859375 2.86328125 199.0390625 C3.60964844 199.76867187 4.35601562 200.49828125 5.125 201.25 C5.87910156 201.99507812 6.63320312 202.74015625 7.41015625 203.5078125 C9.26900772 205.3431342 11.13237005 207.1736191 13 209 C16.36335594 207.54254576 18.54534005 205.68882146 21.109375 203.0859375 C21.86347656 202.32539063 22.61757812 201.56484375 23.39453125 200.78125 C24.56048828 199.59015625 24.56048828 199.59015625 25.75 198.375 C26.54277344 197.57320312 27.33554688 196.77140625 28.15234375 195.9453125 C30.10614493 193.96797154 32.05512103 191.98611091 34 190 C29.9387997 185.12748369 25.68726781 180.53148262 21.1875 176.0625 C20.60291016 175.47404297 20.01832031 174.88558594 19.41601562 174.27929688 C16.04536804 169.90961549 16.04536804 169.90961549 12.14233398 171.74414062 Z " fill="#000000" transform="translate(148,50)"/>
<path d="M0 0 C3.34552201 2.09348574 4.77685277 3.37503172 6.1171875 7.12890625 C6.62270344 9.41936248 7.12269959 11.71104389 7.6171875 14.00390625 C8.77329585 17.27768474 8.77329585 17.27768474 12.15234375 18.7734375 C16.57285678 20.3132763 21.11678968 21.4281027 25.65820312 22.54882812 C27.44662643 23.00277043 29.22396104 23.4997929 31 24 C31.74894531 24.20496094 32.49789062 24.40992188 33.26953125 24.62109375 C37.14099289 27.70602819 37.97267843 33.75266588 39.140625 38.39453125 C39.32496094 39.12220703 39.50929688 39.84988281 39.69921875 40.59960938 C40.07010352 42.08972441 40.42133868 43.58485225 40.75390625 45.08398438 C41.84891173 49.25170931 42.33725335 50.60900381 46.19140625 52.8828125 C50.66391913 54.19474961 55.13299026 55.43210067 59.65820312 56.54882812 C61.44662643 57.00277043 63.22396104 57.4997929 65 58 C65.74894531 58.20496094 66.49789062 58.40992188 67.26953125 58.62109375 C71.14880838 61.71225589 71.97454915 67.73944684 73.10546875 72.39453125 C73.28529297 73.12220703 73.46511719 73.84988281 73.65039062 74.59960938 C74.01189659 76.08901396 74.35007892 77.5842522 74.66601562 79.08398438 C75.72263068 83.30005861 75.72263068 83.30005861 78.82543945 86.12670898 C80.86985316 86.89640676 82.88291895 87.46766447 85 88 C88.34162321 89.17322926 91.3032151 90.39031321 94 92.75 C95.64840177 96.45890398 95.34908127 98.1454821 94 102 C74.87359327 123.49486363 35.55467293 133.77862067 8.68359375 139.359375 C7.69117676 139.56651123 6.69875977 139.77364746 5.67626953 139.98706055 C3.83990321 140.35605589 1.99842496 140.70091815 0.15185547 141.01489258 C-6.54499307 142.32100627 -10.2903575 145.15381046 -15 150 C-15.88570679 150.89900024 -15.88570679 150.89900024 -16.78930664 151.81616211 C-19.09507475 154.18994698 -21.37849757 156.58186006 -23.62304688 159.01367188 C-29.78795082 165.40300918 -36.73498671 168.4734086 -45.5859375 169.03515625 C-52.93377345 168.92814893 -59.54596674 166.28240428 -64.88671875 161.20703125 C-71.85477369 153.65465305 -73.67337663 147.74113658 -73.40234375 137.49609375 C-72.16738629 126.7651527 -64.3732577 118.42580743 -56.30004883 111.77612305 C-47.79509118 104.46749011 -45.56482678 97.18294002 -43.35501099 86.38961792 C-42.43081797 81.89290445 -41.36733321 77.42827915 -40.328125 72.95703125 C-40.12884903 72.08244766 -39.92957306 71.20786407 -39.72425842 70.30677795 C-36.12362112 54.60938616 -21.06451786 -2.52774214 0 0 Z " fill="#DBDADA" transform="translate(100,321)"/>
<path d="M0 0 C1.85780525 1.29681969 1.85780525 1.29681969 3.67776489 2.96517944 C4.37127171 3.59946239 5.06477852 4.23374535 5.77930069 4.88724899 C9.83399048 8.74484011 13.82091468 12.66484011 17.78076172 16.61962891 C18.73416264 17.56838958 19.6877561 18.51695681 20.64152527 19.46534729 C23.20764925 22.01847618 25.77054234 24.57482294 28.33241034 27.1322217 C29.93542904 28.73229349 31.53902624 30.33178334 33.14279556 31.93110275 C38.16832333 36.94300031 43.19187846 41.95686249 48.21253479 46.97364008 C53.995679 52.75229034 59.78533171 58.52431466 65.58065021 64.29075491 C70.07272755 68.76122574 74.55903324 73.23743509 79.04098904 77.71805322 C81.71342193 80.38943895 84.38822136 83.05834706 87.06905746 85.72130203 C89.58572159 88.22149956 92.09514319 90.72874469 94.59919167 93.24157524 C95.95586748 94.59938884 97.31996945 95.94976978 98.6842804 97.2999115 C99.49164139 98.11284164 100.29900238 98.92577179 101.13082886 99.76333618 C101.83390608 100.46494684 102.5369833 101.1665575 103.26136589 101.88942909 C106.5973593 105.93907393 107.22477348 109.65112972 107.36328125 114.83984375 C106.31437908 121.07686415 102.28097439 125.16418871 97.9765625 129.421875 C97.1017775 130.30096527 97.1017775 130.30096527 96.20932007 131.19781494 C94.98079568 132.42837144 93.74851209 133.65518522 92.51269531 134.87841797 C90.62726702 136.74775233 88.75841533 138.63259165 86.890625 140.51953125 C85.6910651 141.71710913 84.49057514 142.91375629 83.2890625 144.109375 C82.73368805 144.67082214 82.1783136 145.23226929 81.60610962 145.81072998 C76.64115237 150.68718381 73.08938047 152.17831223 66.16015625 152.36328125 C60.92030408 151.48207645 57.09081707 148.4665079 53.4196167 144.80729675 C52.55601532 143.95360001 51.69241394 143.09990326 50.80264282 142.22033691 C49.87358124 141.28677368 48.94451965 140.35321045 47.98730469 139.39135742 C46.985362 138.3951222 45.98279182 137.39951773 44.97964478 136.40449524 C42.2662088 133.70896136 39.56237172 131.00399107 36.86073208 128.29664016 C34.60201897 126.03483182 32.33872409 123.7776363 30.07544827 121.5203951 C24.73616044 116.19514037 19.40469918 110.86213922 14.078125 105.52416992 C8.5866285 100.02118524 3.08246114 94.53111515 -2.42815709 89.04728431 C-7.16420091 84.33340087 -11.89244302 79.61179221 -16.61448359 74.88388139 C-19.43260823 72.0623878 -22.25354463 69.24386231 -25.08194733 66.43266869 C-27.74051407 63.78957496 -30.38918186 61.13694357 -33.03059769 58.47671318 C-34.46198507 57.03988691 -35.90323138 55.61290333 -37.34475708 54.18624878 C-38.19707916 53.32409256 -39.04940125 52.46193634 -39.92755127 51.57365417 C-40.67009785 50.83089831 -41.41264442 50.08814245 -42.17769241 49.32287884 C-45.13934367 45.54768903 -46.42701252 41.40811547 -46.0625 36.625 C-45.47994684 33.06395308 -44.58865813 31.107597 -42.15625 28.453125 C-41.52533447 27.7636377 -40.89441895 27.07415039 -40.24438477 26.36376953 C-36.19252147 22.09637691 -32.11954293 17.85684531 -27.97485352 13.6796875 C-26.94368582 12.63689317 -25.91702875 11.58962049 -24.89477539 10.53808594 C-23.39661353 8.99722849 -21.8856052 7.47008293 -20.37109375 5.9453125 C-19.48349365 5.04312988 -18.59589355 4.14094727 -17.68139648 3.21142578 C-12.248048 -1.26961497 -6.59450631 -1.93256573 0 0 Z " fill="#304056" transform="translate(391,346)"/>
<path d="M0 0 C0.33 0 0.66 0 1 0 C1.08451416 0.60658447 1.16902832 1.21316895 1.25610352 1.83813477 C4.44150584 24.08171364 10.02392472 44.82323941 20 65 C20.41797852 65.84836426 20.83595703 66.69672852 21.26660156 67.57080078 C31.85501758 88.8522002 44.91572131 108.51382959 61.12109375 125.97265625 C63.52381845 128.56520119 65.76614645 131.2617279 68 134 C66.4152642 137.86328627 63.94043113 140.28876923 60.9921875 143.203125 C60.50670441 143.6857782 60.02122131 144.1684314 59.52102661 144.66571045 C57.97700134 146.19858562 56.42615176 147.72434004 54.875 149.25 C53.82375991 150.29120361 52.77297343 151.33286541 51.72265625 152.375 C49.15366996 154.92199464 46.57851839 157.46265177 44 160 C40.70868685 158.43293236 38.45910167 156.71231115 35.8125 154.1875 C29.25869525 148.18386737 22.21066154 142.87203574 15.09130859 137.56054688 C13.77600006 136.57905585 12.46340967 135.59390094 11.15478516 134.60351562 C1.62822952 127.40411916 -8.40243055 121.48935786 -19 116 C-19.81355957 115.57686523 -20.62711914 115.15373047 -21.46533203 114.71777344 C-43.53605963 103.37939381 -66.45013683 96.35808221 -91 93 C-91 92.34 -91 91.68 -91 91 C-89.88625 90.6596875 -88.7725 90.319375 -87.625 89.96875 C-75.83317494 86.26129932 -64.34403865 81.89602577 -54 75 C-47.04525106 75.12070993 -41.04865737 78.36168302 -34.8125 81.1875 C-33.22211914 81.89229492 -33.22211914 81.89229492 -31.59960938 82.61132812 C-25.1640124 85.48597321 -18.92294163 88.56473396 -12.76049805 91.98950195 C-9.38054592 93.22675515 -7.44002435 92.94283039 -4 92 C-1.32892365 90.05083618 -0.23228729 88.62470453 0.91796875 85.53125 C1.04566379 80.03428268 -1.52031412 75.99772665 -4 71.1875 C-5.01879471 69.13177617 -6.0343984 67.07446795 -7.046875 65.015625 C-7.54896484 64.00048828 -8.05105469 62.98535156 -8.56835938 61.93945312 C-10.57574187 57.81788333 -12.45843345 53.65688594 -14.25 49.4375 C-14.5490625 48.76678467 -14.848125 48.09606934 -15.15625 47.4050293 C-16.91331482 43.19593316 -17.30561127 40.38268571 -16 36 C-14.87109375 33.9296875 -14.87109375 33.9296875 -13.4375 31.875 C-7.35257986 22.23931532 -3.4654529 10.82069986 0 0 Z " fill="#3174C6" transform="translate(306,214)"/>
<path d="M0 0 C3.08525244 0.78431025 6.16781417 1.57873138 9.25 2.375 C10.12269531 2.59671875 10.99539062 2.8184375 11.89453125 3.046875 C12.73886719 3.26601563 13.58320313 3.48515625 14.453125 3.7109375 C15.22817383 3.90993652 16.00322266 4.10893555 16.80175781 4.31396484 C19.07467383 5.02330447 20.98163984 5.73028573 23 7 C24.83789163 11.07184223 26.05345797 15.06425081 27.10546875 19.39453125 C27.37520508 20.48604492 27.37520508 20.48604492 27.65039062 21.59960938 C28.01189659 23.08901396 28.35007892 24.5842522 28.66601562 26.08398438 C29.72263068 30.30005861 29.72263068 30.30005861 32.82543945 33.12670898 C34.86985316 33.89640676 36.88291895 34.46766447 39 35 C42.34162321 36.17322926 45.3032151 37.39031321 48 39.75 C49.64840177 43.45890398 49.34908127 45.1454821 48 49 C30.54878416 68.61223089 -3.48408854 77.60849958 -27.72216797 84.06445312 C-30.94667086 84.98477899 -34.06834479 86.06779391 -37.22265625 87.203125 C-48.48443698 90.93070641 -48.48443698 90.93070641 -54 90 C-61.12865551 86.03802384 -66.25917669 79.50277929 -71 73 C-67.02204082 68.23084692 -62.86978643 63.7325271 -58.4597168 59.36206055 C-57.83621841 58.74002243 -57.21272003 58.11798431 -56.57032776 57.47709656 C-55.2292203 56.13976745 -53.88695984 54.80359376 -52.54364586 53.46848106 C-50.41917618 51.35685784 -48.29791906 49.24205362 -46.17744446 47.12641907 C-41.68360505 42.64395633 -37.18583006 38.16545556 -32.6875 33.6875 C-27.45615862 28.47975261 -22.2264392 23.27039771 -17.00089455 18.05683327 C-14.90836023 15.97079307 -12.81284464 13.88777913 -10.71720886 11.80485535 C-9.44242942 10.53370623 -8.16778894 9.26241775 -6.89331055 7.9909668 C-6.30788483 7.4107074 -5.72245911 6.830448 -5.11929321 6.23260498 C-2.19899826 3.39027052 -2.19899826 3.39027052 0 0 Z " fill="#DBDADA" transform="translate(146,374)"/>
<path d="M0 0 C5.22948744 4.37029366 10.10289955 8.96911804 14.90234375 13.8046875 C15.6249086 14.5286673 16.34747345 15.25264709 17.0919342 15.99856567 C19.37616922 18.28835265 21.65688312 20.58160993 23.9375 22.875 C25.49521039 24.43773161 27.05315087 26.0002339 28.61132812 27.5625 C32.41021602 31.3723531 36.20622713 35.18505379 40 39 C35.70568379 44.05050428 31.32310955 48.94664442 26.6875 53.6875 C25.76807617 54.66299805 25.76807617 54.66299805 24.83007812 55.65820312 C18.43431817 62.17350999 11.54648184 65.4555445 2.4140625 66.03515625 C-4.93377345 65.92814893 -11.54596674 63.28240428 -16.88671875 58.20703125 C-23.85477369 50.65465305 -25.67337663 44.74113658 -25.40234375 34.49609375 C-23.73342581 19.99433103 -9.85116063 9.68544017 0 0 Z " fill="#488FF6" transform="translate(52,424)"/>
<path d="M0 0 C2.125 1.625 2.125 1.625 4.125 4.625 C4.36630175 7.70159728 4.36541669 8.90373343 3.125 11.625 C-15.01778821 32.1046813 -50.68432351 40.90576054 -75.875 47.625 C-76.97521484 47.92937988 -78.07542969 48.23375977 -79.20898438 48.54736328 C-82.35934209 49.40727756 -85.51821149 50.21309819 -88.6875 51 C-90.10107788 51.387323 -90.10107788 51.387323 -91.54321289 51.7824707 C-97.84488441 53.23963478 -97.84488441 53.23963478 -100.83740234 51.45410156 C-102.51171875 49.8515625 -102.51171875 49.8515625 -104.875 46.625 C-104.875 45.965 -104.875 45.305 -104.875 44.625 C-92.76896676 38.45609669 -80.65219341 32.30888421 -68.52126312 26.1890707 C-62.88861376 23.34666055 -57.2599245 20.4969354 -51.63964844 17.63012695 C-46.21490034 14.86339816 -40.78059367 12.1163684 -35.33912659 9.38267708 C-33.26559103 8.33667585 -31.19558704 7.28364306 -29.1292572 6.22347832 C-26.23259869 4.73881498 -23.32434995 3.27973178 -20.41210938 1.82592773 C-19.56190216 1.38284775 -18.71169495 0.93976776 -17.83572388 0.48326111 C-11.33804543 -2.70988653 -6.75562453 -3.23095086 0 0 Z " fill="#DBDADA" transform="translate(190.875,411.375)"/>
<path d="M0 0 C2.94216873 1.53795184 4.52907625 2.81399745 5.77064323 5.94083405 C7.33649609 12.03541766 6.71030385 15.43416245 3.77392578 20.91210938 C3.40667892 21.64689514 3.03943207 22.38168091 2.66105652 23.13873291 C1.44661384 25.55352415 0.19648784 27.94781532 -1.0546875 30.34375 C-1.91511176 32.03775333 -2.77315513 33.73296786 -3.62893677 35.42932129 C-5.88839557 39.89303683 -8.17820849 44.34046149 -10.47528076 48.78491211 C-12.77931181 53.25412752 -15.05728387 57.73655694 -17.3359375 62.21875 C-19.91329424 67.28819996 -22.49230523 72.35657326 -25.09616089 77.41247559 C-30.28788877 87.50893295 -35.23560303 97.69493749 -40 108 C-43 108 -43 108 -45.25 106.625 C-48.0021697 102.49674544 -46.78546696 98.75241794 -46 94 C-44.95400574 89.06693291 -43.72190212 84.18797649 -42.4375 79.3125 C-42.17098129 78.29313354 -42.17098129 78.29313354 -41.89907837 77.25317383 C-20.94620243 -2.51354429 -20.94620243 -2.51354429 0 0 Z " fill="#DBDADA" transform="translate(100,321)"/>
<path d="M0 0 C0.99 1.485 0.99 1.485 2 3 C2.99 3.66 3.98 4.32 5 5 C-7.41652595 11.58947661 -19.89950593 18.01977188 -32.48046875 24.2890625 C-34.15734067 25.12656197 -35.83412203 25.96424279 -37.51081848 26.80209351 C-41.85143233 28.97052241 -46.19324294 31.13654365 -50.53533936 33.30200195 C-54.99501266 35.52665568 -59.45350569 37.75367232 -63.91210938 39.98046875 C-72.60694311 44.32257821 -81.30304762 48.66213578 -90 53 C-91.98 51.35 -93.96 49.7 -96 48 C-93.91655989 45.74280639 -91.98414848 44.3039585 -89.24267578 42.93086243 C-88.4856134 42.5481015 -87.72855103 42.16534058 -86.94854736 41.77098083 C-86.12247986 41.36098343 -85.29641235 40.95098602 -84.4453125 40.52856445 C-83.57187195 40.0892157 -82.6984314 39.64986694 -81.79852295 39.19720459 C-78.91033899 37.74651012 -76.01785316 36.30463956 -73.125 34.86328125 C-71.11847641 33.85900928 -69.11213108 32.85438106 -67.10595703 31.84941101 C-62.90135557 29.74489834 -58.69461296 27.64474446 -54.48632812 25.54760742 C-49.08492067 22.85545603 -43.68897815 20.15255359 -38.29458618 17.44637775 C-34.153308 15.37032638 -30.00919659 13.29998409 -25.86419678 11.23137474 C-23.87294334 10.23675051 -21.88258388 9.24033448 -19.89312744 8.24212074 C-17.11650443 6.85001242 -14.33616866 5.46562211 -11.5546875 4.08325195 C-10.31558624 3.4591468 -10.31558624 3.4591468 -9.05145264 2.82243347 C-8.29439026 2.44813202 -7.53732788 2.07383057 -6.75732422 1.68818665 C-6.1002951 1.36023763 -5.44326599 1.03228861 -4.7663269 0.69440174 C-3 0 -3 0 0 0 Z " fill="#BAB9BA" transform="translate(176,404)"/>
<path d="M0 0 C0.928125 1.2065625 0.928125 1.2065625 1.875 2.4375 C3.74164041 5.03874519 3.74164041 5.03874519 6 6 C4.21494192 10.77933335 1.92845669 15.27648693 -0.35791016 19.8293457 C-0.79711288 20.70789719 -1.23631561 21.58644867 -1.68882751 22.49162292 C-3.13701104 25.38729484 -4.58802082 28.28154067 -6.0390625 31.17578125 C-7.04528967 33.18636999 -8.05133993 35.19704727 -9.05722046 37.20780945 C-11.70225294 42.49406042 -14.34968593 47.77910562 -16.99761963 53.06390381 C-19.70038401 58.45919444 -22.40087776 63.85562129 -25.1015625 69.25195312 C-30.39881926 79.83574904 -35.69861256 90.4182726 -41 101 C-44.83284569 99.23600388 -44.83284569 99.23600388 -46.3372345 97.11196899 C-47.16681077 94.46844069 -46.82890165 93.65780329 -45.60424805 91.20849609 C-45.24343643 90.4674614 -44.88262482 89.7264267 -44.51087952 88.9629364 C-43.89254494 87.75538445 -43.89254494 87.75538445 -43.26171875 86.5234375 C-42.83793442 85.66494705 -42.41415009 84.8064566 -41.9775238 83.92195129 C-40.5625634 81.06520711 -39.12519343 78.22036233 -37.6875 75.375 C-36.69832277 73.38911664 -35.71055203 71.40253213 -34.72412109 69.4152832 C-32.06475923 64.06766722 -29.38582133 58.73007503 -26.70343018 53.39398193 C-23.77874818 47.56672938 -20.87288507 41.7301007 -17.96484375 35.89453125 C-11.99444033 23.92070487 -6.00377845 11.95712325 0 0 Z " fill="#BAB9BA" transform="translate(106,334)"/>
<path d="M0 0 C1.37310707 1.29233607 2.71034824 2.62437146 4 4 C2.71403737 6.82384367 1.37292429 8.87568428 -0.822052 11.06256104 C-1.39696381 11.64022217 -1.97187561 12.2178833 -2.56420898 12.81304932 C-3.19286865 13.43451843 -3.82152832 14.05598755 -4.46923828 14.69628906 C-5.13277313 15.36011597 -5.79630798 16.02394287 -6.47994995 16.70788574 C-8.6720297 18.89857333 -10.87110625 21.08209364 -13.0703125 23.265625 C-14.59246639 24.78404837 -16.11417902 26.30291421 -17.63546753 27.82220459 C-21.63909255 31.8181963 -25.64868759 35.80814529 -29.6595459 39.796875 C-33.75190629 43.86877055 -37.83860529 47.94633926 -41.92578125 52.0234375 C-49.94498305 60.02119471 -57.97050181 68.01258103 -66 76 C-69.47899158 74.60840337 -70.48052501 73.36748512 -72 70 C-62.91353498 60.86728408 -53.82174211 51.73990988 -44.72302437 42.61940002 C-40.49872685 38.38464573 -36.2763178 34.148043 -32.05810547 29.90722656 C-27.99058448 25.81804466 -23.9182596 21.73370526 -19.84249496 17.65274048 C-18.28495481 16.0914924 -16.72918187 14.52847932 -15.17517471 12.9637146 C-13.005651 10.77976577 -10.83004371 8.602062 -8.65283203 6.42578125 C-8.00547089 5.77122955 -7.35810974 5.11667786 -6.69113159 4.44229126 C-2.22810432 0 -2.22810432 0 0 0 Z " fill="#BAB9BA" transform="translate(142,370)"/>
</svg>
