<?xml version="1.0" encoding="UTF-8"?>
<svg version="1.1" xmlns="http://www.w3.org/2000/svg" width="512" height="512">
<path d="M0 0 C20.06847859 17.51374895 31.62363432 39.64990602 35.421875 65.91015625 C36.36500271 84.39415858 36.38305225 102.97538402 31.421875 120.91015625 C31.22883789 121.63912109 31.03580078 122.36808594 30.83691406 123.11914062 C25.7925223 141.62352684 17.02156947 160.6196499 5.421875 175.91015625 C4.66648437 176.94527344 3.91109375 177.98039063 3.1328125 179.046875 C-22.8310174 214.17195166 -60.28683317 241.04386128 -104.12109375 247.625 C-127.98144151 250.81458336 -149.96342188 247.39358174 -171.578125 236.91015625 C-171.80628906 237.43867188 -172.03445313 237.9671875 -172.26953125 238.51171875 C-174.01370924 241.70851065 -176.24483165 244.45462433 -178.515625 247.28515625 C-179.51574216 248.54417777 -180.51573887 249.80329499 -181.515625 251.0625 C-182.28132813 252.02325439 -182.28132813 252.02325439 -183.0625 253.00341797 C-184.94395993 255.37039639 -186.80859845 257.75023875 -188.67211914 260.13134766 C-193.43916573 266.2211782 -198.25737739 272.26857369 -203.09521484 278.30224609 C-207.84314733 284.22910265 -212.53619215 290.19809217 -217.21923828 296.17626953 C-219.96161029 299.67542979 -222.7098577 303.1699798 -225.45776367 306.66479492 C-227.72846895 309.5533573 -229.99634485 312.44404186 -232.2578125 315.33984375 C-236.6126471 320.90976027 -240.99748508 326.44991716 -245.47094727 331.92529297 C-247.13194291 333.96201024 -248.78079017 336.00817148 -250.4296875 338.0546875 C-252.37239036 340.45850112 -254.3553857 342.80444152 -256.4140625 345.109375 C-262.4727511 352.09030462 -265.03673558 358.47428433 -267.39453125 367.31518555 C-269.68778931 375.82230332 -273.24578601 383.26704908 -277.578125 390.91015625 C-278.10921875 391.85761719 -278.6403125 392.80507813 -279.1875 393.78125 C-283.52353952 401.00440495 -288.89438168 407.39126517 -294.25 413.8671875 C-297.25514679 417.50113796 -300.18110572 421.18975676 -303.078125 424.91015625 C-307.55412906 430.64432019 -312.1263366 436.29483833 -316.72680664 441.92944336 C-320.37415643 446.40496955 -323.96251297 450.92205045 -327.515625 455.47265625 C-338.41273672 469.40504539 -338.41273672 469.40504539 -342.50390625 470.359375 C-348.60742258 470.96872769 -351.87089267 469.44160965 -356.703125 465.72265625 C-358.39765378 464.33022898 -360.07013371 462.9166965 -361.73193359 461.48535156 C-364.40938392 459.20091497 -367.15740539 457.00705531 -369.89990234 454.80151367 C-372.54359593 452.6724648 -375.17397181 450.5277497 -377.79638672 448.37255859 C-378.97614234 447.40424725 -380.1600268 446.44094274 -381.34814453 445.48291016 C-386.19881698 441.53623323 -386.19881698 441.53623323 -387.02734375 437.984375 C-387.63669644 431.88085867 -386.1095784 428.61738858 -382.390625 423.78515625 C-380.98967166 422.07865147 -379.5676289 420.39430998 -378.12695312 418.72119141 C-375.96215826 416.18991015 -373.87618551 413.59765197 -371.78393555 411.00634766 C-370.12988969 408.95937068 -368.46591919 406.92077163 -366.80078125 404.8828125 C-363.84970381 401.25860543 -360.95381971 397.59431092 -358.078125 393.91015625 C-353.00253657 387.41090443 -347.80837862 381.01222345 -342.59765625 374.62109375 C-340.07301464 371.52342234 -337.56938017 368.40978138 -335.078125 365.28515625 C-334.45550781 364.51042969 -333.83289063 363.73570312 -333.19140625 362.9375 C-331.8572458 361.26091581 -330.55678733 359.55757393 -329.265625 357.84765625 C-319.54888848 347.22703726 -306.75610096 338.60254144 -293.578125 332.91015625 C-292.918125 332.91015625 -292.258125 332.91015625 -291.578125 332.91015625 C-291.30734131 332.32476074 -291.03655762 331.73936523 -290.75756836 331.13623047 C-289.58640738 328.92578837 -288.31341641 327.20446734 -286.70703125 325.29296875 C-285.85419556 324.26997681 -285.85419556 324.26997681 -284.98413086 323.22631836 C-284.37577393 322.50323486 -283.76741699 321.78015137 -283.140625 321.03515625 C-278.69206326 315.69403599 -274.28487148 310.33338703 -270.015625 304.84765625 C-266.09678009 299.81792918 -262.11015784 294.84961802 -258.078125 289.91015625 C-254.02830433 284.94783381 -250.02007306 279.95861605 -246.078125 274.91015625 C-241.59549305 269.16924164 -237.01768476 263.51127848 -232.41186523 257.86889648 C-228.93918993 253.60704685 -225.51986761 249.30884147 -222.140625 244.97265625 C-216.76917268 238.08477012 -211.21537154 231.35200723 -205.64453125 224.625 C-203.25909684 221.74341852 -200.90322935 218.84081603 -198.578125 215.91015625 C-199.9459556 212.15704469 -201.67875664 209.04291098 -203.890625 205.72265625 C-221.12075657 178.89644727 -223.87061183 146.45756531 -217.54296875 115.65625 C-207.56087555 70.1776677 -179.26566778 28.7846308 -140.03417969 3.43212891 C-125.42446605 -5.62124632 -110.18322621 -12.63214442 -93.578125 -17.08984375 C-92.88686523 -17.27901367 -92.19560547 -17.46818359 -91.48339844 -17.66308594 C-60.56269854 -25.68748903 -25.05503544 -20.30976358 0 0 Z M-77.578125 9.91015625 C-73.59321985 14.08076571 -69.29369388 17.65653119 -64.765625 21.22265625 C-64.07275391 21.77244141 -63.37988281 22.32222656 -62.66601562 22.88867188 C-60.97227945 24.23197988 -59.27551103 25.57146312 -57.578125 26.91015625 C-54.43219647 23.82954112 -51.45575604 20.72299158 -48.703125 17.28515625 C-48.08695312 16.52976562 -47.47078125 15.774375 -46.8359375 14.99609375 C-46.21332031 13.96355469 -46.21332031 13.96355469 -45.578125 12.91015625 C-45.908125 11.92015625 -46.238125 10.93015625 -46.578125 9.91015625 C-52.15874713 8.96250344 -57.54842558 8.75864985 -63.203125 8.78515625 C-64.03585937 8.78128906 -64.86859375 8.77742188 -65.7265625 8.7734375 C-69.80718486 8.77993531 -73.59798852 8.88669258 -77.578125 9.91015625 Z M-33.578125 14.91015625 C-35.45016324 16.91294002 -37.20989936 18.92493574 -38.953125 21.03515625 C-39.43523437 21.60492188 -39.91734375 22.1746875 -40.4140625 22.76171875 C-43.40161097 26.33378758 -46.06431889 29.99052492 -48.578125 33.91015625 C-42.94088628 39.17071312 -37.14449398 44.19935821 -31.140625 49.03515625 C-30.53782715 49.53249268 -29.9350293 50.0298291 -29.31396484 50.54223633 C-27.41884739 52.0878779 -27.41884739 52.0878779 -24.578125 53.91015625 C-20.40376794 52.5187039 -18.61030525 49.52880813 -16.015625 46.16015625 C-15.52126953 45.53882812 -15.02691406 44.9175 -14.51757812 44.27734375 C-11.92748314 40.95473205 -9.88816145 37.9720444 -8.578125 33.91015625 C-15.04991964 25.89844906 -22.38090363 19.60261613 -31.578125 14.91015625 C-32.238125 14.91015625 -32.898125 14.91015625 -33.578125 14.91015625 Z M-103.31640625 17.5546875 C-104.05439453 17.90208984 -104.79238281 18.24949219 -105.55273438 18.60742188 C-106.32423828 18.97544922 -107.09574219 19.34347656 -107.890625 19.72265625 C-108.65052734 20.07908203 -109.41042969 20.43550781 -110.19335938 20.80273438 C-114.1167221 22.66045174 -117.9034948 24.58509083 -121.578125 26.91015625 C-120.05463544 31.48062493 -116.39670347 33.37693379 -112.578125 35.91015625 C-110.82727166 33.84837551 -109.07742119 31.78575748 -107.328125 29.72265625 C-106.83699219 29.14451172 -106.34585937 28.56636719 -105.83984375 27.97070312 C-104.41400372 26.28821189 -102.99512926 24.60009139 -101.578125 22.91015625 C-100.79953125 21.98589844 -100.0209375 21.06164063 -99.21875 20.109375 C-97.37880903 18.1002711 -97.37880903 18.1002711 -97.578125 15.91015625 C-99.94818258 15.91015625 -101.17702901 16.54533369 -103.31640625 17.5546875 Z M-85.578125 18.91015625 C-85.94574951 19.39371582 -86.31337402 19.87727539 -86.69213867 20.37548828 C-88.3818895 22.59645536 -90.07374126 24.81581361 -91.765625 27.03515625 C-92.34376953 27.79570313 -92.92191406 28.55625 -93.51757812 29.33984375 C-94.08798828 30.0875 -94.65839844 30.83515625 -95.24609375 31.60546875 C-95.80603027 32.34055664 -96.3659668 33.07564453 -96.94287109 33.83300781 C-98.42365405 35.71394263 -99.97172007 37.49345751 -101.56640625 39.27734375 C-102.23027344 40.14617187 -102.89414062 41.015 -103.578125 41.91015625 C-102.18407037 46.09232013 -99.15851481 47.83906186 -95.765625 50.41015625 C-95.13591797 50.89613281 -94.50621094 51.38210937 -93.85742188 51.8828125 C-90.78332329 54.2504813 -87.68886336 56.5908148 -84.578125 58.91015625 C-80.07402024 57.341668 -77.8951492 53.82780333 -75.140625 50.16015625 C-74.20529451 48.93553491 -73.26910258 47.71157102 -72.33203125 46.48828125 C-71.87973145 45.88951172 -71.42743164 45.29074219 -70.96142578 44.67382812 C-69.59419473 42.93064473 -68.14462781 41.29512493 -66.66796875 39.64453125 C-65.97832031 38.7421875 -65.28867187 37.83984375 -64.578125 36.91015625 C-65.96046215 32.76314479 -68.90684642 31.03025829 -72.265625 28.47265625 C-72.87857422 27.99505859 -73.49152344 27.51746094 -74.12304688 27.02539062 C-77.84157939 24.15072445 -81.63720454 21.4708465 -85.578125 18.91015625 Z M-150.453125 50.34765625 C-151.08992187 50.94449219 -151.72671875 51.54132813 -152.3828125 52.15625 C-153.80494331 53.82766833 -153.80494331 53.82766833 -153.33666992 55.8449707 C-152.46172899 58.22705159 -151.58838693 59.11537953 -149.63671875 60.70703125 C-149.05341797 61.19042969 -148.47011719 61.67382812 -147.86914062 62.171875 C-147.25748047 62.66300781 -146.64582031 63.15414062 -146.015625 63.66015625 C-145.40009766 64.16675781 -144.78457031 64.67335938 -144.15039062 65.1953125 C-142.63318062 66.4420122 -141.10654074 67.67722005 -139.578125 68.91015625 C-135.31876232 64.8189263 -131.55941487 60.42163069 -127.828125 55.84765625 C-127.23902344 55.14060547 -126.64992188 54.43355469 -126.04296875 53.70507812 C-125.48222656 53.01865234 -124.92148437 52.33222656 -124.34375 51.625 C-123.58239746 50.69868774 -123.58239746 50.69868774 -122.80566406 49.75366211 C-121.50467115 47.79984399 -121.00262197 46.20402384 -120.578125 43.91015625 C-122.38819831 42.40722882 -124.20124736 40.90788454 -126.015625 39.41015625 C-127.02496094 38.57484375 -128.03429687 37.73953125 -129.07421875 36.87890625 C-134.66222617 32.48521555 -145.92261135 46.09074378 -150.453125 50.34765625 Z M-56.578125 42.91015625 C-58.38775922 45.01989564 -60.08665414 47.13740118 -61.765625 49.34765625 C-62.25522705 49.98203613 -62.7448291 50.61641602 -63.24926758 51.27001953 C-64.23508965 52.54803907 -65.21843221 53.82797527 -66.19921875 55.10986328 C-68.03997228 57.5131417 -69.90260562 59.89911709 -71.765625 62.28515625 C-72.70350319 63.49319607 -73.64117576 64.7013958 -74.578125 65.91015625 C-71.43719444 70.22307582 -67.9092464 73.22207697 -63.703125 76.41015625 C-62.49672193 77.33636248 -61.29098704 78.26343969 -60.0859375 79.19140625 C-59.20856934 79.86236328 -59.20856934 79.86236328 -58.31347656 80.546875 C-56.58540873 81.90443419 -54.92196962 83.31911383 -53.2578125 84.75390625 C-50.89167687 87.11912576 -50.89167687 87.11912576 -48.578125 86.91015625 C-46.76849078 84.80041686 -45.06959586 82.68291132 -43.390625 80.47265625 C-42.90102295 79.83827637 -42.4114209 79.20389648 -41.90698242 78.55029297 C-40.92116035 77.27227343 -39.93781779 75.99233723 -38.95703125 74.71044922 C-37.11627772 72.3071708 -35.25364438 69.92119541 -33.390625 67.53515625 C-32.45274681 66.32711643 -31.51507424 65.1189167 -30.578125 63.91015625 C-34.39448832 59.98537352 -38.40699514 56.39044283 -42.578125 52.84765625 C-43.18140625 52.33138672 -43.7846875 51.81511719 -44.40625 51.28320312 C-46.12378019 49.81770182 -47.84915945 48.36213657 -49.578125 46.91015625 C-50.50625 46.12769531 -51.434375 45.34523438 -52.390625 44.5390625 C-54.39091759 42.71107407 -54.39091759 42.71107407 -56.578125 42.91015625 Z M-2.578125 45.91015625 C-6.538125 50.86015625 -10.498125 55.81015625 -14.578125 60.91015625 C-10.62102123 64.90552149 -10.62102123 64.90552149 -6.46484375 68.5859375 C-5.6769043 69.23852539 -5.6769043 69.23852539 -4.87304688 69.90429688 C-4.34259766 70.33935547 -3.81214844 70.77441406 -3.265625 71.22265625 C-2.71583984 71.67705078 -2.16605469 72.13144531 -1.59960938 72.59960938 C-0.26100284 73.70541477 1.08016731 74.80811564 2.421875 75.91015625 C4.6322667 74.37987703 4.6322667 74.37987703 6.421875 71.91015625 C6.39651402 68.47932559 6.39651402 68.47932559 5.421875 64.78515625 C5.27177979 64.12370605 5.12168457 63.46225586 4.96704102 62.78076172 C3.6710802 57.33653672 2.12605364 51.8367975 -0.578125 46.91015625 C-1.238125 46.58015625 -1.898125 46.25015625 -2.578125 45.91015625 Z M-111.578125 51.91015625 C-112.53280181 52.96603488 -113.44703236 54.05853775 -114.34375 55.1640625 C-114.90449219 55.85435547 -115.46523438 56.54464844 -116.04296875 57.25585938 C-116.63207031 57.98740234 -117.22117187 58.71894531 -117.828125 59.47265625 C-118.40175781 60.17712891 -118.97539062 60.88160156 -119.56640625 61.60742188 C-121.25532547 63.69452593 -122.9219565 65.79699312 -124.578125 67.91015625 C-125.09697266 68.56483887 -125.61582031 69.21952148 -126.15039062 69.89404297 C-127.37664005 71.50572141 -128.48910184 73.20275366 -129.578125 74.91015625 C-128.36238334 78.55738124 -127.0248987 79.39334058 -124.015625 81.72265625 C-123.11714844 82.42003906 -122.21867187 83.11742188 -121.29296875 83.8359375 C-120.39707031 84.52042969 -119.50117188 85.20492187 -118.578125 85.91015625 C-117.79566406 86.52246094 -117.01320313 87.13476562 -116.20703125 87.765625 C-112.76337254 90.80282983 -112.76337254 90.80282983 -108.578125 91.91015625 C-106.76849078 89.80041686 -105.06959586 87.68291132 -103.390625 85.47265625 C-102.90102295 84.83827637 -102.4114209 84.20389648 -101.90698242 83.55029297 C-100.92116035 82.27227343 -99.93781779 80.99233723 -98.95703125 79.71044922 C-97.11627772 77.3071708 -95.25364438 74.92119541 -93.390625 72.53515625 C-92.45274681 71.32711643 -91.51507424 70.1189167 -90.578125 68.91015625 C-94.55291522 64.75819515 -98.82730503 61.16622545 -103.328125 57.59765625 C-104.01261719 57.04787109 -104.69710938 56.49808594 -105.40234375 55.93164062 C-108.20531556 53.24884983 -108.20531556 53.24884983 -111.578125 51.91015625 Z M-162.578125 64.91015625 C-164.09300406 66.98554056 -165.47366688 69.04529669 -166.828125 71.22265625 C-167.22491455 71.85478027 -167.6217041 72.4869043 -168.03051758 73.13818359 C-169.22422207 75.05554278 -170.40284838 76.9814586 -171.578125 78.91015625 C-172.23683594 79.97878906 -172.89554688 81.04742187 -173.57421875 82.1484375 C-174.41146484 83.57736328 -174.41146484 83.57736328 -175.265625 85.03515625 C-175.76449219 85.88335937 -176.26335937 86.7315625 -176.77734375 87.60546875 C-177.79667035 89.84872626 -177.79667035 89.84872626 -177.04296875 91.94921875 C-175.14113335 94.4951424 -172.96982959 96.22422964 -170.453125 98.16015625 C-169.08800781 99.21976563 -169.08800781 99.21976563 -167.6953125 100.30078125 C-166.99664062 100.831875 -166.29796875 101.36296875 -165.578125 101.91015625 C-161.64939856 98.14572201 -158.27554855 94.15129005 -154.953125 89.84765625 C-154.47617187 89.23599609 -153.99921875 88.62433594 -153.5078125 87.99414062 C-151.16802864 84.9881683 -148.85032613 81.96771548 -146.578125 78.91015625 C-148.13916565 74.73437252 -151.21769868 72.38653986 -154.578125 69.66015625 C-155.1246875 69.20125 -155.67125 68.74234375 -156.234375 68.26953125 C-159.03880219 65.71163957 -159.03880219 65.71163957 -162.578125 64.91015625 Z M-22.578125 70.91015625 C-24.11872142 72.43894372 -24.11872142 72.43894372 -25.6953125 74.453125 C-26.30246094 75.19755859 -26.90960938 75.94199219 -27.53515625 76.70898438 C-28.16808594 77.49724609 -28.80101562 78.28550781 -29.453125 79.09765625 C-30.07832031 79.86658203 -30.70351563 80.63550781 -31.34765625 81.42773438 C-34.4433278 85.24005716 -37.51594143 89.07088589 -40.578125 92.91015625 C-39.26572128 95.89329101 -37.97900924 97.69045019 -35.42578125 99.70703125 C-34.81412109 100.19042969 -34.20246094 100.67382812 -33.57226562 101.171875 C-32.93482422 101.66300781 -32.29738281 102.15414062 -31.640625 102.66015625 C-31.00705078 103.16675781 -30.37347656 103.67335937 -29.72070312 104.1953125 C-26.08415906 107.17446378 -26.08415906 107.17446378 -21.578125 107.91015625 C-20.13198022 106.63429489 -20.13198022 106.63429489 -18.8359375 104.875 C-18.32675781 104.22982422 -17.81757813 103.58464844 -17.29296875 102.91992188 C-16.76832031 102.23607422 -16.24367188 101.55222656 -15.703125 100.84765625 C-15.18621094 100.19087891 -14.66929687 99.53410156 -14.13671875 98.85742188 C-10.82674284 94.62615544 -7.6727517 90.30087199 -4.578125 85.91015625 C-5.89498759 82.90867311 -7.18708239 81.12684571 -9.765625 79.11328125 C-10.68988281 78.38818359 -10.68988281 78.38818359 -11.6328125 77.6484375 C-12.27476562 77.15730469 -12.91671875 76.66617188 -13.578125 76.16015625 C-14.22007812 75.65355469 -14.86203125 75.14695312 -15.5234375 74.625 C-18.682939 71.86353679 -18.682939 71.86353679 -22.578125 70.91015625 Z M-82.578125 75.91015625 C-84.00488921 77.30812606 -84.00488921 77.30812606 -85.44140625 79.1640625 C-85.99892578 79.85435547 -86.55644531 80.54464844 -87.13085938 81.25585938 C-87.71158203 81.98740234 -88.29230469 82.71894531 -88.890625 83.47265625 C-89.45974609 84.17712891 -90.02886719 84.88160156 -90.61523438 85.60742188 C-94.09321757 89.93992678 -97.39101808 94.35970903 -100.578125 98.91015625 C-97.44663635 103.19944095 -93.9427212 106.22037369 -89.765625 109.41015625 C-89.17458984 109.87035156 -88.58355469 110.33054688 -87.97460938 110.8046875 C-83.9161252 113.9470253 -79.76945793 116.94778009 -75.578125 119.91015625 C-69.12161531 112.33799967 -62.73733136 104.72828925 -56.578125 96.91015625 C-63.92565192 89.32561234 -71.96742929 82.0304239 -80.578125 75.91015625 C-81.238125 75.91015625 -81.898125 75.91015625 -82.578125 75.91015625 Z M-137.578125 84.91015625 C-139.30309756 86.84430825 -140.98043413 88.79640607 -142.640625 90.78515625 C-143.37792847 91.66240356 -143.37792847 91.66240356 -144.13012695 92.55737305 C-148.36146959 97.60954803 -152.49993562 102.73354337 -156.578125 107.91015625 C-152.87173453 111.713718 -149.00459669 115.22843023 -144.953125 118.66015625 C-144.38078125 119.15386719 -143.8084375 119.64757812 -143.21875 120.15625 C-140.68660328 122.30563035 -138.75950239 123.84969712 -135.578125 124.91015625 C-129.12161531 117.33799967 -122.73733136 109.72828925 -116.578125 101.91015625 C-120.55291522 97.75819515 -124.82730503 94.16622545 -129.328125 90.59765625 C-130.01261719 90.04787109 -130.69710937 89.49808594 -131.40234375 88.93164062 C-134.20531556 86.24884983 -134.20531556 86.24884983 -137.578125 84.91015625 Z M4.421875 91.91015625 C2.35581805 94.42809241 0.29470369 96.95003159 -1.765625 99.47265625 C-2.34376953 100.17712891 -2.92191406 100.88160156 -3.51757812 101.60742188 C-7.04639775 105.93371486 -10.3832235 110.33139911 -13.578125 114.91015625 C-12.10015238 118.58072562 -10.10197023 120.32101408 -6.953125 122.66015625 C-6.13585937 123.27375 -5.31859375 123.88734375 -4.4765625 124.51953125 C-3.85007812 124.9784375 -3.22359375 125.43734375 -2.578125 125.91015625 C0.20977968 123.12225157 0.85310252 119.8559078 1.921875 116.16015625 C2.14254639 115.40677979 2.36321777 114.65340332 2.59057617 113.87719727 C4.54502462 106.95255366 5.66171952 100.06923248 6.421875 92.91015625 C5.761875 92.58015625 5.101875 92.25015625 4.421875 91.91015625 Z M-182.578125 101.91015625 C-186.37502871 111.52769409 -189.89059145 121.45815342 -189.578125 131.91015625 C-185.64550502 128.12132494 -182.16065267 124.12203688 -178.765625 119.84765625 C-178.26353516 119.23599609 -177.76144531 118.62433594 -177.24414062 117.99414062 C-174.56364376 114.6207262 -173.578125 113.34945311 -173.578125 108.91015625 C-175.2807598 106.90308597 -175.2807598 106.90308597 -177.515625 105.16015625 C-178.24652344 104.5465625 -178.97742188 103.93296875 -179.73046875 103.30078125 C-181.32587201 101.80993117 -181.32587201 101.80993117 -182.578125 101.91015625 Z M-48.578125 102.91015625 C-54.59728157 110.56199543 -60.61373285 118.21547969 -66.578125 125.91015625 C-65.26261773 128.91215988 -63.98321302 130.67663528 -61.390625 132.671875 C-60.77445312 133.15076172 -60.15828125 133.62964844 -59.5234375 134.12304688 C-58.88148438 134.60966797 -58.23953125 135.09628906 -57.578125 135.59765625 C-56.93617188 136.09587891 -56.29421875 136.59410156 -55.6328125 137.10742188 C-52.25721834 139.74261102 -52.25721834 139.74261102 -48.578125 141.91015625 C-42.55896843 134.25831707 -36.54251715 126.60483281 -30.578125 118.91015625 C-31.89363227 115.90815262 -33.17303698 114.14367722 -35.765625 112.1484375 C-36.38179688 111.66955078 -36.99796875 111.19066406 -37.6328125 110.69726562 C-38.27476562 110.21064453 -38.91671875 109.72402344 -39.578125 109.22265625 C-40.54105469 108.47532227 -40.54105469 108.47532227 -41.5234375 107.71289062 C-44.89903166 105.07770148 -44.89903166 105.07770148 -48.578125 102.91015625 Z M-108.578125 108.91015625 C-110.36581637 110.83026921 -112.04174276 112.75995126 -113.703125 114.78515625 C-114.19014893 115.36998779 -114.67717285 115.95481934 -115.17895508 116.55737305 C-119.38027777 121.61976368 -123.50701536 126.74252997 -127.578125 131.91015625 C-123.86298132 135.77951344 -119.94122426 139.12815747 -115.703125 142.41015625 C-115.11660156 142.87035156 -114.53007812 143.33054688 -113.92578125 143.8046875 C-109.88775027 146.95523915 -105.76228379 149.9566324 -101.578125 152.91015625 C-99.51206805 150.39222009 -97.45095369 147.87028091 -95.390625 145.34765625 C-94.81248047 144.64318359 -94.23433594 143.93871094 -93.63867188 143.21289062 C-90.10985225 138.88659764 -86.7730265 134.48891339 -83.578125 129.91015625 C-85.12741271 125.4806491 -88.65634144 123.24118533 -92.265625 120.53515625 C-93.53614952 119.56379781 -94.80569181 118.5911532 -96.07421875 117.6171875 C-96.68120605 117.1526416 -97.28819336 116.6880957 -97.91357422 116.20947266 C-99.95114017 114.61898777 -101.8971717 112.94042574 -103.828125 111.22265625 C-106.2344006 108.69562294 -106.2344006 108.69562294 -108.578125 108.91015625 Z M-164.578125 117.91015625 C-166.0078985 119.4063715 -166.0078985 119.4063715 -167.44140625 121.3828125 C-167.99892578 122.11822266 -168.55644531 122.85363281 -169.13085938 123.61132812 C-169.71158203 124.39056641 -170.29230469 125.16980469 -170.890625 125.97265625 C-171.45974609 126.72482422 -172.02886719 127.47699219 -172.61523438 128.25195312 C-176.00998649 132.75360489 -179.3207608 137.308289 -182.578125 141.91015625 C-172.88447995 150.30192782 -172.88447995 150.30192782 -162.578125 157.91015625 C-158.13226414 153.64280988 -154.19499255 149.02791502 -150.265625 144.28515625 C-149.62044922 143.52203125 -148.97527344 142.75890625 -148.31054688 141.97265625 C-147.70146484 141.23789063 -147.09238281 140.503125 -146.46484375 139.74609375 C-145.91014404 139.0814209 -145.35544434 138.41674805 -144.78393555 137.73193359 C-143.30215612 135.85732788 -143.30215612 135.85732788 -143.578125 132.91015625 C-145.76617355 130.97081687 -147.92975017 129.21581159 -150.265625 127.47265625 C-151.51959722 126.51571144 -152.77350457 125.55868162 -154.02734375 124.6015625 C-154.63239746 124.14668457 -155.23745117 123.69180664 -155.86083984 123.22314453 C-157.4070855 122.04092828 -158.91166894 120.80469431 -160.41015625 119.5625 C-162.38892553 117.70809867 -162.38892553 117.70809867 -164.578125 117.91015625 Z M-21.578125 124.91015625 C-23.30309756 126.84430825 -24.98043413 128.79640607 -26.640625 130.78515625 C-27.37792847 131.66240356 -27.37792847 131.66240356 -28.13012695 132.55737305 C-32.36146959 137.60954803 -36.49993562 142.73354337 -40.578125 147.91015625 C-37.01163147 151.56894352 -33.31285295 154.95009275 -29.390625 158.22265625 C-28.85759766 158.67705078 -28.32457031 159.13144531 -27.77539062 159.59960938 C-25.04709598 162.13140426 -25.04709598 162.13140426 -21.578125 162.91015625 C-20.20461726 161.20010088 -20.20461726 161.20010088 -18.86328125 158.96484375 C-18.34185547 158.1346875 -17.82042969 157.30453125 -17.28320312 156.44921875 C-16.74115234 155.57007813 -16.19910156 154.6909375 -15.640625 153.78515625 C-15.10244141 152.92921875 -14.56425781 152.07328125 -14.00976562 151.19140625 C-8.90862625 144.00965408 -8.90862625 144.00965408 -6.578125 135.91015625 C-8.85423871 133.95416692 -11.13636904 132.10717151 -13.515625 130.28515625 C-14.17498047 129.76953125 -14.83433594 129.25390625 -15.51367188 128.72265625 C-18.26801119 126.11402516 -18.26801119 126.11402516 -21.578125 124.91015625 Z M-74.578125 135.91015625 C-75.53280181 136.96603488 -76.44703236 138.05853775 -77.34375 139.1640625 C-77.90449219 139.85435547 -78.46523438 140.54464844 -79.04296875 141.25585938 C-79.63207031 141.98740234 -80.22117187 142.71894531 -80.828125 143.47265625 C-81.40175781 144.17712891 -81.97539062 144.88160156 -82.56640625 145.60742188 C-86.06974118 149.9367139 -89.38721714 154.3457185 -92.578125 158.91015625 C-91.25247547 161.94834015 -89.94908075 163.69960823 -87.3203125 165.70703125 C-86.69511719 166.19042969 -86.06992187 166.67382812 -85.42578125 167.171875 C-84.77480469 167.66300781 -84.12382812 168.15414062 -83.453125 168.66015625 C-82.79441406 169.16675781 -82.13570313 169.67335937 -81.45703125 170.1953125 C-79.83598388 171.44046483 -78.20774287 172.67624194 -76.578125 173.91015625 C-72.07402024 172.341668 -69.8951492 168.82780333 -67.140625 165.16015625 C-66.20529451 163.93553491 -65.26910258 162.71157102 -64.33203125 161.48828125 C-63.87844238 160.89337891 -63.42485352 160.29847656 -62.95751953 159.68554688 C-60.89841254 157.03531218 -58.74428078 154.47337507 -56.578125 151.91015625 C-57.93435135 148.78007864 -59.34767236 146.99935488 -62.01953125 144.89453125 C-62.68533203 144.36601562 -63.35113281 143.8375 -64.03710938 143.29296875 C-65.07834961 142.48472656 -65.07834961 142.48472656 -66.140625 141.66015625 C-66.83865234 141.10585937 -67.53667969 140.5515625 -68.25585938 139.98046875 C-71.13168468 137.2670553 -71.13168468 137.2670553 -74.578125 135.91015625 Z M-134.578125 140.91015625 C-135.52122433 141.94218778 -136.42368718 143.01140727 -137.30859375 144.09375 C-137.86200439 144.77050781 -138.41541504 145.44726562 -138.9855957 146.14453125 C-139.86671021 147.23507813 -139.86671021 147.23507813 -140.765625 148.34765625 C-141.35625732 149.07597656 -141.94688965 149.80429688 -142.55541992 150.5546875 C-146.52400485 155.49112624 -150.28233053 160.49241192 -153.578125 165.91015625 C-153.03027344 166.3484375 -152.48242188 166.78671875 -151.91796875 167.23828125 C-144.13802083 173.46223958 -136.35807292 179.68619792 -128.578125 185.91015625 C-124.82989573 182.31614751 -121.62999091 178.5594351 -118.515625 174.41015625 C-115.58255298 170.53832152 -112.6308671 166.68907025 -109.578125 162.91015625 C-111.12591354 158.50411821 -114.6080314 156.2877764 -118.203125 153.59765625 C-119.47142957 152.62810137 -120.73836294 151.6567501 -122.00390625 150.68359375 C-122.6170166 150.21276367 -123.23012695 149.74193359 -123.86181641 149.25683594 C-126.76156429 146.98158568 -129.4984428 144.53494154 -132.22265625 142.0546875 C-133.40979263 140.80263087 -133.40979263 140.80263087 -134.578125 140.91015625 Z M-190.578125 150.91015625 C-190.43615411 158.44751981 -189.43191554 165.35705516 -187.203125 172.53515625 C-186.99405518 173.22158203 -186.78498535 173.90800781 -186.56958008 174.61523438 C-185.41449902 178.15143064 -184.31007832 180.4175669 -181.578125 182.91015625 C-179.57024874 180.45816197 -177.57321326 177.99756249 -175.578125 175.53515625 C-175.00578125 174.83648437 -174.4334375 174.1378125 -173.84375 173.41796875 C-173.03164063 172.4125 -173.03164063 172.4125 -172.203125 171.38671875 C-171.70039063 170.76877441 -171.19765625 170.15083008 -170.6796875 169.51416016 C-169.38942053 167.95968606 -169.38942053 167.95968606 -169.578125 165.91015625 C-171.77167732 164.04014547 -173.97296576 162.27583659 -176.265625 160.53515625 C-177.51963369 159.56914338 -178.77354165 158.60299974 -180.02734375 157.63671875 C-180.63239746 157.17555664 -181.23745117 156.71439453 -181.86083984 156.23925781 C-183.40340366 155.04538272 -184.9094604 153.80468878 -186.41015625 152.55859375 C-188.3895502 150.70840122 -188.3895502 150.70840122 -190.578125 150.91015625 Z M-47.578125 157.91015625 C-54.56546976 164.97223197 -60.50832307 173.06627618 -66.578125 180.91015625 C-63.56402547 183.96648484 -60.51303608 186.91557209 -57.265625 189.72265625 C-56.21955078 190.62951172 -56.21955078 190.62951172 -55.15234375 191.5546875 C-54.63285156 192.00199219 -54.11335938 192.44929688 -53.578125 192.91015625 C-48.19492227 191.40327518 -44.86468283 187.75051825 -40.953125 183.97265625 C-40.28539062 183.33908203 -39.61765625 182.70550781 -38.9296875 182.05273438 C-37.13668956 180.34759333 -35.35149485 178.63569004 -33.578125 176.91015625 C-32.99240723 176.4298999 -32.40668945 175.94964355 -31.80322266 175.45483398 C-30.35382383 173.97691593 -30.35382383 173.97691593 -30.68164062 171.91113281 C-31.75224531 169.52151516 -32.86402151 168.5018933 -34.921875 166.89453125 C-35.59089844 166.36601562 -36.25992187 165.8375 -36.94921875 165.29296875 C-37.65175781 164.75414062 -38.35429687 164.2153125 -39.078125 163.66015625 C-39.78066406 163.10585937 -40.48320312 162.5515625 -41.20703125 161.98046875 C-44.10810937 159.26613299 -44.10810937 159.26613299 -47.578125 157.91015625 Z M-100.578125 168.91015625 C-102.30309756 170.84430825 -103.98043413 172.79640607 -105.640625 174.78515625 C-106.37792847 175.66240356 -106.37792847 175.66240356 -107.13012695 176.55737305 C-111.36146959 181.60954803 -115.49993562 186.73354337 -119.578125 191.91015625 C-116.50777267 195.07955221 -113.33141466 198.11592666 -110.078125 201.09765625 C-108.97984375 202.10892578 -108.97984375 202.10892578 -107.859375 203.140625 C-105.50806605 204.96449993 -103.38007009 205.94822087 -100.578125 206.91015625 C-94.55896843 199.25831707 -88.54251715 191.60483281 -82.578125 183.91015625 C-86.1555062 180.23340335 -89.87666232 176.86632943 -93.828125 173.59765625 C-94.36953125 173.14326172 -94.9109375 172.68886719 -95.46875 172.22070312 C-97.74441531 169.92130389 -97.74441531 169.92130389 -100.578125 168.91015625 Z M-160.578125 173.91015625 C-162.38814364 175.92660677 -164.14826853 177.96145903 -165.890625 180.03515625 C-166.37724609 180.60492188 -166.86386719 181.1746875 -167.36523438 181.76171875 C-170.38003717 185.33241385 -173.05940091 188.97352811 -175.578125 192.91015625 C-174.00338301 196.77543205 -171.60776523 199.07810125 -168.578125 201.91015625 C-167.97613281 202.4825 -167.37414062 203.05484375 -166.75390625 203.64453125 C-162.56679341 207.49437174 -158.15142053 211.3177861 -152.578125 212.91015625 C-148.94507798 212.45092799 -147.57249762 211.14300947 -145.34375 208.3125 C-144.77011719 207.59384766 -144.19648438 206.87519531 -143.60546875 206.13476562 C-143.01894531 205.38001953 -142.43242187 204.62527344 -141.828125 203.84765625 C-141.22613281 203.08904297 -140.62414062 202.33042969 -140.00390625 201.54882812 C-138.51977006 199.6759896 -137.04507732 197.79646421 -135.578125 195.91015625 C-137.4887328 191.58979867 -140.49786681 189.37020985 -144.203125 186.59765625 C-145.47142957 185.62810137 -146.73836294 184.6567501 -148.00390625 183.68359375 C-148.6170166 183.21276367 -149.23012695 182.74193359 -149.86181641 182.25683594 C-152.76156429 179.98158568 -155.4984428 177.53494154 -158.22265625 175.0546875 C-159.40979263 173.80263087 -159.40979263 173.80263087 -160.578125 173.91015625 Z M-74.578125 190.91015625 C-76.02143743 192.3413708 -76.02143743 192.3413708 -77.4765625 194.234375 C-78.31960938 195.28334961 -78.31960938 195.28334961 -79.1796875 196.35351562 C-80.05753906 197.46436523 -80.05753906 197.46436523 -80.953125 198.59765625 C-81.819375 199.67950195 -81.819375 199.67950195 -82.703125 200.78320312 C-83.82652561 202.18745389 -84.94612344 203.59475704 -86.06152344 205.00537109 C-87.34954535 206.62307021 -88.66775807 208.21665804 -89.9921875 209.8046875 C-91.77867782 211.73708354 -91.77867782 211.73708354 -91.578125 213.91015625 C-81.35674964 211.55137732 -71.29329554 206.72026994 -62.578125 200.91015625 C-63.77582178 197.31706591 -65.0458039 196.48922372 -68.015625 194.22265625 C-68.81871094 193.60003906 -69.62179687 192.97742188 -70.44921875 192.3359375 C-72.42804291 190.72467024 -72.42804291 190.72467024 -74.578125 190.91015625 Z M-127.578125 201.91015625 C-129.53793788 204.16423533 -131.38213264 206.42341235 -133.203125 208.78515625 C-133.71875 209.43613281 -134.234375 210.08710938 -134.765625 210.7578125 C-137.60277403 213.97522299 -137.60277403 213.97522299 -138.578125 217.91015625 C-132.83865522 219.12052063 -127.16669388 219.12974704 -121.328125 219.16015625 C-120.32265625 219.18078125 -119.3171875 219.20140625 -118.28125 219.22265625 C-117.3221875 219.2278125 -116.363125 219.23296875 -115.375 219.23828125 C-114.50198242 219.24762695 -113.62896484 219.25697266 -112.72949219 219.26660156 C-112.01954102 219.14897461 -111.30958984 219.03134766 -110.578125 218.91015625 C-109.918125 217.92015625 -109.258125 216.93015625 -108.578125 215.91015625 C-110.66027803 214.13791906 -112.74379419 212.36732899 -114.828125 210.59765625 C-115.41464844 210.09814453 -116.00117188 209.59863281 -116.60546875 209.08398438 C-121.54077123 204.17708017 -121.54077123 204.17708017 -127.578125 201.91015625 Z " fill="#294368" transform="translate(431.578125,31.08984375)"/>
<path d="M0 0 C0.69499603 -0.00146027 1.38999207 -0.00292053 2.10604858 -0.00442505 C24.74557429 0.06074193 42.34168651 7.80042104 58.5 23.625 C59.11488281 24.20378906 59.72976563 24.78257813 60.36328125 25.37890625 C70.35618503 35.64747635 75.65091689 49.85443164 78.5 63.625 C78.76151855 64.76207397 78.76151855 64.76207397 79.02832031 65.92211914 C84.25856272 95.89314071 75.95924234 126.54636651 61.5 152.625 C61.14147949 153.27339844 60.78295898 153.92179688 60.41357422 154.58984375 C55.53489659 163.29945825 50.12329542 171.11783327 43.5 178.625 C42.74589844 179.48867187 41.99179687 180.35234375 41.21484375 181.2421875 C39.00749451 183.73350105 36.76357571 186.18477501 34.5 188.625 C33.92378906 189.26695312 33.34757813 189.90890625 32.75390625 190.5703125 C18.19446224 206.07012149 -0.839565 216.9948788 -20.5 224.625 C-21.4590625 225.00398437 -22.418125 225.38296875 -23.40625 225.7734375 C-44.66803564 233.54216687 -69.84818751 235.04253789 -90.8359375 225.7890625 C-97.92256127 222.46361368 -104.52788601 218.72176868 -110.5 213.625 C-111.07621094 213.19058594 -111.65242188 212.75617188 -112.24609375 212.30859375 C-127.15365205 200.65480096 -134.98804676 180.48424756 -137.75 162.3125 C-142.08263404 124.17751394 -128.76451311 86.66060351 -105.14746094 56.921875 C-79.38241648 24.98567206 -42.27097834 -0.06508963 0 0 Z M-14.5 11.625 C-10.51509485 15.79560946 -6.21556888 19.37137494 -1.6875 22.9375 C-0.99462891 23.48728516 -0.30175781 24.03707031 0.41210938 24.60351562 C2.10584555 25.94682363 3.80261397 27.28630687 5.5 28.625 C8.64592853 25.54438487 11.62236896 22.43783533 14.375 19 C14.99117187 18.24460937 15.60734375 17.48921875 16.2421875 16.7109375 C16.86480469 15.67839844 16.86480469 15.67839844 17.5 14.625 C17.17 13.635 16.84 12.645 16.5 11.625 C10.91937787 10.67734719 5.52969942 10.4734936 -0.125 10.5 C-0.95773437 10.49613281 -1.79046875 10.49226563 -2.6484375 10.48828125 C-6.72905986 10.49477906 -10.51986352 10.60153633 -14.5 11.625 Z M29.5 16.625 C27.62796176 18.62778377 25.86822564 20.63977949 24.125 22.75 C23.64289063 23.31976563 23.16078125 23.88953125 22.6640625 24.4765625 C19.67651403 28.04863133 17.01380611 31.70536867 14.5 35.625 C20.13723872 40.88555687 25.93363102 45.91420196 31.9375 50.75 C32.54029785 51.24733643 33.1430957 51.74467285 33.76416016 52.25708008 C35.65927761 53.80272165 35.65927761 53.80272165 38.5 55.625 C42.67435706 54.23354765 44.46781975 51.24365188 47.0625 47.875 C47.55685547 47.25367187 48.05121094 46.63234375 48.56054688 45.9921875 C51.15064186 42.6695758 53.18996355 39.68688815 54.5 35.625 C48.02820536 27.61329281 40.69722137 21.31745988 31.5 16.625 C30.84 16.625 30.18 16.625 29.5 16.625 Z M-40.23828125 19.26953125 C-40.97626953 19.61693359 -41.71425781 19.96433594 -42.47460938 20.32226562 C-43.24611328 20.69029297 -44.01761719 21.05832031 -44.8125 21.4375 C-45.57240234 21.79392578 -46.33230469 22.15035156 -47.11523438 22.51757812 C-51.0385971 24.37529549 -54.8253698 26.29993458 -58.5 28.625 C-56.97651044 33.19546868 -53.31857847 35.09177754 -49.5 37.625 C-47.74914666 35.56321926 -45.99929619 33.50060123 -44.25 31.4375 C-43.75886719 30.85935547 -43.26773438 30.28121094 -42.76171875 29.68554688 C-41.33587872 28.00305564 -39.91700426 26.31493514 -38.5 24.625 C-37.72140625 23.70074219 -36.9428125 22.77648437 -36.140625 21.82421875 C-34.30068403 19.81511485 -34.30068403 19.81511485 -34.5 17.625 C-36.87005758 17.625 -38.09890401 18.26017744 -40.23828125 19.26953125 Z M-22.5 20.625 C-22.86762451 21.10855957 -23.23524902 21.59211914 -23.61401367 22.09033203 C-25.3037645 24.31129911 -26.99561626 26.53065736 -28.6875 28.75 C-29.26564453 29.51054688 -29.84378906 30.27109375 -30.43945312 31.0546875 C-31.00986328 31.80234375 -31.58027344 32.55 -32.16796875 33.3203125 C-32.72790527 34.05540039 -33.2878418 34.79048828 -33.86474609 35.54785156 C-35.34552905 37.42878638 -36.89359507 39.20830126 -38.48828125 40.9921875 C-39.15214844 41.86101562 -39.81601562 42.72984375 -40.5 43.625 C-39.10594537 47.80716388 -36.08038981 49.55390561 -32.6875 52.125 C-32.05779297 52.61097656 -31.42808594 53.09695312 -30.77929688 53.59765625 C-27.70519829 55.96532505 -24.61073836 58.30565855 -21.5 60.625 C-16.99589524 59.05651175 -14.8170242 55.54264708 -12.0625 51.875 C-11.12716951 50.65037866 -10.19097758 49.42641477 -9.25390625 48.203125 C-8.80160645 47.60435547 -8.34930664 47.00558594 -7.88330078 46.38867188 C-6.51606973 44.64548848 -5.06650281 43.00996868 -3.58984375 41.359375 C-2.90019531 40.45703125 -2.21054687 39.5546875 -1.5 38.625 C-2.88233715 34.47798854 -5.82872142 32.74510204 -9.1875 30.1875 C-9.80044922 29.70990234 -10.41339844 29.23230469 -11.04492188 28.74023438 C-14.76345439 25.8655682 -18.55907954 23.18569025 -22.5 20.625 Z M-87.375 52.0625 C-88.01179688 52.65933594 -88.64859375 53.25617188 -89.3046875 53.87109375 C-90.72681831 55.54251208 -90.72681831 55.54251208 -90.25854492 57.55981445 C-89.38360399 59.94189534 -88.51026193 60.83022328 -86.55859375 62.421875 C-85.97529297 62.90527344 -85.39199219 63.38867188 -84.79101562 63.88671875 C-84.17935547 64.37785156 -83.56769531 64.86898437 -82.9375 65.375 C-82.32197266 65.88160156 -81.70644531 66.38820313 -81.07226562 66.91015625 C-79.55505562 68.15685595 -78.02841574 69.3920638 -76.5 70.625 C-72.24063732 66.53377005 -68.48128987 62.13647444 -64.75 57.5625 C-64.16089844 56.85544922 -63.57179688 56.14839844 -62.96484375 55.41992188 C-62.40410156 54.73349609 -61.84335937 54.04707031 -61.265625 53.33984375 C-60.50427246 52.41353149 -60.50427246 52.41353149 -59.72753906 51.46850586 C-58.42654615 49.51468774 -57.92449697 47.91886759 -57.5 45.625 C-59.31007331 44.12207257 -61.12312236 42.62272829 -62.9375 41.125 C-63.94683594 40.2896875 -64.95617187 39.454375 -65.99609375 38.59375 C-71.58410117 34.2000593 -82.84448635 47.80558753 -87.375 52.0625 Z M6.5 44.625 C4.69036578 46.73473939 2.99147086 48.85224493 1.3125 51.0625 C0.82289795 51.69687988 0.3332959 52.33125977 -0.17114258 52.98486328 C-1.15696465 54.26288282 -2.14030721 55.54281902 -3.12109375 56.82470703 C-4.96184728 59.22798545 -6.82448062 61.61396084 -8.6875 64 C-9.62537819 65.20803982 -10.56305076 66.41623955 -11.5 67.625 C-8.35906944 71.93791957 -4.8311214 74.93692072 -0.625 78.125 C0.58140307 79.05120623 1.78713796 79.97828344 2.9921875 80.90625 C3.86955566 81.57720703 3.86955566 81.57720703 4.76464844 82.26171875 C6.49271627 83.61927794 8.15615538 85.03395758 9.8203125 86.46875 C12.18644813 88.83396951 12.18644813 88.83396951 14.5 88.625 C16.30963422 86.51526061 18.00852914 84.39775507 19.6875 82.1875 C20.17710205 81.55312012 20.6667041 80.91874023 21.17114258 80.26513672 C22.15696465 78.98711718 23.14030721 77.70718098 24.12109375 76.42529297 C25.96184728 74.02201455 27.82448062 71.63603916 29.6875 69.25 C30.62537819 68.04196018 31.56305076 66.83376045 32.5 65.625 C28.68363668 61.70021727 24.67112986 58.10528658 20.5 54.5625 C19.89671875 54.04623047 19.2934375 53.52996094 18.671875 52.99804688 C16.95434481 51.53254557 15.22896555 50.07698032 13.5 48.625 C12.571875 47.84253906 11.64375 47.06007812 10.6875 46.25390625 C8.68720741 44.42591782 8.68720741 44.42591782 6.5 44.625 Z M60.5 47.625 C56.54 52.575 52.58 57.525 48.5 62.625 C52.45710377 66.62036524 52.45710377 66.62036524 56.61328125 70.30078125 C57.4012207 70.95336914 57.4012207 70.95336914 58.20507812 71.61914062 C58.73552734 72.05419922 59.26597656 72.48925781 59.8125 72.9375 C60.36228516 73.39189453 60.91207031 73.84628906 61.47851562 74.31445312 C62.81712216 75.42025852 64.15829231 76.52295939 65.5 77.625 C67.7103917 76.09472078 67.7103917 76.09472078 69.5 73.625 C69.47463902 70.19416934 69.47463902 70.19416934 68.5 66.5 C68.34990479 65.8385498 68.19980957 65.17709961 68.04516602 64.49560547 C66.7492052 59.05138047 65.20417864 53.55164125 62.5 48.625 C61.84 48.295 61.18 47.965 60.5 47.625 Z M-48.5 53.625 C-49.45467681 54.68087863 -50.36890736 55.7733815 -51.265625 56.87890625 C-51.82636719 57.56919922 -52.38710938 58.25949219 -52.96484375 58.97070312 C-53.55394531 59.70224609 -54.14304687 60.43378906 -54.75 61.1875 C-55.32363281 61.89197266 -55.89726562 62.59644531 -56.48828125 63.32226562 C-58.17720047 65.40936968 -59.8438315 67.51183687 -61.5 69.625 C-62.01884766 70.27968262 -62.53769531 70.93436523 -63.07226562 71.60888672 C-64.29851505 73.22056516 -65.41097684 74.91759741 -66.5 76.625 C-65.28425834 80.27222499 -63.9467737 81.10818433 -60.9375 83.4375 C-60.03902344 84.13488281 -59.14054687 84.83226563 -58.21484375 85.55078125 C-57.31894531 86.23527344 -56.42304688 86.91976562 -55.5 87.625 C-54.71753906 88.23730469 -53.93507813 88.84960938 -53.12890625 89.48046875 C-49.68524754 92.51767358 -49.68524754 92.51767358 -45.5 93.625 C-43.69036578 91.51526061 -41.99147086 89.39775507 -40.3125 87.1875 C-39.82289795 86.55312012 -39.3332959 85.91874023 -38.82885742 85.26513672 C-37.84303535 83.98711718 -36.85969279 82.70718098 -35.87890625 81.42529297 C-34.03815272 79.02201455 -32.17551938 76.63603916 -30.3125 74.25 C-29.37462181 73.04196018 -28.43694924 71.83376045 -27.5 70.625 C-31.47479022 66.4730389 -35.74918003 62.8810692 -40.25 59.3125 C-40.93449219 58.76271484 -41.61898437 58.21292969 -42.32421875 57.64648438 C-45.12719056 54.96369358 -45.12719056 54.96369358 -48.5 53.625 Z M-99.5 66.625 C-101.01487906 68.70038431 -102.39554188 70.76014044 -103.75 72.9375 C-104.14678955 73.56962402 -104.5435791 74.20174805 -104.95239258 74.85302734 C-106.14609707 76.77038653 -107.32472338 78.69630235 -108.5 80.625 C-109.15871094 81.69363281 -109.81742187 82.76226562 -110.49609375 83.86328125 C-111.33333984 85.29220703 -111.33333984 85.29220703 -112.1875 86.75 C-112.68636719 87.59820312 -113.18523437 88.44640625 -113.69921875 89.3203125 C-114.71854535 91.56357001 -114.71854535 91.56357001 -113.96484375 93.6640625 C-112.06300835 96.20998615 -109.89170459 97.93907339 -107.375 99.875 C-106.00988281 100.93460938 -106.00988281 100.93460938 -104.6171875 102.015625 C-103.91851562 102.54671875 -103.21984375 103.0778125 -102.5 103.625 C-98.57127356 99.86056576 -95.19742355 95.8661338 -91.875 91.5625 C-91.39804687 90.95083984 -90.92109375 90.33917969 -90.4296875 89.70898438 C-88.08990364 86.70301205 -85.77220113 83.68255923 -83.5 80.625 C-85.06104065 76.44921627 -88.13957368 74.10138361 -91.5 71.375 C-92.0465625 70.91609375 -92.593125 70.4571875 -93.15625 69.984375 C-95.96067719 67.42648332 -95.96067719 67.42648332 -99.5 66.625 Z M40.5 72.625 C38.95940358 74.15378747 38.95940358 74.15378747 37.3828125 76.16796875 C36.77566406 76.91240234 36.16851562 77.65683594 35.54296875 78.42382812 C34.91003906 79.21208984 34.27710938 80.00035156 33.625 80.8125 C32.99980469 81.58142578 32.37460937 82.35035156 31.73046875 83.14257812 C28.6347972 86.95490091 25.56218357 90.78572964 22.5 94.625 C23.81240372 97.60813476 25.09911576 99.40529394 27.65234375 101.421875 C28.26400391 101.90527344 28.87566406 102.38867188 29.50585938 102.88671875 C30.14330078 103.37785156 30.78074219 103.86898437 31.4375 104.375 C32.07107422 104.88160156 32.70464844 105.38820312 33.35742188 105.91015625 C36.99396594 108.88930753 36.99396594 108.88930753 41.5 109.625 C42.94614478 108.34913864 42.94614478 108.34913864 44.2421875 106.58984375 C44.75136719 105.94466797 45.26054687 105.29949219 45.78515625 104.63476562 C46.30980469 103.95091797 46.83445312 103.26707031 47.375 102.5625 C47.89191406 101.90572266 48.40882813 101.24894531 48.94140625 100.57226562 C52.25138216 96.34099919 55.4053733 92.01571574 58.5 87.625 C57.18313741 84.62351686 55.89104261 82.84168946 53.3125 80.828125 C52.38824219 80.10302734 52.38824219 80.10302734 51.4453125 79.36328125 C50.80335938 78.87214844 50.16140625 78.38101563 49.5 77.875 C48.85804688 77.36839844 48.21609375 76.86179687 47.5546875 76.33984375 C44.395186 73.57838054 44.395186 73.57838054 40.5 72.625 Z M-19.5 77.625 C-20.92676421 79.02296981 -20.92676421 79.02296981 -22.36328125 80.87890625 C-22.92080078 81.56919922 -23.47832031 82.25949219 -24.05273438 82.97070312 C-24.63345703 83.70224609 -25.21417969 84.43378906 -25.8125 85.1875 C-26.38162109 85.89197266 -26.95074219 86.59644531 -27.53710938 87.32226562 C-31.01509257 91.65477053 -34.31289308 96.07455278 -37.5 100.625 C-34.36851135 104.9142847 -30.8645962 107.93521744 -26.6875 111.125 C-26.09646484 111.58519531 -25.50542969 112.04539063 -24.89648438 112.51953125 C-20.8380002 115.66186905 -16.69133293 118.66262384 -12.5 121.625 C-6.04349031 114.05284342 0.34079364 106.443133 6.5 98.625 C-0.84752692 91.04045609 -8.88930429 83.74526765 -17.5 77.625 C-18.16 77.625 -18.82 77.625 -19.5 77.625 Z M-74.5 86.625 C-76.22497256 88.559152 -77.90230913 90.51124982 -79.5625 92.5 C-80.29980347 93.37724731 -80.29980347 93.37724731 -81.05200195 94.2722168 C-85.28334459 99.32439178 -89.42181062 104.44838712 -93.5 109.625 C-89.79360953 113.42856175 -85.92647169 116.94327398 -81.875 120.375 C-81.30265625 120.86871094 -80.7303125 121.36242187 -80.140625 121.87109375 C-77.60847828 124.0204741 -75.68137739 125.56454087 -72.5 126.625 C-66.04349031 119.05284342 -59.65920636 111.443133 -53.5 103.625 C-57.47479022 99.4730389 -61.74918003 95.8810692 -66.25 92.3125 C-66.93449219 91.76271484 -67.61898437 91.21292969 -68.32421875 90.64648438 C-71.12719056 87.96369358 -71.12719056 87.96369358 -74.5 86.625 Z M67.5 93.625 C65.43394305 96.14293616 63.37282869 98.66487534 61.3125 101.1875 C60.73435547 101.89197266 60.15621094 102.59644531 59.56054688 103.32226562 C56.03172725 107.64855861 52.6949015 112.04624286 49.5 116.625 C50.97797262 120.29556937 52.97615477 122.03585783 56.125 124.375 C56.94226563 124.98859375 57.75953125 125.6021875 58.6015625 126.234375 C59.22804688 126.69328125 59.85453125 127.1521875 60.5 127.625 C63.28790468 124.83709532 63.93122752 121.57075155 65 117.875 C65.22067139 117.12162354 65.44134277 116.36824707 65.66870117 115.59204102 C67.62314962 108.66739741 68.73984452 101.78407623 69.5 94.625 C68.84 94.295 68.18 93.965 67.5 93.625 Z M-119.5 103.625 C-123.29690371 113.24253784 -126.81246645 123.17299717 -126.5 133.625 C-122.56738002 129.83616869 -119.08252767 125.83688063 -115.6875 121.5625 C-115.18541016 120.95083984 -114.68332031 120.33917969 -114.16601562 119.70898438 C-111.48551876 116.33556995 -110.5 115.06429686 -110.5 110.625 C-112.2026348 108.61792972 -112.2026348 108.61792972 -114.4375 106.875 C-115.16839844 106.26140625 -115.89929688 105.6478125 -116.65234375 105.015625 C-118.24774701 103.52477492 -118.24774701 103.52477492 -119.5 103.625 Z M14.5 104.625 C8.48084343 112.27683918 2.46439215 119.93032344 -3.5 127.625 C-2.18449273 130.62700363 -0.90508802 132.39147903 1.6875 134.38671875 C2.30367187 134.86560547 2.91984375 135.34449219 3.5546875 135.83789062 C4.19664062 136.32451172 4.83859375 136.81113281 5.5 137.3125 C6.14195312 137.81072266 6.78390625 138.30894531 7.4453125 138.82226562 C10.82090666 141.45745477 10.82090666 141.45745477 14.5 143.625 C20.51915657 135.97316082 26.53560785 128.31967656 32.5 120.625 C31.18449273 117.62299637 29.90508802 115.85852097 27.3125 113.86328125 C26.69632813 113.38439453 26.08015625 112.90550781 25.4453125 112.41210938 C24.80335938 111.92548828 24.16140625 111.43886719 23.5 110.9375 C22.53707031 110.19016602 22.53707031 110.19016602 21.5546875 109.42773438 C18.17909334 106.79254523 18.17909334 106.79254523 14.5 104.625 Z M-45.5 110.625 C-47.28769137 112.54511296 -48.96361776 114.47479501 -50.625 116.5 C-51.11202393 117.08483154 -51.59904785 117.66966309 -52.10083008 118.2722168 C-56.30215277 123.33460743 -60.42889036 128.45737372 -64.5 133.625 C-60.78485632 137.49435719 -56.86309926 140.84300122 -52.625 144.125 C-52.03847656 144.58519531 -51.45195312 145.04539063 -50.84765625 145.51953125 C-46.80962527 148.6700829 -42.68415879 151.67147615 -38.5 154.625 C-36.43394305 152.10706384 -34.37282869 149.58512466 -32.3125 147.0625 C-31.73435547 146.35802734 -31.15621094 145.65355469 -30.56054688 144.92773438 C-27.03172725 140.60144139 -23.6949015 136.20375714 -20.5 131.625 C-22.04928771 127.19549285 -25.57821644 124.95602908 -29.1875 122.25 C-30.45802452 121.27864156 -31.72756681 120.30599695 -32.99609375 119.33203125 C-33.60308105 118.86748535 -34.21006836 118.40293945 -34.83544922 117.92431641 C-36.87301517 116.33383152 -38.8190467 114.65526949 -40.75 112.9375 C-43.1562756 110.41046669 -43.1562756 110.41046669 -45.5 110.625 Z M-101.5 119.625 C-102.9297735 121.12121525 -102.9297735 121.12121525 -104.36328125 123.09765625 C-104.92080078 123.83306641 -105.47832031 124.56847656 -106.05273438 125.32617188 C-106.63345703 126.10541016 -107.21417969 126.88464844 -107.8125 127.6875 C-108.38162109 128.43966797 -108.95074219 129.19183594 -109.53710938 129.96679688 C-112.93186149 134.46844864 -116.2426358 139.02313275 -119.5 143.625 C-109.80635495 152.01677157 -109.80635495 152.01677157 -99.5 159.625 C-95.05413914 155.35765363 -91.11686755 150.74275877 -87.1875 146 C-86.54232422 145.236875 -85.89714844 144.47375 -85.23242188 143.6875 C-84.62333984 142.95273438 -84.01425781 142.21796875 -83.38671875 141.4609375 C-82.83201904 140.79626465 -82.27731934 140.1315918 -81.70581055 139.44677734 C-80.22403112 137.57217163 -80.22403112 137.57217163 -80.5 134.625 C-82.68804855 132.68566062 -84.85162517 130.93065534 -87.1875 129.1875 C-88.44147222 128.23055519 -89.69537957 127.27352537 -90.94921875 126.31640625 C-91.55427246 125.86152832 -92.15932617 125.40665039 -92.78271484 124.93798828 C-94.3289605 123.75577203 -95.83354394 122.51953806 -97.33203125 121.27734375 C-99.31080053 119.42294242 -99.31080053 119.42294242 -101.5 119.625 Z M41.5 126.625 C39.77502744 128.559152 38.09769087 130.51124982 36.4375 132.5 C35.70019653 133.37724731 35.70019653 133.37724731 34.94799805 134.2722168 C30.71665541 139.32439178 26.57818938 144.44838712 22.5 149.625 C26.06649353 153.28378727 29.76527205 156.6649365 33.6875 159.9375 C34.22052734 160.39189453 34.75355469 160.84628906 35.30273438 161.31445312 C38.03102902 163.84624801 38.03102902 163.84624801 41.5 164.625 C42.87350774 162.91494463 42.87350774 162.91494463 44.21484375 160.6796875 C44.73626953 159.84953125 45.25769531 159.019375 45.79492188 158.1640625 C46.33697266 157.28492188 46.87902344 156.40578125 47.4375 155.5 C47.97568359 154.6440625 48.51386719 153.788125 49.06835938 152.90625 C54.16949875 145.72449783 54.16949875 145.72449783 56.5 137.625 C54.22388629 135.66901067 51.94175596 133.82201526 49.5625 132 C48.90314453 131.484375 48.24378906 130.96875 47.56445312 130.4375 C44.81011381 127.82886891 44.81011381 127.82886891 41.5 126.625 Z M-11.5 137.625 C-12.45467681 138.68087863 -13.36890736 139.7733815 -14.265625 140.87890625 C-14.82636719 141.56919922 -15.38710938 142.25949219 -15.96484375 142.97070312 C-16.55394531 143.70224609 -17.14304687 144.43378906 -17.75 145.1875 C-18.32363281 145.89197266 -18.89726562 146.59644531 -19.48828125 147.32226562 C-22.99161618 151.65155765 -26.30909214 156.06056225 -29.5 160.625 C-28.17435047 163.6631839 -26.87095575 165.41445198 -24.2421875 167.421875 C-23.61699219 167.90527344 -22.99179687 168.38867188 -22.34765625 168.88671875 C-21.69667969 169.37785156 -21.04570312 169.86898437 -20.375 170.375 C-19.71628906 170.88160156 -19.05757812 171.38820312 -18.37890625 171.91015625 C-16.75785888 173.15530858 -15.12961787 174.39108569 -13.5 175.625 C-8.99589524 174.05651175 -6.8170242 170.54264708 -4.0625 166.875 C-3.12716951 165.65037866 -2.19097758 164.42641477 -1.25390625 163.203125 C-0.80031738 162.60822266 -0.34672852 162.01332031 0.12060547 161.40039062 C2.17971246 158.75015593 4.33384422 156.18821882 6.5 153.625 C5.14377365 150.49492239 3.73045264 148.71419863 1.05859375 146.609375 C0.39279297 146.08085937 -0.27300781 145.55234375 -0.95898438 145.0078125 C-2.00022461 144.19957031 -2.00022461 144.19957031 -3.0625 143.375 C-3.76052734 142.82070312 -4.45855469 142.26640625 -5.17773438 141.6953125 C-8.05355968 138.98189905 -8.05355968 138.98189905 -11.5 137.625 Z M-71.5 142.625 C-72.44309933 143.65703153 -73.34556218 144.72625102 -74.23046875 145.80859375 C-74.78387939 146.48535156 -75.33729004 147.16210938 -75.9074707 147.859375 C-76.78858521 148.94992188 -76.78858521 148.94992188 -77.6875 150.0625 C-78.27813232 150.79082031 -78.86876465 151.51914063 -79.47729492 152.26953125 C-83.44587985 157.20596999 -87.20420553 162.20725567 -90.5 167.625 C-89.95214844 168.06328125 -89.40429688 168.5015625 -88.83984375 168.953125 C-81.05989583 175.17708333 -73.27994792 181.40104167 -65.5 187.625 C-61.75177073 184.03099126 -58.55186591 180.27427885 -55.4375 176.125 C-52.50442798 172.25316527 -49.5527421 168.403914 -46.5 164.625 C-48.04778854 160.21896196 -51.5299064 158.00262015 -55.125 155.3125 C-56.39330457 154.34294512 -57.66023794 153.37159385 -58.92578125 152.3984375 C-59.5388916 151.92760742 -60.15200195 151.45677734 -60.78369141 150.97167969 C-63.68343929 148.69642943 -66.4203178 146.24978529 -69.14453125 143.76953125 C-70.33166763 142.51747462 -70.33166763 142.51747462 -71.5 142.625 Z M-127.5 152.625 C-127.35802911 160.16236356 -126.35379054 167.07189891 -124.125 174.25 C-123.91593018 174.93642578 -123.70686035 175.62285156 -123.49145508 176.33007812 C-122.33637402 179.86627439 -121.23195332 182.13241065 -118.5 184.625 C-116.49212374 182.17300572 -114.49508826 179.71240624 -112.5 177.25 C-111.92765625 176.55132812 -111.3553125 175.85265625 -110.765625 175.1328125 C-109.95351563 174.12734375 -109.95351563 174.12734375 -109.125 173.1015625 C-108.62226563 172.48361816 -108.11953125 171.86567383 -107.6015625 171.22900391 C-106.31129553 169.67452981 -106.31129553 169.67452981 -106.5 167.625 C-108.69355232 165.75498922 -110.89484076 163.99068034 -113.1875 162.25 C-114.44150869 161.28398713 -115.69541665 160.31784349 -116.94921875 159.3515625 C-117.55427246 158.89040039 -118.15932617 158.42923828 -118.78271484 157.95410156 C-120.32527866 156.76022647 -121.8313354 155.51953253 -123.33203125 154.2734375 C-125.3114252 152.42324497 -125.3114252 152.42324497 -127.5 152.625 Z M15.5 159.625 C8.51265524 166.68707572 2.56980193 174.78111993 -3.5 182.625 C-0.48590047 185.68132859 2.56508892 188.63041584 5.8125 191.4375 C6.85857422 192.34435547 6.85857422 192.34435547 7.92578125 193.26953125 C8.44527344 193.71683594 8.96476563 194.16414063 9.5 194.625 C14.88320273 193.11811893 18.21344217 189.465362 22.125 185.6875 C22.79273438 185.05392578 23.46046875 184.42035156 24.1484375 183.76757812 C25.94143544 182.06243708 27.72663015 180.35053379 29.5 178.625 C30.08571777 178.14474365 30.67143555 177.6644873 31.27490234 177.16967773 C32.72430117 175.69175968 32.72430117 175.69175968 32.39648438 173.62597656 C31.32587969 171.23635891 30.21410349 170.21673705 28.15625 168.609375 C27.48722656 168.08085937 26.81820312 167.55234375 26.12890625 167.0078125 C25.42636719 166.46898437 24.72382813 165.93015625 24 165.375 C23.29746094 164.82070312 22.59492188 164.26640625 21.87109375 163.6953125 C18.97001563 160.98097674 18.97001563 160.98097674 15.5 159.625 Z M-37.5 170.625 C-39.22497256 172.559152 -40.90230913 174.51124982 -42.5625 176.5 C-43.29980347 177.37724731 -43.29980347 177.37724731 -44.05200195 178.2722168 C-48.28334459 183.32439178 -52.42181062 188.44838712 -56.5 193.625 C-53.42964767 196.79439596 -50.25328966 199.83077041 -47 202.8125 C-45.90171875 203.82376953 -45.90171875 203.82376953 -44.78125 204.85546875 C-42.42994105 206.67934368 -40.30194509 207.66306462 -37.5 208.625 C-31.48084343 200.97316082 -25.46439215 193.31967656 -19.5 185.625 C-23.0773812 181.9482471 -26.79853732 178.58117318 -30.75 175.3125 C-31.29140625 174.85810547 -31.8328125 174.40371094 -32.390625 173.93554688 C-34.66629031 171.63614764 -34.66629031 171.63614764 -37.5 170.625 Z M-97.5 175.625 C-99.31001864 177.64145052 -101.07014353 179.67630278 -102.8125 181.75 C-103.29912109 182.31976563 -103.78574219 182.88953125 -104.28710938 183.4765625 C-107.30191217 187.0472576 -109.98127591 190.68837186 -112.5 194.625 C-110.92525801 198.4902758 -108.52964023 200.792945 -105.5 203.625 C-104.89800781 204.19734375 -104.29601562 204.7696875 -103.67578125 205.359375 C-99.48866841 209.20921549 -95.07329553 213.03262985 -89.5 214.625 C-85.86695298 214.16577174 -84.49437262 212.85785322 -82.265625 210.02734375 C-81.69199219 209.30869141 -81.11835938 208.59003906 -80.52734375 207.84960938 C-79.94082031 207.09486328 -79.35429687 206.34011719 -78.75 205.5625 C-78.14800781 204.80388672 -77.54601562 204.04527344 -76.92578125 203.26367188 C-75.44164506 201.39083335 -73.96695232 199.51130796 -72.5 197.625 C-74.4106078 193.30464242 -77.41974181 191.0850536 -81.125 188.3125 C-82.39330457 187.34294512 -83.66023794 186.37159385 -84.92578125 185.3984375 C-85.5388916 184.92760742 -86.15200195 184.45677734 -86.78369141 183.97167969 C-89.68343929 181.69642943 -92.4203178 179.24978529 -95.14453125 176.76953125 C-96.33166763 175.51747462 -96.33166763 175.51747462 -97.5 175.625 Z M-11.5 192.625 C-12.94331243 194.05621455 -12.94331243 194.05621455 -14.3984375 195.94921875 C-15.24148438 196.99819336 -15.24148438 196.99819336 -16.1015625 198.06835938 C-16.97941406 199.17920898 -16.97941406 199.17920898 -17.875 200.3125 C-18.74125 201.3943457 -18.74125 201.3943457 -19.625 202.49804688 C-20.74840061 203.90229764 -21.86799844 205.30960079 -22.98339844 206.72021484 C-24.27142035 208.33791396 -25.58963307 209.93150179 -26.9140625 211.51953125 C-28.70055282 213.45192729 -28.70055282 213.45192729 -28.5 215.625 C-18.27862464 213.26622107 -8.21517054 208.43511369 0.5 202.625 C-0.69769678 199.03190966 -1.9676789 198.20406747 -4.9375 195.9375 C-5.74058594 195.31488281 -6.54367187 194.69226563 -7.37109375 194.05078125 C-9.34991791 192.43951399 -9.34991791 192.43951399 -11.5 192.625 Z M-64.5 203.625 C-66.45981288 205.87907908 -68.30400764 208.1382561 -70.125 210.5 C-70.640625 211.15097656 -71.15625 211.80195313 -71.6875 212.47265625 C-74.52464903 215.69006674 -74.52464903 215.69006674 -75.5 219.625 C-69.76053022 220.83536438 -64.08856888 220.84459079 -58.25 220.875 C-57.24453125 220.895625 -56.2390625 220.91625 -55.203125 220.9375 C-54.2440625 220.94265625 -53.285 220.9478125 -52.296875 220.953125 C-51.42385742 220.9624707 -50.55083984 220.97181641 -49.65136719 220.98144531 C-48.94141602 220.86381836 -48.23146484 220.74619141 -47.5 220.625 C-46.84 219.635 -46.18 218.645 -45.5 217.625 C-47.58215303 215.85276281 -49.66566919 214.08217274 -51.75 212.3125 C-52.33652344 211.81298828 -52.92304688 211.31347656 -53.52734375 210.79882812 C-58.46264623 205.89192392 -58.46264623 205.89192392 -64.5 203.625 Z " fill="#284268" transform="translate(368.5,29.375)"/>
<path d="M0 0 C1.03125 0.34804688 2.0625 0.69609375 3.125 1.0546875 C11.63418889 4.05400995 11.63418889 4.05400995 14.125 8.25 C14.82815745 11.83610301 14.79561828 14.14483779 12.87109375 17.31640625 C11.0319824 19.7017038 9.09752573 21.9737339 7.125 24.25 C5.47533534 26.26770693 3.8295139 28.28856199 2.1875 30.3125 C0.83442487 31.95923083 -0.51934885 33.6053892 -1.875 35.25 C-0.67617188 35.59224609 -0.67617188 35.59224609 0.546875 35.94140625 C5.08958322 37.60276788 9.16013149 39.83193236 13.375 42.1875 C14.1896875 42.63029297 15.004375 43.07308594 15.84375 43.52929688 C17.01164062 44.17801758 17.01164062 44.17801758 18.203125 44.83984375 C18.90856445 45.23034912 19.61400391 45.62085449 20.34082031 46.02319336 C23.05102101 47.88673448 24.0226858 49.76116547 24.6875 52.9375 C23.30857592 61.05783068 14.88697533 66.2832371 8.7734375 71.07421875 C6.04358945 73.31688153 3.58376714 75.71578332 1.125 78.25 C1.64964844 78.47816406 2.17429687 78.70632813 2.71484375 78.94140625 C5.95573011 80.70104471 8.78789654 82.92717919 11.6875 85.1875 C12.26435547 85.63029297 12.84121094 86.07308594 13.43554688 86.52929688 C20.81861152 92.24329501 20.81861152 92.24329501 22 96.125 C22.15772 100.068 21.51398242 101.11388408 19.125 104.25 C16.50827101 106.34353099 13.71797319 108.1060389 10.875 109.875 C10.13636719 110.35195313 9.39773438 110.82890625 8.63671875 111.3203125 C-5.15197116 120.07503625 -15.75480319 118.62035433 -31.14889908 115.25629997 C-33.68919173 114.70255392 -36.23244656 114.16495978 -38.77706909 113.63148499 C-46.0043894 112.11387787 -53.22641689 110.57219414 -60.44433594 109.01049805 C-64.88173849 108.05157289 -69.32334266 107.11456309 -73.76803207 106.19003487 C-75.44157018 105.83746915 -77.11343946 105.47686549 -78.78332901 105.10740471 C-90.21400428 102.58032483 -100.24219192 102.12280829 -111.875 103.25 C-124.31986229 103.82267525 -134.05313893 102.37294456 -143.875 94.25 C-151.20870648 87.33312941 -156.31985637 79.3940615 -157.11328125 69.18359375 C-157.32698693 59.11693157 -155.84677519 49.97974163 -149.46875 41.87109375 C-140.04810956 32.28882467 -128.57473522 29.07942223 -115.55859375 28.171875 C-100.78567257 26.74360062 -87.54209979 21.65592232 -73.85742188 16.25366211 C-70.64936654 14.99434537 -67.42863716 13.76834985 -64.20898438 12.5390625 C-57.08369636 9.81156454 -49.97691516 7.03780162 -42.875 4.25 C-40.13528748 3.17488199 -37.39549727 2.09998739 -34.65464783 1.027771 C-33.15083776 0.43908331 -31.64795083 -0.15197127 -30.14625549 -0.74603271 C-19.02684963 -5.10678721 -11.16889531 -4.0276579 0 0 Z " fill="#294469" transform="translate(355.875,380.75)"/>
<path d="M0 0 C19.96488699 16.5525211 32.4049784 37.91180742 35 64 C37.54840622 108.23588611 21.31405554 148.56962676 -7.86401367 181.40356445 C-29.45467803 205.29895712 -57.13481223 223.61138045 -89 230 C-89.64453125 230.16918945 -90.2890625 230.33837891 -90.953125 230.51269531 C-97.40963863 232.15304602 -103.60951582 232.30872981 -110.25 232.25 C-111.36028564 232.24250732 -112.47057129 232.23501465 -113.61450195 232.22729492 C-137.51140471 231.9133927 -158.77440374 223.84333615 -176 207 C-192.88381696 188.72568054 -200.46578632 164.72679363 -200.25 140.1875 C-200.24178223 139.04385986 -200.23356445 137.90021973 -200.22509766 136.72192383 C-199.65554875 93.56787697 -178.2042932 54.18362781 -147.71484375 24.46484375 C-109.57108418 -10.16639695 -46.00418601 -34.9043388 0 0 Z M-156.60986328 46.30273438 C-180.9179363 75.9812949 -194.27123545 112.1988117 -191.7578125 150.7109375 C-189.49719144 172.34831046 -180.10112719 192.84447861 -163.4375 207.1875 C-144.57119072 221.454414 -121.78710674 226.3304224 -98.56640625 223.38671875 C-85.59350591 221.43714773 -73.86774253 217.52539413 -62 212 C-61.31856934 211.68546875 -60.63713867 211.3709375 -59.93505859 211.046875 C-44.43881431 203.73812926 -31.22518954 192.87738899 -19 181 C-18.17121338 180.20408447 -18.17121338 180.20408447 -17.32568359 179.39208984 C0.15080828 162.33868773 11.86536032 140.80721267 20 118 C20.43183594 116.7934375 20.86367188 115.586875 21.30859375 114.34375 C29.93707197 88.3002846 29.16457995 57.65670056 17.20507812 32.89941406 C14.16783381 26.96703503 10.54530306 21.88664993 6 17 C5.11441406 15.9790625 5.11441406 15.9790625 4.2109375 14.9375 C-8.29796173 1.31078424 -26.41771901 -6.69327897 -44.76171875 -7.60546875 C-89.38370739 -9.23105483 -128.10460961 12.67536274 -156.60986328 46.30273438 Z " fill="#A8EAE0" transform="translate(422,37)"/>
<path d="M0 0 C-1.53613553 3.56514876 -3.6838452 6.03870356 -6.3125 8.875 C-8.80683653 11.576845 -11.129081 14.17872753 -13.28515625 17.1640625 C-16.59797365 20.62464585 -19.59562163 21.51681219 -24.125 22.5 C-24.94774414 22.6973877 -25.77048828 22.89477539 -26.61816406 23.09814453 C-29.40676522 23.75811689 -32.2020273 24.38102906 -35 25 C-37.05476213 25.46581676 -39.10944712 25.9319739 -41.1640625 26.3984375 C-45.64355982 27.407494 -50.12698528 28.39664081 -54.61328125 29.375 C-59.9095094 30.53258256 -65.19680969 31.72423634 -70.48046875 32.9375 C-71.90331423 33.26321015 -73.32616575 33.58889393 -74.74902344 33.91455078 C-76.83083561 34.3911981 -78.91229781 34.86915711 -80.99279785 35.35150146 C-82.92009158 35.79808098 -84.84869364 36.23900266 -86.77734375 36.6796875 C-87.88327881 36.93476074 -88.98921387 37.18983398 -90.12866211 37.45263672 C-93 38 -93 38 -97 38 C-97.495 30.575 -97.495 30.575 -98 23 C-95.59678467 22.10075806 -95.59678467 22.10075806 -93.14501953 21.18334961 C-87.77237031 19.17268428 -82.400126 17.16093933 -77.02813911 15.14850521 C-73.78021275 13.93182176 -70.53213944 12.71553416 -67.28369141 11.50024414 C-63.52459444 10.09386499 -59.7661255 8.6858167 -56.0078125 7.27734375 C-54.78868164 6.82090485 -53.56955078 6.36446594 -52.31347656 5.89419556 C-46.97731899 3.89128112 -41.64853222 1.87548197 -36.34765625 -0.21923828 C-35.51668427 -0.54750107 -34.68571228 -0.87576385 -33.82955933 -1.213974 C-32.34374616 -1.80448899 -30.85991015 -2.40001875 -29.37869263 -3.00196838 C-18.42226524 -7.36821867 -10.48768188 -4.23134139 0 0 Z " fill="#86CBD5" transform="translate(358,393)"/>
<path d="M0 0 C1.32451172 0.67675781 1.32451172 0.67675781 2.67578125 1.3671875 C3.57941406 1.84414063 4.48304688 2.32109375 5.4140625 2.8125 C6.34089844 3.28945313 7.26773438 3.76640625 8.22265625 4.2578125 C10.50061473 5.4320179 12.77219237 6.61706779 15.0390625 7.8125 C15.0390625 11.8125 15.0390625 11.8125 12.94921875 13.92578125 C10.98091193 15.44588652 9.01213139 16.96537853 7.04296875 18.484375 C4.08858788 20.71009546 4.08858788 20.71009546 1.69140625 22.953125 C-2.01608121 26.26362197 -4.61586342 28.2132212 -9.69287109 28.04858398 C-10.66295105 28.0217453 -11.63303101 27.99490662 -12.63250732 27.96725464 C-14.28008026 27.89065109 -14.28008026 27.89065109 -15.9609375 27.8125 C-17.19966614 27.75973907 -18.43839478 27.70697815 -19.71466064 27.65261841 C-24.06143026 27.45515967 -28.40554672 27.2151335 -32.75 26.97265625 C-34.34613353 26.8852427 -35.94227421 26.79795962 -37.53842163 26.71080017 C-40.85825217 26.52875354 -44.17794327 26.34437524 -47.49755859 26.15844727 C-51.76003638 25.9200135 -56.02286892 25.68871239 -60.28583717 25.4592371 C-63.56983664 25.28148489 -66.8535869 25.09943101 -70.13727951 24.91610527 C-71.71054367 24.82891028 -73.28389136 24.74320944 -74.85731888 24.65901375 C-77.04268876 24.54154889 -79.22764529 24.41817152 -81.41259766 24.29321289 C-82.65627106 24.22437393 -83.89994446 24.15553497 -85.18130493 24.08460999 C-87.9609375 23.8125 -87.9609375 23.8125 -88.9609375 22.8125 C-89.00186687 20.47952567 -89.00335473 18.14544775 -88.9609375 15.8125 C-71.49945816 11.50625942 -54.00055681 7.43101066 -36.43652344 3.56640625 C-35.34872589 3.32694275 -35.34872589 3.32694275 -34.23895264 3.0826416 C-32.81862476 2.77043119 -31.39809627 2.45913186 -29.97735596 2.14880371 C-24.56190769 0.96142082 -19.17334667 -0.32504307 -13.79296875 -1.66308594 C-8.50134554 -2.64294858 -4.79594093 -2.49139789 0 0 Z " fill="#9EE7E8" transform="translate(350.9609375,425.1875)"/>
<path d="M0 0 C4.591665 1.67396305 7.37196582 3.79383026 11 7 C9.31483759 10.89102108 6.75433107 14.02950842 4.125 17.3125 C3.6403125 17.92351562 3.155625 18.53453125 2.65625 19.1640625 C1.10838744 21.11278177 -0.44499806 23.05697421 -2 25 C-2.49918945 25.62438965 -2.99837891 26.2487793 -3.51269531 26.89208984 C-5.51210796 29.39233512 -7.51244496 31.89183303 -9.51489258 34.38964844 C-14.26397006 40.31698776 -18.9573948 46.28707763 -23.64111328 52.26611328 C-26.38348529 55.76527354 -29.1317327 59.25982355 -31.87963867 62.75463867 C-34.15034395 65.64320105 -36.41821985 68.53388561 -38.6796875 71.4296875 C-43.57733441 77.69387131 -48.53258687 83.90387318 -53.5625 90.0625 C-62.89757559 101.48760793 -62.89757559 101.48760793 -71.6484375 113.359375 C-72.09445313 113.90078125 -72.54046875 114.4421875 -73 115 C-73.66 115 -74.32 115 -75 115 C-76.2123249 113.49278526 -77.423656 111.98473171 -78.625 110.46875 C-80.48250335 108.48459869 -82.4163534 107.73818474 -85 107 C-83.6685435 104.121582 -82.16701678 101.80803749 -80.12890625 99.3828125 C-79.27607056 98.35982056 -79.27607056 98.35982056 -78.40600586 97.31616211 C-77.49347046 96.23153687 -77.49347046 96.23153687 -76.5625 95.125 C-72.11393826 89.78387974 -67.70674648 84.42323078 -63.4375 78.9375 C-58.97860808 73.21463779 -54.42115831 67.57848312 -49.83349609 61.95849609 C-46.36095102 57.69668952 -42.94166643 53.39859852 -39.5625 49.0625 C-34.88286684 43.06155866 -30.05641321 37.19036363 -25.20263672 31.32983398 C-21.00703344 26.2527966 -16.90575428 21.11142406 -12.85620117 15.91748047 C-8.65820015 10.53906235 -4.34678751 5.25907625 0 0 Z " fill="#AAECE2" transform="translate(241,254)"/>
<path d="M0 0 C13.71772432 -0.27923777 27.37206493 0.48013598 41.06567383 1.22680664 C44.95302714 1.43834494 48.84071869 1.64249794 52.72851562 1.84570312 C55.22398145 1.97873367 57.71942503 2.11218243 60.21484375 2.24609375 C61.36500473 2.3065538 62.51516571 2.36701385 63.70018005 2.42930603 C82.29650784 3.45380209 82.29650784 3.45380209 88.125 8.25 C89.13304687 9.05824219 90.14109375 9.86648438 91.1796875 10.69921875 C92.11039062 11.45847656 93.04109375 12.21773438 94 13 C95.40652279 14.03476508 96.82112947 15.05881969 98.25 16.0625 C99.1575 16.701875 100.065 17.34125 101 18 C99.56066602 22.31800194 96.37739658 23.57539357 92.625 25.75 C91.95855469 26.17410156 91.29210937 26.59820312 90.60546875 27.03515625 C81.60829395 32.25657906 72.00350713 28.9795683 62.4375 26.75 C53.98402248 24.84366023 45.5162418 23.10251862 37 21.5 C28.2897077 19.85111654 19.60356018 18.11829581 10.9375 16.25 C9.94943359 16.03923828 8.96136719 15.82847656 7.94335938 15.61132812 C7.04294922 15.41474609 6.14253906 15.21816406 5.21484375 15.015625 C4.42198975 14.84321289 3.62913574 14.67080078 2.81225586 14.49316406 C1 14 1 14 0 13 C-0.1438629 8.66684941 -0.04208618 4.33487639 0 0 Z " fill="#86CBD5" transform="translate(264,459)"/>
<path d="M0 0 C2 2 2 2 2.30078125 5.46484375 C2.16409057 10.73159507 0.70141352 15.54833253 -0.8125 20.5625 C-1.07353516 21.46935547 -1.33457031 22.37621094 -1.60351562 23.31054688 C-3.09295159 28.3819844 -4.80385238 33.19221736 -7 38 C-16.40369637 38.37690166 -25.36568503 36.93682351 -34.625 35.5 C-36.21734584 35.25844072 -37.80979323 35.01754991 -39.40234375 34.77734375 C-43.26944302 34.19259522 -47.13505594 33.59882107 -51 33 C-43.87229313 17.59181835 -24.65700439 7.60863322 -10 1 C-6.47940432 -0.17353189 -3.693507 -0.20146402 0 0 Z " fill="#5280D9" transform="translate(156,371)"/>
<path d="M0 0 C1.32475342 0.17958252 1.32475342 0.17958252 2.67626953 0.36279297 C4.17262939 0.58926514 4.17262939 0.58926514 5.69921875 0.8203125 C8.05722719 1.13329862 10.41530442 1.44576685 12.7734375 1.7578125 C15.31146491 2.11006074 17.8492218 2.46426311 20.38671875 2.8203125 C22.30581055 3.08714844 22.30581055 3.08714844 24.26367188 3.359375 C30.0771162 4.16872725 35.8889625 4.98836958 41.69921875 5.8203125 C40.13264236 10.96906037 36.90839498 14.52418074 33.51171875 18.5703125 C32.33654765 19.99161567 31.16206382 21.4134874 29.98828125 22.8359375 C29.42270508 23.51849609 28.85712891 24.20105469 28.27441406 24.90429688 C25.33498933 28.47971617 22.50870286 32.14244239 19.69921875 35.8203125 C15.77948148 34.12813324 12.62688603 31.5323918 9.32421875 28.8828125 C8.08472075 27.89833005 6.84513465 26.91395852 5.60546875 25.9296875 C4.96738281 25.42115234 4.32929687 24.91261719 3.671875 24.38867188 C0.40117485 21.78830334 -2.88808798 19.21163668 -6.17578125 16.6328125 C-7.36076358 15.70193301 -8.54566752 14.77095372 -9.73046875 13.83984375 C-11.00277344 12.84017578 -11.00277344 12.84017578 -12.30078125 11.8203125 C-10.06940648 5.84931891 -7.38716033 -1.08627755 0 0 Z " fill="#6892FB" transform="translate(67.30078125,455.1796875)"/>
<path d="M0 0 C0.57406138 6.28012308 1.14320053 12.56067855 1.70898438 18.84155273 C1.90187166 20.97642013 2.09586897 23.11118755 2.29101562 25.24584961 C2.57196053 28.32119289 2.84885922 31.39687833 3.125 34.47265625 C3.21249512 35.42084732 3.29999023 36.36903839 3.39013672 37.34596252 C3.82671543 42.25459069 4.0948246 47.07208403 4 52 C-4.2303225 51.81448044 -9.76687111 50.11794171 -15.72265625 44.32421875 C-20.97475698 38.50432335 -23.57434192 33.08052699 -23.5 25.125 C-23.49427979 24.41682129 -23.48855957 23.70864258 -23.48266602 22.97900391 C-23.23798515 15.82641364 -21.16537756 12.27063952 -16.35546875 7.30078125 C-11.52894978 2.80111458 -6.74078014 0 0 0 Z " fill="#F88092" transform="translate(233,421)"/>
<path d="M0 0 C1.72488647 0.18695435 1.72488647 0.18695435 3.48461914 0.37768555 C10.54803139 1.32226127 17.59293771 2.34691395 24.6328125 3.453125 C26.1633421 3.68990187 27.69394079 3.92623264 29.22460938 4.16210938 C32.92398507 4.73315772 36.62239844 5.31017754 40.3203125 5.890625 C35.45446407 14.75342035 35.45446407 14.75342035 32.3203125 17.890625 C29.37915039 18.23046875 29.37915039 18.23046875 25.98046875 17.828125 C24.73668457 17.69148438 23.49290039 17.55484375 22.21142578 17.4140625 C20.28532471 17.15496094 20.28532471 17.15496094 18.3203125 16.890625 C17.10456543 16.73851562 15.88881836 16.58640625 14.63623047 16.4296875 C11.00388374 15.95312205 7.38136378 15.42976255 3.7578125 14.890625 C1.91219727 14.62378906 1.91219727 14.62378906 0.02929688 14.3515625 C-4.89970601 13.63247008 -9.80207879 12.90742617 -14.6796875 11.890625 C-11.41837289 5.04340996 -8.37694224 -0.94050276 0 0 Z " fill="#85BB3B" transform="translate(102.6796875,413.109375)"/>
<path d="M0 0 C2.93070978 0.30849577 5.70977295 0.93400192 8.5859375 1.578125 C10.69416674 1.8383294 12.80379018 2.03787628 14.91870117 2.23608398 C24.57009517 3.14992883 34.06723896 4.77077718 43.5859375 6.578125 C42.37539262 9.85338428 41.11238995 12.63219854 38.9609375 15.390625 C38.29191406 16.29748047 38.29191406 16.29748047 37.609375 17.22265625 C32.83740661 20.41932234 24.77122206 18.34876831 19.2890625 17.5546875 C18.5330072 17.44845062 17.7769519 17.34221375 16.99798584 17.23275757 C15.41443762 17.00855085 13.83128724 16.78151737 12.24853516 16.55175781 C9.82967874 16.20222058 7.40918893 15.86624916 4.98828125 15.53125 C3.44259211 15.31070884 1.8970148 15.08938222 0.3515625 14.8671875 C-0.3682782 14.76814117 -1.0881189 14.66909485 -1.82977295 14.56704712 C-5.3594834 14.04406655 -8.3430094 13.44233937 -11.4140625 11.578125 C-4.62993085 1.10878603 -4.62993085 1.10878603 0 0 Z " fill="#D34F5E" transform="translate(82.4140625,433.421875)"/>
<path d="M0 0 C1.89770843 0.34397787 3.79322021 0.70011604 5.6875 1.0625 C8.72473162 1.45643588 11.76860866 1.78700025 14.8125 2.125 C16.31527772 2.30191742 17.81789675 2.48019081 19.3203125 2.66015625 C20.98707031 2.85931641 20.98707031 2.85931641 22.6875 3.0625 C21.924375 3.949375 21.16125 4.83625 20.375 5.75 C18.20888701 8.27453456 16.05504082 10.80899417 13.91015625 13.3515625 C13.42135986 13.93075439 12.93256348 14.50994629 12.42895508 15.10668945 C11.44234074 16.27644681 10.45648828 17.44684723 9.47143555 18.61791992 C7.6003095 20.83592723 5.74046287 23.00953713 3.6875 25.0625 C2.33205078 23.90621094 2.33205078 23.90621094 0.94921875 22.7265625 C-0.24211667 21.71345837 -1.43352683 20.70044212 -2.625 19.6875 C-3.21990234 19.17960937 -3.81480469 18.67171875 -4.42773438 18.1484375 C-5.00458984 17.65859375 -5.58144531 17.16875 -6.17578125 16.6640625 C-6.70469971 16.21369629 -7.23361816 15.76333008 -7.77856445 15.29931641 C-9.22412467 14.13375727 -10.76744456 13.09253696 -12.3125 12.0625 C-10.47561311 6.00077327 -7.09551194 -0.71317752 0 0 Z " fill="#5280D9" transform="translate(67.3125,454.9375)"/>
<path d="M0 0 C2.64 0 5.28 0 8 0 C8.43521092 5.13649204 8.86203612 10.27359439 9.28173828 15.41137695 C9.42505013 17.15211903 9.57048985 18.8926875 9.71826172 20.63305664 C10.63537485 31.45436768 11.22201929 42.13647299 11 53 C8.69 53 6.38 53 4 53 C3.42348102 47.22062718 2.85409855 41.4406095 2.29101562 35.65991211 C2.09891496 33.69781013 1.90494271 31.73589038 1.70898438 29.77416992 C-0.37857926 8.85060478 -0.37857926 8.85060478 0 0 Z " fill="#97DB48" transform="translate(243,419)"/>
<path d="M0 0 C1.50604529 0.15884071 3.00595493 0.37754879 4.5 0.625 C5.69625 0.78226562 6.8925 0.93953125 8.125 1.1015625 C11.59070891 1.5697127 15.04541238 2.08158172 18.5 2.625 C16.69988876 7.49539442 14.60618892 11.34741423 10.5 14.625 C7.31702912 15.13654889 5.60266634 15.09524787 2.5 14.625 C1.30375 14.46902344 0.1075 14.31304687 -1.125 14.15234375 C-4.59025558 13.68076159 -8.04538512 13.16842256 -11.5 12.625 C-5.92492519 1.05802236 -5.92492519 1.05802236 0 0 Z " fill="#F66670" transform="translate(107.5,437.375)"/>
<path d="M0 0 C6.83189161 0.04421936 13.33562843 0.97561707 20.0390625 2.265625 C15.13082721 11.205625 15.13082721 11.205625 12.0390625 14.265625 C8.8671875 14.60546875 8.8671875 14.60546875 5.2890625 14.203125 C4.05414063 14.0690625 2.81921875 13.935 1.546875 13.796875 C-2.40857927 13.1978307 -6.13145477 12.41446982 -9.9609375 11.265625 C-9.00548384 9.80540337 -8.04647072 8.34751032 -7.0859375 6.890625 C-6.55226563 6.07851563 -6.01859375 5.26640625 -5.46875 4.4296875 C-2.63064289 0.35634207 -2.63064289 0.35634207 0 0 Z " fill="#98DD47" transform="translate(122.9609375,416.734375)"/>
<path d="M0 0 C-1.58960332 6.23440168 -3.27600901 12.16287645 -6 18 C-11.78591511 18.10477512 -17.29309366 17.99250545 -23 17 C-21.45725232 12.88600619 -18.79704755 11.05329457 -15.3125 8.5 C-14.77447754 8.10562744 -14.23645508 7.71125488 -13.68212891 7.30493164 C-3.59747136 0 -3.59747136 0 0 0 Z " fill="#6792FA" transform="translate(155,391)"/>
</svg>
