<?xml version="1.0" encoding="UTF-8"?>
<svg version="1.1" xmlns="http://www.w3.org/2000/svg" width="512" height="512">
<path d="M0 0 C0.98584076 0.00054382 1.97168152 0.00108765 2.98739624 0.00164795 C56.35102654 0.13649585 108.05362931 16.75434904 151.1875 48.375 C152.0549585 49.00704346 152.0549585 49.00704346 152.93994141 49.65185547 C160.215889 54.98949563 166.96107031 60.73971323 173.53515625 66.91015625 C175.64461064 68.87048868 177.77695942 70.73554683 180 72.5625 C183.07983074 75.16851062 185.6585233 78.06802754 188.26171875 81.14453125 C189.60147712 82.6962595 190.98287062 84.21260269 192.39453125 85.69921875 C205.02242419 99.02072778 215.0842104 114.49280998 224.1875 130.375 C224.61659668 131.12330078 225.04569336 131.87160156 225.48779297 132.64257812 C238.52320917 155.68283667 247.19817422 180.91089856 252.5 206.8125 C252.64735596 207.53139404 252.79471191 208.25028809 252.9465332 208.9909668 C255.89765207 224.51762092 256.59457988 239.91813408 256.5625 255.6875 C256.56168427 257.20177582 256.56168427 257.20177582 256.56085205 258.74664307 C256.52008601 275.25623539 255.61279309 291.17282001 252.1875 307.375 C251.96787598 308.41688477 251.74825195 309.45876953 251.52197266 310.53222656 C241.49833773 356.4863009 219.43239231 399.11680694 186.59057617 432.87475586 C184.66040372 434.93859956 182.94967832 437.16756034 181.1875 439.375 C180.03283231 440.47309154 178.84500369 441.5374861 177.625 442.5625 C174.3702826 445.33259955 171.24062287 448.19946722 168.125 451.125 C132.96589112 483.05275045 85.91823341 503.5131326 39.1875 510.375 C37.98504639 510.55160156 36.78259277 510.72820312 35.54370117 510.91015625 C23.82724155 512.5141435 12.18847836 512.77463344 0.375 512.75 C-0.61084076 512.74945618 -1.59668152 512.74891235 -2.61239624 512.74835205 C-55.99236745 512.61346286 -107.65763088 495.98302576 -150.8125 464.375 C-151.38548828 463.95895508 -151.95847656 463.54291016 -152.54882812 463.11425781 C-160.11043619 457.5898153 -167.04904952 451.57292517 -173.83984375 445.13671875 C-175.82981577 443.25631657 -177.86835344 441.47849377 -179.98828125 439.74609375 C-182.27138878 437.82929393 -184.16073289 436.02211124 -186.0625 433.75 C-188.00375892 431.46117944 -189.95622424 429.22365787 -192.0234375 427.046875 C-204.64945998 413.72621697 -214.71014839 398.25555353 -223.8125 382.375 C-224.45614502 381.25254883 -224.45614502 381.25254883 -225.11279297 380.10742188 C-238.14820917 357.06716333 -246.82317422 331.83910144 -252.125 305.9375 C-252.27235596 305.21860596 -252.41971191 304.49971191 -252.5715332 303.7590332 C-255.52265207 288.23237908 -256.21957988 272.83186592 -256.1875 257.0625 C-256.18695618 256.05298279 -256.18641235 255.04346558 -256.18585205 254.00335693 C-256.14508601 237.49376461 -255.23779309 221.57717999 -251.8125 205.375 C-251.59287598 204.33311523 -251.37325195 203.29123047 -251.14697266 202.21777344 C-241.30357248 157.08999824 -219.94888857 115.99284015 -188.42578125 82.234375 C-186.61840247 80.25679463 -184.89858028 78.2883346 -183.20703125 76.21875 C-181.28077842 73.93112837 -179.46668745 72.03268994 -177.1875 70.125 C-173.95175696 67.37732993 -170.84439284 64.53087856 -167.75 61.625 C-132.59089112 29.69724955 -85.54323341 9.2368674 -38.8125 2.375 C-37.61004639 2.19839844 -36.40759277 2.02179687 -35.16870117 1.83984375 C-23.45224155 0.2358565 -11.81347836 -0.02463344 0 0 Z " fill="#585F62" transform="translate(255.8125,-0.375)"/>
<path d="M0 0 C1.13151117 1.13151117 2.26228776 2.26376129 3.390625 3.3984375 C4.5158241 4.51817447 5.65223188 5.62670977 6.796875 6.7265625 C21.40476762 20.92543412 33.04007358 38.30404037 43 56 C43.39928711 56.70286133 43.79857422 57.40572266 44.20996094 58.12988281 C57.23957024 81.26989934 65.99174579 106.44342537 71.3125 132.4375 C71.45985596 133.15639404 71.60721191 133.87528809 71.7590332 134.6159668 C74.71015207 150.14262092 75.40707988 165.54313408 75.375 181.3125 C75.37418427 182.82677582 75.37418427 182.82677582 75.37335205 184.37164307 C75.33258601 200.88123539 74.42529309 216.79782001 71 233 C70.78037598 234.04188477 70.56075195 235.08376953 70.33447266 236.15722656 C60.31083773 282.1113009 38.24489231 324.74180694 5.40307617 358.49975586 C3.47290372 360.56359956 1.76217832 362.79256034 0 365 C-1.15466769 366.09809154 -2.34249631 367.1624861 -3.5625 368.1875 C-6.8172174 370.95759955 -9.94687713 373.82446722 -13.0625 376.75 C-48.22160888 408.67775045 -95.26926659 429.1381326 -142 436 C-143.20245361 436.17660156 -144.40490723 436.35320312 -145.64379883 436.53515625 C-157.36025845 438.1391435 -168.99902164 438.39963344 -180.8125 438.375 C-181.79834076 438.37445618 -182.78418152 438.37391235 -183.79989624 438.37335205 C-237.17986745 438.23846286 -288.84513088 421.60802576 -332 390 C-332.57298828 389.58395508 -333.14597656 389.16791016 -333.73632812 388.73925781 C-344.29255782 381.02697181 -353.80645186 372.27804767 -363 363 C-362.44703328 362.51774757 -361.89406655 362.03549514 -361.32434326 361.538629 C-353.38944467 354.51664412 -345.92416092 347.06409403 -338.44090271 339.56788635 C-336.98126604 338.1094034 -335.52141169 336.65113826 -334.06135994 335.19307083 C-330.07028453 331.20615384 -326.08231432 327.21614368 -322.09487045 323.22559512 C-317.7866269 318.91508362 -313.47550025 314.60745727 -309.16474915 310.29945374 C-301.21752794 302.35641706 -293.27257846 294.41111249 -285.32882001 286.46461313 C-277.99417595 279.12745078 -270.65859978 271.79122194 -263.32209969 264.45591545 C-262.59135737 263.72528771 -262.59135737 263.72528771 -261.84585258 262.97989981 C-259.86825582 261.0026144 -257.89065554 259.02533252 -255.91304945 257.04805644 C-237.38111574 238.51917848 -218.85209398 219.987391 -200.32438179 201.45429189 C-183.85762234 184.9827812 -167.38827139 168.5138659 -150.91674805 152.04711914 C-132.40488297 133.54060441 -113.89462886 115.03248084 -95.38698536 96.52174419 C-93.41584623 94.55028434 -91.44470316 92.57882843 -89.47355843 90.60737419 C-88.98822188 90.12195857 -88.50288534 89.63654295 -88.00284163 89.13641777 C-80.66593074 81.79836823 -73.32778454 74.46155555 -65.98904228 67.1253376 C-57.65292181 58.79207024 -49.31862603 50.45698188 -40.98660289 42.11961747 C-36.73258319 37.86296097 -32.4777518 33.60712403 -28.22076797 29.3534317 C-24.32999534 25.4656221 -20.44150833 21.57554211 -16.55489171 17.68357789 C-15.14286714 16.27042923 -13.72998446 14.85813743 -12.31619375 13.44675571 C-10.40597238 11.5395417 -8.49880705 9.62932493 -6.59242916 7.7182703 C-5.753563 6.88291589 -5.753563 6.88291589 -4.89775005 6.03068563 C-2.10226373 3.27722964 -2.10226373 3.27722964 0 0 Z " fill="#484F53" transform="translate(437,74)"/>
<path d="M0 0 C1.35156083 0.00502861 2.70312348 0.00958909 4.0546875 0.01367188 C7.32817265 0.02536289 10.60156186 0.04174971 13.875 0.0625 C13.62592896 0.92862915 13.62592896 0.92862915 13.37182617 1.81225586 C8.42077801 19.15208703 4.39996042 35.94933089 3.875 54.0625 C3.84776855 54.87895996 3.82053711 55.69541992 3.79248047 56.53662109 C3.14469894 78.75267567 5.04052491 100.83828512 11.875 122.0625 C12.1440918 122.91199219 12.41318359 123.76148437 12.69042969 124.63671875 C19.97166671 147.17975766 30.74804993 169.59398952 46.78515625 187.27734375 C48.875 190.0625 48.875 190.0625 48.74220276 191.97869873 C47.62960913 194.65214966 46.1475183 196.14991134 44.08959961 198.18847656 C43.28884506 198.98900452 42.48809052 199.78953247 41.66307068 200.61431885 C40.79328079 201.46862488 39.92349091 202.32293091 39.02734375 203.203125 C38.1409169 204.08530701 37.25449005 204.96748901 36.34120178 205.87640381 C33.98736944 208.21628577 31.62726246 210.54945398 29.26385498 212.87963867 C26.85211583 215.26064663 24.44888521 217.65020853 22.04492188 220.0390625 C17.32941941 224.7214678 12.60545844 229.39520728 7.875 234.0625 C5.03384724 232.77012583 2.97680845 231.41371056 0.77470779 229.20830345 C0.18501654 228.62259429 -0.40467472 228.03688514 -1.0122354 227.43342721 C-1.6503724 226.78946453 -2.2885094 226.14550185 -2.94598389 225.48202515 C-3.63135483 224.79836305 -4.31672577 224.11470096 -5.02286553 223.41032183 C-7.32308604 221.11340115 -9.6160755 218.80939469 -11.90917969 216.50537109 C-13.55463945 214.85934733 -15.20053946 213.21376356 -16.84684753 211.56858826 C-21.31996617 207.09604454 -25.78688215 202.61735157 -30.25273418 198.13755369 C-34.44642996 193.93263821 -38.64472172 189.73232081 -42.8430014 185.53198273 C-51.15820354 177.21240366 -59.4689298 168.88836833 -67.77685547 160.56152344 C-75.84710264 152.47291744 -83.91944831 144.38641527 -91.99462891 136.30273438 C-92.49240627 135.80443156 -92.99018364 135.30612875 -93.50304517 134.79272585 C-96.00026811 132.29289283 -98.4975324 129.79310112 -100.99481726 127.29332995 C-121.71129281 106.55612195 -142.42043789 85.81160267 -163.125 65.0625 C-161.79400977 61.0695293 -159.17074699 59.46041581 -155.9375 57 C-155.30602051 56.51394287 -154.67454102 56.02788574 -154.02392578 55.52709961 C-152.06524482 54.02852619 -150.09681917 52.54373016 -148.125 51.0625 C-147.56055176 50.63485352 -146.99610352 50.20720703 -146.41455078 49.76660156 C-111.06300041 23.1337584 -69.0183057 6.48344725 -25.125 1.0625 C-24.02260986 0.91784302 -24.02260986 0.91784302 -22.89794922 0.77026367 C-15.27206385 -0.12574246 -7.66893875 -0.04945248 0 0 Z " fill="#FC8F00" transform="translate(249.125,-0.0625)"/>
<path d="M0 0 C2.84115276 1.29237417 4.89819155 2.64878944 7.10029221 4.85419655 C7.98482909 5.73276029 7.98482909 5.73276029 8.8872354 6.62907279 C9.8444409 7.59501681 9.8444409 7.59501681 10.82098389 8.58047485 C11.50635483 9.26413695 12.19172577 9.94779904 12.89786553 10.65217817 C15.19808604 12.94909885 17.4910755 15.25310531 19.78417969 17.55712891 C21.42963945 19.20315267 23.07553946 20.84873644 24.72184753 22.49391174 C29.19496617 26.96645546 33.66188215 31.44514843 38.12773418 35.92494631 C42.32142996 40.12986179 46.51972172 44.33017919 50.7180014 48.53051727 C59.03320354 56.85009634 67.3439298 65.17413167 75.65185547 73.50097656 C83.72210264 81.58958256 91.79444831 89.67608473 99.86962891 97.75976562 C100.36740627 98.25806844 100.86518364 98.75637125 101.37804517 99.26977415 C103.87526811 101.76960717 106.3725324 104.26939888 108.86981726 106.76917005 C129.58629281 127.50637805 150.29543789 148.25089733 171 169 C169.45069162 172.25240471 167.7937901 174.47268787 165.25634766 177.05004883 C164.48860016 177.83378372 163.72085266 178.61751862 162.92984009 179.42500305 C162.09963348 180.26057236 161.26942688 181.09614166 160.4140625 181.95703125 C159.56073334 182.81938889 158.70740417 183.68174652 157.82821655 184.57023621 C156.02363904 186.38931341 154.21624301 188.20559827 152.40625 190.01928711 C149.63038271 192.80709414 146.87370828 195.61300092 144.1171875 198.41992188 C142.36313056 200.18343764 140.60795961 201.9458462 138.8515625 203.70703125 C138.02540436 204.55272171 137.19924622 205.39841217 136.34805298 206.26972961 C135.57400116 207.0377037 134.79994934 207.8056778 134.00244141 208.59692383 C133.32452545 209.27991043 132.6466095 209.96289703 131.94815063 210.6665802 C130 212 130 212 127.86923218 211.80180359 C125.48238161 210.77796858 123.89304043 209.40170332 121.9375 207.6875 C82.68346335 175.60708116 30.45134961 162.96674008 -19.45849609 167.30029297 C-34.31542359 169.04073292 -48.69709085 172.70503887 -63 177 C-64.75896658 113.00067767 -44.26666567 54.57198757 -4 5 C-2.66552893 3.33424416 -1.33189544 1.66781597 0 0 Z " fill="#FC8F00" transform="translate(63,86)"/>
<path d="M0 0 C4.3094934 1.61436284 7.29103997 3.64882257 10.875 6.5625 C31.74807032 23.05591274 57.09213254 34.11261565 82.8125 40.375 C83.78888428 40.6136377 84.76526855 40.85227539 85.77124023 41.09814453 C99.76916115 44.31795736 113.6779629 45.41420916 128 45.375 C128.75768677 45.37445618 129.51537354 45.37391235 130.29602051 45.37335205 C152.01033115 45.30224897 172.15680788 40.86949936 193 35 C194.79510133 100.31407159 173.27886232 162.67917208 130 212 C127.15884724 210.70762583 125.10180845 209.35121056 122.89970779 207.14580345 C122.31001654 206.56009429 121.72032528 205.97438514 121.1127646 205.37092721 C120.4746276 204.72696453 119.8364906 204.08300185 119.17901611 203.41952515 C118.49364517 202.73586305 117.80827423 202.05220096 117.10213447 201.34782183 C114.80191396 199.05090115 112.5089245 196.74689469 110.21582031 194.44287109 C108.57036055 192.79684733 106.92446054 191.15126356 105.27815247 189.50608826 C100.80503383 185.03354454 96.33811785 180.55485157 91.87226582 176.07505369 C87.67857004 171.87013821 83.48027828 167.66982081 79.2819986 163.46948273 C70.96679646 155.14990366 62.6560702 146.82586833 54.34814453 138.49902344 C46.27789736 130.41041744 38.20555169 122.32391527 30.13037109 114.24023438 C29.63259373 113.74193156 29.13481636 113.24362875 28.62195483 112.73022585 C26.12473189 110.23039283 23.6274676 107.73060112 21.13018274 105.23082995 C0.41370719 84.49362195 -20.29543789 63.74910267 -41 43 C-39.4412768 39.72092832 -37.77923626 37.53549925 -35.19287109 34.96582031 C-34.41221283 34.18531311 -33.63155457 33.40480591 -32.82723999 32.60064697 C-31.98448517 31.76821472 -31.14173035 30.93578247 -30.2734375 30.078125 C-29.41062164 29.21813904 -28.54780579 28.35815308 -27.65884399 27.47210693 C-24.90221971 24.7266769 -22.13872201 21.9882831 -19.375 19.25 C-17.50475143 17.38978217 -15.63495411 15.52911054 -13.765625 13.66796875 C-9.1823064 9.10670055 -4.59332522 4.55118989 0 0 Z " fill="#FE6419" transform="translate(319,214)"/>
<path d="M0 0 C3.2186013 1.60930065 4.70824706 2.45855974 7.10029221 4.85419655 C7.68998346 5.43990571 8.27967472 6.02561486 8.8872354 6.62907279 C9.8444409 7.59501681 9.8444409 7.59501681 10.82098389 8.58047485 C11.50635483 9.26413695 12.19172577 9.94779904 12.89786553 10.65217817 C15.19808604 12.94909885 17.4910755 15.25310531 19.78417969 17.55712891 C21.42963945 19.20315267 23.07553946 20.84873644 24.72184753 22.49391174 C29.19496617 26.96645546 33.66188215 31.44514843 38.12773418 35.92494631 C42.32142996 40.12986179 46.51972172 44.33017919 50.7180014 48.53051727 C59.03320354 56.85009634 67.3439298 65.17413167 75.65185547 73.50097656 C83.72210264 81.58958256 91.79444831 89.67608473 99.86962891 97.75976562 C100.36740627 98.25806844 100.86518364 98.75637125 101.37804517 99.26977415 C103.87526811 101.76960717 106.3725324 104.26939888 108.86981726 106.76917005 C129.58629281 127.50637805 150.29543789 148.25089733 171 169 C169.66896829 172.99309512 167.04564867 174.60181265 163.8125 177.0625 C163.184646 177.54638184 162.55679199 178.03026367 161.90991211 178.52880859 C159.94848477 180.0308973 157.97688377 181.51832462 156 183 C155.11344727 183.66539795 155.11344727 183.66539795 154.20898438 184.34423828 C145.49078332 190.83845883 136.46198115 196.65123625 127 202 C125.93918213 202.60328125 125.93918213 202.60328125 124.85693359 203.21875 C98.55332258 218.02790861 69.75622715 227.26198335 40 232 C39.31019043 232.11714355 38.62038086 232.23428711 37.90966797 232.35498047 C23.40288793 234.76740028 8.65334692 234.19440097 -6 234 C-5.80365967 233.32235596 -5.60731934 232.64471191 -5.4050293 231.9465332 C4.02154969 199.09062564 8.75796224 163.83985285 1 130 C0.82839355 129.22672363 0.65678711 128.45344727 0.47998047 127.65673828 C-3.65034287 109.49291243 -10.18781895 92.38764036 -19 76 C-19.31018066 75.40912598 -19.62036133 74.81825195 -19.93994141 74.20947266 C-24.26063731 66.00906144 -29.24616787 58.69053166 -34.96386719 51.41601562 C-35.45790039 50.78244141 -35.95193359 50.14886719 -36.4609375 49.49609375 C-36.90228027 48.94107178 -37.34362305 48.3860498 -37.79833984 47.81420898 C-39 46 -39 46 -41 41 C-27.47 27.47 -13.94 13.94 0 0 Z " fill="#FE6419" transform="translate(255,278)"/>
<path d="M0 0 C2.02903219 0.01071886 4.05717595 0.00002726 6.08618164 -0.01269531 C41.59986946 -0.05208262 76.08154597 12.65539097 104.09594727 34.26074219 C105.42848988 35.26179562 106.76146274 36.26227895 108.09594727 37.26074219 C106.60226212 40.74103339 104.61677309 42.98692567 101.94515991 45.65203857 C101.07575272 46.5241951 100.20634552 47.39635162 99.31059265 48.29493713 C98.34509364 49.25335849 97.379499 50.21168352 96.41381836 51.16992188 C95.39832832 52.18484763 94.38327875 53.20021426 93.36863708 54.21598816 C90.61503937 56.97015973 87.85531843 59.71812098 85.09446287 62.46501446 C82.20943629 65.33753919 79.33007185 68.21572805 76.45010376 71.09332275 C70.99656849 76.54064166 65.53795497 81.98284221 60.07750189 87.42322564 C53.86081387 93.61755957 47.64980338 99.81757295 41.43926501 106.01807165 C28.66446949 118.77196163 15.88255588 131.51869618 3.09594727 144.26074219 C-10.38230373 139.76799186 -23.09756404 112.35393887 -29.90405273 100.26074219 C-30.30333984 99.55788086 -30.70262695 98.85501953 -31.11401367 98.13085938 C-44.75935302 73.89733322 -59.90405273 40.65239982 -59.90405273 12.26074219 C-40.34388977 4.45748568 -21.22002768 -0.13264112 0 0 Z " fill="#FC8F00" transform="translate(61.904052734375,281.7392578125)"/>
<path d="M0 0 C49.43779828 6.62958981 94.12446045 29.10895319 132 61 C130.50631485 64.48029121 128.52082582 66.72618348 125.84921265 69.39129639 C124.97980545 70.26345291 124.11039825 71.13560944 123.21464539 72.03419495 C122.24914637 72.9926163 121.28355173 73.95094133 120.31787109 74.90917969 C119.30238106 75.92410545 118.28733148 76.93947208 117.27268982 77.95524597 C114.5190921 80.70941754 111.75937117 83.45737879 108.99851561 86.20427227 C106.11348903 89.076797 103.23412458 91.95498586 100.35415649 94.83258057 C94.90062122 100.27989947 89.44200771 105.72210002 83.98155463 111.16248345 C77.7648666 117.35681738 71.55385612 123.55683076 65.34331775 129.75732946 C52.56852222 142.51121944 39.78660861 155.257954 27 168 C22.57115018 166.52371673 21.04501467 163.36655823 18.4375 159.625 C17.90809814 158.86622559 17.37869629 158.10745117 16.83325195 157.32568359 C-8.28268754 120.53009873 -17.70698587 75.11386273 -9.49511719 31.30664062 C-7.28041195 20.49704304 -4.41732535 10.13165262 0 0 Z " fill="#FC8F00" transform="translate(294,2)"/>
<path d="M0 0 C1.77165892 2.08539018 3.39562389 4.16471003 5 6.375 C5.48694336 7.04547363 5.97388672 7.71594727 6.47558594 8.40673828 C31.62547959 43.8200675 42.49017121 88.39698602 35.375 131.375 C33.16488364 143.83295269 29.91709173 156.31605347 25 168 C-24.10157424 160.32605015 -69.55270309 139.85987838 -107 107 C-105.50710944 103.5255065 -103.52589685 101.27458903 -100.8626709 98.60870361 C-99.99615402 97.73654709 -99.12963715 96.86439056 -98.23686218 95.96580505 C-97.27454488 95.00737609 -96.31212379 94.04905133 -95.34960938 93.09082031 C-94.33737865 92.07587894 -93.32557377 91.06051271 -92.31416321 90.04475403 C-89.56890667 87.29038239 -86.81736454 84.54237141 -84.06437874 81.79572773 C-81.18620613 78.92261686 -78.31291432 76.04463163 -75.43884277 73.16741943 C-70.61370072 68.33863942 -65.78435789 63.51409078 -60.95263672 58.69189453 C-55.36048713 53.11064148 -49.77559575 47.52220314 -44.1943965 41.9300015 C-39.40568245 37.13222442 -34.61309806 32.3383397 -29.8172307 27.54771304 C-26.95124366 24.68484954 -24.08663819 21.82063881 -21.22550964 18.95291901 C-18.53782563 16.25947603 -15.84533155 13.57093763 -13.14897728 10.88617516 C-12.15795847 9.89781019 -11.16865494 8.90772205 -10.18116188 7.91583443 C-8.83782633 6.56707099 -7.48776877 5.22501226 -6.1373291 3.88336182 C-5.38221291 3.12899967 -4.62709671 2.37463753 -3.84909821 1.59741592 C-2 0 -2 0 0 0 Z " fill="#FE6419" transform="translate(193,342)"/>
<path d="M0 0 C13.47825099 4.49275033 26.19351131 31.90680332 33 44 C33.39928711 44.70286133 33.79857422 45.40572266 34.20996094 46.12988281 C47.85530028 70.36340897 63 103.60834237 63 132 C52.83564958 135.77755552 42.70460325 138.69171323 32.0625 140.8125 C31.03390869 141.0189917 30.00531738 141.2254834 28.94555664 141.43823242 C17.26988022 143.67420005 5.87454428 144.24837194 -6 144 C-7.81757813 143.97486328 -7.81757813 143.97486328 -9.671875 143.94921875 C-44.9750936 142.66746289 -77.15669886 127.9801227 -105 107 C-103.50631485 103.51970879 -101.52082582 101.27381652 -98.84921265 98.60870361 C-97.97980545 97.73654709 -97.11039825 96.86439056 -96.21464539 95.96580505 C-95.24914637 95.0073837 -94.28355173 94.04905867 -93.31787109 93.09082031 C-92.30238106 92.07589455 -91.28733148 91.06052792 -90.27268982 90.04475403 C-87.5190921 87.29058246 -84.75937117 84.54262121 -81.99851561 81.79572773 C-79.11348903 78.923203 -76.23412458 76.04501414 -73.35415649 73.16741943 C-67.90062122 67.72010053 -62.44200771 62.27789998 -56.98155463 56.83751655 C-50.7648666 50.64318262 -44.55385612 44.44316924 -38.34331775 38.24267054 C-25.56852222 25.48878056 -12.78660861 12.742046 0 0 Z " fill="#FE6419" transform="translate(447,86)"/>
</svg>
