<?xml version="1.0" encoding="UTF-8"?>
<svg version="1.1" xmlns="http://www.w3.org/2000/svg" width="512" height="512">
<path d="M0 0 C0.90045044 -0.00705963 1.80090088 -0.01411926 2.7286377 -0.02139282 C40.56271231 -0.2507174 40.56271231 -0.2507174 57.20703125 3.203125 C58.69759033 3.50911621 58.69759033 3.50911621 60.21826172 3.82128906 C116.92522511 15.81380371 171.93488599 46.2140709 207.20703125 93.203125 C207.94300537 94.18104004 207.94300537 94.18104004 208.69384766 95.17871094 C216.17006772 105.16645615 223.11651041 115.31319857 229.20703125 126.203125 C229.60486816 126.90453613 230.00270508 127.60594727 230.41259766 128.32861328 C248.66086947 160.73122155 260.21390279 198.63338691 260.41015625 235.99609375 C260.41721588 236.89654419 260.42427551 237.79699463 260.43154907 238.72473145 C260.66087365 276.55880606 260.66087365 276.55880606 257.20703125 293.203125 C256.90104004 294.69368408 256.90104004 294.69368408 256.58886719 296.21435547 C246.43692563 344.21811404 224.24115004 386.85747948 190.20703125 422.203125 C189.70526367 422.72680664 189.20349609 423.25048828 188.68652344 423.79003906 C172.79089307 440.29900565 154.19464468 454.02444744 134.20703125 465.203125 C133.50562012 465.60096191 132.80420898 465.99879883 132.08154297 466.40869141 C99.6789347 484.65696322 61.77676934 496.20999654 24.4140625 496.40625 C23.06338684 496.41683945 23.06338684 496.41683945 21.6854248 496.42764282 C-16.14864981 496.6569674 -16.14864981 496.6569674 -32.79296875 493.203125 C-34.28352783 492.89713379 -34.28352783 492.89713379 -35.80419922 492.58496094 C-92.51116261 480.59244629 -147.52082349 450.1921791 -182.79296875 403.203125 C-183.28361816 402.55118164 -183.77426758 401.89923828 -184.27978516 401.22753906 C-191.75792018 391.23723559 -198.67458357 381.07931133 -204.79296875 370.203125 C-205.15310059 369.57712402 -205.51323242 368.95112305 -205.88427734 368.30615234 C-224.38936501 335.98545493 -235.69710889 297.67901619 -236.03125 260.33203125 C-236.04104385 259.42023102 -236.05083771 258.50843079 -236.06092834 257.56900024 C-236.23260511 237.44104818 -236.06932869 217.96420382 -231.79296875 198.203125 C-231.57866211 197.18605469 -231.36435547 196.16898438 -231.14355469 195.12109375 C-222.96279434 157.25381879 -206.04522667 122.38317423 -181.79296875 92.203125 C-181.32068848 91.61515137 -180.8484082 91.02717773 -180.36181641 90.42138672 C-169.28155041 76.78092213 -156.86582205 63.76685597 -142.79296875 53.203125 C-142.14102539 52.71247559 -141.48908203 52.22182617 -140.81738281 51.71630859 C-130.82707934 44.23817357 -120.66915508 37.32151018 -109.79296875 31.203125 C-109.16696777 30.84299316 -108.5409668 30.48286133 -107.89599609 30.11181641 C-75.65552438 11.65266164 -37.27934428 0.19581559 0 0 Z " fill="#36393F" transform="translate(243.79296875,7.796875)"/>
<path d="M0 0 C65.14509604 0.11081192 132.54360036 16.05615545 191.10693359 44.13720703 C192.51555664 44.80574707 192.51555664 44.80574707 193.95263672 45.48779297 C233.28232582 64.25117117 265.72617791 89.44230795 296.20678711 120.22119141 C296.83383545 120.85347656 297.46088379 121.48576172 298.10693359 122.13720703 C299.12388306 123.21711914 299.12388306 123.21711914 300.16137695 124.31884766 C302.07092718 126.35673242 302.07092718 126.35673242 305.10693359 127.13720703 C303.96019059 141.5110374 300.7330232 155.20500298 297.10693359 169.13720703 C296.91309082 169.90838867 296.71924805 170.67957031 296.51953125 171.47412109 C296.05057988 173.32605913 295.54935707 175.16975156 295.04443359 177.01220703 C294.65578125 178.43146484 294.65578125 178.43146484 294.25927734 179.87939453 C292.72089438 182.89358216 291.08552121 183.5461855 288.10693359 185.13720703 C286.9037909 185.9760892 285.7133765 186.83337556 284.53271484 187.70361328 C274.46111379 195.05609159 264.13891724 201.33928093 253.10693359 207.13720703 C251.94935547 207.76240234 250.79177734 208.38759766 249.59912109 209.03173828 C239.47133202 214.33506046 228.84578355 218.26264864 218.10693359 222.13720703 C217.40358887 222.39276367 216.70024414 222.64832031 215.97558594 222.91162109 C200.10346336 228.62479062 183.801423 231.93530028 167.10693359 234.13720703 C166.04043579 234.28295166 166.04043579 234.28295166 164.95239258 234.43164062 C157.14784202 235.36140956 149.31523802 235.35831457 141.46606445 235.37744141 C139.04588122 235.38720119 136.62653001 235.4183391 134.20654297 235.44970703 C121.96713444 235.53792182 113.82876955 233.98036627 103.91943359 226.63720703 C103.19038818 226.10893311 102.46134277 225.58065918 101.71020508 225.03637695 C91.8677944 217.85401939 82.29559802 210.42876179 73.32568359 202.17236328 C71.3299426 200.34176283 69.29462748 198.5788422 67.23193359 196.82470703 C58.84119694 189.48493133 51.15279409 181.55057466 44.23193359 172.81298828 C42.86873142 171.09645613 41.47497126 169.40350834 40.04443359 167.74267578 C7.59809687 129.86873493 -11.90430083 80.19172077 -8.89306641 30.13720703 C-8.33025858 24.69143189 -7.20130738 19.45304594 -5.89306641 14.13720703 C-5.61849609 12.87650391 -5.34392578 11.61580078 -5.06103516 10.31689453 C-2.84453688 0.20616839 -2.84453688 0.20616839 0 0 Z " fill="#F27B0B" transform="translate(197.89306640625,156.86279296875)"/>
<path d="M0 0 C0.33 0.66 0.66 1.32 1 2 C-0.02880859 4.29638672 -0.02880859 4.29638672 -1.6484375 7.1796875 C-2.23729736 8.2433252 -2.82615723 9.30696289 -3.43286133 10.40283203 C-4.39421997 12.12155518 -4.39421997 12.12155518 -5.375 13.875 C-23.11411778 46.13106407 -34.81604006 80.18969299 -43 116 C-46.41600147 116.50461625 -49.8328994 117.00288576 -53.25 117.5 C-54.21808594 117.64308594 -55.18617187 117.78617187 -56.18359375 117.93359375 C-57.11816406 118.06894531 -58.05273438 118.20429688 -59.015625 118.34375 C-60.30388184 118.53227539 -60.30388184 118.53227539 -61.61816406 118.72460938 C-64 119 -64 119 -68 119 C-67.505 126.92 -67.505 126.92 -67 135 C-63.54947917 134.47916667 -60.09895833 133.95833333 -56.6484375 133.4375 C-53.3783017 133.0453638 -50.28642422 132.96758151 -47 133 C-47.08564209 133.74459473 -47.17128418 134.48918945 -47.25952148 135.25634766 C-47.65523445 138.71222309 -48.04638125 142.16860172 -48.4375 145.625 C-48.63956055 147.38070312 -48.63956055 147.38070312 -48.84570312 149.171875 C-54.61806887 200.41921962 -51.4440838 253.6101652 -36 303 C-35.64953613 304.12937988 -35.29907227 305.25875977 -34.93798828 306.42236328 C-18.47272154 358.91455419 7.11655628 407.89480501 44 449 C44.4650293 449.52142578 44.93005859 450.04285156 45.40917969 450.58007812 C51.3688412 457.24455615 57.54836773 463.61311012 63.98046875 469.8203125 C66 472 66 472 66 474 C58.15926681 473.50141176 50.74813496 472.25319864 43.125 470.375 C42.04001221 470.10921143 40.95502441 469.84342285 39.8371582 469.56958008 C-12.13293027 456.51724584 -62.51524405 426.2757334 -95 383 C-95.49064941 382.34805664 -95.98129883 381.69611328 -96.48681641 381.02441406 C-103.96495143 371.03411059 -110.88161482 360.87618633 -117 350 C-117.36013184 349.37399902 -117.72026367 348.74799805 -118.09130859 348.10302734 C-136.59639626 315.78232993 -147.90414014 277.47589119 -148.23828125 240.12890625 C-148.2480751 239.21710602 -148.25786896 238.30530579 -148.26795959 237.36587524 C-148.43963636 217.23792318 -148.27635994 197.76107882 -144 178 C-143.78569336 176.98292969 -143.57138672 175.96585938 -143.35058594 174.91796875 C-135.16982559 137.05069379 -118.25225792 102.18004923 -94 72 C-93.52771973 71.41202637 -93.05543945 70.82405273 -92.56884766 70.21826172 C-81.48858166 56.57779713 -69.0728533 43.56373097 -55 33 C-54.34805664 32.50935059 -53.69611328 32.01870117 -53.02441406 31.51318359 C-36.85522679 19.40991105 -19.06892795 7.08592459 0 0 Z " fill="#8D3205" transform="translate(156,28)"/>
<path d="M0 0 C-0.15146484 0.78834229 -0.30292969 1.57668457 -0.45898438 2.38891602 C-4.7634128 25.20735329 -6.71753073 46.91944491 -3 70 C-2.83854492 71.09683105 -2.83854492 71.09683105 -2.67382812 72.21582031 C0.59219128 93.86934442 8.53696447 114.8284666 19 134 C19.60991521 135.20609506 20.21535109 136.41446518 20.81640625 137.625 C36.950001 169.72168916 63.61736053 200.16433896 92 222 C93.35942212 223.08555214 94.7173705 224.1729512 96.07421875 225.26171875 C106.00115186 233.17832592 116.15641284 240.39831143 127 247 C127.88397461 247.54124512 128.76794922 248.08249023 129.67871094 248.64013672 C160.16241958 267.18884031 192.29206782 281.12542563 226.80297852 290.30493164 C229.01315688 291.00416242 230.95930206 291.90729928 233 293 C192.93602381 325.51152107 140.47417802 347.39274616 88.3984375 347.09765625 C87.435961 347.0962413 86.4734845 347.09482635 85.48184204 347.09336853 C82.44619468 347.08782807 79.41062459 347.07528716 76.375 347.0625 C74.30078232 347.05747729 72.22656348 347.05291574 70.15234375 347.04882812 C65.10153331 347.03787824 60.0507797 347.02065564 55 347 C55 346.67 55 346.34 55 346 C58.3 346 61.6 346 65 346 C63.43735998 341.99573494 61.63061124 339.48796518 58.37890625 336.78125 C54.02746165 333.06469796 49.97072525 329.11919697 45.9375 325.0625 C45.26912109 324.39798828 44.60074219 323.73347656 43.91210938 323.04882812 C39.40311954 318.53107446 35.13895239 313.85788896 31 309 C30.45029541 308.35699951 29.90059082 307.71399902 29.33422852 307.05151367 C20.60958232 296.77279388 12.53423857 286.17909057 5 275 C4.29447998 273.95610107 4.29447998 273.95610107 3.57470703 272.89111328 C-6.46270661 257.94759756 -15.21861055 242.28666093 -23.00683594 226.06054688 C-23.6658651 224.69323957 -24.33313022 223.32986971 -25.00878906 221.97070312 C-37.50417961 196.74304259 -46.58226362 168.58463858 -52 141 C-52.19384277 140.01515625 -52.38768555 139.0303125 -52.58740234 138.015625 C-55.01114961 125.42600087 -56.94419206 112.78169394 -58 100 C-58.08757568 98.94643311 -58.17515137 97.89286621 -58.26538086 96.80737305 C-59.04277733 86.469595 -59.19986904 76.17538028 -59.1875 65.8125 C-59.18722809 64.95149689 -59.18695618 64.09049377 -59.18667603 63.20339966 C-59.16971205 51.51250681 -58.97397718 39.95813481 -57.33398438 28.36328125 C-56.94191311 25.58897583 -56.5884062 22.81065916 -56.234375 20.03125 C-55.73077431 16.15306267 -55.22183286 12.27588896 -54.68359375 8.40234375 C-54.57587646 7.62366943 -54.46815918 6.84499512 -54.35717773 6.04272461 C-54 4 -54 4 -53 1 C-35.32771488 -0.11446843 -17.69790086 -0.10784321 0 0 Z " fill="#8D3205" transform="translate(179,157)"/>
<path d="M0 0 C27.6377672 10.20626869 55.6982858 37.95090053 73 61 C73.49064941 61.65194336 73.98129883 62.30388672 74.48681641 62.97558594 C81.96303647 72.96333115 88.90947916 83.11007357 95 94 C95.39783691 94.70141113 95.79567383 95.40282227 96.20556641 96.12548828 C111.53360766 123.34277885 120.77156384 153.0973539 125 184 C125.10530029 184.76892578 125.21060059 185.53785156 125.3190918 186.33007812 C126.23587976 194.07577137 126.11156703 201.83908009 126.0625 209.625 C126.05747197 211.02473797 126.05291138 212.4244777 126.04882812 213.82421875 C126.03713167 217.21619169 126.02074086 220.60807233 126 224 C121.65208077 220.36181581 117.52802589 216.62230288 113.5625 212.5625 C109.2022133 208.15720104 104.76312701 203.96666971 100 200 C99.47374023 199.55462891 98.94748047 199.10925781 98.40527344 198.65039062 C87.76420374 189.66563161 76.65943732 181.61016174 65 174 C64.18966309 173.46906738 63.37932617 172.93813477 62.54443359 172.39111328 C31.47322797 152.19083748 -2.02606672 137.92593506 -37 126 C-37.86109375 125.70254883 -38.7221875 125.40509766 -39.609375 125.09863281 C-78.62816421 111.71014926 -120.36187087 105.28490928 -161.375 102.4296875 C-165.94496889 102.10347994 -170.46121296 101.62190111 -175 101 C-174.4746337 95.7978435 -171.87263414 91.91634857 -169.1875 87.5625 C-168.69757568 86.7669873 -168.20765137 85.97147461 -167.70288086 85.15185547 C-162.8311588 77.43655646 -157.23859729 70.63757735 -151 64 C-150.50886719 63.47180664 -150.01773438 62.94361328 -149.51171875 62.39941406 C-114.42490657 24.97502402 -60.30447977 6.39346382 -9.875 4.5625 C-8.61429688 4.54316406 -7.35359375 4.52382813 -6.0546875 4.50390625 C-2.89383873 4.29835772 -2.89383873 4.29835772 -1.0703125 1.96484375 C-0.71710938 1.31644531 -0.36390625 0.66804688 0 0 Z " fill="#F27A0B" transform="translate(378,40)"/>
<path d="M0 0 C0.33 0 0.66 0 1 0 C1.06469482 0.68288086 1.12938965 1.36576172 1.19604492 2.06933594 C4.7606486 38.60269896 15.22428123 69.60122481 39 98 C39.6496875 98.79148437 40.299375 99.58296875 40.96875 100.3984375 C44.92851247 105.0961557 49.29889257 109.05948482 54 113 C54.86238281 113.76183594 55.72476563 114.52367187 56.61328125 115.30859375 C87.27976434 141.90834431 125.77912335 153.72545181 166 152 C197.32774896 149.69221339 225.47852843 134.37454048 246 111 C255.92906085 98.97730675 262.3267051 84.4014409 268 70 C272.26936122 72.71571794 276.05575181 75.65899782 279.75 79.125 C280.56005493 79.87813477 280.56005493 79.87813477 281.38647461 80.64648438 C288.80354213 87.60729206 295.94334328 94.85744264 303.09985352 102.08398438 C303.72690186 102.71626953 304.3539502 103.34855469 305 104 C306.01694946 105.07991211 306.01694946 105.07991211 307.05444336 106.18164062 C308.96399359 108.21952539 308.96399359 108.21952539 312 109 C310.853257 123.37383037 307.62608961 137.06779595 304 151 C303.80615723 151.77118164 303.61231445 152.54236328 303.41259766 153.33691406 C302.94364628 155.1888521 302.44242348 157.03254453 301.9375 158.875 C301.54884766 160.29425781 301.54884766 160.29425781 301.15234375 161.7421875 C299.61396079 164.75637513 297.97858762 165.40897847 295 167 C293.79685731 167.83888217 292.6064429 168.69616853 291.42578125 169.56640625 C281.3541802 176.91888456 271.03198365 183.2020739 260 189 C258.84242188 189.62519531 257.68484375 190.25039063 256.4921875 190.89453125 C246.36439843 196.19785342 235.73884995 200.12544161 225 204 C224.29665527 204.25555664 223.59331055 204.51111328 222.86865234 204.77441406 C206.99652977 210.48758359 190.69448941 213.79809325 174 216 C172.9335022 216.14574463 172.9335022 216.14574463 171.84545898 216.29443359 C164.04090843 217.22420253 156.20830442 217.22110754 148.35913086 217.24023438 C145.93894762 217.24999416 143.51959642 217.28113207 141.09960938 217.3125 C128.86020085 217.40071479 120.72183595 215.84315924 110.8125 208.5 C110.08345459 207.97172607 109.35440918 207.44345215 108.60327148 206.89916992 C98.76086081 199.71681235 89.18866443 192.29155475 80.21875 184.03515625 C78.22300901 182.2045558 76.18769389 180.44163517 74.125 178.6875 C65.73426335 171.3477243 58.0458605 163.41336763 51.125 154.67578125 C49.76179783 152.9592491 48.36803767 151.26630131 46.9375 149.60546875 C17.5103564 115.25576988 -2.11481986 70.09050396 -2.3125 24.5625 C-2.31805908 23.49700928 -2.32361816 22.43151855 -2.3293457 21.33374023 C-2.26321938 14.05927959 -1.39404266 7.13618978 0 0 Z " fill="#EE670C" transform="translate(191,175)"/>
<path d="M0 0 C0.90045044 -0.00705963 1.80090088 -0.01411926 2.7286377 -0.02139282 C40.56271231 -0.2507174 40.56271231 -0.2507174 57.20703125 3.203125 C58.69759033 3.50911621 58.69759033 3.50911621 60.21826172 3.82128906 C79.07384466 7.80890965 97.60439463 13.29469405 115.20703125 21.203125 C115.20703125 21.533125 115.20703125 21.863125 115.20703125 22.203125 C113.86632568 22.37533569 113.86632568 22.37533569 112.49853516 22.55102539 C66.57446572 28.56706085 21.8681796 41.10799078 -13.79296875 72.203125 C-14.28039551 72.6249707 -14.76782227 73.04681641 -15.27001953 73.48144531 C-26.5088396 83.28045341 -36.2660106 93.98584298 -44.48046875 106.453125 C-44.88346191 107.05858154 -45.28645508 107.66403809 -45.70166016 108.2878418 C-50.77317371 116.26211628 -54.53224158 124.68167065 -58.79296875 133.203125 C-86.01796875 133.698125 -86.01796875 133.698125 -113.79296875 134.203125 C-112.66619466 122.93538405 -112.66619466 122.93538405 -111.2265625 118.05859375 C-110.91017822 116.98037354 -110.59379395 115.90215332 -110.26782227 114.79125977 C-109.92549561 113.66905029 -109.58316895 112.54684082 -109.23046875 111.390625 C-108.87331787 110.20718506 -108.51616699 109.02374512 -108.14819336 107.80444336 C-99.04637194 78.1631311 -86.21105827 48.95682239 -69.47070312 22.80541992 C-67.46592451 19.62060739 -66.25980984 16.95178928 -65.79296875 13.203125 C-66.45296875 12.873125 -67.11296875 12.543125 -67.79296875 12.203125 C-45.598191 5.54328783 -23.2874929 0.1223212 0 0 Z " fill="#EE670C" transform="translate(243.79296875,7.796875)"/>
<path d="M0 0 C0.33 0.66 0.66 1.32 1 2 C-0.02880859 4.29638672 -0.02880859 4.29638672 -1.6484375 7.1796875 C-2.23729736 8.2433252 -2.82615723 9.30696289 -3.43286133 10.40283203 C-4.39421997 12.12155518 -4.39421997 12.12155518 -5.375 13.875 C-23.11411778 46.13106407 -34.81604006 80.18969299 -43 116 C-46.41600147 116.50461625 -49.8328994 117.00288576 -53.25 117.5 C-54.21808594 117.64308594 -55.18617187 117.78617187 -56.18359375 117.93359375 C-57.11816406 118.06894531 -58.05273438 118.20429688 -59.015625 118.34375 C-60.30388184 118.53227539 -60.30388184 118.53227539 -61.61816406 118.72460938 C-64 119 -64 119 -68 119 C-68 124.61 -68 130.22 -68 136 C-71.3 136.33 -74.6 136.66 -78 137 C-77.94779297 138.34578125 -77.94779297 138.34578125 -77.89453125 139.71875 C-77.16431175 173.37839186 -92.68241717 204.43936517 -115.30078125 228.66796875 C-124.01442922 237.75007633 -133.17068051 246.47076886 -144 253 C-144.99 253 -145.98 253 -147 253 C-147.89406153 250.31781541 -148.13885786 248.71323971 -148.17700195 245.95703125 C-148.18964584 245.14248978 -148.20228973 244.3279483 -148.21531677 243.48872375 C-148.22289505 242.60556992 -148.23047333 241.72241608 -148.23828125 240.8125 C-148.2480751 239.89079514 -148.25786896 238.96909027 -148.26795959 238.01945496 C-148.43918875 217.67621679 -148.32204631 197.97219571 -144 178 C-143.78569336 176.98292969 -143.57138672 175.96585938 -143.35058594 174.91796875 C-135.16982559 137.05069379 -118.25225792 102.18004923 -94 72 C-93.52771973 71.41202637 -93.05543945 70.82405273 -92.56884766 70.21826172 C-81.48858166 56.57779713 -69.0728533 43.56373097 -55 33 C-54.34805664 32.50935059 -53.69611328 32.01870117 -53.02441406 31.51318359 C-36.85522679 19.40991105 -19.06892795 7.08592459 0 0 Z " fill="#25272A" transform="translate(156,28)"/>
<path d="M0 0 C-0.15146484 0.78834229 -0.30292969 1.57668457 -0.45898438 2.38891602 C-4.7634128 25.20735329 -6.71753073 46.91944491 -3 70 C-2.83854492 71.09683105 -2.83854492 71.09683105 -2.67382812 72.21582031 C0.59219128 93.86934442 8.53696447 114.8284666 19 134 C19.60991521 135.20609506 20.21535109 136.41446518 20.81640625 137.625 C36.97890282 169.77918736 63.60950327 200.06636971 92 222 C93.23415191 223.01480069 94.46422736 224.03461118 95.6875 225.0625 C96.450625 225.701875 97.21375 226.34125 98 227 C94.4988239 228.75058805 90.70573315 226.66142391 87.125 225.5625 C86.23458008 225.29099121 85.34416016 225.01948242 84.42675781 224.73974609 C68.99149949 219.91385426 54.25988078 213.6040679 40 206 C39.35111816 205.65888184 38.70223633 205.31776367 38.03369141 204.96630859 C22.90165041 196.96618744 8.95498461 187.18089436 -4 176 C-4.76828125 175.34257812 -5.5365625 174.68515625 -6.328125 174.0078125 C-19.13089336 162.77359523 -30.9364055 150.74869141 -41 137 C-41.44601563 136.39881348 -41.89203125 135.79762695 -42.3515625 135.17822266 C-45.31780595 131.17273462 -48.18854006 127.11569316 -51 123 C-51.54914063 122.21238281 -52.09828125 121.42476563 -52.6640625 120.61328125 C-61.89226736 106.01544841 -59.20760366 82.65550564 -59.1875 65.8125 C-59.18722809 64.95149689 -59.18695618 64.09049377 -59.18667603 63.20339966 C-59.16971205 51.51250681 -58.97397718 39.95813481 -57.33398438 28.36328125 C-56.94191311 25.58897583 -56.5884062 22.81065916 -56.234375 20.03125 C-55.73077431 16.15306267 -55.22183286 12.27588896 -54.68359375 8.40234375 C-54.57587646 7.62366943 -54.46815918 6.84499512 -54.35717773 6.04272461 C-54 4 -54 4 -53 1 C-35.32771488 -0.11446843 -17.69790086 -0.10784321 0 0 Z " fill="#ED670C" transform="translate(179,157)"/>
<path d="M0 0 C27.6377672 10.20626869 55.6982858 37.95090053 73 61 C73.49064941 61.65194336 73.98129883 62.30388672 74.48681641 62.97558594 C81.96303647 72.96333115 88.90947916 83.11007357 95 94 C95.39783691 94.70141113 95.79567383 95.40282227 96.20556641 96.12548828 C111.53360766 123.34277885 120.77156384 153.0973539 125 184 C125.10530029 184.76892578 125.21060059 185.53785156 125.3190918 186.33007812 C126.23587976 194.07577137 126.11156703 201.83908009 126.0625 209.625 C126.05747197 211.02473797 126.05291138 212.4244777 126.04882812 213.82421875 C126.03713167 217.21619169 126.02074086 220.60807233 126 224 C121.65208077 220.36181581 117.52802589 216.62230288 113.5625 212.5625 C110.52233615 209.49090395 107.48125646 206.43472797 104.25 203.5625 C103.63640625 202.99789062 103.0228125 202.43328125 102.390625 201.8515625 C100.32985077 200.25547266 98.46292156 199.16169334 96.171875 197.9609375 C91.56732549 195.31191507 87.62662593 192.73544785 85 188 C83.28882246 179.37614496 84.36927935 170.33084365 84.87402344 161.61035156 C85.57748196 141.44999389 78.10304938 120.68477875 69 103 C68.45601562 101.90429688 67.91203125 100.80859375 67.3515625 99.6796875 C60.43700275 86.20765795 51.47376465 74.84307935 41 64 C39.70642578 62.61167969 39.70642578 62.61167969 38.38671875 61.1953125 C9.71839229 31.21036661 -29.468747 18.25967424 -70 16 C-66.96766421 13.9784428 -65.04639943 13.39001622 -61.5390625 12.59765625 C-60.43796143 12.34846436 -59.33686035 12.09927246 -58.20239258 11.8425293 C-57.02185303 11.58511963 -55.84131348 11.32770996 -54.625 11.0625 C-52.80681763 10.66381714 -52.80681763 10.66381714 -50.9519043 10.25708008 C-36.06198227 7.06491416 -21.29609779 4.73767021 -6.0546875 4.50390625 C-2.89383873 4.29835772 -2.89383873 4.29835772 -1.0703125 1.96484375 C-0.71710938 1.31644531 -0.36390625 0.66804688 0 0 Z " fill="#EE670C" transform="translate(378,40)"/>
<path d="M0 0 C1.31097656 0.01353516 1.31097656 0.01353516 2.6484375 0.02734375 C3.30070312 0.03894531 3.95296875 0.05054688 4.625 0.0625 C1.9219248 2.7655752 -1.19512243 3.4157653 -4.75 4.5625 C-43.60878044 17.79474645 -77.52060273 45.45068856 -96.375 82.0625 C-96.705 83.0525 -97.035 84.0425 -97.375 85.0625 C-96.26125 85.12308594 -95.1475 85.18367188 -94 85.24609375 C-90.78361153 85.42166236 -87.56754572 85.60232429 -84.3515625 85.78515625 C-81.38823183 85.95318015 -78.42588156 86.10701953 -75.4609375 86.24609375 C-56.25087026 87.2369288 -37.48183623 90.27372836 -18.625 93.9375 C-17.77084503 94.10226837 -16.91669006 94.26703674 -16.03665161 94.4367981 C1.95071657 97.92587897 19.6497144 102.14948254 37.0625 107.875 C37.72098938 108.09004181 38.37947876 108.30508362 39.05792236 108.52664185 C83.57882538 123.07998555 126.7124698 142.88104453 163.625 172.0625 C164.5634375 172.78953125 165.501875 173.5165625 166.46875 174.265625 C171.59195559 178.28196519 176.45888869 182.53311576 181.265625 186.921875 C183.3136696 188.78003467 185.3945697 190.58277421 187.5 192.375 C188.12648438 192.93703125 188.75296875 193.4990625 189.3984375 194.078125 C190.62778698 195.17375576 191.86587427 196.26061092 193.13769531 197.30664062 C203.07081246 205.51864404 203.07081246 205.51864404 204.42578125 211.73828125 C204.44341229 217.30381318 203.5753028 222.59206128 202.625 228.0625 C198.33267064 227.58557452 196.52833676 225.07176718 193.625 222.0625 C192.33988525 220.7616748 192.33988525 220.7616748 191.02880859 219.43457031 C190.11953613 218.51256836 189.21026367 217.59056641 188.2734375 216.640625 C186.71581208 215.06820931 185.15719868 213.49678034 183.59814453 211.92578125 C182.5416143 210.85924417 181.48689228 209.79091248 180.43408203 208.72070312 C173.50778268 201.68349599 166.42664646 195.14456865 158.625 189.0625 C157.93680176 188.52044922 157.24860352 187.97839844 156.53955078 187.41992188 C90.7100119 136.08885877 6.58539865 109.53281332 -76 103.1875 C-77.19763474 103.09514069 -77.19763474 103.09514069 -78.41946411 103.00091553 C-87.08049441 102.34960228 -95.68413293 101.92406141 -104.375 102.0625 C-105.365 106.3525 -106.355 110.6425 -107.375 115.0625 C-107.705 115.0625 -108.035 115.0625 -108.375 115.0625 C-109.85610074 86.09875212 -96.81521793 57.64390937 -77.6875 36.4375 C-58.42353794 15.81474614 -28.85880074 -0.38998379 0 0 Z " fill="#575A63" transform="translate(300.375,55.9375)"/>
<path d="M0 0 C-9.30681832 38.58451761 -37.22493015 72.85618174 -65 100 C-65.38833008 99.53682373 -65.77666016 99.07364746 -66.17675781 98.59643555 C-68.448885 96.60695514 -70.24414157 96.17268246 -73.171875 95.45703125 C-74.21690186 95.19237061 -75.26192871 94.92770996 -76.33862305 94.6550293 C-77.46437744 94.37699463 -78.59013184 94.09895996 -79.75 93.8125 C-113.05292187 85.18335622 -146.03308415 71.75986166 -175 53 C-171.16071381 51.74383086 -167.35460066 51.90778093 -163.3671875 51.97265625 C-161.83268782 51.98740327 -160.29818218 52.00154065 -158.76367188 52.01513672 C-157.96501709 52.02349548 -157.1663623 52.03185425 -156.34350586 52.04046631 C-136.58527458 52.27249198 -136.58527458 52.27249198 -117 50 C-116.01821777 49.82758789 -115.03643555 49.65517578 -114.02490234 49.47753906 C-74.33477821 42.3124922 -34.97250199 27.08393497 -3.63671875 1.1796875 C-2 0 -2 0 0 0 Z " fill="#8D3205" transform="translate(490,339)"/>
<path d="M0 0 C1.61509338 2.42264006 2.73628575 4.50109685 3.8828125 7.140625 C4.24149414 7.9553125 4.60017578 8.77 4.96972656 9.609375 C5.75580709 11.40613049 6.54160356 13.20301026 7.32714844 15 C9.10883087 19.01410076 10.86448464 22.94339877 13.1953125 26.671875 C20.09409432 37.84632768 21.36152055 49.65716942 23.41113281 62.4765625 C28.35265335 92.04373681 38.66247114 122.16932698 52 149 C52.64827951 150.34580365 53.29542635 151.69215353 53.94140625 153.0390625 C61.84447922 169.34302406 70.55447239 185.18512566 81 200 C81.75434326 201.07894531 81.75434326 201.07894531 82.52392578 202.1796875 C89.55923868 212.21362326 96.90800443 221.79861794 105 231 C105.63421875 231.73347656 106.2684375 232.46695313 106.921875 233.22265625 C108.60150562 235.16039524 110.29850147 237.08145382 112 239 C112.63808594 239.73089844 113.27617187 240.46179688 113.93359375 241.21484375 C119.63082415 247.66473578 125.65527547 253.74660097 131.765625 259.80078125 C132.31154297 260.34428223 132.85746094 260.8877832 133.41992188 261.44775391 C134.89744407 262.89925052 136.40858031 264.316307 137.921875 265.73046875 C140 268 140 268 140 271 C136.77131254 271.14584064 133.54347635 271.23424106 130.3125 271.3125 C129.40048828 271.35439453 128.48847656 271.39628906 127.54882812 271.43945312 C120.73614452 271.5633201 120.73614452 271.5633201 117.37109375 268.98828125 C116.58863281 268.00214844 115.80617188 267.01601563 115 266 C113.7172003 264.71238486 112.4187581 263.44026028 111.109375 262.1796875 C104.06144228 255.23645496 97.12544443 248.37688218 91.01953125 240.578125 C88.83881772 237.79423539 86.55040175 235.12313649 84.25 232.4375 C45.23848598 185.5753717 18.88192163 126.57134029 7 67 C6.81985352 66.10845215 6.63970703 65.2169043 6.45410156 64.29833984 C4.09805852 52.41374297 2.49150043 40.48586676 1.25 28.4375 C1.12222168 27.21353516 0.99444336 25.98957031 0.86279297 24.72851562 C0.0658031 16.44699497 -0.1430416 8.31627959 0 0 Z " fill="#24272A" transform="translate(104,232)"/>
<path d="M0 0 C0.495 0.99 0.495 0.99 1 2 C-0.02880859 4.29638672 -0.02880859 4.29638672 -1.6484375 7.1796875 C-2.23729736 8.2433252 -2.82615723 9.30696289 -3.43286133 10.40283203 C-4.07376709 11.54864746 -4.71467285 12.69446289 -5.375 13.875 C-23.11411778 46.13106407 -34.81604006 80.18969299 -43 116 C-46.41600147 116.50461625 -49.8328994 117.00288576 -53.25 117.5 C-54.21808594 117.64308594 -55.18617187 117.78617187 -56.18359375 117.93359375 C-57.11816406 118.06894531 -58.05273438 118.20429688 -59.015625 118.34375 C-60.30388184 118.53227539 -60.30388184 118.53227539 -61.61816406 118.72460938 C-64 119 -64 119 -68 119 C-68.67582948 96.82278065 -66.30700353 75.0560943 -60.65185547 53.58740234 C-60.00340237 51.01350497 -59.46798019 48.43325707 -58.94140625 45.83203125 C-56.56181083 35.29396936 -52.98051887 29.76172739 -43.79589844 23.93774414 C-42.27602555 23.02837835 -40.74649199 22.13495551 -39.20751953 21.25830078 C-37.15149022 20.08635043 -35.15026148 18.85764276 -33.15234375 17.58984375 C-22.71137231 11.02801692 -11.58208502 4.30384871 0 0 Z " fill="#ED670C" transform="translate(156,28)"/>
<path d="M0 0 C-1.3131991 27.26020195 -11.19615974 50.46786988 -29 71 C-29.70769531 71.82886719 -30.41539063 72.65773438 -31.14453125 73.51171875 C-37.36377745 80.62409663 -44.15193579 87.66197765 -52 93 C-52.66 93 -53.32 93 -54 93 C-54.81111682 63.28504737 -51.94202458 34.2637556 -42 6 C-41.67 7.32 -41.34 8.64 -41 10 C-33.31449938 9.28837957 -26.29834347 7.32766651 -19.125 4.5 C-13.13415292 2.18451923 -6.44813365 0 0 0 Z " fill="#8D3205" transform="translate(62,170)"/>
<path d="M0 0 C20.13728306 2.44208609 37.17504341 4.92981704 54.34570312 16.34277344 C80.01011182 32.3665047 111.50691273 42.98179562 140.98828125 49.39453125 C143 50 143 50 145 52 C144.85316429 54.90612344 143.99242225 56.00837462 142.03125 58.17578125 C141.1959375 58.88089844 140.360625 59.58601563 139.5 60.3125 C138.6853125 61.03050781 137.870625 61.74851562 137.03125 62.48828125 C129.6793306 66.15476683 120.48987186 61.92417878 113.125 59.625 C111.99586182 59.2734082 110.86672363 58.92181641 109.70336914 58.55957031 C72.32919465 46.61511347 27.95270239 28.51842602 0 0 Z " fill="#25272A" transform="translate(279,385)"/>
<path d="M0 0 C1.30123398 3.90370195 0.0985348 6.2450943 -1.25 9.9375 C-6.07403608 23.7492839 -8.90855198 37.7922101 -10.5625 52.3125 C-10.75646362 53.99545166 -10.75646362 53.99545166 -10.9543457 55.71240234 C-12.1044788 66.12761912 -12.6776725 76.52991366 -13 87 C-17.0527516 87.98248524 -20.83861737 88.08159574 -25 88 C-25.31710938 86.84886719 -25.63421875 85.69773437 -25.9609375 84.51171875 C-28.59370075 75.38454833 -31.72509165 66.90352257 -36.1875 58.5 C-36.61530762 57.69393311 -37.04311523 56.88786621 -37.48388672 56.05737305 C-39.38498909 52.58616713 -41.0822539 49.7147679 -44 47 C-35.84543235 29.14920514 -15.29291658 11.92124993 0 0 Z " fill="#8E3305" transform="translate(101,61)"/>
<path d="M0 0 C6.7579172 4.04451105 12.44811466 8.97530353 18.16015625 14.34375 C20.39934432 16.43817626 22.66313855 18.45529736 25 20.4375 C25.91265625 21.25347656 25.91265625 21.25347656 26.84375 22.0859375 C28.04745631 23.15444491 29.26017292 24.21371347 30.50390625 25.23535156 C40.44567834 33.45552836 40.44567834 33.45552836 41.80078125 39.67578125 C41.81841229 45.24131318 40.9503028 50.52956128 40 56 C35.70767064 55.52307452 33.90333676 53.00926718 31 50 C30.14325684 49.1327832 29.28651367 48.26556641 28.40380859 47.37207031 C27.49453613 46.45006836 26.58526367 45.52806641 25.6484375 44.578125 C24.09081208 43.00570931 22.53219868 41.43428034 20.97314453 39.86328125 C19.9166143 38.79674417 18.86189228 37.72841248 17.80908203 36.65820312 C10.87430663 29.61238422 3.80633088 23.0911425 -4 17 C-3.52434234 14.54093963 -3.04463948 12.08279007 -2.5625 9.625 C-2.42779297 8.92632812 -2.29308594 8.22765625 -2.15429688 7.5078125 C-1.11328125 2.2265625 -1.11328125 2.2265625 0 0 Z " fill="#383A3E" transform="translate(463,228)"/>
<path d="M0 0 C-0.08564209 0.74459473 -0.17128418 1.48918945 -0.25952148 2.25634766 C-2.81075347 24.53699215 -4.27526564 46.58683249 -5 69 C-16.34725819 51.97911271 -20.9897749 22.12542305 -20 2 C-17.79248152 1.66131223 -15.58394089 1.32928311 -13.375 1 C-12.14523438 0.814375 -10.91546875 0.62875 -9.6484375 0.4375 C-6.3783017 0.0453638 -3.28642422 -0.03241849 0 0 Z " fill="#EC660C" transform="translate(109,161)"/>
<path d="M0 0 C6.42773082 2.54498987 10.32376497 6.36426559 13.81640625 12.265625 C15.663976 16.70977926 15.57828852 21.81242874 13.984375 26.3359375 C12.70938397 28.32662982 11.77585148 29.22931199 9.68359375 30.3515625 C4.64987203 31.40597193 -0.05300647 31.45949486 -4.734375 29.16796875 C-9.60367033 25.65074792 -13.00321655 21.32134705 -16.31640625 16.3515625 C-17.00509681 11.17837529 -17.15854147 6.75512119 -14.44140625 2.2265625 C-10.12292828 -1.58385923 -5.36727533 -1.50247505 0 0 Z " fill="#F5F8F9" transform="translate(366.31640625,206.6484375)"/>
<path d="M0 0 C3.31804077 3.81501603 5.549185 7.80085898 7.625 12.375 C7.9240625 13.00921875 8.223125 13.6434375 8.53125 14.296875 C11.15838481 19.99287526 13.38638634 25.62462537 13 32 C7.30104711 34.62245772 1.54006495 36.39229816 -4.5 38.0625 C-5.41136719 38.31837891 -6.32273437 38.57425781 -7.26171875 38.83789062 C-9.02943516 39.3340246 -10.79764444 39.82840675 -12.56640625 40.32080078 C-15.71510879 41.19958193 -18.85789674 42.09794013 -22 43 C-19.21194802 34.69745847 -15.6121846 26.99963304 -11.5625 19.25 C-11.10834717 18.37577393 -10.65419434 17.50154785 -10.1862793 16.60083008 C-7.12374487 10.82125833 -3.73032389 5.37166641 0 0 Z " fill="#8E3305" transform="translate(47,121)"/>
<path d="M0 0 C4.6570686 0.70295375 7.47026884 2.75936244 10.3125 6.5 C10.93385746 10.16600899 10.99868856 12.20835095 9.25 15.5 C5.95627377 17.19998773 3.79115468 16.51960568 0.3125 15.5 C-3.26839103 12.30005483 -4.56526317 10.54774427 -5.125 5.75 C-4.58256686 1.72049668 -4.02480208 0.74880039 0 0 Z " fill="#F5F6F6" transform="translate(290.6875,237.5)"/>
<path d="M0 0 C5.875 0.875 5.875 0.875 7 2 C7.04063832 3.66617115 7.042721 5.33388095 7 7 C5.1875 7.6875 5.1875 7.6875 3 8 C1.25 6.875 1.25 6.875 0 5 C-0.1875 2.3125 -0.1875 2.3125 0 0 Z " fill="#F5F3EF" transform="translate(272,222)"/>
<path d="M0 0 C0.33 0 0.66 0 1 0 C0.88512252 1.58409994 0.75765492 3.16728963 0.625 4.75 C0.52058594 6.07257813 0.52058594 6.07257813 0.4140625 7.421875 C0.00149945 9.99066382 -0.71160957 11.75841015 -2 14 C-2.05389087 12.04196493 -2.09274217 10.08351091 -2.125 8.125 C-2.14820313 7.03445312 -2.17140625 5.94390625 -2.1953125 4.8203125 C-2 2 -2 2 0 0 Z " fill="#715D50" transform="translate(194,157)"/>
</svg>
