<?xml version="1.0" encoding="UTF-8"?>
<svg version="1.1" xmlns="http://www.w3.org/2000/svg" width="512" height="512">
<path d="M0 0 C3.32166835 1.57676645 5.52296561 3.27944008 8.12597656 5.89892578 C8.92650452 6.6996048 9.72703247 7.50028381 10.55181885 8.32522583 C11.83327789 9.62216873 11.83327789 9.62216873 13.140625 10.9453125 C14.46389801 12.27283035 14.46389801 12.27283035 15.81390381 13.62716675 C18.15194543 15.97450131 20.48555874 18.32606785 22.81713867 20.67980957 C25.19996526 23.08313927 27.58850348 25.48077767 29.9765625 27.87890625 C34.65631862 32.58071467 39.33031867 37.28818664 44 42 C42.40111682 45.97087725 39.63756562 48.62543658 36.64109802 51.57249451 C35.81267374 52.39924867 35.81267374 52.39924867 34.96751362 53.24270493 C33.11511504 55.0890298 31.25567739 56.92809991 29.39624023 58.76733398 C28.06707801 60.08938406 26.73838453 61.41190554 25.41012573 62.73486328 C22.54869938 65.58318582 19.68429624 68.42846902 16.81765556 71.2715435 C12.28685668 75.76578573 7.76473435 80.26868925 3.24415588 84.77320862 C-9.61195059 97.58098823 -22.47974784 110.37698433 -35.35620117 123.16430664 C-42.46741156 130.22644596 -49.57143753 137.29573342 -56.66780323 144.37278992 C-61.16195031 148.85383707 -65.66497151 153.32571172 -70.17471135 157.79106319 C-72.97592292 160.56884426 -75.76876402 163.35492281 -78.55928421 166.14344025 C-79.85668409 167.43653867 -81.15753553 168.72618447 -82.46203041 170.01212502 C-84.2400605 171.76583401 -86.00539419 173.531412 -87.76808167 175.30052185 C-88.2890826 175.80850718 -88.81008354 176.31649252 -89.34687239 176.83987135 C-92.32233355 179.8578517 -93.49856295 181.82267221 -94 186 C-93.82108012 188.5873301 -93.82108012 188.5873301 -93.33692074 191.29163551 C-89.96438783 214.19326498 -87.74274597 239.8309754 -101.90146464 259.55454648 C-113.99479432 275.50568349 -128.88864159 289.32500653 -143.42882482 302.99872615 C-150.5437687 309.70098258 -157.48014192 316.57765261 -164.41495829 323.46530934 C-176.78334146 335.73998315 -189.28337896 347.87051499 -201.87475586 359.91601562 C-214.0703019 371.58333863 -226.18607792 383.325483 -238.21264648 395.16699219 C-239.3300714 396.26716274 -239.3300714 396.26716274 -240.47007055 397.38955896 C-243.46498895 400.33871686 -246.45954311 403.28824391 -249.45357621 406.23830058 C-263.0432347 419.62588976 -276.68663296 432.95871464 -290.34765625 446.2734375 C-291.03924234 446.94765194 -291.73082844 447.62186639 -292.44337168 448.31651157 C-301.06595462 456.7202044 -309.71413959 465.09608693 -318.40666962 473.42742729 C-320.82592147 475.74728277 -323.23612372 478.07594736 -325.63858604 480.41318321 C-328.40205869 483.10073143 -331.18306494 485.76865419 -333.97957831 488.42179354 C-334.9883306 489.38477497 -335.99070935 490.35448629 -336.98595227 491.33142333 C-345.35552614 499.53301164 -345.35552614 499.53301164 -350.50734615 499.59023476 C-351.65992192 499.39545729 -352.81249769 499.20067982 -354 499 C-355.17151611 498.83564453 -355.17151611 498.83564453 -356.36669922 498.66796875 C-358.54160271 498.12876365 -360.71173958 497.58460374 -362.875 497 C-363.69508545 496.77924805 -364.5151709 496.55849609 -365.36010742 496.33105469 C-397.41665038 487.25885354 -424.8098831 465.35833212 -441.30712891 436.46704102 C-447.68956364 424.77314348 -452.90960783 411.18414011 -455 398 C-455.19655874 396.83831016 -455.39311749 395.67662031 -455.59563255 394.47972775 C-455.51322377 387.93443343 -450.2107094 383.90454652 -445.91519165 379.51576233 C-444.92527567 378.47579368 -443.93703508 377.43422813 -442.95033014 376.3912124 C-440.23444027 373.53128892 -437.49344043 370.69660187 -434.74720669 367.86584365 C-432.39366244 365.43343478 -430.05514275 362.98683501 -427.71648861 360.54011977 C-419.3278532 351.76507749 -410.87890834 343.04912821 -402.4140625 334.34765625 C-401.74398287 333.65878329 -401.07390324 332.96991034 -400.38351816 332.26016244 C-387.03794002 318.54404156 -373.66299239 304.85671887 -360.24059486 291.2157526 C-357.28888896 288.21512399 -354.33758905 285.21409684 -351.38671875 282.21264648 C-350.28672102 281.09385951 -350.28672102 281.09385951 -349.16450112 279.95247077 C-337.3580946 267.93718556 -325.68403306 255.80141907 -314.05892713 243.61091132 C-302.07515002 231.04932244 -289.96720931 218.61794694 -277.7371124 206.29599756 C-270.89061025 199.39152949 -264.10798603 192.44388013 -257.46236038 185.3453846 C-212.42902902 137.34342864 -212.42902902 137.34342864 -186.78512573 136.4828949 C-178.85488138 136.30899335 -170.98161373 136.84101764 -163.07927191 137.44635986 C-147.35561655 138.64573877 -135.1937442 139.47567904 -122.24507904 129.18919373 C-115.46770204 123.26217272 -109.37462447 116.79180607 -103.44178534 110.03239131 C-99.87471371 106.04759098 -96.11086126 102.25611915 -92.36819458 98.43714905 C-85.36682277 91.23682838 -78.54723395 83.8888146 -71.7839452 76.46518284 C-64.05384142 67.99821049 -56.12905348 59.72392683 -48.18609023 51.45712459 C-31.90570723 34.5044752 -15.87238491 17.33464273 0 0 Z " fill="#FCB345" transform="translate(465,13)"/>
<path d="M0 0 C1.09917282 0.03258242 1.09917282 0.03258242 2.22055115 0.06582308 C7.11095488 0.24150881 11.9455141 0.6259662 16.81193542 1.14208984 C18.03061463 1.26439342 19.24929384 1.38669701 20.50490272 1.51270676 C29.72390644 2.90591261 34.43615837 6.9221045 40.28442383 14.0390625 C35.87378655 19.31785737 31.22609942 24.23535141 26.35131836 29.08569336 C25.57991013 29.85724762 24.80850189 30.62880188 24.01371765 31.42373657 C21.48392238 33.95283968 18.95061221 36.47839025 16.41723633 39.00390625 C14.65439362 40.7648823 12.89177274 42.52608045 11.12936401 44.28749084 C6.50546601 48.90758317 1.87857201 53.52466362 -2.7489624 58.14111328 C-7.47690607 62.85825518 -12.20145176 67.57880001 -16.92651367 72.29882812 C-26.18675132 81.54836285 -35.45006142 90.79481415 -44.71557617 100.0390625 C-43.20611106 103.21992768 -41.63615792 105.33776156 -39.09057617 107.7890625 C-38.45893555 108.40265625 -37.82729492 109.01625 -37.17651367 109.6484375 C-36.45334961 110.33679688 -36.45334961 110.33679688 -35.71557617 111.0390625 C-37.1310555 114.25116675 -38.82652072 116.39900009 -41.30378914 118.87337112 C-42.05321789 119.62678197 -42.80264664 120.38019282 -43.57478535 121.1564343 C-44.4016226 121.97744587 -45.22845986 122.79845744 -46.08035278 123.64434814 C-46.95594184 124.52164605 -47.83153089 125.39894395 -48.73365295 126.30282664 C-51.16547806 128.73737895 -53.60171665 131.16735733 -56.03990722 133.59552479 C-58.66791546 136.21490386 -61.29014937 138.84005222 -63.91308594 141.46450806 C-68.45844733 146.01091863 -73.00745904 150.5536502 -77.55896378 155.09391022 C-84.13968555 161.65838456 -90.71488407 168.22836828 -97.28874348 174.79971394 C-107.95429424 185.46088641 -118.62430458 196.11758401 -129.29711914 206.77148438 C-139.6653459 217.1213558 -150.03147201 227.47332371 -160.39477539 237.828125 C-161.033467 238.46629116 -161.6721586 239.10445732 -162.3302045 239.76196185 C-165.53428886 242.96343615 -168.73833192 246.16495179 -171.94235444 249.36648798 C-198.52702755 275.93042442 -225.11893822 302.48710591 -251.71557617 329.0390625 C-252.83173864 328.09968547 -253.94543573 327.15737867 -255.05810547 326.21386719 C-255.67856247 325.68944031 -256.29901947 325.16501343 -256.9382782 324.62469482 C-273.29482736 310.03205282 -284.33169805 284.38124115 -287.71557617 263.0390625 C-287.91199613 261.87751144 -288.10841608 260.71596039 -288.31078815 259.51921082 C-288.22841217 252.97421916 -282.93018174 248.94032491 -278.63749695 244.5480957 C-277.64829632 243.50740965 -276.66076836 242.46513156 -275.67477351 241.4214077 C-272.96083672 238.5595566 -270.2217664 235.72293126 -267.47744191 232.89024711 C-265.12552773 230.45619614 -262.78863014 228.00798012 -260.45157798 225.55966908 C-252.0686546 216.77898394 -243.62515787 208.0575813 -235.16479492 199.3515625 C-234.49504797 198.66235686 -233.82530102 197.97315123 -233.1352587 197.26306057 C-219.79599651 183.54067847 -206.42584991 169.8485437 -193.00798321 156.20300293 C-190.05729657 153.20135439 -187.10703804 150.19928593 -184.15722656 147.19677734 C-183.42415705 146.45065705 -182.69108754 145.70453675 -181.93580381 144.93580675 C-170.13354824 132.91601163 -158.46752372 120.77254211 -146.8516561 108.57282102 C-134.87732016 96.00181848 -122.775064 83.56514162 -110.54677707 71.24097157 C-103.70121536 64.33496801 -96.92190781 57.38473433 -90.28366661 50.27871704 C-63.37799688 21.54008694 -41.45561024 -1.26145767 0 0 Z " fill="#FED467" transform="translate(297.715576171875,147.9609375)"/>
<path d="M0 0 C1.04542969 0.36222656 2.09085937 0.72445313 3.16796875 1.09765625 C16.42094008 6.15538787 27.06809751 14.09671971 37 24 C38.09441406 25.05960938 38.09441406 25.05960938 39.2109375 26.140625 C54.59217551 42.06902167 62.09826905 65.64924858 62.02734375 87.4375 C61.40961693 113.83540382 50.69737045 136.48671056 32 155 C11.67788701 173.78898408 -12.85800834 179.13285861 -39.85693359 178.19970703 C-62.70598155 176.7479033 -83.34205952 164.60366177 -98.75 148.125 C-117.40822313 126.51200489 -122.9976576 101.95355496 -121 74 C-119.07747256 55.73421905 -109.97852978 38.64493736 -98 25 C-97.05060547 23.90171875 -97.05060547 23.90171875 -96.08203125 22.78125 C-86.12398765 12.08006882 -73.61615859 4.92049145 -60 0 C-58.22496094 -0.65162109 -58.22496094 -0.65162109 -56.4140625 -1.31640625 C-38.73538699 -6.72555323 -17.38529988 -6.23092416 0 0 Z " fill="#FE4E0D" transform="translate(124,4)"/>
<path d="M0 0 C3.32166835 1.57676645 5.52296561 3.27944008 8.12597656 5.89892578 C8.92650452 6.6996048 9.72703247 7.50028381 10.55181885 8.32522583 C11.40612488 9.18985443 12.26043091 10.05448303 13.140625 10.9453125 C14.46389801 12.27283035 14.46389801 12.27283035 15.81390381 13.62716675 C18.15194543 15.97450131 20.48555874 18.32606785 22.81713867 20.67980957 C25.19996526 23.08313927 27.58850348 25.48077767 29.9765625 27.87890625 C34.65631862 32.58071467 39.33031867 37.28818664 44 42 C42.39456337 45.98805525 39.60792171 48.67167049 36.60986328 51.644104 C35.77637202 52.48227523 35.77637202 52.48227523 34.92604256 53.33737922 C33.06220099 55.20920052 31.1912891 57.07378907 29.3203125 58.93847656 C27.98296249 60.27853638 26.64603839 61.61902135 25.30950928 62.9598999 C21.67792569 66.60060921 18.04003443 70.23495416 14.40071869 73.86793232 C10.59765059 77.66594351 6.79945705 81.46882435 3.00048828 85.27093506 C-3.37824036 91.65330335 -9.76117728 98.03144024 -16.14648438 104.40722656 C-23.53817154 111.78801988 -30.92261337 119.17600337 -38.30335045 126.56774545 C-44.63345286 132.90690963 -50.96742678 139.24218565 -57.30468178 145.57419944 C-61.09287523 149.35926827 -64.87968878 153.14569103 -68.6630249 156.93561554 C-72.2174449 160.49579258 -75.77668279 164.05108022 -79.33977509 167.60257721 C-80.65008102 168.91022814 -81.95866857 170.21960341 -83.26544952 171.53077698 C-85.0423569 173.31310794 -86.82524139 175.08922915 -88.60986328 176.86383057 C-89.13184233 177.39027106 -89.65382137 177.91671154 -90.19161797 178.45910478 C-93.77169948 182 -93.77169948 182 -96 182 C-97.43336487 180.54663086 -97.43336487 180.54663086 -99.10375977 178.52734375 C-102.9735362 173.97938096 -107.10417714 169.76819693 -111.33984375 165.5625 C-112.10680069 164.79695801 -112.87375763 164.03141602 -113.66395569 163.24267578 C-116.08610881 160.82606803 -118.51173612 158.41298274 -120.9375 156 C-122.59202893 154.35049314 -124.24632802 152.70075571 -125.90039062 151.05078125 C-129.9309423 147.03118602 -133.96454877 143.01467561 -138 139 C-132.20541759 131.90721669 -125.67956366 125.54635707 -119.20166016 119.08813477 C-117.90008413 117.78684113 -116.59872889 116.48532663 -115.2975769 115.18360901 C-111.77961844 111.66536459 -108.25859351 108.15020381 -104.73699617 104.63560224 C-101.05165887 100.95653202 -97.36916845 97.2746145 -93.68637085 93.59300232 C-86.71871294 86.62844785 -79.74851066 79.66644563 -72.77738321 72.70536417 C-64.83829345 64.77746624 -56.90205568 56.84671595 -48.96605229 48.91572869 C-32.64719894 32.60731735 -16.32477994 16.30247864 0 0 Z " fill="#004F6A" transform="translate(465,13)"/>
<path d="M0 0 C2 1 2 1 3 3.37890625 C10.94681258 28.6783291 9.06054699 54.32662934 -3 78 C-15.1099407 99.23897293 -34.0403228 114.55552951 -57.234375 121.9921875 C-81.12467082 128.38606335 -107.00442997 126.60032509 -128.79296875 114.44140625 C-137.24988082 109.27660664 -145.0875467 103.1049114 -152 96 C-145.1496046 79.1889722 -118.81992418 63.00365424 -103.00830078 56.13476562 C-95.12160784 52.93760874 -87.03521895 50.31523923 -78.921875 47.76171875 C-57.51617998 40.96954031 -37.1400223 32.96664771 -20 18 C-19.12601563 17.23945312 -18.25203125 16.47890625 -17.3515625 15.6953125 C-14.87351182 13.49175359 -12.43482216 11.25113574 -10 9 C-8.12717914 7.31008187 -6.25222393 5.62252569 -4.375 3.9375 C-3.53710938 3.18339844 -2.69921875 2.42929687 -1.8359375 1.65234375 C-1.23007813 1.10707031 -0.62421875 0.56179687 0 0 Z " fill="#FE4E0D" transform="translate(178,57)"/>
<path d="M0 0 C7.0612963 6.41936027 14.29216933 15.75770371 17 25 C15.80356832 28.0341232 14.21283087 30.01747313 11.8671875 32.25 C11.23482178 32.85223389 10.60245605 33.45446777 9.95092773 34.07495117 C-11.85119888 54.2924942 -34.51815153 66.84139686 -62.87207031 75.72851562 C-82.85970277 82.00049374 -82.85970277 82.00049374 -101.3125 91.75 C-101.9621875 92.16483643 -102.611875 92.57967285 -103.28125 93.00708008 C-109.84184808 97.3273757 -115.38072355 102.54871387 -121 108 C-122.4279873 109.26085626 -123.86438225 110.51231619 -125.3125 111.75 C-129.05631984 114.99150439 -132.54836961 118.4512925 -136 122 C-143.1648439 115.70362202 -148.32363148 106.73137522 -152 98 C-151.63116072 94.67641987 -150.39977201 93.01587077 -148.078125 90.6796875 C-147.16812744 89.76038452 -147.16812744 89.76038452 -146.23974609 88.82250977 C-145.58312988 88.17983154 -144.92651367 87.53715332 -144.25 86.875 C-143.57404785 86.20847412 -142.8980957 85.54194824 -142.20166016 84.85522461 C-122.96974679 66.18869075 -100.24299993 54.89716588 -74.9375 46.9375 C-44.62152084 37.3529442 -22.21731901 22.73400085 0 0 Z " fill="#F03800" transform="translate(162,30)"/>
<path d="M0 0 C3.52344644 1.6586188 5.79901878 3.56657308 8.546875 6.3515625 C9.39121094 7.20234375 10.23554688 8.053125 11.10546875 8.9296875 C12.41451172 10.26386719 12.41451172 10.26386719 13.75 11.625 C14.63816406 12.5221875 15.52632813 13.419375 16.44140625 14.34375 C18.63216969 16.55807004 20.81812763 18.77692435 23 21 C-5.66666667 49.66666667 -34.33333333 78.33333333 -63 107 C-70.14966362 103.54344795 -75.39364896 97.81039316 -80.45703125 91.796875 C-81.90282773 90.11316264 -83.41007985 88.54694933 -85 87 C-83.61565262 83.88534154 -82.01680359 81.76901869 -79.60848999 79.36798096 C-78.55680382 78.31217079 -78.55680382 78.31217079 -77.48387146 77.23503113 C-76.71495071 76.47330093 -75.94602997 75.71157074 -75.15380859 74.92675781 C-74.34397018 74.11662735 -73.53413177 73.30649689 -72.69975281 72.47181702 C-70.02069416 69.79415215 -67.33461989 67.12364184 -64.6484375 64.453125 C-62.7899801 62.59839755 -60.93196365 60.74322816 -59.07437134 58.88763428 C-54.68331439 54.50279039 -50.28718468 50.12306917 -45.88920653 45.74516845 C-40.8816809 40.7600072 -35.87984156 35.76915727 -30.87847018 30.77782297 C-20.59195943 20.51221028 -10.29833103 10.25375452 0 0 Z " fill="#FCB345" transform="translate(337,163)"/>
<path d="M0 0 C3.52344644 1.6586188 5.79901878 3.56657308 8.546875 6.3515625 C9.39121094 7.20234375 10.23554688 8.053125 11.10546875 8.9296875 C12.41451172 10.26386719 12.41451172 10.26386719 13.75 11.625 C14.63816406 12.5221875 15.52632813 13.419375 16.44140625 14.34375 C18.63216969 16.55807004 20.81812763 18.77692435 23 21 C18.61618886 26.24471606 14.00291191 31.13522023 9.15869141 35.95483398 C8.39703674 36.71663467 7.63538208 37.47843536 6.85064697 38.26332092 C4.35331728 40.75995857 1.85247313 43.25304362 -0.6484375 45.74609375 C-2.38885998 47.48464954 -4.12906061 49.22342744 -5.86904907 50.9624176 C-10.43376321 55.52332637 -15.00147327 60.08122314 -19.56982422 64.63848877 C-24.23717278 69.29558054 -28.90166724 73.95552903 -33.56640625 78.61523438 C-42.70815409 87.74627983 -51.85297437 96.87424173 -61 106 C-64.52344644 104.3413812 -66.79901878 102.43342692 -69.546875 99.6484375 C-70.39121094 98.79765625 -71.23554688 97.946875 -72.10546875 97.0703125 C-72.97816406 96.18085937 -73.85085938 95.29140625 -74.75 94.375 C-76.08224609 93.02921875 -76.08224609 93.02921875 -77.44140625 91.65625 C-79.63216969 89.44192996 -81.81812763 87.22307565 -84 85 C-79.61618886 79.75528394 -75.00291191 74.86477977 -70.15869141 70.04516602 C-69.01620941 68.90246498 -69.01620941 68.90246498 -67.85064697 67.73667908 C-65.35331728 65.24004143 -62.85247313 62.74695638 -60.3515625 60.25390625 C-58.61114002 58.51535046 -56.87093939 56.77657256 -55.13095093 55.0375824 C-50.56623679 50.47667363 -45.99852673 45.91877686 -41.43017578 41.36151123 C-36.76282722 36.70441946 -32.09833276 32.04447097 -27.43359375 27.38476562 C-18.29184591 18.25372017 -9.14702563 9.12575827 0 0 Z " fill="#006284" transform="translate(465,13)"/>
<path d="M0 0 C3.46629835 1.48653506 5.69022036 3.45722351 8.328125 6.1328125 C9.12734375 6.93847656 9.9265625 7.74414062 10.75 8.57421875 C11.575 9.41597656 12.4 10.25773438 13.25 11.125 C14.09046875 11.97449219 14.9309375 12.82398438 15.796875 13.69921875 C17.86915683 15.79504923 19.93662393 17.89540713 22 20 C20.42188036 23.81145683 18.01935853 26.23428438 15.12304688 29.13574219 C14.62853531 29.63375839 14.13402374 30.1317746 13.62452698 30.6448822 C11.99425197 32.28393562 10.35679915 33.91559366 8.71875 35.546875 C7.58267419 36.68429815 6.4468954 37.82201804 5.31140137 38.96002197 C2.93398445 41.34038451 0.55299452 43.71709882 -1.83056641 46.09130859 C-4.890855 49.14017706 -7.94204349 52.1979704 -10.99063873 55.25852585 C-13.33239761 57.60749631 -15.67887996 59.95170142 -18.02684021 62.29447174 C-19.15428143 63.42057586 -20.28023078 64.54817561 -21.40467834 65.67726898 C-22.97269097 67.25033812 -24.54693176 68.81689086 -26.12304688 70.38183594 C-27.01858276 71.27578064 -27.91411865 72.16972534 -28.83679199 73.09075928 C-31 75 -31 75 -33 75 C-34.26953125 73.70703125 -34.26953125 73.70703125 -35.8125 71.8125 C-41.15418024 65.50477121 -47.12052783 59.79990037 -53 54 C-47.28216133 47.00144615 -40.84368345 40.73251959 -34.4375 34.375 C-33.30249994 33.24502709 -32.16773255 32.11482044 -31.03320312 30.984375 C-28.94601388 28.90529005 -26.85747924 26.82757787 -24.76733398 24.75146484 C-22.17340538 22.17241099 -19.58531831 19.58768149 -17 17 C-11.33333333 11.33333333 -5.66666667 5.66666667 0 0 Z " fill="#004F69" transform="translate(402,120)"/>
<path d="M0 0 C4.52615993 3.67832017 8.39424999 7.41086363 12 12 C11.51610558 12.413024 11.03221115 12.82604799 10.53365326 13.25158787 C5.46025288 17.62963085 0.65677665 22.20544977 -4.06835938 26.95483398 C-4.83030609 27.71663467 -5.59225281 28.47843536 -6.37728882 29.26332092 C-8.86848996 31.7552128 -11.35614087 34.25061647 -13.84375 36.74609375 C-15.58087631 38.48508723 -17.31822509 40.2238585 -19.05578613 41.9624176 C-23.60846211 46.51889525 -28.15812581 51.078369 -32.70715332 55.63848877 C-37.35762892 60.2992292 -42.01096844 64.95710836 -46.6640625 69.61523438 C-55.7788352 78.74070292 -64.8905236 87.8692446 -74 97 C-77.18086518 95.49053489 -79.29869906 93.92058175 -81.75 91.375 C-82.67039062 90.42753906 -82.67039062 90.42753906 -83.609375 89.4609375 C-84.06828125 88.97882813 -84.5271875 88.49671875 -85 88 C-83.6232587 84.90780051 -82.04755625 82.80126858 -79.65318298 80.41940308 C-78.96191818 79.72683411 -78.27065338 79.03426514 -77.55844116 78.32070923 C-76.8004422 77.57147186 -76.04244324 76.8222345 -75.26147461 76.05029297 C-74.46299606 75.25312866 -73.66451752 74.45596436 -72.84184265 73.63464355 C-70.19990619 70.99920153 -67.5510731 68.37080075 -64.90234375 65.7421875 C-63.06863093 63.91474367 -61.23543138 62.08678468 -59.40272522 60.2583313 C-55.0690204 55.93657694 -50.73124832 51.61894823 -46.39113098 47.30363476 C-38.15332512 39.11282237 -29.9226291 30.91488663 -21.69592476 22.71292496 C-18.9877069 20.01496406 -16.27611992 17.32042289 -13.56419373 14.62619019 C-11.91239225 12.98121376 -10.26069868 11.33612898 -8.60913086 9.69091797 C-7.46909607 8.56098923 -7.46909607 8.56098923 -6.30603027 7.40823364 C-5.6175853 6.72130432 -4.92914032 6.034375 -4.21983337 5.32662964 C-3.61865661 4.7289723 -3.01747984 4.13131496 -2.39808559 3.5155468 C-0.90099254 2.0334489 -0.90099254 2.0334489 0 0 Z " fill="#F69643" transform="translate(348,173)"/>
<path d="M0 0 C5.25174926 4.38442526 10.13222473 9.00842093 14.9375 13.875 C15.62134766 14.56335938 16.30519531 15.25171875 17.00976562 15.9609375 C18.67551464 17.63833511 20.3388622 19.31803791 22 21 C20.70280076 23.85779017 19.3363174 25.91008536 17.11083984 28.11621094 C16.5303891 28.69651062 15.94993835 29.2768103 15.35189819 29.87469482 C14.72788116 30.48838928 14.10386414 31.10208374 13.4609375 31.734375 C12.82008209 32.37240051 12.17922668 33.01042603 11.51895142 33.66778564 C9.47562179 35.69994069 7.42544018 37.72502218 5.375 39.75 C3.9865214 41.1284453 2.5984951 42.50734636 1.2109375 43.88671875 C-2.18748697 47.26311894 -5.59207254 50.63319288 -9 54 C-12.56764285 52.48623919 -14.83706287 50.39486871 -17.546875 47.6484375 C-18.39121094 46.79765625 -19.23554688 45.946875 -20.10546875 45.0703125 C-20.97816406 44.18085938 -21.85085938 43.29140625 -22.75 42.375 C-24.08224609 41.02921875 -24.08224609 41.02921875 -25.44140625 39.65625 C-27.63216969 37.44192996 -29.81812763 35.22307565 -32 33 C-28.10023279 28.33125463 -24.04785356 23.90872191 -19.7265625 19.62890625 C-19.15795502 19.06171371 -18.58934753 18.49452118 -18.00350952 17.91014099 C-16.21303764 16.12520087 -14.41909516 14.34379744 -12.625 12.5625 C-11.39950677 11.34203061 -10.17424428 10.12132947 -8.94921875 8.90039062 C-5.96880226 5.93091244 -2.98527106 2.96459743 0 0 Z " fill="#006284" transform="translate(359,119)"/>
<path d="M0 0 C3.46629835 1.48653506 5.69022036 3.45722351 8.328125 6.1328125 C9.12734375 6.93847656 9.9265625 7.74414062 10.75 8.57421875 C11.575 9.41597656 12.4 10.25773438 13.25 11.125 C14.09046875 11.97449219 14.9309375 12.82398438 15.796875 13.69921875 C17.86915683 15.79504923 19.93662393 17.89540713 22 20 C20.51346494 23.46629835 18.54277649 25.69022036 15.8671875 28.328125 C15.06152344 29.12734375 14.25585938 29.9265625 13.42578125 30.75 C12.58402344 31.575 11.74226563 32.4 10.875 33.25 C10.02550781 34.09046875 9.17601562 34.9309375 8.30078125 35.796875 C6.20495077 37.86915683 4.10459287 39.93662393 2 42 C-1.46629835 40.51346494 -3.69022036 38.54277649 -6.328125 35.8671875 C-7.12734375 35.06152344 -7.9265625 34.25585938 -8.75 33.42578125 C-9.9875 32.16314453 -9.9875 32.16314453 -11.25 30.875 C-12.09046875 30.02550781 -12.9309375 29.17601562 -13.796875 28.30078125 C-15.86915683 26.20495077 -17.93662393 24.10459287 -20 22 C-18.51346494 18.53370165 -16.54277649 16.30977964 -13.8671875 13.671875 C-12.65869141 12.47304687 -12.65869141 12.47304687 -11.42578125 11.25 C-10.58402344 10.425 -9.74226563 9.6 -8.875 8.75 C-8.02550781 7.90953125 -7.17601562 7.0690625 -6.30078125 6.203125 C-4.20495077 4.13084317 -2.10459287 2.06337607 0 0 Z " fill="#00435A" transform="translate(402,120)"/>
</svg>
