<?xml version="1.0" encoding="UTF-8"?>
<svg version="1.1" xmlns="http://www.w3.org/2000/svg" width="512" height="512">
<path d="M0 0 C1.00575073 0.00465271 2.01150146 0.00930542 3.04772949 0.01409912 C17.56989062 0.09275771 31.79259771 0.45381103 46.0625 3.375 C47.05910645 3.56835938 48.05571289 3.76171875 49.08251953 3.9609375 C88.64815985 11.77875574 127.40915124 28.01729875 158.50341797 54.07617188 C160.00624081 55.32813203 161.53593616 56.5476176 163.06640625 57.765625 C178.68739761 70.45393982 193.32791286 84.99999934 205.0625 101.375 C206.05180622 102.72025592 207.04140366 104.06529771 208.03125 105.41015625 C230.83129792 136.71693091 246.05078684 172.27512175 253.0625 210.375 C253.22331055 211.17566895 253.38412109 211.97633789 253.54980469 212.80126953 C259.42311688 242.82782126 258.3726142 277.52715824 252.0625 307.375 C251.84287598 308.41688477 251.62325195 309.45876953 251.39697266 310.53222656 C241.29935215 356.82549311 218.94021242 399.23913721 186.0625 433.375 C185.43037598 434.03435547 184.79825195 434.69371094 184.14697266 435.37304688 C175.00009947 444.86382 165.69804306 453.58820776 155.0625 461.375 C153.96969886 462.19744754 152.87725034 463.02036382 151.78515625 463.84375 C112.42630215 493.12261513 62.36314393 512.18124125 13.0078125 512.61328125 C12.07650513 512.6230751 11.14519775 512.63286896 10.18566895 512.64295959 C-10.50100558 512.81566379 -30.60778232 512.67289334 -50.9375 508.375 C-51.97938477 508.15537598 -53.02126953 507.93575195 -54.09472656 507.70947266 C-93.23277983 499.17256786 -128.49142657 481.97460736 -159.9375 457.375 C-160.47665039 456.95589355 -161.01580078 456.53678711 -161.57128906 456.10498047 C-177.81609161 443.33824509 -192.86669408 428.1447445 -204.9375 411.375 C-205.78926801 410.22835128 -206.64215463 409.08253275 -207.49609375 407.9375 C-213.54353133 399.74589798 -218.92848412 391.23596602 -223.9375 382.375 C-224.3396875 381.66778809 -224.741875 380.96057617 -225.15625 380.23193359 C-246.36048401 342.56956952 -256.39969889 300.17570821 -256.3125 257.125 C-256.31195618 256.11298523 -256.31141235 255.10097046 -256.31085205 254.05828857 C-256.2701051 237.52382605 -255.34636907 221.60435136 -251.9375 205.375 C-251.72851074 204.35970215 -251.51952148 203.3444043 -251.30419922 202.29833984 C-242.99998852 163.2156763 -225.64208836 127.62707256 -200.9375 96.375 C-200.12539062 95.33730469 -199.31328125 94.29960938 -198.4765625 93.23046875 C-186.27648711 78.2401553 -172.27622724 63.92415021 -156.59130859 52.58447266 C-154.86385229 51.32113954 -153.17571483 50.01544528 -151.48828125 48.69921875 C-141.27194524 40.82470826 -130.30667875 34.43732014 -118.9375 28.375 C-117.69685791 27.71153564 -117.69685791 27.71153564 -116.43115234 27.03466797 C-94.31917044 15.40814471 -69.58462509 7.39049312 -44.9375 3.375 C-44.1924118 3.25185425 -43.44732361 3.1287085 -42.67965698 3.00183105 C-28.39836703 0.69267372 -14.45404504 -0.12001423 0 0 Z " fill="#EBEBEE" transform="translate(255.9375,-0.375)"/>
<path d="M0 0 C30.11398204 6.05306172 60.07158897 23.11626303 83.44091797 42.70117188 C84.94374081 43.95313203 86.47343616 45.1726176 88.00390625 46.390625 C103.62489761 59.07893982 118.26541286 73.62499934 130 90 C130.98930622 91.34525592 131.97890366 92.69029771 132.96875 94.03515625 C155.76879792 125.34193091 170.98828684 160.90012175 178 199 C178.16081055 199.80066895 178.32162109 200.60133789 178.48730469 201.42626953 C184.36061688 231.45282126 183.3101142 266.15215824 177 296 C176.78037598 297.04188477 176.56075195 298.08376953 176.33447266 299.15722656 C168.9024916 333.22967757 154.58914672 375.08309621 129 400 C122.95200078 375.37685389 117.07278414 350.71541264 111.25512695 326.03686523 C110.98029984 324.87110962 110.70547272 323.705354 110.4223175 322.50427246 C109.90300824 320.30073869 109.38402018 318.09712919 108.86540222 315.89343262 C108.51823906 314.41949036 108.51823906 314.41949036 108.1640625 312.91577148 C107.96248535 312.05918442 107.7609082 311.20259735 107.55322266 310.3200531 C107.04995248 308.20948602 106.53097618 306.10374658 106 304 C105.4020311 303.84815247 104.80406219 303.69630493 104.18797302 303.53985596 C96.15788676 301.43063307 88.30597346 298.84883439 80.43992805 296.20754242 C78.04907316 295.40557879 75.65658064 294.60869326 73.26353455 293.81329346 C66.46856747 291.55453907 59.6748856 289.29206415 52.88647461 287.01367188 C48.71409075 285.61369772 44.53844194 284.22388405 40.36047173 282.84067535 C38.77436407 282.31339306 37.1895229 281.78228497 35.60600471 281.24727631 C33.40064002 280.50256595 31.1913571 279.77085379 28.98071289 279.04199219 C28.32977158 278.81869232 27.67883026 278.59539246 27.00816345 278.36532593 C23.66556234 277.27907395 21.31170795 276.61596107 18 278 C15.96666088 279.23646547 15.96666088 279.23646547 13.9453125 280.80859375 C13.1730835 281.38552979 12.40085449 281.96246582 11.60522461 282.55688477 C10.78675049 283.17748779 9.96827637 283.79809082 9.125 284.4375 C7.40033896 285.72736431 5.67507487 287.01642266 3.94921875 288.3046875 C2.67957275 289.25553223 2.67957275 289.25553223 1.38427734 290.22558594 C-1.73509088 292.54706538 -4.89030051 294.81401333 -8.0625 297.0625 C-9.18502153 297.86050031 -10.30741515 298.65868055 -11.4296875 299.45703125 C-12.28771973 300.06732178 -12.28771973 300.06732178 -13.16308594 300.68994141 C-23.80079013 308.2765869 -34.35274785 315.9788874 -44.86035156 323.74438477 C-51.27967179 328.48324425 -57.73827154 333.16592823 -64.21484375 337.82617188 C-67.49852799 340.18933801 -70.77841194 342.55226599 -74 345 C-76.77075248 343.6865119 -79.21979592 342.22447036 -81.6953125 340.41796875 C-82.40163818 339.90500244 -83.10796387 339.39203613 -83.83569336 338.86352539 C-84.96890015 338.03389282 -84.96890015 338.03389282 -86.125 337.1875 C-87.75382607 336.00249395 -89.38273458 334.8176012 -91.01171875 333.6328125 C-92.25767822 332.72450684 -92.25767822 332.72450684 -93.52880859 331.79785156 C-96.58869178 329.57171248 -99.65952251 327.3610368 -102.73095703 325.15087891 C-109.77098118 320.08312087 -116.77367533 314.96757795 -123.75 309.8125 C-130.25065141 305.00937916 -136.78791863 300.26564338 -143.375 295.58203125 C-147.78310896 292.44673882 -152.17393814 289.28757336 -156.5625 286.125 C-157.32506104 285.57706787 -158.08762207 285.02913574 -158.87329102 284.46459961 C-162.66129353 281.73249806 -166.38635264 278.96247526 -170 276 C-167.82623861 267.63193875 -165.25175791 259.43263712 -162.53515625 251.2265625 C-162.09709943 249.89611446 -161.65931651 248.56557621 -161.2217865 247.23495483 C-160.06981473 243.73364106 -158.9146745 240.23338153 -157.75866699 236.73339844 C-155.9496265 231.25457197 -154.14526967 225.77419989 -152.34086227 220.29384613 C-151.88757453 218.91722494 -151.43416751 217.54064301 -150.98064041 216.16410065 C-145.25922363 198.79597172 -139.62766729 181.39868821 -134 164 C-133.40107752 164.00682958 -132.80215504 164.01365915 -132.18508339 164.02069569 C-117.57749807 164.18276407 -102.9706925 164.27236576 -88.36225319 164.28240681 C-81.29725377 164.28899045 -74.23392309 164.31963584 -67.16943359 164.40795898 C-60.34768999 164.49317837 -53.52846952 164.50997347 -46.70624924 164.48558617 C-44.10752254 164.48737413 -41.5087065 164.51185247 -38.91041946 164.55968666 C-24.69148552 165.54210604 -24.69148552 165.54210604 -12.23974609 160.16552734 C-9.57355811 157.07498955 -7.78106886 153.66790695 -6 150 C-4.92355629 148.46337582 -3.82163708 146.94350018 -2.671875 145.4609375 C-1.69606582 144.10028379 -0.72211271 142.7382971 0.25 141.375 C4.78892257 135.04982681 9.37156085 128.75996395 14 122.5 C18.78444559 116.02463908 23.5359152 109.52678781 28.25 103 C29.07371094 101.86014648 29.07371094 101.86014648 29.9140625 100.69726562 C34.27196617 95.48297765 34.27196617 95.48297765 35.83984375 89.34692383 C34.79458915 85.18140194 33.25388859 81.38925984 31.5625 77.44921875 C31.03382828 76.19567596 31.03382828 76.19567596 30.49447632 74.91680908 C29.73259725 73.11228122 28.96779487 71.30898536 28.20037842 69.50680542 C26.98915687 66.66203294 25.7856916 63.81409723 24.58447266 60.96508789 C22.91027533 56.99472602 21.23373456 53.02536694 19.55566406 49.05664062 C15.84415822 40.26982844 12.16879252 31.46803319 8.5078125 22.6600647 C7.38591104 19.96372324 6.25944558 17.26931831 5.1328125 14.57495117 C4.45025678 12.93419185 3.76795104 11.29332851 3.0859375 9.65234375 C2.77119476 8.90229065 2.45645203 8.15223755 2.13217163 7.37945557 C0 2.22826978 0 2.22826978 0 0 Z " fill="#DCDCDE" transform="translate(331,11)"/>
<path d="M0 0 C0.89776154 0.30035156 1.79552307 0.60070312 2.7204895 0.91015625 C5.62793015 1.88414809 8.53299489 2.86494714 11.4375 3.84765625 C15.47612848 5.21352892 19.5150854 6.57841552 23.5546875 7.94140625 C24.56030731 8.28114975 25.56592712 8.62089325 26.60202026 8.97093201 C32.91927621 11.09494454 39.25980923 13.11684405 45.6328125 15.06640625 C47.898587 15.77232171 50.16356028 16.48074178 52.42822266 17.19021606 C53.84077823 17.62533796 55.25683723 18.04925905 56.67626953 18.46139526 C58.62864133 19.02906099 60.56871405 19.63852862 62.5078125 20.25 C63.58820801 20.57347412 64.66860352 20.89694824 65.78173828 21.23022461 C71.24715022 24.68743177 72.2059946 33.46655104 73.62988281 39.52587891 C73.92555649 40.75675484 73.92555649 40.75675484 74.22720337 42.01249695 C74.87061279 44.6984368 75.50614447 47.38615671 76.140625 50.07421875 C76.5870086 51.95416278 77.03352356 53.83407562 77.48016357 55.71395874 C78.41181344 59.64174825 79.33903819 63.57055326 80.26367188 67.5 C81.44826239 72.53078936 82.64822182 77.55777595 83.85203934 82.58399391 C84.77774538 86.45979618 85.69308864 90.33799145 86.60555267 94.21693039 C87.04361767 96.07172556 87.48540362 97.92564608 87.93100739 99.77864456 C88.55245101 102.36774647 89.15930871 104.9598621 89.76269531 107.55322266 C89.94859222 108.31389542 90.13448914 109.07456818 90.32601929 109.85829163 C91.31628529 114.19456235 91.6335073 117.6033795 90.4375 121.91015625 C88.76047067 124.29189471 87.13252531 126.33298072 85.1875 128.47265625 C84.62538818 129.10397461 84.06327637 129.73529297 83.48413086 130.38574219 C70.87032297 144.34144453 57.72759319 157.89093552 42.4375 168.91015625 C41.34912639 169.72635458 40.26189856 170.54408285 39.17578125 171.36328125 C-0.16126937 200.66725172 -50.27029423 219.71647136 -99.6171875 220.1484375 C-100.54849487 220.15823135 -101.47980225 220.16802521 -102.43933105 220.17811584 C-134.1945038 220.4432262 -165.64395888 218.7441332 -195.5625 206.91015625 C-191.79032069 202.55281894 -187.00040225 199.92056359 -182.125 196.97265625 C-180.21344688 195.80354039 -178.30199113 194.63426529 -176.390625 193.46484375 C-175.41673828 192.87155273 -174.44285156 192.27826172 -173.43945312 191.66699219 C-169.0709067 188.99930209 -164.72375069 186.29744609 -160.375 183.59765625 C-151.07680979 177.83718825 -141.76159946 172.10444764 -132.44262695 166.37768555 C-131.40323975 165.73871338 -130.36385254 165.09974121 -129.29296875 164.44140625 C-128.30989746 163.838125 -127.32682617 163.23484375 -126.31396484 162.61328125 C-123.83551524 161.07914953 -121.37997846 159.51385926 -118.92578125 157.94140625 C-115.5625 155.91015625 -115.5625 155.91015625 -113.5625 155.91015625 C-113.57883987 154.77977936 -113.59517975 153.64940247 -113.61201477 152.48477173 C-113.75786153 141.80383319 -113.83469454 131.12430057 -113.84490681 120.44234657 C-113.85234952 114.95096815 -113.88363911 109.46193402 -113.97045898 103.97119141 C-114.053443 98.66647375 -114.07243655 93.36494574 -114.04808617 88.05967331 C-114.04987073 86.04145908 -114.07426268 84.02312766 -114.12218666 82.00548172 C-114.46612531 66.62264561 -114.46612531 66.62264561 -111.28906441 62.09562874 C-107.83813786 58.56601051 -103.86420978 56.26696066 -99.5625 53.91015625 C-98.02015656 52.8134071 -96.49035228 51.69816325 -94.98828125 50.546875 C-93.61866944 49.5617385 -92.24756981 48.57866723 -90.875 47.59765625 C-89.32810905 46.48569928 -87.78123452 45.37371945 -86.234375 44.26171875 C-85.46029297 43.70645508 -84.68621094 43.15119141 -83.88867188 42.57910156 C-80.13012718 39.88247987 -76.37662481 37.17889465 -72.625 34.47265625 C-71.88838135 33.94140137 -71.1517627 33.41014648 -70.39282227 32.86279297 C-64.03042707 28.26561872 -57.71424169 23.6070678 -51.40234375 18.94091797 C-46.11833022 15.04023993 -40.81264329 11.17332999 -35.42797852 7.41235352 C-32.63792108 5.45227332 -29.95013843 3.4306692 -27.3515625 1.2265625 C-26.56736938 0.58037964 -26.56736938 0.58037964 -25.76733398 -0.07885742 C-24.35237185 -1.25476723 -22.96219658 -2.46032672 -21.57421875 -3.66796875 C-15.12651566 -6.71202053 -6.44159375 -2.18682675 0 0 Z " fill="#EBEBEE" transform="translate(368.5625,292.08984375)"/>
<path d="M0 0 C2.10698055 1.36574362 4.11135072 2.75814204 6.125 4.25 C6.73118164 4.69110107 7.33736328 5.13220215 7.96191406 5.58666992 C9.28199684 6.54744121 10.60028591 7.51068072 11.91699219 8.47607422 C14.76760338 10.56157763 17.63363381 12.62539718 20.49926758 14.69018555 C22.7889744 16.34059251 25.07637789 17.99414851 27.36328125 19.6484375 C30.39993186 21.84451263 33.4389656 24.03721325 36.48046875 26.2265625 C44.98133363 32.34878775 53.44275117 38.52051134 61.86572266 44.74951172 C68.21623701 49.43994943 74.6112968 54.06637877 81.0390625 58.65039062 C81.73386719 59.14861328 82.42867187 59.64683594 83.14453125 60.16015625 C83.74628174 60.58949463 84.34803223 61.01883301 84.96801758 61.46118164 C85.63857178 61.9689917 86.30912598 62.47680176 87 63 C88.52531845 64.01342216 88.52531845 64.01342216 90.08145142 65.0473175 C92.6564078 67.21959496 93.44376291 68.64200786 93.74171448 71.99783325 C93.76812017 73.59225547 93.76158227 75.18743525 93.72875977 76.78173828 C93.7344548 77.65547089 93.74014984 78.52920349 93.74601746 79.42941284 C93.75711063 82.31054071 93.7250848 85.18938728 93.69140625 88.0703125 C93.68782907 90.07379896 93.68647174 92.07729052 93.6872406 94.08078003 C93.68255158 98.27569155 93.65772508 102.46983296 93.61743164 106.66455078 C93.56639559 112.04625676 93.55499072 117.42711851 93.55726719 122.80903816 C93.55645227 126.94400111 93.54001298 131.07877885 93.51826286 135.21368027 C93.50870621 137.19844028 93.50280142 139.1832213 93.50058174 141.16800308 C93.49409053 143.93805111 93.46786146 146.70719621 93.43579102 149.47705078 C93.43783035 150.7114389 93.43783035 150.7114389 93.43991089 151.97076416 C93.34455271 157.59145523 93.34455271 157.59145523 91.61959743 159.63677788 C89.51341971 161.40955672 87.28564166 162.79870576 84.93359375 164.23046875 C83.38937744 165.17515015 83.38937744 165.17515015 81.81396484 166.13891602 C80.69973145 166.81494873 79.58549805 167.49098145 78.4375 168.1875 C77.26746266 168.90180683 76.09770813 169.61657709 74.92822266 170.33178711 C72.49640786 171.8184268 70.06338735 173.30306189 67.62939453 174.78613281 C62.03521345 178.19630597 56.45490704 181.62903672 50.875 185.0625 C49.81442383 185.71460449 48.75384766 186.36670898 47.66113281 187.03857422 C38.96539909 192.39111691 30.30108145 197.79284489 21.64990234 203.21704102 C20.71742676 203.80155029 19.78495117 204.38605957 18.82421875 204.98828125 C18.01041748 205.49915283 17.19661621 206.01002441 16.3581543 206.53637695 C15.19086792 207.26087036 15.19086792 207.26087036 14 208 C13.18313721 208.58821533 12.36627441 209.17643066 11.5246582 209.7824707 C9 211 9 211 6.47070312 210.59716797 C5.58318359 210.23252441 4.69566406 209.86788086 3.78125 209.4921875 C2.77682861 209.08798584 1.77240723 208.68378418 0.73754883 208.26733398 C-0.33084229 207.80786377 -1.3992334 207.34839355 -2.5 206.875 C-3.60770752 206.41359619 -4.71541504 205.95219238 -5.85668945 205.47680664 C-28.10690548 196.02695096 -48.0025131 183.86133777 -67 169 C-67.53915039 168.58089355 -68.07830078 168.16178711 -68.63378906 167.72998047 C-80.34051072 158.52970751 -90.75074465 147.76386231 -101 137 C-101.64388672 136.32517578 -102.28777344 135.65035156 -102.95117188 134.95507812 C-104.49515202 133.2968613 -105.9773577 131.6070047 -107.4375 129.875 C-108.19933594 128.98554688 -108.96117187 128.09609375 -109.74609375 127.1796875 C-113.23620102 118.32938433 -106.86799711 103.34844976 -104.75390625 94.1640625 C-104.54986616 93.27572094 -104.34582607 92.38737938 -104.13560295 91.47211838 C-103.0587075 86.78428999 -101.97876131 82.09717691 -100.89624023 77.41064453 C-99.78120233 72.58058385 -98.67676091 67.74816358 -97.57464695 62.91514015 C-96.72173215 59.18372037 -95.86103836 55.45412631 -94.99821281 51.72498703 C-94.58744742 49.94350286 -94.17960563 48.16134189 -93.77478218 46.37849808 C-93.20907674 43.89048532 -92.63238831 41.40526175 -92.05297852 38.92041016 C-91.8892424 38.18890747 -91.72550629 37.45740479 -91.55680847 36.70373535 C-90.60248563 32.67007034 -89.55103748 29.29899756 -87 26 C-85.00779724 24.86532593 -85.00779724 24.86532593 -82.70092773 24.13818359 C-81.82873596 23.85337631 -80.95654419 23.56856903 -80.05792236 23.27513123 C-79.10939392 22.9858223 -78.16086548 22.69651337 -77.18359375 22.3984375 C-76.19115662 22.07968155 -75.19871948 21.7609256 -74.1762085 21.43251038 C-70.9352212 20.39591758 -67.68680933 19.38517189 -64.4375 18.375 C-62.21147557 17.66968879 -59.98597235 16.96273057 -57.76098633 16.25415039 C-53.29423538 14.83339056 -48.82479415 13.42157672 -44.35351562 12.01513672 C-38.66106711 10.2182931 -32.99062991 8.3614634 -27.328125 6.47265625 C-25.75077864 5.9492422 -24.17338775 5.42596233 -22.59594727 4.90283203 C-20.4081576 4.17704315 -18.22134041 3.44892055 -16.037323 2.71185303 C-14.0630607 2.04701821 -12.08498891 1.39507301 -10.10546875 0.74609375 C-9.01387451 0.38185303 -7.92228027 0.0176123 -6.79760742 -0.35766602 C-3.95715093 -1.0098382 -2.6642744 -1.07390084 0 0 Z " fill="#F5F8F8" transform="translate(163,288)"/>
<path d="M0 0 C1.41945419 -0.01058945 1.41945419 -0.01058945 2.86758423 -0.02139282 C31.87192238 -0.18867012 60.04125932 0.92781561 87.8671875 10.203125 C88.80229187 11.81735229 88.80229187 11.81735229 89.6003418 13.93310547 C89.9060762 14.72314972 90.21181061 15.51319397 90.52680969 16.32717896 C90.84925156 17.19116302 91.17169342 18.05514709 91.50390625 18.9453125 C92.2151029 20.78672494 92.92788149 22.62752703 93.64208984 24.46777344 C94.00880798 25.41954468 94.37552612 26.37131592 94.75335693 27.35192871 C96.49664095 31.81440719 98.34363409 36.23172061 100.19921875 40.6484375 C100.56290054 41.51642471 100.92658234 42.38441193 101.30128479 43.27870178 C102.04617032 45.05551533 102.79172446 46.83204871 103.53793335 48.60830688 C104.70959338 51.399365 105.87722511 54.19208305 107.04418945 56.98510742 C110.48052418 65.20053685 113.93289907 73.40579629 117.515625 81.55859375 C118.03793701 82.75661621 118.56024902 83.95463867 119.09838867 85.18896484 C120.03870117 87.3369444 120.99115643 89.47966788 121.95825195 91.61572266 C125.75620656 100.31846005 125.75620656 100.31846005 123.8671875 105.203125 C121.93359375 108.140625 121.93359375 108.140625 119.4296875 111.203125 C118.50695896 112.35504741 117.58644979 113.50875051 116.66796875 114.6640625 C115.96341553 115.54529785 115.96341553 115.54529785 115.24462891 116.44433594 C113.1076871 119.17289474 111.11133221 121.9943837 109.1171875 124.828125 C104.58522757 131.23618969 99.93858088 137.55491576 95.27075195 143.86450195 C90.52901107 150.28253116 85.85070368 156.74436158 81.2175293 163.24121094 C80.71906494 163.93633789 80.22060059 164.63146484 79.70703125 165.34765625 C79.27769287 165.94940674 78.84835449 166.55115723 78.40600586 167.17114258 C77.8981958 167.84169678 77.39038574 168.51225098 76.8671875 169.203125 C75.92984772 170.72353394 75.92984772 170.72353394 74.97357178 172.2746582 C72.50221422 175.19628646 70.62913349 175.69579128 66.85346985 176.01213074 C64.77833646 176.06906956 62.70213391 176.09280418 60.6262207 176.09057617 C58.92283791 176.12321312 58.92283791 176.12321312 57.18504333 176.1565094 C53.42897998 176.21862424 49.67450849 176.23519202 45.91796875 176.24609375 C43.30347573 176.26791589 40.68898891 176.2904944 38.07450867 176.313797 C32.59100399 176.35671791 27.10792221 176.36955248 21.62426758 176.36987305 C15.30460271 176.37110398 8.98842945 176.44307998 2.66971713 176.54825228 C-3.42758156 176.64611104 -9.5232108 176.67141456 -15.62125587 176.67016029 C-18.20607241 176.67906757 -20.7909083 176.70912015 -23.37521935 176.76100731 C-44.65831607 177.15065472 -44.65831607 177.15065472 -49.88838196 172.36225891 C-52.5533332 169.27236177 -54.35503843 165.87170678 -56.1328125 162.203125 C-57.15029017 160.72962435 -58.19078726 159.27098333 -59.27734375 157.84765625 C-60.16929196 156.57214431 -61.05862619 155.2948004 -61.9453125 154.015625 C-66.12474315 148.04111252 -70.35223872 142.10560251 -74.6328125 136.203125 C-80.42763726 128.20642342 -86.18478871 120.18085263 -91.80078125 112.05712891 C-92.69782608 110.80856614 -93.63994888 109.59133351 -94.62109375 108.40771484 C-95.32298828 107.53880615 -95.32298828 107.53880615 -96.0390625 106.65234375 C-96.46509766 106.15436279 -96.89113281 105.65638184 -97.33007812 105.14331055 C-99.08579241 100.89980039 -97.28236927 96.61431106 -95.78857422 92.50732422 C-95.22158997 91.17057086 -94.64573138 89.83755753 -94.0625 88.5078125 C-93.74924774 87.77421005 -93.43599548 87.0406076 -93.11325073 86.28477478 C-92.43737439 84.70369249 -91.75786421 83.12415955 -91.07507324 81.54605103 C-89.24564905 77.31570374 -87.44484269 73.07317513 -85.640625 68.83203125 C-85.26832764 67.95872665 -84.89603027 67.08542206 -84.51245117 66.18565369 C-80.53447443 56.83673305 -76.69559439 47.43288159 -72.8828125 38.015625 C-72.56938904 37.24434265 -72.25596558 36.4730603 -71.93304443 35.67840576 C-71.32463416 34.180907 -70.71763226 32.68283512 -70.11216736 31.18414307 C-69.54085208 29.77290465 -68.96510946 28.36344892 -68.38453674 26.95599365 C-67.14834048 23.92406087 -66.07900595 21.00590588 -65.21508789 17.83935547 C-63.32041734 10.91973861 -63.32041734 10.91973861 -59.88525391 8.84692383 C-56.95360251 7.85175924 -54.11920398 7.23848807 -51.0703125 6.703125 C-49.47014282 6.36535034 -49.47014282 6.36535034 -47.83764648 6.02075195 C-44.61055813 5.35753297 -41.37827894 4.76884389 -38.1328125 4.203125 C-37.19598633 4.03345215 -36.25916016 3.8637793 -35.29394531 3.68896484 C-29.9222214 2.72909294 -24.54486007 1.89793198 -19.1328125 1.203125 C-18.13200401 1.07213158 -18.13200401 1.07213158 -17.11097717 0.93849182 C-11.3946077 0.24225008 -5.75538623 0.02856352 0 0 Z " fill="#EBEBEE" transform="translate(243.1328125,-0.203125)"/>
<path d="M0 0 C38.94 0 77.88 0 118 0 C125.32823375 21.98470124 132.64699948 43.96976115 139.86206055 65.99145508 C140.73042062 68.64040193 141.6003359 71.28883715 142.47019196 73.93729305 C143.53332591 77.17527805 144.59469313 80.41384137 145.65625 83.65234375 C146.22502869 85.38374855 146.22502869 85.38374855 146.80529785 87.15013123 C147.52288346 89.34249285 148.23488567 91.53669166 148.94067383 93.73287964 C149.68280023 96.02170848 150.44762766 98.30324327 151.22924805 100.57888794 C151.80703003 102.31403152 151.80703003 102.31403152 152.39648438 104.08422852 C152.92937073 105.64380028 152.92937073 105.64380028 153.47302246 107.23487854 C154 110 154 110 153.20953369 112.27095032 C151.74599796 114.36310038 150.21226245 115.60846887 148.140625 117.1015625 C147.36195068 117.66883057 146.58327637 118.23609863 145.78100586 118.82055664 C144.94577393 119.41602295 144.11054199 120.01148926 143.25 120.625 C142.38963135 121.24818115 141.5292627 121.8713623 140.64282227 122.51342773 C138.10134667 124.35100092 135.55202892 126.1771222 133 128 C131.75379279 128.89437318 130.50768541 129.78888549 129.26171875 130.68359375 C127.03452396 132.27937898 124.80358649 133.86976682 122.5703125 135.45703125 C111.34515236 143.44112403 100.21746954 151.55747622 89.13964844 159.74438477 C82.72032821 164.48324425 76.26172846 169.16592823 69.78515625 173.82617188 C66.50147201 176.18933801 63.22158806 178.55226599 60 181 C57.22924752 179.6865119 54.78020408 178.22447036 52.3046875 176.41796875 C51.59836182 175.90500244 50.89203613 175.39203613 50.16430664 174.86352539 C49.40883545 174.31043701 48.65336426 173.75734863 47.875 173.1875 C46.24617393 172.00249395 44.61726542 170.8176012 42.98828125 169.6328125 C41.74232178 168.72450684 41.74232178 168.72450684 40.47119141 167.79785156 C37.41130822 165.57171248 34.34047749 163.3610368 31.26904297 161.15087891 C24.22901882 156.08312087 17.22632467 150.96757795 10.25 145.8125 C3.74934859 141.00937916 -2.78791863 136.26564338 -9.375 131.58203125 C-13.78310896 128.44673882 -18.17393814 125.28757336 -22.5625 122.125 C-23.32506104 121.57706787 -24.08762207 121.02913574 -24.87329102 120.46459961 C-28.66129353 117.73249806 -32.38635264 114.96247526 -36 112 C-33.82623861 103.63193875 -31.25175791 95.43263712 -28.53515625 87.2265625 C-28.09709943 85.89611446 -27.65931651 84.56557621 -27.2217865 83.23495483 C-26.06981473 79.73364106 -24.9146745 76.23338153 -23.75866699 72.73339844 C-15.76165538 48.51379743 -7.86872347 24.26189735 0 0 Z " fill="#093F61" transform="translate(197,175)"/>
<path d="M0 0 C0 57.75 0 115.5 0 175 C-19.47 175 -38.94 175 -59 175 C-70.38724227 160.19658505 -70.38724227 160.19658505 -74.8125 153.8125 C-78.99193065 147.83798752 -83.21942622 141.90247751 -87.5 136 C-93.29482476 128.00329842 -99.05197621 119.97772763 -104.66796875 111.85400391 C-105.56501358 110.60544114 -106.50713638 109.38820851 -107.48828125 108.20458984 C-108.19017578 107.33568115 -108.19017578 107.33568115 -108.90625 106.44921875 C-109.33228516 105.95123779 -109.75832031 105.45325684 -110.19726562 104.94018555 C-111.95297991 100.69667539 -110.14955677 96.41118606 -108.65576172 92.30419922 C-108.08877747 90.96744586 -107.51291888 89.63443253 -106.9296875 88.3046875 C-106.61643524 87.57108505 -106.30318298 86.8374826 -105.98043823 86.08164978 C-105.30456189 84.50056749 -104.62505171 82.92103455 -103.94226074 81.34292603 C-102.11283655 77.11257874 -100.31203019 72.87005013 -98.5078125 68.62890625 C-98.13551514 67.75560165 -97.76321777 66.88229706 -97.37963867 65.98252869 C-93.40166193 56.63360805 -89.56278189 47.22975659 -85.75 37.8125 C-85.43657654 37.04121765 -85.12315308 36.2699353 -84.80023193 35.47528076 C-84.19182166 33.977782 -83.58481976 32.47971012 -82.97935486 30.98101807 C-82.40803958 29.56977965 -81.83229696 28.16032392 -81.25172424 26.75286865 C-80.01552798 23.72093587 -78.94619345 20.80278088 -78.08227539 17.63623047 C-76.18760484 10.71661361 -76.18760484 10.71661361 -72.75244141 8.64379883 C-69.82079001 7.64863424 -66.98639148 7.03536307 -63.9375 6.5 C-62.33733032 6.16222534 -62.33733032 6.16222534 -60.70483398 5.81762695 C-57.47774563 5.15440797 -54.24546644 4.56571889 -51 4 C-50.06317383 3.83032715 -49.12634766 3.6606543 -48.16113281 3.48583984 C-31.98072789 0.59456763 -16.66119039 0 0 0 Z " fill="#F5F8F8" transform="translate(256,0)"/>
<path d="M0 0 C19.47 0 38.94 0 59 0 C59.33 59.73 59.66 119.46 60 181 C57.1126396 179.5563198 54.86001013 178.28270862 52.3046875 176.41796875 C51.59836182 175.90500244 50.89203613 175.39203613 50.16430664 174.86352539 C49.40883545 174.31043701 48.65336426 173.75734863 47.875 173.1875 C46.24617393 172.00249395 44.61726542 170.8176012 42.98828125 169.6328125 C41.74232178 168.72450684 41.74232178 168.72450684 40.47119141 167.79785156 C37.41130822 165.57171248 34.34047749 163.3610368 31.26904297 161.15087891 C24.22901882 156.08312087 17.22632467 150.96757795 10.25 145.8125 C3.74934859 141.00937916 -2.78791863 136.26564338 -9.375 131.58203125 C-13.78310896 128.44673882 -18.17393814 125.28757336 -22.5625 122.125 C-23.32506104 121.57706787 -24.08762207 121.02913574 -24.87329102 120.46459961 C-28.66129353 117.73249806 -32.38635264 114.96247526 -36 112 C-33.82623936 103.63194164 -31.25181291 95.43261968 -28.53515625 87.2265625 C-28.10053676 85.90673324 -27.66618667 84.58681524 -27.23208618 83.26681519 C-26.31669644 80.48490181 -25.39968666 77.70353045 -24.48129272 74.92260742 C-23.05415429 70.60101522 -21.63072112 66.2782092 -20.20825195 61.95507812 C-19.97290206 61.23981083 -19.73755217 60.52454353 -19.49507046 59.78760147 C-19.02148169 58.34822673 -18.5479108 56.9088461 -18.07435799 55.46945953 C-17.36910432 53.32613786 -16.66351339 51.18292744 -15.95787048 49.03973389 C-10.5829186 32.71106969 -5.28785581 16.35710064 0 0 Z " fill="#135772" transform="translate(197,175)"/>
<path d="M0 0 C3.63401577 1.71122564 6.12637103 3.79933887 9.0625 6.5625 C12.77478591 10.01462571 16.54816138 13.31925184 20.5 16.5 C25.25739668 20.33835414 29.75783918 24.39622359 34.25390625 28.53515625 C36.91875166 30.92707297 39.64831825 33.19254884 42.4375 35.4375 C46.9662304 39.09011755 51.24488214 42.93462732 55.49951172 46.89624023 C59.75784738 50.83711107 64.18837798 54.502904 68.72265625 58.125 C69.84994141 59.053125 69.84994141 59.053125 71 60 C71.54594346 60.44844489 72.09188692 60.89688978 72.65437412 61.35892391 C74 63 74 63 74.14163876 64.94937229 C74.03132604 65.66971118 73.92101332 66.39005007 73.80735779 67.13221741 C73.68803328 67.93124544 73.56870876 68.73027348 73.44576836 69.55351448 C72.75287379 73.35628894 71.96487684 77.12129941 71.08227539 80.88452148 C70.89027054 81.72143021 70.69826569 82.55833893 70.5004425 83.42060852 C69.87145492 86.15535215 69.23492984 88.88827009 68.59765625 91.62109375 C68.15523018 93.53152467 67.71304959 95.44201245 67.27110291 97.35255432 C66.34739551 101.33994221 65.41976209 105.32639186 64.48950195 109.31225586 C63.29620699 114.42720914 62.11431489 119.54472164 60.93547916 124.66302395 C60.02694348 128.60089674 59.11169482 132.53718582 58.1944561 136.47303963 C57.75561758 138.36042118 57.31906208 140.24833504 56.88481331 142.13677788 C56.27918211 144.76660578 55.66438411 147.39412241 55.04711914 150.02124023 C54.86886597 150.80407379 54.69061279 151.58690735 54.50695801 152.39346313 C53.22841632 157.77158368 53.22841632 157.77158368 51 160 C44.09206945 150.64040308 37.72575337 141.12887705 32 131 C31.5978125 130.29278809 31.195625 129.58557617 30.78125 128.85693359 C15.83352829 102.30721069 7.27841518 73.87234963 2 44 C1.86577637 43.26894043 1.73155273 42.53788086 1.59326172 41.78466797 C-0.86507766 28.01312684 -0.19086127 13.92993629 0 0 Z " fill="#135772" transform="translate(0,251)"/>
<path d="M0 0 C-0.70983469 4.87403615 -2.56362013 9.15521462 -4.4375 13.671875 C-4.7899025 14.53127182 -5.14230499 15.39066864 -5.50538635 16.27610779 C-6.6658083 19.10259128 -7.83274141 21.92633373 -9 24.75 C-9.80621376 26.70861449 -10.61211825 28.66735631 -11.41772461 30.6262207 C-13.51639415 35.72543583 -15.62111076 40.82213365 -17.72723389 45.91827393 C-19.39771861 49.96298905 -21.06385546 54.00948904 -22.73013306 58.05593872 C-24.29701454 61.85927103 -25.86659681 65.66148315 -27.43725586 69.46325684 C-28.18724263 71.27899287 -28.93659198 73.09499232 -29.68530273 74.91125488 C-30.72646213 77.4353868 -31.77091746 79.95812755 -32.81640625 82.48046875 C-33.1259877 83.23251083 -33.43556915 83.98455292 -33.75453186 84.75938416 C-35.88546264 89.88546264 -35.88546264 89.88546264 -37 91 C-39.82397801 91.30512052 -42.63184712 91.54934742 -45.46362305 91.75610352 C-46.35145981 91.82452454 -47.23929657 91.89294556 -48.15403748 91.96343994 C-51.10627454 92.18975818 -54.0589657 92.40943055 -57.01171875 92.62890625 C-59.05860395 92.78408325 -61.10546342 92.9396001 -63.15229797 93.09544373 C-67.45215322 93.4218579 -71.75222629 93.74517801 -76.05249023 94.06616211 C-81.55971926 94.47733555 -87.06647472 94.8944799 -92.57309246 95.31375217 C-96.80489972 95.63557088 -101.03688345 95.95501511 -105.26893044 96.27366447 C-107.29871503 96.42662588 -109.32845866 96.58013184 -111.35816002 96.7341938 C-114.20174251 96.94950939 -117.04553303 97.16182821 -119.8894043 97.37329102 C-120.72652954 97.43717514 -121.56365479 97.50105927 -122.42614746 97.56687927 C-126.62909447 97.87610482 -130.78178657 98.06797719 -135 98 C-132.31959317 93.02210159 -129.40371288 88.81034501 -125.6875 84.5625 C-125.01557617 83.78036133 -125.01557617 83.78036133 -124.33007812 82.98242188 C-123.39355412 81.89488834 -122.45306659 80.81075778 -121.5090332 79.72973633 C-120.46808497 78.53654458 -119.43311079 77.3381237 -118.40307617 76.13549805 C-107.37888359 63.34259934 -95.3493456 51.20577278 -81.68603516 41.24169922 C-79.94806168 39.96174945 -78.24494373 38.64376562 -76.54296875 37.31640625 C-57.71484005 22.81240406 -24.67613286 0 0 0 Z " fill="#135772" transform="translate(181,11)"/>
<path d="M0 0 C0.33 0 0.66 0 1 0 C2.6573228 55.50756525 -13.25486096 111.37109651 -47 156 C-48.31835896 157.34814139 -49.64903947 158.68453005 -51 160 C-53.7662863 148.73765203 -56.50132469 137.46788255 -59.22637939 126.19549561 C-60.05490536 122.77320948 -60.88648669 119.35167361 -61.71826172 115.93017578 C-63.23199877 109.69842071 -64.73369529 103.46385128 -66.22866821 97.22756958 C-66.82606318 94.74318675 -67.42711641 92.25968072 -68.03182983 89.77706909 C-68.88776633 86.25989744 -69.73051247 82.73980422 -70.5703125 79.21875 C-70.96179726 77.62879967 -70.96179726 77.62879967 -71.3611908 76.00672913 C-71.59278397 75.02417648 -71.82437714 74.04162384 -72.06298828 73.02929688 C-72.26900665 72.17493042 -72.47502502 71.32056396 -72.68728638 70.44030762 C-73.0450223 67.64866172 -72.81830341 65.6893619 -72 63 C-70.08827721 60.90704355 -68.2482099 59.09905339 -66.125 57.25 C-65.53855713 56.72414307 -64.95211426 56.19828613 -64.34790039 55.65649414 C-59.92692703 51.72348429 -55.36042011 47.98085968 -50.74609375 44.27734375 C-47.73680948 41.78173531 -44.86061346 39.16234857 -42 36.5 C-37.41242561 32.23079221 -32.66556996 28.24241261 -27.78125 24.3125 C-24.2365246 21.36520023 -20.87538226 18.2460561 -17.50244141 15.10571289 C-13.2101478 11.13383388 -8.7439661 7.43538153 -4.1796875 3.77734375 C-1.96611041 2.03354816 -1.96611041 2.03354816 0 0 Z " fill="#093F61" transform="translate(511,251)"/>
<path d="M0 0 C30.11398204 6.05306172 60.07158897 23.11626303 83.44091797 42.70117188 C84.94374081 43.95313203 86.47343616 45.1726176 88.00390625 46.390625 C103.61687705 59.07242504 118.26881708 73.63584991 130 90 C130.68642578 90.94020996 130.68642578 90.94020996 131.38671875 91.89941406 C135 96.87653186 135 96.87653186 135 98 C125.1276884 98.22037814 115.38238749 97.52580753 105.5546875 96.72265625 C103.89188646 96.590146 102.22905416 96.45802763 100.56619263 96.32627869 C97.1016735 96.05084825 93.63741486 95.77241515 90.17333984 95.49145508 C85.75822931 95.13336025 81.34274074 94.78023278 76.92707634 94.42903996 C72.67782322 94.09095257 68.42873875 93.75077018 64.1796875 93.41015625 C63.38297512 93.34638353 62.58626274 93.28261082 61.76540756 93.21690559 C53.50193716 92.55376659 45.24536598 91.86493797 37 91 C36.140625 88.9375 35.28125 86.875 34.421875 84.8125 C34.14302963 84.14337082 33.86418427 83.47424164 33.57688904 82.78483582 C31.97278391 78.93540398 30.36931562 75.08570857 28.7668457 71.2355957 C25.18630571 62.6349954 21.59873206 54.03743789 17.99563599 45.44625854 C16.17299561 41.09925255 14.35339531 36.750977 12.53405762 32.40258789 C11.63890016 30.26527876 10.74234206 28.12855571 9.84436035 25.99243164 C8.57362149 22.96910804 7.30780817 19.94376427 6.04296875 16.91796875 C5.47357826 15.56846382 5.47357826 15.56846382 4.89268494 14.19169617 C2.94130353 9.50930105 1.27441494 4.91155603 0 0 Z " fill="#093F61" transform="translate(331,11)"/>
<path d="M0 0 C2.75774652 1.14275927 5.19898135 2.58995574 7.74633789 4.14868164 C9.43690308 5.17868286 9.43690308 5.17868286 11.16162109 6.22949219 C12.3826774 6.98102403 13.60362189 7.73273758 14.82446289 8.48461914 C16.08882777 9.25814306 17.35339744 10.03133234 18.61816406 10.80419922 C27.54964733 16.27069793 36.4358908 21.80939154 45.3034668 27.37890625 C53.35215811 32.42910526 61.45813467 37.38108255 69.59130859 42.29394531 C74.1554476 45.05611503 78.66818442 47.85134597 83.07446289 50.85961914 C78.67647069 53.79161394 73.88641787 54.81928608 68.82446289 56.23461914 C67.71578857 56.5447998 66.60711426 56.85498047 65.46484375 57.17456055 C47.99905722 61.92049616 30.13803491 64.93929923 12.01977539 65.09790039 C10.62281433 65.11259117 10.62281433 65.11259117 9.19763184 65.12757874 C-22.55754091 65.39268909 -54.00699599 63.69359609 -83.92553711 51.85961914 C-80.1533578 47.50228183 -75.36343936 44.87002648 -70.48803711 41.92211914 C-68.57648399 40.75300328 -66.66502824 39.58372818 -64.75366211 38.41430664 C-63.77977539 37.82101562 -62.80588867 37.22772461 -61.80249023 36.61645508 C-57.4339431 33.94876455 -53.08683376 31.24683596 -48.73803711 28.54711914 C-41.14714051 23.84592239 -33.54906822 19.15637351 -25.94638062 14.47427368 C-24.29119789 13.45486043 -22.63631658 12.43495785 -20.98144531 11.41503906 C-18.93498543 10.15549496 -16.8860087 8.90002863 -14.83422852 7.64916992 C-12.90160045 6.46013486 -10.98168888 5.2501684 -9.07543945 4.01928711 C-8.19452637 3.45999512 -7.31361328 2.90070313 -6.40600586 2.32446289 C-5.25007935 1.57410767 -5.25007935 1.57410767 -4.07080078 0.80859375 C-1.92553711 -0.14038086 -1.92553711 -0.14038086 0 0 Z " fill="#093F61" transform="translate(256.925537109375,447.140380859375)"/>
<path d="M0 0 C0 21.45 0 42.9 0 65 C-26.76698533 65 -26.76698533 65 -36.9375 63.375 C-38.09282227 63.2004126 -39.24814453 63.0258252 -40.43847656 62.84594727 C-54.88850377 60.54654078 -69.36813268 57.39194752 -83 52 C-79.22782069 47.64266269 -74.43790225 45.01040734 -69.5625 42.0625 C-67.65094688 40.89338414 -65.73949113 39.72410904 -63.828125 38.5546875 C-62.85423828 37.96139648 -61.88035156 37.36810547 -60.87695312 36.75683594 C-56.50840599 34.08914541 -52.16129665 31.38721682 -47.8125 28.6875 C-40.2216034 23.98630325 -32.62353111 19.29675437 -25.02084351 14.61465454 C-23.36566079 13.59524129 -21.71077947 12.57533871 -20.0559082 11.55541992 C-15.14352289 8.53197148 -10.22603572 5.51694867 -5.29296875 2.52734375 C-4.08483521 1.79439087 -4.08483521 1.79439087 -2.85229492 1.04663086 C-1 0 -1 0 0 0 Z " fill="#135772" transform="translate(256,447)"/>
</svg>
