<?xml version="1.0" encoding="UTF-8"?>
<svg version="1.1" xmlns="http://www.w3.org/2000/svg" width="512" height="512">
<path d="M0 0 C0.82242187 0.19867676 1.64484375 0.39735352 2.4921875 0.60205078 C45.71792131 11.30426789 81.97435889 37.00243773 105.29931641 75.12353516 C113.30853238 88.79913522 118.66424642 103.49503139 122.8125 118.75 C123.0074707 119.45688965 123.20244141 120.1637793 123.40332031 120.89208984 C126.81980235 134.1874472 127.37619064 147.5479309 127.3125 161.1875 C127.30976578 162.4064798 127.30976578 162.4064798 127.30697632 163.65008545 C127.26045821 175.984507 126.75888394 187.93259818 124 200 C123.83371094 200.75732422 123.66742188 201.51464844 123.49609375 202.29492188 C112.30194068 252.08817312 82.97107583 295.81095684 42.5 326.625 C41.43845703 327.44484375 41.43845703 327.44484375 40.35546875 328.28125 C27.6373916 338 27.6373916 338 24 338 C24 338.66 24 339.32 24 340 C25.03253906 340.14695312 25.03253906 340.14695312 26.0859375 340.296875 C29.60318143 341.14553976 32.42744404 342.55933823 35.625 344.25 C37.31496094 345.12398438 37.31496094 345.12398438 39.0390625 346.015625 C42.16920882 348.11340116 43.4978412 349.57421338 45 353 C44.9175 354.11375 44.835 355.2275 44.75 356.375 C45.07610187 361.10347705 46.77456283 362.25821354 50.203125 365.2890625 C52 367 52 367 54 370.4375 C54.66 371.283125 55.32 372.12875 56 373 C59.5 373.16666667 59.5 373.16666667 63 373 C71.95172795 380.23612165 73.59563777 394.20056332 75 405 C76.84973767 425.2710977 69.63779714 444.41878429 57 460 C55.824375 461.5778125 55.824375 461.5778125 54.625 463.1875 C45.7132141 472.73584204 35.1501336 479.15826265 22.875 483.3125 C21.74674805 483.69462646 21.74674805 483.69462646 20.59570312 484.08447266 C1.03837161 490.37075779 -20.06740217 487.25395295 -38.13378906 478.03417969 C-55.27546911 468.53494412 -68.07050746 452.27423054 -74.0703125 433.68359375 C-74.81401478 430.79903977 -75.4482071 427.92670956 -76 425 C-76.226875 423.88625 -76.45375 422.7725 -76.6875 421.625 C-78.29401594 402.98941515 -74.83267249 386.7342094 -65.328125 370.63671875 C-64.70325195 369.57541748 -64.07837891 368.51411621 -63.43457031 367.4206543 C-62.96116211 366.62183838 -62.48775391 365.82302246 -62 365 C-70.5652203 365.32741986 -79.12989749 365.66613665 -87.69414425 366.01801777 C-91.67392387 366.18120727 -95.65377003 366.34096786 -99.6340332 366.49194336 C-134.55456873 367.65666876 -134.55456873 367.65666876 -168.875 373.75 C-170.41111938 374.13406006 -170.41111938 374.13406006 -171.97827148 374.52587891 C-180.81295722 376.80868299 -189.38207606 379.58440396 -197.80224609 383.10107422 C-200.03303783 384.01351314 -202.28648911 384.83496271 -204.55078125 385.66015625 C-211.81503839 388.38274851 -211.81503839 388.38274851 -217.06835938 393.78955078 C-218.44674507 397.1348372 -219.21970786 400.45487354 -219.8828125 404 C-221.75246703 412.37851731 -229.42634111 418.73490649 -235.26171875 424.59985352 C-236.47288109 425.82832001 -236.47288109 425.82832001 -237.70851135 427.081604 C-240.36251123 429.76971128 -243.02417683 432.45003771 -245.6875 435.12890625 C-247.05968689 436.5114475 -247.05968689 436.5114475 -248.45959473 437.92191887 C-252.80312447 442.29808714 -257.15099207 446.6698824 -261.50474358 451.03588158 C-266.49667787 456.04205056 -271.47345437 461.06266907 -276.43767643 466.09631592 C-280.29895835 470.00968719 -284.17388222 473.90921696 -288.0589819 477.79894203 C-290.36852743 480.11185574 -292.67036149 482.43160594 -294.96151733 484.76275826 C-318.69627769 508.88434595 -318.69627769 508.88434595 -336.49829102 509.29272461 C-351.11557791 509.40827065 -362.10174962 506.35948912 -373 496.12109375 C-383.13740461 485.30640565 -385.59701083 473.24526242 -385.3125 458.9375 C-384.67462378 444.84043564 -376.19158897 434.73494833 -366.58300781 425.16308594 C-365.34757736 423.91495117 -365.34757736 423.91495117 -364.08718872 422.64160156 C-361.38355874 419.91472165 -358.669019 417.19903673 -355.953125 414.484375 C-354.53703896 413.06298021 -353.12095668 411.64158157 -351.70533824 410.21972108 C-347.2617365 405.75696168 -342.81009649 401.30233427 -338.35351562 396.85253906 C-333.7754182 392.28108476 -329.21229142 387.69506268 -324.65608716 383.10179687 C-320.72431932 379.13922687 -316.78283677 375.18650055 -312.83369708 371.2412436 C-310.4836367 368.89323896 -308.13857583 366.5406167 -305.80075836 364.18041229 C-303.19050664 361.54792077 -300.56472625 358.93192115 -297.93457031 356.31933594 C-297.17578583 355.54728821 -296.41700134 354.77524048 -295.63522339 353.97979736 C-289.20497158 347.6484561 -282.23769346 343.204505 -273.203125 341.7734375 C-270.11799706 340.99075726 -268.46236972 340.50743343 -266.30664062 338.14160156 C-264.89125374 335.69028529 -263.79888649 333.25395654 -262.75 330.625 C-262.34434814 329.68817383 -261.93869629 328.75134766 -261.52075195 327.78613281 C-260.28934048 324.87707225 -259.1333883 321.94849898 -258 319 C-257.65952637 318.12891602 -257.31905273 317.25783203 -256.96826172 316.36035156 C-253.09781684 306.24781803 -250.3593935 295.97650938 -248.1875 285.375 C-247.99244873 284.42334961 -247.79739746 283.47169922 -247.59643555 282.49121094 C-243.45248331 260.73866061 -243.21959346 238.52989471 -242.39819336 216.46777344 C-240.92254933 177.14252488 -236.96412767 140.13425911 -218 105 C-217.18789063 103.46666016 -217.18789063 103.46666016 -216.359375 101.90234375 C-203.43989208 78.60337334 -183.9471892 57.2995316 -163 41 C-162.2575 40.37867188 -161.515 39.75734375 -160.75 39.1171875 C-157.63979641 36.58425655 -155.7718328 35.11874351 -151.75 34.5 C-149 35 -149 35 -147.30859375 36.2734375 C-144.74824043 37.34980089 -144.74824043 37.34980089 -141.36328125 35.5078125 C-140.00281037 34.7311605 -138.65275536 33.9360394 -137.3125 33.125 C-136.62349609 32.75375 -135.93449219 32.3825 -135.22460938 32 C-131.38394826 29.7826159 -131.38394826 29.7826159 -129.43383789 25.98583984 C-129.25556625 23.99328518 -129.12579916 21.9965544 -129 20 C-127.64453125 18.3359375 -127.64453125 18.3359375 -125.8125 17.375 C-125.08417969 16.98957031 -124.35585938 16.60414062 -123.60546875 16.20703125 C-122.74566406 15.80871094 -121.88585937 15.41039063 -121 15 C-120.00613281 14.52949219 -119.01226562 14.05898438 -117.98828125 13.57421875 C-82.50108818 -2.37647082 -38.28593289 -9.54575343 0 0 Z M-55 52 C-43.45 63.55 -31.9 75.1 -20 87 C-15.77778161 83.38095567 -11.82555739 79.94860025 -7.94140625 76.0390625 C-7.06162109 75.15605469 -6.18183594 74.27304688 -5.27539062 73.36328125 C-4.38013672 72.45964844 -3.48488281 71.55601563 -2.5625 70.625 C-1.64017578 69.69816406 -0.71785156 68.77132812 0.23242188 67.81640625 C2.49058625 65.54654154 4.74636942 63.27436462 7 61 C0.33065577 54.33065577 -15.10541991 52.59389092 -24 51 C-24.73992187 50.86722656 -25.47984375 50.73445313 -26.2421875 50.59765625 C-31.5619016 49.84213265 -36.94851582 49.86928139 -42.3125 49.8125 C-43.10237305 49.79936768 -43.89224609 49.78623535 -44.70605469 49.77270508 C-45.45918945 49.77165771 -46.21232422 49.77061035 -46.98828125 49.76953125 C-47.66415283 49.76542236 -48.34002441 49.76131348 -49.03637695 49.75708008 C-51.44476605 49.94403492 -51.44476605 49.94403492 -55 52 Z M-88.75 57.9375 C-89.57822266 58.24453857 -90.40644531 58.55157715 -91.25976562 58.86791992 C-100.93613993 62.57382411 -110.36963391 67.24642261 -119 73 C-117.42476254 76.85308766 -114.82252556 79.44743914 -111.90771484 82.31933594 C-111.39048355 82.83685928 -110.87325226 83.35438263 -110.34034729 83.8875885 C-108.63524329 85.59130289 -106.92317232 87.28782978 -105.2109375 88.984375 C-104.025087 90.16649407 -102.83967826 91.34905645 -101.6546936 92.53204346 C-98.53882362 95.64028728 -95.41699366 98.74247737 -92.29388428 101.84344482 C-89.10636381 105.01048502 -85.9245168 108.18321387 -82.7421875 111.35546875 C-76.50033024 117.57589403 -70.25216515 123.78993537 -64 130 C-61.19030533 128.71977125 -59.1460762 127.39285871 -56.97558594 125.20263672 C-56.13516754 124.36199173 -56.13516754 124.36199173 -55.277771 123.50436401 C-54.68595032 122.90222076 -54.09412964 122.30007751 -53.484375 121.6796875 C-52.86854553 121.06102814 -52.25271606 120.44236877 -51.6182251 119.80496216 C-49.65739664 117.83296186 -47.70364699 115.85411263 -45.75 113.875 C-44.41973201 112.53469836 -43.089008 111.19484917 -41.7578125 109.85546875 C-38.4998985 106.57553411 -35.24831467 103.28944058 -32 100 C-33.46582916 96.63121285 -35.34057672 94.391615 -37.91137695 91.78222656 C-38.71593826 90.96167786 -39.52049957 90.14112915 -40.34944153 89.29571533 C-41.22025864 88.41953552 -42.09107574 87.54335571 -42.98828125 86.640625 C-43.88363083 85.73624695 -44.77898041 84.8318689 -45.70146179 83.90008545 C-47.59605767 81.99098546 -49.49291486 80.08444726 -51.39331055 78.18115234 C-53.82639562 75.74267127 -56.24289506 73.28842893 -58.65575886 70.82995987 C-60.96384832 68.48497896 -63.28969824 66.15773902 -65.61328125 63.828125 C-66.47802567 62.94384827 -67.34277008 62.05957153 -68.23371887 61.14849854 C-69.04773666 60.34055847 -69.86175446 59.53261841 -70.70043945 58.70019531 C-71.41166458 57.98389954 -72.12288971 57.26760376 -72.85566711 56.52960205 C-77.88390591 52.94284348 -83.55301104 55.99072978 -88.75 57.9375 Z M18.11083984 71.66210938 C16.88906356 72.88420363 15.6728082 74.11183237 14.4609375 75.34375 C13.82008209 75.9874353 13.17922668 76.63112061 12.51895142 77.29431152 C10.46624433 79.35824447 8.42058629 81.42901163 6.375 83.5 C4.98743678 84.8975899 3.59942172 86.29473135 2.2109375 87.69140625 C-1.19797984 91.12241587 -4.60058948 94.55957191 -8 98 C-4.03627475 102.75085867 0.09794782 107.23613112 4.4921875 111.58984375 C5.08299103 112.17923233 5.67379456 112.76862091 6.28250122 113.37586975 C8.14430404 115.23213727 10.00957745 117.08487085 11.875 118.9375 C13.14867011 120.20614672 14.42210971 121.4750249 15.6953125 122.74414062 C18.79422043 125.83210554 21.89624301 128.91690929 25 132 C29.4266071 128.28984473 33.64214876 124.47851707 37.71484375 120.3828125 C38.46575035 119.62978348 38.46575035 119.62978348 39.23182678 118.86154175 C40.80278598 117.28506329 42.37019877 115.70511427 43.9375 114.125 C45.01343727 113.04403726 46.08960731 111.96330617 47.16601562 110.8828125 C49.78003292 108.25787359 52.39088596 105.62981372 55 103 C49.87254769 89.63071461 35.38676095 76.00764962 23 69 C20.59036732 68.77412697 20.59036732 68.77412697 18.11083984 71.66210938 Z M-140.52807617 90.19995117 C-141.81355347 91.49316284 -141.81355347 91.49316284 -143.125 92.8125 C-143.98778564 93.67657471 -144.85057129 94.54064941 -145.73950195 95.4309082 C-151.47067395 101.24922147 -156.67042044 107.04453825 -161 114 C-159.41600411 117.89395116 -156.75803057 120.51152235 -153.81591797 123.41113281 C-153.02544067 124.20204819 -153.02544067 124.20204819 -152.21899414 125.00894165 C-150.48142524 126.74512072 -148.73688686 128.474114 -146.9921875 130.203125 C-145.78391678 131.40766437 -144.57608778 132.61264697 -143.36868286 133.8180542 C-140.19362923 136.98548106 -137.01261478 140.14685513 -133.83032227 143.30700684 C-130.58247924 146.53437089 -127.34030867 149.76742228 -124.09765625 153 C-117.73731018 159.33891303 -111.37065247 165.67144624 -105 172 C-100.5733929 168.28984473 -96.35785124 164.47851707 -92.28515625 160.3828125 C-91.78455185 159.88079315 -91.28394745 159.3787738 -90.76817322 158.86154175 C-89.19721402 157.28506329 -87.62980123 155.70511427 -86.0625 154.125 C-84.98656273 153.04403726 -83.91039269 151.96330617 -82.83398438 150.8828125 C-80.21996708 148.25787359 -77.60911404 145.62981372 -75 143 C-76.59254345 139.07676763 -79.29020652 136.42727448 -82.24414062 133.49707031 C-82.77766647 132.96003983 -83.31119232 132.42300934 -83.86088562 131.8697052 C-85.62101769 130.10078929 -87.38834218 128.3392671 -89.15625 126.578125 C-90.38200685 125.35102094 -91.60746667 124.12362012 -92.8326416 122.89593506 C-95.3983709 120.32725937 -97.96767794 117.76223108 -100.53955078 115.19970703 C-103.84197285 111.9087032 -107.13530395 108.60877079 -110.42603302 105.30607986 C-112.95308419 102.77181756 -115.48485982 100.24231854 -118.01811218 97.71425629 C-119.23486828 96.49883751 -120.45013177 95.28192263 -121.66389465 94.06351471 C-123.35643605 92.36591776 -125.05521458 90.67482511 -126.75585938 88.98535156 C-127.25981735 88.47734512 -127.76377533 87.96933868 -128.28300476 87.44593811 C-133.96960864 81.82865513 -135.55297069 85.28019602 -140.52807617 90.19995117 Z M-22.37942505 112.13891602 C-22.9079306 112.67186279 -23.43643616 113.20480957 -23.98095703 113.75390625 C-24.58142853 114.35452881 -25.18190002 114.95515137 -25.80056763 115.57397461 C-26.44645844 116.23018799 -27.09234924 116.88640137 -27.7578125 117.5625 C-28.42086395 118.22838135 -29.08391541 118.8942627 -29.76705933 119.58032227 C-31.89109417 121.71558381 -34.00808393 123.85768286 -36.125 126 C-37.56074041 127.44576698 -38.99693254 128.89108552 -40.43359375 130.3359375 C-43.96099872 133.88543586 -47.48209897 137.44108308 -51 141 C-49.68623083 143.90543872 -48.27943508 145.96661059 -46.01904297 148.20800781 C-45.11833572 149.10848846 -45.11833572 149.10848846 -44.19943237 150.02716064 C-43.23059616 150.980513 -43.23059616 150.980513 -42.2421875 151.953125 C-41.57913605 152.61334656 -40.91608459 153.27356812 -40.23294067 153.95379639 C-38.11828168 156.05727824 -35.99676788 158.15369142 -33.875 160.25 C-32.43834443 161.67662261 -31.00214102 163.10370072 -29.56640625 164.53125 C-26.04949196 168.02613661 -22.52641453 171.51470062 -19 175 C-16.19030533 173.71977125 -14.1460762 172.39285871 -11.97558594 170.20263672 C-11.41530701 169.64220673 -10.85502808 169.08177673 -10.277771 168.50436401 C-9.68595032 167.90222076 -9.09412964 167.30007751 -8.484375 166.6796875 C-7.86854553 166.06102814 -7.25271606 165.44236877 -6.6182251 164.80496216 C-4.65739664 162.83296186 -2.70364699 160.85411263 -0.75 158.875 C0.58026799 157.53469836 1.910992 156.19484917 3.2421875 154.85546875 C6.5001015 151.57553411 9.75168533 148.28944058 13 145 C11.68995776 142.10984919 10.28755525 140.03557826 8.05078125 137.79199219 C7.45676514 137.19167175 6.86274902 136.59135132 6.25073242 135.97283936 C5.61111572 135.33727112 4.97149902 134.70170288 4.3125 134.046875 C3.32503784 133.05654266 3.32503784 133.05654266 2.31762695 132.04620361 C0.92807708 130.65529499 -0.46399274 129.26689992 -1.85839844 127.88085938 C-3.99909286 125.75090259 -6.1288791 123.61045504 -8.2578125 121.46875 C-9.60873387 120.11914961 -10.96027518 118.77016941 -12.3125 117.421875 C-13.27192505 116.45637726 -13.27192505 116.45637726 -14.25073242 115.47137451 C-17.84577287 111.07282678 -17.84577287 111.07282678 -22.37942505 112.13891602 Z M60.49975586 119.38671875 C59.40221675 120.48441713 58.30744784 121.5848894 57.21484375 122.6875 C56.63916153 123.26459717 56.06347931 123.84169434 55.47035217 124.4362793 C53.62371966 126.28853029 51.78058547 128.14422011 49.9375 130 C48.68968122 131.25283139 47.44163733 132.50543861 46.19335938 133.7578125 C43.12628344 136.83594195 40.06234162 139.91716077 37 143 C41.11329871 147.90473901 45.38542461 152.5219528 49.9296875 157.02734375 C50.56488312 157.66112442 51.20007874 158.29490509 51.85452271 158.94789124 C53.85898716 160.94681406 55.86692214 162.94220784 57.875 164.9375 C59.24502389 166.30250133 60.61481774 167.6677336 61.984375 169.03320312 C65.32026543 172.35814211 68.65927036 175.67992353 72 179 C74.22202639 174.98885258 74.34585096 171.44519604 74.3125 166.9375 C74.30758545 166.14746582 74.3026709 165.35743164 74.29760742 164.54345703 C73.98077734 148.058544 70.27653854 132.21409802 64 117 C62.54446684 116.88491763 62.54446684 116.88491763 60.49975586 119.38671875 Z M-171 130 C-175.16247694 138.83106149 -179.15634939 147.62443464 -181.9375 157 C-182.23563599 157.98407837 -182.23563599 157.98407837 -182.53979492 158.98803711 C-183.10222802 160.98139186 -183.55212629 162.97784773 -184 165 C-184.19682373 165.74502777 -184.39364746 166.49005554 -184.59643555 167.25765991 C-185.36334297 171.16711963 -185.68501792 173.83974229 -183.61073303 177.35308838 C-181.45320358 179.82026702 -179.18267463 182.05429251 -176.78515625 184.2890625 C-175.9402916 185.11836273 -175.09542694 185.94766296 -174.22496033 186.80209351 C-171.52890621 189.43672484 -168.79713651 192.03049649 -166.0625 194.625 C-164.22472043 196.40758954 -162.38940205 198.19272022 -160.55664062 199.98046875 C-156.06586876 204.35016658 -151.54517306 208.68695448 -147 213 C-142.78323595 211.07139535 -139.91678209 208.17029862 -136.703125 204.8984375 C-136.10949158 204.30197418 -135.51585815 203.70551086 -134.90423584 203.0909729 C-133.01473373 201.1903019 -131.13231608 199.28278526 -129.25 197.375 C-127.96790935 196.08287532 -126.68536239 194.79120324 -125.40234375 193.5 C-122.26291568 190.33855521 -119.12982199 187.1709539 -116 184 C-121.24183889 177.65464505 -126.98487616 171.851394 -132.796875 166.03515625 C-133.83733183 164.99148098 -134.87771552 163.94773278 -135.91802979 162.90391541 C-138.08470174 160.73129267 -140.25339274 158.5607088 -142.42333984 156.39135742 C-145.20826336 153.60653633 -147.98619677 150.81485031 -150.76249313 148.02143192 C-152.90200119 145.87084181 -155.04600169 143.72477505 -157.19132233 141.57998466 C-158.21842255 140.55170246 -159.24389716 139.5217939 -160.26772308 138.49025154 C-161.69165626 137.05657788 -163.12251192 135.62978957 -164.55371094 134.20336914 C-165.36612244 133.38953262 -166.17853394 132.57569611 -167.01556396 131.73719788 C-168.81124223 129.78044003 -168.81124223 129.78044003 -171 130 Z M-66.88916016 156.66210938 C-68.11093644 157.88420363 -69.3271918 159.11183237 -70.5390625 160.34375 C-71.17991791 160.9874353 -71.82077332 161.63112061 -72.48104858 162.29431152 C-74.53375567 164.35824447 -76.57941371 166.42901163 -78.625 168.5 C-80.01256322 169.8975899 -81.40057828 171.29473135 -82.7890625 172.69140625 C-86.19797984 176.12241587 -89.60058948 179.55957191 -93 183 C-89.03627475 187.75085867 -84.90205218 192.23613112 -80.5078125 196.58984375 C-79.91700897 197.17923233 -79.32620544 197.76862091 -78.71749878 198.37586975 C-76.85569596 200.23213727 -74.99042255 202.08487085 -73.125 203.9375 C-71.85132989 205.20614672 -70.57789029 206.4750249 -69.3046875 207.74414062 C-66.20577957 210.83210554 -63.10375699 213.91690929 -60 217 C-55.5733929 213.28984473 -51.35785124 209.47851707 -47.28515625 205.3828125 C-46.53424965 204.62978348 -46.53424965 204.62978348 -45.76817322 203.86154175 C-44.19721402 202.28506329 -42.62980123 200.70511427 -41.0625 199.125 C-39.98656273 198.04403726 -38.91039269 196.96330617 -37.83398438 195.8828125 C-35.21996708 193.25787359 -32.60911404 190.62981372 -30 188 C-31.31004224 185.10984919 -32.71244475 183.03557826 -34.94921875 180.79199219 C-35.54323486 180.19167175 -36.13725098 179.59135132 -36.74926758 178.97283936 C-37.38888428 178.33727112 -38.02850098 177.70170288 -38.6875 177.046875 C-39.67496216 176.05654266 -39.67496216 176.05654266 -40.68237305 175.04620361 C-42.07192292 173.65529499 -43.46399274 172.26689992 -44.85839844 170.88085938 C-46.99909286 168.75090259 -49.1288791 166.61045504 -51.2578125 164.46875 C-52.60873387 163.11914961 -53.96027518 161.77016941 -55.3125 160.421875 C-56.27192505 159.45637726 -56.27192505 159.45637726 -57.25073242 158.47137451 C-61.78255233 153.36007287 -61.78255233 153.36007287 -66.88916016 156.66210938 Z M22.62057495 157.13891602 C22.0920694 157.67186279 21.56356384 158.20480957 21.01904297 158.75390625 C20.41857147 159.35452881 19.81809998 159.95515137 19.19943237 160.57397461 C18.55354156 161.23018799 17.90765076 161.88640137 17.2421875 162.5625 C16.57913605 163.22838135 15.91608459 163.8942627 15.23294067 164.58032227 C13.10890583 166.71558381 10.99191607 168.85768286 8.875 171 C7.43925959 172.44576698 6.00306746 173.89108552 4.56640625 175.3359375 C1.03900128 178.88543586 -2.48209897 182.44108308 -6 186 C-4.4038371 189.89294472 -1.89094188 192.36280311 1.06054688 195.31933594 C1.57456558 195.83685928 2.08858429 196.35438263 2.61817932 196.8875885 C4.31338276 198.59157316 6.01577158 200.28816332 7.71875 201.984375 C8.89966633 203.1666386 10.08028563 204.34919896 11.26062012 205.53204346 C13.7321932 208.00656256 16.20734174 210.47743386 18.68505859 212.94580078 C21.86641387 216.1157369 25.03867377 219.29459982 28.20833588 222.47622299 C30.64274089 224.91783936 33.0818699 227.35469145 35.5224762 229.79010773 C36.69457485 230.96086917 37.86518126 232.13312649 39.0342865 233.30687714 C40.66456345 234.9422101 42.30107322 236.57103294 43.93945312 238.19824219 C44.8705188 239.12771667 45.80158447 240.05719116 46.76086426 241.01483154 C48.75068451 243.22113244 48.75068451 243.22113244 51 243 C56.65455079 233.51008791 61.68159894 224.0244033 65.625 213.6875 C65.96724609 212.79909424 66.30949219 211.91068848 66.66210938 210.99536133 C68.83396924 205.16107253 68.83396924 205.16107253 69 199 C67.39061614 196.65348743 67.39061614 196.65348743 65.08447266 194.48510742 C64.23003571 193.62459274 63.37559875 192.76407806 62.49526978 191.87748718 C61.56097137 190.9627211 60.62667297 190.04795502 59.6640625 189.10546875 C58.70383682 188.14949388 57.74457 187.192555 56.78622437 186.23469543 C54.77778851 184.23242043 52.76137147 182.2386861 50.73828125 180.2512207 C48.14133251 177.69963574 45.55998474 175.1329551 42.98377419 172.56045055 C41.00461978 170.58571724 39.02008474 168.61647124 37.03358078 166.64913368 C35.61492143 165.24370311 34.19875972 163.83575284 32.78262329 162.42778015 C31.92188202 161.58302628 31.06114075 160.7382724 30.17431641 159.86791992 C29.41486725 159.11911057 28.65541809 158.37030121 27.87295532 157.59880066 C25.70036766 155.74422648 24.89130315 155.26409961 22.62057495 157.13891602 Z M-107.77563477 197.66210938 C-109.00012665 198.88676057 -110.22184708 200.11418652 -111.44140625 201.34375 C-112.08367661 201.9874353 -112.72594696 202.63112061 -113.38768005 203.29431152 C-115.44830012 205.36055079 -117.50542525 207.43023169 -119.5625 209.5 C-120.95485012 210.89736264 -122.34742525 212.29450111 -123.74023438 213.69140625 C-127.16277738 217.12500373 -130.58218882 220.56169268 -134 224 C-132.68623083 226.90543872 -131.27943508 228.96661059 -129.01904297 231.20800781 C-128.11833572 232.10848846 -128.11833572 232.10848846 -127.19943237 233.02716064 C-126.23059616 233.980513 -126.23059616 233.980513 -125.2421875 234.953125 C-124.57913605 235.61334656 -123.91608459 236.27356812 -123.23294067 236.95379639 C-121.11828168 239.05727824 -118.99676788 241.15369142 -116.875 243.25 C-115.43834443 244.67662261 -114.00214102 246.10370072 -112.56640625 247.53125 C-109.04949196 251.02613661 -105.52641453 254.51470062 -102 258 C-97.78323595 256.07139535 -94.91678209 253.17029862 -91.703125 249.8984375 C-90.81267487 249.00374252 -90.81267487 249.00374252 -89.90423584 248.0909729 C-88.01473373 246.1903019 -86.13231608 244.28278526 -84.25 242.375 C-82.96790935 241.08287532 -81.68536239 239.79120324 -80.40234375 238.5 C-77.26291568 235.33855521 -74.12982199 232.1709539 -71 229 C-74.95952624 224.25957786 -79.08247977 219.76879523 -83.45703125 215.41015625 C-84.0454631 214.82076767 -84.63389496 214.23137909 -85.24015808 213.62413025 C-86.46999481 212.39361893 -87.70107144 211.16434566 -88.93334961 209.9362793 C-90.8284932 208.04655252 -92.71816277 206.15146729 -94.60742188 204.25585938 C-95.80697065 203.05697038 -97.00682903 201.85839108 -98.20703125 200.66015625 C-98.77363968 200.09152359 -99.34024811 199.52289093 -99.92402649 198.93702698 C-103.64691679 194.41032357 -103.64691679 194.41032357 -107.77563477 197.66210938 Z M-187 196 C-186.54087283 212.84996714 -183.15244961 228.31629648 -177 244 C-170.21623641 238.44964797 -164.14477032 232.23557973 -158 226 C-159.63873844 221.81582597 -162.71294346 219.01602195 -165.84765625 215.921875 C-166.41955185 215.35043762 -166.99144745 214.77900024 -167.58067322 214.19024658 C-168.78619786 212.98773552 -169.99414454 211.78764828 -171.2043457 210.58984375 C-173.06457948 208.74794101 -174.91661217 206.89808634 -176.76757812 205.046875 C-177.93963188 203.87973386 -179.11214207 202.71305087 -180.28515625 201.546875 C-180.84243912 200.99070496 -181.39972198 200.43453491 -181.97389221 199.86151123 C-184.1325389 197.2074472 -184.1325389 197.2074472 -187 196 Z M-21.88916016 201.66210938 C-23.11093644 202.88420363 -24.3271918 204.11183237 -25.5390625 205.34375 C-26.17991791 205.9874353 -26.82077332 206.63112061 -27.48104858 207.29431152 C-29.53375567 209.35824447 -31.57941371 211.42901163 -33.625 213.5 C-35.01256322 214.8975899 -36.40057828 216.29473135 -37.7890625 217.69140625 C-41.19797984 221.12241587 -44.60058948 224.55957191 -48 228 C-42.5664118 234.61072987 -36.53553957 240.59214196 -30.4765625 246.62109375 C-29.36390615 247.73188169 -28.25147284 248.8428931 -27.13925171 249.95411682 C-24.2316873 252.85788934 -21.32113095 255.75864436 -18.40991211 258.65875244 C-15.43159571 261.62678263 -12.45615894 264.59769662 -9.48046875 267.56835938 C-3.65643877 273.38171083 2.1707595 279.19187334 8 285 C20.81807179 280.10034091 30.60611819 267.62425431 40 258 C38.40745655 254.07676763 35.70979348 251.42727448 32.75585938 248.49707031 C32.22233353 247.96003983 31.68880768 247.42300934 31.13911438 246.8697052 C29.37898231 245.10078929 27.61165782 243.3392671 25.84375 241.578125 C24.61799315 240.35102094 23.39253333 239.12362012 22.1673584 237.89593506 C19.6016291 235.32725937 17.03232206 232.76223108 14.46044922 230.19970703 C11.15802715 226.9087032 7.86469605 223.60877079 4.57396698 220.30607986 C2.04691581 217.77181756 -0.48485982 215.24231854 -3.01811218 212.71425629 C-4.23486828 211.49883751 -5.45013177 210.28192263 -6.66389465 209.06351471 C-8.35643605 207.36591776 -10.05521458 205.67482511 -11.75585938 203.98535156 C-12.25981735 203.47734512 -12.76377533 202.96933868 -13.28300476 202.44593811 C-17.36275364 198.25631515 -17.36275364 198.25631515 -21.88916016 201.66210938 Z M-149.15478516 238.92773438 C-150.02409668 239.80751953 -150.8934082 240.68730469 -151.7890625 241.59375 C-152.25234955 242.05986694 -152.7156366 242.52598389 -153.19296265 243.00622559 C-154.67505459 244.4995339 -156.15005198 245.99963837 -157.625 247.5 C-158.62714533 248.51217325 -159.62974388 249.52389798 -160.6328125 250.53515625 C-163.09382662 253.01824993 -165.548523 255.50748617 -168 258 C-162.59354589 272.27381289 -148.26998622 283.64894474 -136 292 C-132.43235715 290.48623919 -130.16293713 288.39486871 -127.453125 285.6484375 C-126.60878906 284.79765625 -125.76445312 283.946875 -124.89453125 283.0703125 C-124.02183594 282.18085938 -123.14914062 281.29140625 -122.25 280.375 C-121.36183594 279.4778125 -120.47367187 278.580625 -119.55859375 277.65625 C-117.36783031 275.44192996 -115.18187237 273.22307565 -113 271 C-114.31004224 268.10984919 -115.71244475 266.03557826 -117.94921875 263.79199219 C-118.54323486 263.19167175 -119.13725098 262.59135132 -119.74926758 261.97283936 C-120.38888428 261.33727112 -121.02850098 260.70170288 -121.6875 260.046875 C-122.67496216 259.05654266 -122.67496216 259.05654266 -123.68237305 258.04620361 C-125.07192292 256.65529499 -126.46399274 255.26689992 -127.85839844 253.88085938 C-129.99909286 251.75090259 -132.1288791 249.61045504 -134.2578125 247.46875 C-135.60873387 246.11914961 -136.96027518 244.77016941 -138.3125 243.421875 C-138.9521167 242.77820984 -139.5917334 242.13454468 -140.25073242 241.47137451 C-144.34997207 236.67205913 -144.34997207 236.67205913 -149.15478516 238.92773438 Z M-62.77563477 242.66210938 C-64.00012665 243.88676057 -65.22184708 245.11418652 -66.44140625 246.34375 C-67.08367661 246.9874353 -67.72594696 247.63112061 -68.38768005 248.29431152 C-70.44830012 250.36055079 -72.50542525 252.43023169 -74.5625 254.5 C-75.95485012 255.89736264 -77.34742525 257.29450111 -78.74023438 258.69140625 C-82.16277738 262.12500373 -85.58218882 265.56169268 -89 269 C-87.606948 272.11784212 -85.97055116 274.31536779 -83.61108398 276.7746582 C-82.9195372 277.49833084 -82.22799042 278.22200348 -81.51548767 278.96760559 C-78.33966455 282.23268581 -75.16026545 285.49379087 -71.96264648 288.73754883 C-70.2808506 290.45251559 -68.60986414 292.17815073 -66.94995117 293.91430664 C-64.55177642 296.42197622 -62.12236931 298.8951556 -59.68359375 301.36328125 C-58.94886337 302.14335037 -58.214133 302.92341949 -57.45713806 303.72712708 C-53.64133842 307.65130969 -53.64133842 307.65130969 -48.60462952 309.27720642 C-46.30052784 309.04250961 -44.22877346 308.61969461 -42 308 C-40.60565097 307.69577822 -39.21114384 307.39227914 -37.81640625 307.08984375 C-36.39543854 306.71697626 -34.97748286 306.33247202 -33.5625 305.9375 C-32.42482178 305.62292847 -32.42482178 305.62292847 -31.26416016 305.30200195 C-22.47125845 302.7403402 -14.25132805 298.93059717 -6 295 C-7.57845087 291.18229652 -9.98782011 288.76465291 -12.89282227 285.86425781 C-13.38894012 285.36624161 -13.88505798 284.8682254 -14.39620972 284.3551178 C-16.03143472 282.71619858 -17.67372928 281.0845724 -19.31640625 279.453125 C-20.45494935 278.3157742 -21.59312283 277.17805328 -22.73094177 276.03997803 C-25.11271249 273.65976964 -27.4978009 271.28295439 -29.88549805 268.90869141 C-32.95310873 265.85811847 -36.01404684 262.80095545 -39.07277012 259.74147415 C-41.42039195 257.3941235 -43.77060508 255.04938234 -46.12171745 252.70552826 C-47.25189384 251.57854332 -48.38145741 250.45094349 -49.5104084 249.32273102 C-51.08329288 247.75200234 -52.65941781 246.18460368 -54.23657227 244.61816406 C-55.13432877 243.72421936 -56.03208527 242.83027466 -56.95704651 241.90924072 C-59.76712267 239.25902866 -59.76712267 239.25902866 -62.77563477 242.66210938 Z M-103.87939453 283.65234375 C-104.62302246 284.40644531 -105.36665039 285.16054688 -106.1328125 285.9375 C-106.93847656 286.74960937 -107.74414062 287.56171875 -108.57421875 288.3984375 C-109.41597656 289.25695312 -110.25773437 290.11546875 -111.125 291 C-111.97449219 291.85851562 -112.82398438 292.71703125 -113.69921875 293.6015625 C-115.80399951 295.72999249 -117.90398833 297.86293959 -120 300 C-106.96787184 308.68808544 -87.40336939 311.37116553 -72 311 C-76.92284865 305.0306274 -82.27590236 299.53790055 -87.7421875 294.07250977 C-89.26592513 292.54655166 -90.7814443 291.01271855 -92.296875 289.47851562 C-93.2651367 288.50732543 -94.23386929 287.53660442 -95.203125 286.56640625 C-96.07614258 285.68927979 -96.94916016 284.81215332 -97.84863281 283.90844727 C-100.57252507 281.49212114 -101.13309314 281.23782468 -103.87939453 283.65234375 Z M-203 305 C-205.64951103 310.77784936 -207.50524996 316.64337488 -209.25 322.75 C-209.53101563 323.69488281 -209.81203125 324.63976562 -210.1015625 325.61328125 C-210.36195313 326.51949219 -210.62234375 327.42570312 -210.890625 328.359375 C-211.24688965 329.58865723 -211.24688965 329.58865723 -211.61035156 330.84277344 C-212.20921727 333.17204672 -212.20921727 333.17204672 -211 336 C-201.2208246 333.63994226 -191.58038412 331.08409626 -182 328 C-181.54194187 323.90733228 -181.54194187 323.90733228 -184.37890625 321.484375 C-185.43149251 320.56298503 -186.49325632 319.65200625 -187.5625 318.75 C-191.99362392 314.87815049 -195.99224786 310.95987143 -199.6953125 306.36328125 C-200.12585938 305.91339844 -200.55640625 305.46351563 -201 305 C-201.66 305 -202.32 305 -203 305 Z " fill="#010101" transform="translate(385,3)"/>
<path d="M0 0 C0.72537964 0.0012085 1.45075928 0.00241699 2.19812012 0.00366211 C38.59373351 0.1675613 70.85246798 13.09112344 96.875 38.625 C112.14421995 54.06834942 123.62137726 73.31484416 129.1875 94.375 C129.38069824 95.04885742 129.57389648 95.72271484 129.77294922 96.41699219 C136.06643714 118.90914737 135.61831788 145.98622663 129.1875 168.375 C128.96787598 169.17389648 128.74825195 169.97279297 128.52197266 170.79589844 C125.44928753 181.82973024 121.48801899 192.22428098 116.1875 202.375 C115.84315918 203.03628906 115.49881836 203.69757813 115.14404297 204.37890625 C106.98280911 219.8569818 96.74042119 233.13590184 84.1875 245.375 C83.60226562 246.00535156 83.01703125 246.63570312 82.4140625 247.28515625 C64.5552075 266.10666328 39.19510689 279.90450032 14.1875 286.375 C13.34703125 286.62765625 12.5065625 286.8803125 11.640625 287.140625 C-0.86035402 290.82588471 -13.57333535 291.85075936 -26.5625 291.875 C-27.27394165 291.87668182 -27.9853833 291.87836365 -28.71838379 291.88009644 C-65.6808198 291.79007213 -98.0606157 276.5751279 -123.96582031 250.65844727 C-134.33099644 239.87810849 -141.79497018 226.98583937 -147.8125 213.375 C-148.09464355 212.74158691 -148.37678711 212.10817383 -148.66748047 211.45556641 C-160.37954141 184.53231966 -162.107882 150.5416727 -153.8125 122.375 C-153.56580566 121.51664551 -153.31911133 120.65829102 -153.06494141 119.77392578 C-149.5073059 107.66398785 -144.90618545 96.41768365 -138.8125 85.375 C-137.94818359 83.77591797 -137.94818359 83.77591797 -137.06640625 82.14453125 C-129.56270708 68.74878192 -119.78018546 57.06849332 -108.8125 46.375 C-108.22726563 45.74464844 -107.64203125 45.11429688 -107.0390625 44.46484375 C-85.95849695 22.24796519 -56.38335933 8.57189315 -26.8125 2.375 C-26.01239502 2.19404785 -25.21229004 2.0130957 -24.38793945 1.82666016 C-16.28917664 0.13970108 -8.23897374 -0.02541295 0 0 Z M-10.8125 17.375 C0.7375 28.925 12.2875 40.475 24.1875 52.375 C28.40971839 48.75595567 32.36194261 45.32360025 36.24609375 41.4140625 C37.12587891 40.53105469 38.00566406 39.64804688 38.91210938 38.73828125 C39.80736328 37.83464844 40.70261719 36.93101563 41.625 36 C42.54732422 35.07316406 43.46964844 34.14632812 44.41992188 33.19140625 C46.67808625 30.92154154 48.93386942 28.64936462 51.1875 26.375 C44.51815577 19.70565577 29.08208009 17.96889092 20.1875 16.375 C19.44757813 16.24222656 18.70765625 16.10945313 17.9453125 15.97265625 C12.6255984 15.21713265 7.23898418 15.24428139 1.875 15.1875 C1.08512695 15.17436768 0.29525391 15.16123535 -0.51855469 15.14770508 C-1.27168945 15.14665771 -2.02482422 15.14561035 -2.80078125 15.14453125 C-3.47665283 15.14042236 -4.15252441 15.13631348 -4.84887695 15.13208008 C-7.25726605 15.31903492 -7.25726605 15.31903492 -10.8125 17.375 Z M-44.5625 23.3125 C-45.39072266 23.61953857 -46.21894531 23.92657715 -47.07226562 24.24291992 C-56.74863993 27.94882411 -66.18213391 32.62142261 -74.8125 38.375 C-73.23726254 42.22808766 -70.63502556 44.82243914 -67.72021484 47.69433594 C-67.20298355 48.21185928 -66.68575226 48.72938263 -66.15284729 49.2625885 C-64.44774329 50.96630289 -62.73567232 52.66282978 -61.0234375 54.359375 C-59.837587 55.54149407 -58.65217826 56.72405645 -57.4671936 57.90704346 C-54.35132362 61.01528728 -51.22949366 64.11747737 -48.10638428 67.21844482 C-44.91886381 70.38548502 -41.7370168 73.55821387 -38.5546875 76.73046875 C-32.31283024 82.95089403 -26.06466515 89.16493537 -19.8125 95.375 C-17.00280533 94.09477125 -14.9585762 92.76785871 -12.78808594 90.57763672 C-11.94766754 89.73699173 -11.94766754 89.73699173 -11.090271 88.87936401 C-10.49845032 88.27722076 -9.90662964 87.67507751 -9.296875 87.0546875 C-8.68104553 86.43602814 -8.06521606 85.81736877 -7.4307251 85.17996216 C-5.46989664 83.20796186 -3.51614699 81.22911263 -1.5625 79.25 C-0.23223201 77.90969836 1.098492 76.56984917 2.4296875 75.23046875 C5.6876015 71.95053411 8.93918533 68.66444058 12.1875 65.375 C10.72167084 62.00621285 8.84692328 59.766615 6.27612305 57.15722656 C5.47156174 56.33667786 4.66700043 55.51612915 3.83805847 54.67071533 C2.96724136 53.79453552 2.09642426 52.91835571 1.19921875 52.015625 C0.30386917 51.11124695 -0.59148041 50.2068689 -1.51396179 49.27508545 C-3.40855767 47.36598546 -5.30541486 45.45944726 -7.20581055 43.55615234 C-9.63889562 41.11767127 -12.05539506 38.66342893 -14.46825886 36.20495987 C-16.77634832 33.85997896 -19.10219824 31.53273902 -21.42578125 29.203125 C-22.29052567 28.31884827 -23.15527008 27.43457153 -24.04621887 26.52349854 C-24.86023666 25.71555847 -25.67425446 24.90761841 -26.51293945 24.07519531 C-27.22416458 23.35889954 -27.93538971 22.64260376 -28.66816711 21.90460205 C-33.69640591 18.31784348 -39.36551104 21.36572978 -44.5625 23.3125 Z M62.29833984 37.03710938 C61.07656356 38.25920363 59.8603082 39.48683237 58.6484375 40.71875 C58.00758209 41.3624353 57.36672668 42.00612061 56.70645142 42.66931152 C54.65374433 44.73324447 52.60808629 46.80401163 50.5625 48.875 C49.17493678 50.2725899 47.78692172 51.66973135 46.3984375 53.06640625 C42.98952016 56.49741587 39.58691052 59.93457191 36.1875 63.375 C40.15122525 68.12585867 44.28544782 72.61113112 48.6796875 76.96484375 C49.27049103 77.55423233 49.86129456 78.14362091 50.47000122 78.75086975 C52.33180404 80.60713727 54.19707745 82.45987085 56.0625 84.3125 C57.33617011 85.58114672 58.60960971 86.8500249 59.8828125 88.11914062 C62.98172043 91.20710554 66.08374301 94.29190929 69.1875 97.375 C73.6141071 93.66484473 77.82964876 89.85351707 81.90234375 85.7578125 C82.65325035 85.00478348 82.65325035 85.00478348 83.41932678 84.23654175 C84.99028598 82.66006329 86.55769877 81.08011427 88.125 79.5 C89.20093727 78.41903726 90.27710731 77.33830617 91.35351562 76.2578125 C93.96753292 73.63287359 96.57838596 71.00481372 99.1875 68.375 C94.06004769 55.00571461 79.57426095 41.38264962 67.1875 34.375 C64.77786732 34.14912697 64.77786732 34.14912697 62.29833984 37.03710938 Z M-96.34057617 55.57495117 C-97.62605347 56.86816284 -97.62605347 56.86816284 -98.9375 58.1875 C-99.80028564 59.05157471 -100.66307129 59.91564941 -101.55200195 60.8059082 C-107.28317395 66.62422147 -112.48292044 72.41953825 -116.8125 79.375 C-115.22850411 83.26895116 -112.57053057 85.88652235 -109.62841797 88.78613281 C-108.83794067 89.57704819 -108.83794067 89.57704819 -108.03149414 90.38394165 C-106.29392524 92.12012072 -104.54938686 93.849114 -102.8046875 95.578125 C-101.59641678 96.78266437 -100.38858778 97.98764697 -99.18118286 99.1930542 C-96.00612923 102.36048106 -92.82511478 105.52185513 -89.64282227 108.68200684 C-86.39497924 111.90937089 -83.15280867 115.14242228 -79.91015625 118.375 C-73.54981018 124.71391303 -67.18315247 131.04644624 -60.8125 137.375 C-56.3858929 133.66484473 -52.17035124 129.85351707 -48.09765625 125.7578125 C-47.59705185 125.25579315 -47.09644745 124.7537738 -46.58067322 124.23654175 C-45.00971402 122.66006329 -43.44230123 121.08011427 -41.875 119.5 C-40.79906273 118.41903726 -39.72289269 117.33830617 -38.64648438 116.2578125 C-36.03246708 113.63287359 -33.42161404 111.00481372 -30.8125 108.375 C-32.40504345 104.45176763 -35.10270652 101.80227448 -38.05664062 98.87207031 C-38.59016647 98.33503983 -39.12369232 97.79800934 -39.67338562 97.2447052 C-41.43351769 95.47578929 -43.20084218 93.7142671 -44.96875 91.953125 C-46.19450685 90.72602094 -47.41996667 89.49862012 -48.6451416 88.27093506 C-51.2108709 85.70225937 -53.78017794 83.13723108 -56.35205078 80.57470703 C-59.65447285 77.2837032 -62.94780395 73.98377079 -66.23853302 70.68107986 C-68.76558419 68.14681756 -71.29735982 65.61731854 -73.83061218 63.08925629 C-75.04736828 61.87383751 -76.26263177 60.65692263 -77.47639465 59.43851471 C-79.16893605 57.74091776 -80.86771458 56.04982511 -82.56835938 54.36035156 C-83.07231735 53.85234512 -83.57627533 53.34433868 -84.09550476 52.82093811 C-89.78210864 47.20365513 -91.36547069 50.65519602 -96.34057617 55.57495117 Z M21.80807495 77.51391602 C21.2795694 78.04686279 20.75106384 78.57980957 20.20654297 79.12890625 C19.60607147 79.72952881 19.00559998 80.33015137 18.38693237 80.94897461 C17.74104156 81.60518799 17.09515076 82.26140137 16.4296875 82.9375 C15.76663605 83.60338135 15.10358459 84.2692627 14.42044067 84.95532227 C12.29640583 87.09058381 10.17941607 89.23268286 8.0625 91.375 C6.62675959 92.82076698 5.19056746 94.26608552 3.75390625 95.7109375 C0.22650128 99.26043586 -3.29459897 102.81608308 -6.8125 106.375 C-5.49873083 109.28043872 -4.09193508 111.34161059 -1.83154297 113.58300781 C-0.93083572 114.48348846 -0.93083572 114.48348846 -0.01193237 115.40216064 C0.95690384 116.355513 0.95690384 116.355513 1.9453125 117.328125 C2.60836395 117.98834656 3.27141541 118.64856812 3.95455933 119.32879639 C6.06921832 121.43227824 8.19073212 123.52869142 10.3125 125.625 C11.74915557 127.05162261 13.18535898 128.47870072 14.62109375 129.90625 C18.13800804 133.40113661 21.66108547 136.88970062 25.1875 140.375 C27.99719467 139.09477125 30.0414238 137.76785871 32.21191406 135.57763672 C32.77219299 135.01720673 33.33247192 134.45677673 33.909729 133.87936401 C34.50154968 133.27722076 35.09337036 132.67507751 35.703125 132.0546875 C36.31895447 131.43602814 36.93478394 130.81736877 37.5692749 130.17996216 C39.53010336 128.20796186 41.48385301 126.22911263 43.4375 124.25 C44.76776799 122.90969836 46.098492 121.56984917 47.4296875 120.23046875 C50.6876015 116.95053411 53.93918533 113.66444058 57.1875 110.375 C55.87745776 107.48484919 54.47505525 105.41057826 52.23828125 103.16699219 C51.64426514 102.56667175 51.05024902 101.96635132 50.43823242 101.34783936 C49.79861572 100.71227112 49.15899902 100.07670288 48.5 99.421875 C47.51253784 98.43154266 47.51253784 98.43154266 46.50512695 97.42120361 C45.11557708 96.03029499 43.72350726 94.64189992 42.32910156 93.25585938 C40.18840714 91.12590259 38.0586209 88.98545504 35.9296875 86.84375 C34.57876613 85.49414961 33.22722482 84.14516941 31.875 82.796875 C30.91557495 81.83137726 30.91557495 81.83137726 29.93676758 80.84637451 C26.34172713 76.44782678 26.34172713 76.44782678 21.80807495 77.51391602 Z M104.68725586 84.76171875 C103.58971675 85.85941713 102.49494784 86.9598894 101.40234375 88.0625 C100.82666153 88.63959717 100.25097931 89.21669434 99.65785217 89.8112793 C97.81121966 91.66353029 95.96808547 93.51922011 94.125 95.375 C92.87718122 96.62783139 91.62913733 97.88043861 90.38085938 99.1328125 C87.31378344 102.21094195 84.24984162 105.29216077 81.1875 108.375 C85.30079871 113.27973901 89.57292461 117.8969528 94.1171875 122.40234375 C94.75238312 123.03612442 95.38757874 123.66990509 96.04202271 124.32289124 C98.04648716 126.32181406 100.05442214 128.31720784 102.0625 130.3125 C103.43252389 131.67750133 104.80231774 133.0427336 106.171875 134.40820312 C109.50776543 137.73314211 112.84677036 141.05492353 116.1875 144.375 C118.40952639 140.36385258 118.53335096 136.82019604 118.5 132.3125 C118.49508545 131.52246582 118.4901709 130.73243164 118.48510742 129.91845703 C118.16827734 113.433544 114.46403854 97.58909802 108.1875 82.375 C106.73196684 82.25991763 106.73196684 82.25991763 104.68725586 84.76171875 Z M-126.8125 95.375 C-130.97497694 104.20606149 -134.96884939 112.99943464 -137.75 122.375 C-138.04813599 123.35907837 -138.04813599 123.35907837 -138.35229492 124.36303711 C-138.91472802 126.35639186 -139.36462629 128.35284773 -139.8125 130.375 C-140.00932373 131.12002777 -140.20614746 131.86505554 -140.40893555 132.63265991 C-141.17584297 136.54211963 -141.49751792 139.21474229 -139.42323303 142.72808838 C-137.26570358 145.19526702 -134.99517463 147.42929251 -132.59765625 149.6640625 C-131.7527916 150.49336273 -130.90792694 151.32266296 -130.03746033 152.17709351 C-127.34140621 154.81172484 -124.60963651 157.40549649 -121.875 160 C-120.03722043 161.78258954 -118.20190205 163.56772022 -116.36914062 165.35546875 C-111.87836876 169.72516658 -107.35767306 174.06195448 -102.8125 178.375 C-98.59573595 176.44639535 -95.72928209 173.54529862 -92.515625 170.2734375 C-91.92199158 169.67697418 -91.32835815 169.08051086 -90.71673584 168.4659729 C-88.82723373 166.5653019 -86.94481608 164.65778526 -85.0625 162.75 C-83.78040935 161.45787532 -82.49786239 160.16620324 -81.21484375 158.875 C-78.07541568 155.71355521 -74.94232199 152.5459539 -71.8125 149.375 C-77.05433889 143.02964505 -82.79737616 137.226394 -88.609375 131.41015625 C-89.64983183 130.36648098 -90.69021552 129.32273278 -91.73052979 128.27891541 C-93.89720174 126.10629267 -96.06589274 123.9357088 -98.23583984 121.76635742 C-101.02076336 118.98153633 -103.79869677 116.18985031 -106.57499313 113.39643192 C-108.71450119 111.24584181 -110.85850169 109.09977505 -113.00382233 106.95498466 C-114.03092255 105.92670246 -115.05639716 104.8967939 -116.08022308 103.86525154 C-117.50415626 102.43157788 -118.93501192 101.00478957 -120.36621094 99.57836914 C-121.17862244 98.76453262 -121.99103394 97.95069611 -122.82806396 97.11219788 C-124.62374223 95.15544003 -124.62374223 95.15544003 -126.8125 95.375 Z M-22.70166016 122.03710938 C-23.92343644 123.25920363 -25.1396918 124.48683237 -26.3515625 125.71875 C-26.99241791 126.3624353 -27.63327332 127.00612061 -28.29354858 127.66931152 C-30.34625567 129.73324447 -32.39191371 131.80401163 -34.4375 133.875 C-35.82506322 135.2725899 -37.21307828 136.66973135 -38.6015625 138.06640625 C-42.01047984 141.49741587 -45.41308948 144.93457191 -48.8125 148.375 C-44.84877475 153.12585867 -40.71455218 157.61113112 -36.3203125 161.96484375 C-35.72950897 162.55423233 -35.13870544 163.14362091 -34.52999878 163.75086975 C-32.66819596 165.60713727 -30.80292255 167.45987085 -28.9375 169.3125 C-27.66382989 170.58114672 -26.39039029 171.8500249 -25.1171875 173.11914062 C-22.01827957 176.20710554 -18.91625699 179.29190929 -15.8125 182.375 C-11.3858929 178.66484473 -7.17035124 174.85351707 -3.09765625 170.7578125 C-2.34674965 170.00478348 -2.34674965 170.00478348 -1.58067322 169.23654175 C-0.00971402 167.66006329 1.55769877 166.08011427 3.125 164.5 C4.20093727 163.41903726 5.27710731 162.33830617 6.35351562 161.2578125 C8.96753292 158.63287359 11.57838596 156.00481372 14.1875 153.375 C12.87745776 150.48484919 11.47505525 148.41057826 9.23828125 146.16699219 C8.64426514 145.56667175 8.05024902 144.96635132 7.43823242 144.34783936 C6.79861572 143.71227112 6.15899902 143.07670288 5.5 142.421875 C4.51253784 141.43154266 4.51253784 141.43154266 3.50512695 140.42120361 C2.11557708 139.03029499 0.72350726 137.64189992 -0.67089844 136.25585938 C-2.81159286 134.12590259 -4.9413791 131.98545504 -7.0703125 129.84375 C-8.42123387 128.49414961 -9.77277518 127.14516941 -11.125 125.796875 C-12.08442505 124.83137726 -12.08442505 124.83137726 -13.06323242 123.84637451 C-17.59505233 118.73507287 -17.59505233 118.73507287 -22.70166016 122.03710938 Z M66.80807495 122.51391602 C66.2795694 123.04686279 65.75106384 123.57980957 65.20654297 124.12890625 C64.60607147 124.72952881 64.00559998 125.33015137 63.38693237 125.94897461 C62.74104156 126.60518799 62.09515076 127.26140137 61.4296875 127.9375 C60.76663605 128.60338135 60.10358459 129.2692627 59.42044067 129.95532227 C57.29640583 132.09058381 55.17941607 134.23268286 53.0625 136.375 C51.62675959 137.82076698 50.19056746 139.26608552 48.75390625 140.7109375 C45.22650128 144.26043586 41.70540103 147.81608308 38.1875 151.375 C39.7836629 155.26794472 42.29655812 157.73780311 45.24804688 160.69433594 C45.76206558 161.21185928 46.27608429 161.72938263 46.80567932 162.2625885 C48.50088276 163.96657316 50.20327158 165.66316332 51.90625 167.359375 C53.08716633 168.5416386 54.26778563 169.72419896 55.44812012 170.90704346 C57.9196932 173.38156256 60.39484174 175.85243386 62.87255859 178.32080078 C66.05391387 181.4907369 69.22617377 184.66959982 72.39583588 187.85122299 C74.83024089 190.29283936 77.2693699 192.72969145 79.7099762 195.16510773 C80.88207485 196.33586917 82.05268126 197.50812649 83.2217865 198.68187714 C84.85206345 200.3172101 86.48857322 201.94603294 88.12695312 203.57324219 C89.0580188 204.50271667 89.98908447 205.43219116 90.94836426 206.38983154 C92.93818451 208.59613244 92.93818451 208.59613244 95.1875 208.375 C100.84205079 198.88508791 105.86909894 189.3994033 109.8125 179.0625 C110.15474609 178.17409424 110.49699219 177.28568848 110.84960938 176.37036133 C113.02146924 170.53607253 113.02146924 170.53607253 113.1875 164.375 C111.57811614 162.02848743 111.57811614 162.02848743 109.27197266 159.86010742 C108.41753571 158.99959274 107.56309875 158.13907806 106.68276978 157.25248718 C105.74847137 156.3377211 104.81417297 155.42295502 103.8515625 154.48046875 C102.89133682 153.52449388 101.93207 152.567555 100.97372437 151.60969543 C98.96528851 149.60742043 96.94887147 147.6136861 94.92578125 145.6262207 C92.32883251 143.07463574 89.74748474 140.5079551 87.17127419 137.93545055 C85.19211978 135.96071724 83.20758474 133.99147124 81.22108078 132.02413368 C79.80242143 130.61870311 78.38625972 129.21075284 76.97012329 127.80278015 C76.10938202 126.95802628 75.24864075 126.1132724 74.36181641 125.24291992 C73.60236725 124.49411057 72.84291809 123.74530121 72.06045532 122.97380066 C69.88786766 121.11922648 69.07880315 120.63909961 66.80807495 122.51391602 Z M-63.58813477 163.03710938 C-64.81262665 164.26176057 -66.03434708 165.48918652 -67.25390625 166.71875 C-67.89617661 167.3624353 -68.53844696 168.00612061 -69.20018005 168.66931152 C-71.26080012 170.73555079 -73.31792525 172.80523169 -75.375 174.875 C-76.76735012 176.27236264 -78.15992525 177.66950111 -79.55273438 179.06640625 C-82.97527738 182.50000373 -86.39468882 185.93669268 -89.8125 189.375 C-88.49873083 192.28043872 -87.09193508 194.34161059 -84.83154297 196.58300781 C-83.93083572 197.48348846 -83.93083572 197.48348846 -83.01193237 198.40216064 C-82.04309616 199.355513 -82.04309616 199.355513 -81.0546875 200.328125 C-80.39163605 200.98834656 -79.72858459 201.64856812 -79.04544067 202.32879639 C-76.93078168 204.43227824 -74.80926788 206.52869142 -72.6875 208.625 C-71.25084443 210.05162261 -69.81464102 211.47870072 -68.37890625 212.90625 C-64.86199196 216.40113661 -61.33891453 219.88970062 -57.8125 223.375 C-53.59573595 221.44639535 -50.72928209 218.54529862 -47.515625 215.2734375 C-46.62517487 214.37874252 -46.62517487 214.37874252 -45.71673584 213.4659729 C-43.82723373 211.5653019 -41.94481608 209.65778526 -40.0625 207.75 C-38.78040935 206.45787532 -37.49786239 205.16620324 -36.21484375 203.875 C-33.07541568 200.71355521 -29.94232199 197.5459539 -26.8125 194.375 C-30.77202624 189.63457786 -34.89497977 185.14379523 -39.26953125 180.78515625 C-39.8579631 180.19576767 -40.44639496 179.60637909 -41.05265808 178.99913025 C-42.28249481 177.76861893 -43.51357144 176.53934566 -44.74584961 175.3112793 C-46.6409932 173.42155252 -48.53066277 171.52646729 -50.41992188 169.63085938 C-51.61947065 168.43197038 -52.81932903 167.23339108 -54.01953125 166.03515625 C-54.58613968 165.46652359 -55.15274811 164.89789093 -55.73652649 164.31202698 C-59.45941679 159.78532357 -59.45941679 159.78532357 -63.58813477 163.03710938 Z M-142.8125 161.375 C-142.35337283 178.22496714 -138.96494961 193.69129648 -132.8125 209.375 C-126.02873641 203.82464797 -119.95727032 197.61057973 -113.8125 191.375 C-115.45123844 187.19082597 -118.52544346 184.39102195 -121.66015625 181.296875 C-122.23205185 180.72543762 -122.80394745 180.15400024 -123.39317322 179.56524658 C-124.59869786 178.36273552 -125.80664454 177.16264828 -127.0168457 175.96484375 C-128.87707948 174.12294101 -130.72911217 172.27308634 -132.58007812 170.421875 C-133.75213188 169.25473386 -134.92464207 168.08805087 -136.09765625 166.921875 C-136.65493912 166.36570496 -137.21222198 165.80953491 -137.78639221 165.23651123 C-139.9450389 162.5824472 -139.9450389 162.5824472 -142.8125 161.375 Z M22.29833984 167.03710938 C21.07656356 168.25920363 19.8603082 169.48683237 18.6484375 170.71875 C18.00758209 171.3624353 17.36672668 172.00612061 16.70645142 172.66931152 C14.65374433 174.73324447 12.60808629 176.80401163 10.5625 178.875 C9.17493678 180.2725899 7.78692172 181.66973135 6.3984375 183.06640625 C2.98952016 186.49741587 -0.41308948 189.93457191 -3.8125 193.375 C1.6210882 199.98572987 7.65196043 205.96714196 13.7109375 211.99609375 C14.82359385 213.10688169 15.93602716 214.2178931 17.04824829 215.32911682 C19.9558127 218.23288934 22.86636905 221.13364436 25.77758789 224.03375244 C28.75590429 227.00178263 31.73134106 229.97269662 34.70703125 232.94335938 C40.53106123 238.75671083 46.3582595 244.56687334 52.1875 250.375 C65.00557179 245.47534091 74.79361819 232.99925431 84.1875 223.375 C82.59495655 219.45176763 79.89729348 216.80227448 76.94335938 213.87207031 C76.40983353 213.33503983 75.87630768 212.79800934 75.32661438 212.2447052 C73.56648231 210.47578929 71.79915782 208.7142671 70.03125 206.953125 C68.80549315 205.72602094 67.58003333 204.49862012 66.3548584 203.27093506 C63.7891291 200.70225937 61.21982206 198.13723108 58.64794922 195.57470703 C55.34552715 192.2837032 52.05219605 188.98377079 48.76146698 185.68107986 C46.23441581 183.14681756 43.70264018 180.61731854 41.16938782 178.08925629 C39.95263172 176.87383751 38.73736823 175.65692263 37.52360535 174.43851471 C35.83106395 172.74091776 34.13228542 171.04982511 32.43164062 169.36035156 C31.92768265 168.85234512 31.42372467 168.34433868 30.90449524 167.82093811 C26.82474636 163.63131515 26.82474636 163.63131515 22.29833984 167.03710938 Z M-104.96728516 204.30273438 C-105.83659668 205.18251953 -106.7059082 206.06230469 -107.6015625 206.96875 C-108.06484955 207.43486694 -108.5281366 207.90098389 -109.00546265 208.38122559 C-110.48755459 209.8745339 -111.96255198 211.37463837 -113.4375 212.875 C-114.43964533 213.88717325 -115.44224388 214.89889798 -116.4453125 215.91015625 C-118.90632662 218.39324993 -121.361023 220.88248617 -123.8125 223.375 C-118.40604589 237.64881289 -104.08248622 249.02394474 -91.8125 257.375 C-88.24485715 255.86123919 -85.97543713 253.76986871 -83.265625 251.0234375 C-82.42128906 250.17265625 -81.57695312 249.321875 -80.70703125 248.4453125 C-79.83433594 247.55585938 -78.96164062 246.66640625 -78.0625 245.75 C-77.17433594 244.8528125 -76.28617188 243.955625 -75.37109375 243.03125 C-73.18033031 240.81692996 -70.99437237 238.59807565 -68.8125 236.375 C-70.12254224 233.48484919 -71.52494475 231.41057826 -73.76171875 229.16699219 C-74.35573486 228.56667175 -74.94975098 227.96635132 -75.56176758 227.34783936 C-76.20138428 226.71227112 -76.84100098 226.07670288 -77.5 225.421875 C-78.48746216 224.43154266 -78.48746216 224.43154266 -79.49487305 223.42120361 C-80.88442292 222.03029499 -82.27649274 220.64189992 -83.67089844 219.25585938 C-85.81159286 217.12590259 -87.9413791 214.98545504 -90.0703125 212.84375 C-91.42123387 211.49414961 -92.77277518 210.14516941 -94.125 208.796875 C-94.7646167 208.15320984 -95.4042334 207.50954468 -96.06323242 206.84637451 C-100.16247207 202.04705913 -100.16247207 202.04705913 -104.96728516 204.30273438 Z M-18.58813477 208.03710938 C-19.81262665 209.26176057 -21.03434708 210.48918652 -22.25390625 211.71875 C-22.89617661 212.3624353 -23.53844696 213.00612061 -24.20018005 213.66931152 C-26.26080012 215.73555079 -28.31792525 217.80523169 -30.375 219.875 C-31.76735012 221.27236264 -33.15992525 222.66950111 -34.55273438 224.06640625 C-37.97527738 227.50000373 -41.39468882 230.93669268 -44.8125 234.375 C-43.419448 237.49284212 -41.78305116 239.69036779 -39.42358398 242.1496582 C-38.7320372 242.87333084 -38.04049042 243.59700348 -37.32798767 244.34260559 C-34.15216455 247.60768581 -30.97276545 250.86879087 -27.77514648 254.11254883 C-26.0933506 255.82751559 -24.42236414 257.55315073 -22.76245117 259.28930664 C-20.36427642 261.79697622 -17.93486931 264.2701556 -15.49609375 266.73828125 C-14.76136337 267.51835037 -14.026633 268.29841949 -13.26963806 269.10212708 C-9.45383842 273.02630969 -9.45383842 273.02630969 -4.41712952 274.65220642 C-2.11302784 274.41750961 -0.04127346 273.99469461 2.1875 273.375 C3.58184903 273.07077822 4.97635616 272.76727914 6.37109375 272.46484375 C7.79206146 272.09197626 9.21001714 271.70747202 10.625 271.3125 C11.76267822 270.99792847 11.76267822 270.99792847 12.92333984 270.67700195 C21.71624155 268.1153402 29.93617195 264.30559717 38.1875 260.375 C36.60904913 256.55729652 34.19967989 254.13965291 31.29467773 251.23925781 C30.79855988 250.74124161 30.30244202 250.2432254 29.79129028 249.7301178 C28.15606528 248.09119858 26.51377072 246.4595724 24.87109375 244.828125 C23.73255065 243.6907742 22.59437717 242.55305328 21.45655823 241.41497803 C19.07478751 239.03476964 16.6896991 236.65795439 14.30200195 234.28369141 C11.23439127 231.23311847 8.17345316 228.17595545 5.11472988 225.11647415 C2.76710805 222.7691235 0.41689492 220.42438234 -1.93421745 218.08052826 C-3.06439384 216.95354332 -4.19395741 215.82594349 -5.3229084 214.69773102 C-6.89579288 213.12700234 -8.47191781 211.55960368 -10.04907227 209.99316406 C-10.94682877 209.09921936 -11.84458527 208.20527466 -12.76954651 207.28424072 C-15.57962267 204.63402866 -15.57962267 204.63402866 -18.58813477 208.03710938 Z M-59.69189453 249.02734375 C-60.43552246 249.78144531 -61.17915039 250.53554688 -61.9453125 251.3125 C-62.75097656 252.12460937 -63.55664062 252.93671875 -64.38671875 253.7734375 C-65.22847656 254.63195312 -66.07023437 255.49046875 -66.9375 256.375 C-67.78699219 257.23351562 -68.63648438 258.09203125 -69.51171875 258.9765625 C-71.61649951 261.10499249 -73.71648833 263.23793959 -75.8125 265.375 C-62.78037184 274.06308544 -43.21586939 276.74616553 -27.8125 276.375 C-32.73534865 270.4056274 -38.08840236 264.91290055 -43.5546875 259.44750977 C-45.07842513 257.92155166 -46.5939443 256.38771855 -48.109375 254.85351562 C-49.0776367 253.88232543 -50.04636929 252.91160442 -51.015625 251.94140625 C-51.88864258 251.06427979 -52.76166016 250.18715332 -53.66113281 249.28344727 C-56.38502507 246.86712114 -56.94559314 246.61282468 -59.69189453 249.02734375 Z " fill="#000000" transform="translate(340.8125,37.625)"/>
<path d="M0 0 C1.25296875 0.40863281 2.5059375 0.81726563 3.796875 1.23828125 C18.90947673 6.42484351 33.58140042 13.91221866 46 24 C46.50692383 24.40299316 47.01384766 24.80598633 47.53613281 25.22119141 C78.60451219 49.99948198 97.51058981 86.63527394 102 126 C102.28619448 131.02464141 102.33385126 136.03051127 102.3125 141.0625 C102.31100952 141.73742493 102.30951904 142.41234985 102.3079834 143.10772705 C102.26246509 154.63099197 101.30256687 165.70183336 99 177 C98.75339377 178.37100167 98.50728984 179.74209379 98.26171875 181.11328125 C89.241542 227.70076164 56.61764231 272.21711835 18 299 C12.1297484 302.88812404 6.09454408 306.47752937 0 310 C-0.60956543 310.36287109 -1.21913086 310.72574219 -1.84716797 311.09960938 C-9.99698191 315.90811586 -17.49813182 317.96863791 -26.72875977 319.5793457 C-33.64503966 320.80948254 -39.62408894 323.05807716 -46 326 C-57.41579937 330.01667015 -70.14040763 330.382341 -82.125 331.0625 C-82.81833435 331.1035788 -83.5116687 331.14465759 -84.22601318 331.1869812 C-97.32770867 331.96001424 -110.43437779 332.37905166 -123.55517578 332.65844727 C-137.07817998 332.95344996 -150.43684496 333.67520633 -163.8125 335.8125 C-164.91964355 335.98555664 -166.02678711 336.15861328 -167.16748047 336.33691406 C-176.53856287 337.8416011 -185.77917561 339.76031656 -195 342 C-195.82011312 340.44148245 -196.63076213 338.87798284 -197.4375 337.3125 C-197.88996094 336.44238281 -198.34242188 335.57226562 -198.80859375 334.67578125 C-199.95991928 332.09001736 -200.56320753 329.78643472 -201 327 C-199.91460937 326.69707031 -198.82921875 326.39414062 -197.7109375 326.08203125 C-196.26539716 325.6596331 -194.82009711 325.23641202 -193.375 324.8125 C-192.30572266 324.51762695 -192.30572266 324.51762695 -191.21484375 324.21679688 C-185.42515403 322.49051324 -181.19142515 320.15413216 -177.6484375 315.0546875 C-176.79650183 312.35518051 -176.66100518 309.95500749 -176.625 307.125 C-176.58246094 305.61292969 -176.58246094 305.61292969 -176.5390625 304.0703125 C-177.53917351 297.40855608 -182.43417501 293.40851119 -187.25 289.1875 C-191.2411133 285.62157791 -194.93979082 282.05975101 -198.375 277.9375 C-201.73046252 274.07066219 -204.01674198 272.31138369 -209 271 C-210.57311195 270.93783149 -212.14846404 270.91984197 -213.72265625 270.94140625 C-214.52582275 270.94986572 -215.32898926 270.9583252 -216.15649414 270.96704102 C-217.06902954 270.98335571 -217.06902954 270.98335571 -218 271 C-218.69585949 266.32298075 -219.38954037 261.64564516 -220.08129883 256.96801758 C-220.31639307 255.38036606 -220.5520583 253.79279897 -220.78833008 252.20532227 C-221.12996129 249.90924272 -221.46946357 247.61285638 -221.80859375 245.31640625 C-221.91280136 244.61914932 -222.01700897 243.9218924 -222.12437439 243.20350647 C-222.42832474 241.13714901 -222.71820435 239.06949144 -223 237 C-223.09586899 236.30878052 -223.19173798 235.61756104 -223.29051208 234.90539551 C-224.08951932 228.56826634 -224.16142036 222.27988324 -224.16796875 215.8984375 C-224.17129715 214.74493805 -224.17462555 213.5914386 -224.17805481 212.40298462 C-224.18310025 209.96397293 -224.18546387 207.5249544 -224.18530273 205.0859375 C-224.18746461 201.43477275 -224.20557773 197.78392293 -224.22460938 194.1328125 C-224.26020718 179.31456699 -223.60932099 164.73048123 -222 150 C-221.89496155 149.02729156 -221.7899231 148.05458313 -221.68170166 147.05239868 C-220.04994142 132.12952994 -217.27505609 117.6120396 -213.73339844 103.02294922 C-213.27764801 101.14442001 -212.8312263 99.26357038 -212.39941406 97.37939453 C-208.70077297 81.34206038 -200.10031079 70.88874407 -189 59 C-187.78624946 57.60887464 -186.57758747 56.21328675 -185.375 54.8125 C-180.48484805 49.23013476 -175.38855486 44.25040535 -169.625 39.5625 C-168.69300781 38.80066406 -167.76101562 38.03882813 -166.80078125 37.25390625 C-164.98794346 35.79503957 -163.15291314 34.36315692 -161.29296875 32.96484375 C-158.91654231 31.08241462 -156.84941087 29.40562466 -155 27 C-154.90391881 24.79314379 -154.90391881 24.79314379 -155.375 22.5625 C-155.6640625 20.328125 -155.6640625 20.328125 -155 18 C-152.80433358 15.90306805 -150.34876518 14.36626067 -147.75 12.8125 C-146.727854 12.19580444 -146.727854 12.19580444 -145.68505859 11.56665039 C-140.6748765 8.80515662 -140.6748765 8.80515662 -137.578125 9.69921875 C-136 11 -136 11 -135 12 C-128.40316722 12.04853306 -123.08503734 10.03348413 -117.25 7.1875 C-109.96023503 3.80304656 -102.79602699 1.03135914 -95 -1 C-94.35740234 -1.16983398 -93.71480469 -1.33966797 -93.05273438 -1.51464844 C-62.81931138 -9.40845529 -29.90395927 -9.82271308 0 0 Z M-91 20 C-91.76231934 20.20898926 -92.52463867 20.41797852 -93.31005859 20.63330078 C-119.25292847 28.00061227 -144.54465276 42.12501067 -163 62 C-168 67 -168 67 -169.4765625 68.3359375 C-188.72884004 86.31081274 -201.25306255 112.90510872 -208 138 C-208.19754883 138.69383789 -208.39509766 139.38767578 -208.59863281 140.10253906 C-217.9516419 173.88664882 -212.47601392 212.07414689 -195.625 242.5 C-181.6942502 266.49947998 -161.23587958 284.66960509 -136 296 C-134.83339844 296.54398437 -133.66679687 297.08796875 -132.46484375 297.6484375 C-106.28688414 309.07049297 -74.70694066 310.758504 -47 304 C-45.27716797 303.59974609 -45.27716797 303.59974609 -43.51953125 303.19140625 C-14.46752108 295.66930926 10.52626465 280.47373535 31.61328125 259.38671875 C33.00280184 257.99719816 34.40831638 256.62269499 35.8515625 255.2890625 C60.99358789 231.69764661 78.11354126 192.42704942 79.28852844 158.16534424 C79.36989702 154.60984912 79.38429953 151.05630726 79.375 147.5 C79.37468277 146.37831924 79.37468277 146.37831924 79.37435913 145.23397827 C79.34015503 133.09119798 78.3609344 121.72262523 75 110 C74.82871582 109.35192383 74.65743164 108.70384766 74.48095703 108.03613281 C69.06575482 87.75903559 57.27883178 70.09203158 43 55 C42.24074219 54.17628906 41.48148438 53.35257813 40.69921875 52.50390625 C18.00968216 28.70031713 -14.62228345 16.39237445 -47.10948181 15.56742859 C-62.0464845 15.30246665 -76.52670144 15.9873264 -91 20 Z " fill="#A2E4FC" transform="translate(395,22)"/>
<path d="M0 0 C1.71458083 4.11711075 0.13075492 7.66169746 -1.125 11.6875 C-10.85046272 44.91102398 -13.23397882 79.06252402 -13.3125 113.5 C-13.31611542 114.71645203 -13.31973083 115.93290405 -13.32345581 117.18621826 C-13.3470253 136.92509578 -12.59869095 156.22924822 -8.44311523 175.59521484 C-7.86196326 178.74912503 -7.93727975 181.80126708 -8 185 C-7.34 184.67 -6.68 184.34 -6 184 C0.07661346 183.39233865 3.99247894 184.76286725 9 188 C11.71393699 190.42269026 14.10285907 193.07975934 16.5 195.8125 C20.8633707 200.70406821 25.22257276 205.22595519 30.31835938 209.3659668 C32.96792793 211.94052579 33.89944912 214.16051704 34.3359375 217.8046875 C34.43524329 225.6101222 33.42193986 229.3641889 28 235.125 C22.31050476 238.68093453 15.71884618 241 9 241 C10.98 245.95 12.96 250.9 15 256 C13.35 256.680625 11.7 257.36125 10 258.0625 C4.85584892 260.20691452 -0.2662335 262.39763003 -5.375 264.625 C-6.37273437 265.05824585 -6.37273437 265.05824585 -7.390625 265.50024414 C-10.42871454 266.8297896 -13.39536904 268.20183175 -16.3515625 269.7109375 C-19 271 -19 271 -21 271 C-21.53496094 269.824375 -22.06992188 268.64875 -22.62109375 267.4375 C-24.85173076 262.98992888 -27.64155204 259.58179644 -31.0625 256 C-31.91207275 255.09761597 -31.91207275 255.09761597 -32.77880859 254.17700195 C-38.24584669 248.50615219 -44.4118286 242.52939047 -52 240 C-50.28413236 234.41881763 -47.95760425 229.15479392 -45.625 223.8125 C-38.25775877 206.72161062 -33.48306535 190.36611278 -30.8125 171.9375 C-30.64556641 170.79095947 -30.47863281 169.64441895 -30.30664062 168.46313477 C-28.54973719 155.74456374 -27.97117354 143.05281385 -27.5703125 130.234375 C-27.53373032 129.06806046 -27.49714813 127.90174591 -27.4594574 126.7000885 C-27.30898778 121.84643186 -27.15911247 116.99283651 -27.02587891 112.13867188 C-26.65518058 98.83693081 -26.03248386 85.63428698 -24.57421875 72.40234375 C-24.45503082 71.31947083 -24.3358429 70.2365979 -24.21304321 69.12091064 C-21.24383947 44.01486358 -12.59591167 21.74894082 0 0 Z M-3 200 C-5.64951103 205.77784936 -7.50524996 211.64337488 -9.25 217.75 C-9.53101563 218.69488281 -9.81203125 219.63976562 -10.1015625 220.61328125 C-10.36195313 221.51949219 -10.62234375 222.42570312 -10.890625 223.359375 C-11.24688965 224.58865723 -11.24688965 224.58865723 -11.61035156 225.84277344 C-12.20921727 228.17204672 -12.20921727 228.17204672 -11 231 C-1.2208246 228.63994226 8.41961588 226.08409626 18 223 C18.45805813 218.90733228 18.45805813 218.90733228 15.62109375 216.484375 C14.56850749 215.56298503 13.50674368 214.65200625 12.4375 213.75 C8.00637608 209.87815049 4.00775214 205.95987143 0.3046875 201.36328125 C-0.12585938 200.91339844 -0.55640625 200.46351563 -1 200 C-1.66 200 -2.32 200 -3 200 Z " fill="#59D2FB" transform="translate(185,108)"/>
<path d="M0 0 C10.89366471 0.35140854 20.36709384 2.1243097 29.8125 7.75 C33.68923652 10.03249886 36.43958686 10.62593906 41 10 C42.35061282 9.3690743 43.68838586 8.70844235 45 8 C49.58146674 12.38130557 53.72905967 16.54843278 57 22 C55.125 25.875 55.125 25.875 54 27 C54.45547972 32.10650508 55.77574608 36.46496102 57.5625 41.25 C59.83632827 47.6133788 60.63029133 53.26288598 60 60 C59.00742187 60.02578125 58.01484375 60.0515625 56.9921875 60.078125 C38.80791643 60.75195039 22.22784069 65.94311686 9 79 C-1.28059668 91.51051876 -5.64479215 104.06113752 -7 120 C-23.09354343 118.55570764 -36.86298809 110.4988348 -47.25 98.25 C-54.07458207 89.28410169 -59.15852522 79.38211091 -59 68 C-57.36804688 67.65388672 -57.36804688 67.65388672 -55.703125 67.30078125 C-36.79779072 63.16483463 -21.19383021 56.69255382 -10 40 C-2.74921059 26.97396476 -0.53243314 14.6327314 0 0 Z " fill="#9BD881" transform="translate(384,354)"/>
<path d="M0 0 C1.72863281 -0.04640625 1.72863281 -0.04640625 3.4921875 -0.09375 C11.7090615 1.24922295 17.29658501 7.1935023 22.9375 12.9375 C23.59169922 13.58009766 24.24589844 14.22269531 24.91992188 14.88476562 C30.55778121 20.55717773 33.55157774 25.13335162 33.625 33.375 C33.6559375 34.52742188 33.686875 35.67984375 33.71875 36.8671875 C32.43706048 44.70910365 26.80714621 50.25112833 21.29296875 55.625 C20.65635818 56.25736572 20.01974762 56.88973145 19.36384583 57.54125977 C17.35373827 59.53474159 15.33339586 61.51746184 13.3125 63.5 C11.93745683 64.85997554 10.56310111 66.22064652 9.18945312 67.58203125 C5.84252231 70.89610683 2.48637804 74.20058138 -0.875 77.5 C-4.19113882 76.05419034 -6.36685728 74.25170208 -8.90917969 71.69287109 C-9.68968689 70.91221283 -10.47019409 70.13155457 -11.27435303 69.32723999 C-12.10678528 68.48448517 -12.93921753 67.64173035 -13.796875 66.7734375 C-14.65686096 65.91062164 -15.51684692 65.04780579 -16.40289307 64.15884399 C-19.1483231 61.40221971 -21.8867169 58.63872201 -24.625 55.875 C-26.48521783 54.00475143 -28.34588946 52.13495411 -30.20703125 50.265625 C-34.76829945 45.6823064 -39.32381011 41.09332522 -43.875 36.5 C-42.59240293 33.69012792 -41.25209748 31.62274371 -39.08105469 29.43139648 C-38.51997009 28.86077988 -37.9588855 28.29016327 -37.38079834 27.70225525 C-36.77560364 27.09797195 -36.17040894 26.49368866 -35.546875 25.87109375 C-34.92024963 25.24018326 -34.29362427 24.60927277 -33.64801025 23.95924377 C-32.3224177 22.62791597 -30.9942068 21.29919081 -29.66357422 19.97290039 C-27.63748609 17.94996666 -25.62506552 15.91410016 -23.61328125 13.87695312 C-22.3211243 12.58252245 -21.02818072 11.28887645 -19.734375 9.99609375 C-19.13727722 9.38978622 -18.54017944 8.7834787 -17.92498779 8.15879822 C-12.50057699 2.79328216 -7.82276677 0.06969057 0 0 Z " fill="#FB796D" transform="translate(118.875,359.5)"/>
<path d="M0 0 C4.87396116 2.5408076 8.1421945 6.19061736 11.73046875 10.28125 C16.09383945 15.17281821 20.45304151 19.69470519 25.54882812 23.8347168 C28.19839668 26.40927579 29.12991787 28.62926704 29.56640625 32.2734375 C29.64571993 38.50749265 29.66752646 42.67193086 25.23046875 47.46875 C21.08141015 51.33352125 16.96920949 52.87423075 11.66796875 54.53125 C10.8680249 54.78729004 10.06808105 55.04333008 9.24389648 55.30712891 C6.91084286 56.04437667 4.57265489 56.7611174 2.23046875 57.46875 C1.08835938 57.81550781 -0.05375 58.16226563 -1.23046875 58.51953125 C-8.23652231 60.45952771 -16.26928302 62.63691595 -23.12890625 59.33203125 C-27.33686204 56.40642695 -30.26258362 53.46051404 -31.76953125 48.46875 C-32.68971287 39.54103041 -30.55893803 31.65245671 -28.01953125 23.15625 C-27.67148438 21.92068359 -27.3234375 20.68511719 -26.96484375 19.41210938 C-24.31883732 10.3323873 -22.28742653 4.36200899 -13.76953125 -0.53125 C-8.88059829 -2.16089432 -4.67992707 -2.20513237 0 0 Z M-7.76953125 14.46875 C-10.41904228 20.24659936 -12.27478121 26.11212488 -14.01953125 32.21875 C-14.30054688 33.16363281 -14.5815625 34.10851562 -14.87109375 35.08203125 C-15.13148438 35.98824219 -15.391875 36.89445312 -15.66015625 37.828125 C-16.0164209 39.05740723 -16.0164209 39.05740723 -16.37988281 40.31152344 C-16.97874852 42.64079672 -16.97874852 42.64079672 -15.76953125 45.46875 C-5.99035585 43.10869226 3.65008463 40.55284626 13.23046875 37.46875 C13.68852688 33.37608228 13.68852688 33.37608228 10.8515625 30.953125 C9.79897624 30.03173503 8.73721243 29.12075625 7.66796875 28.21875 C3.23684483 24.34690049 -0.76177911 20.42862143 -4.46484375 15.83203125 C-4.89539063 15.38214844 -5.3259375 14.93226563 -5.76953125 14.46875 C-6.42953125 14.46875 -7.08953125 14.46875 -7.76953125 14.46875 Z " fill="#010202" transform="translate(189.76953125,293.53125)"/>
<path d="M0 0 C5.47313966 4.56147547 10.53954809 9.40741321 15.55859375 14.4609375 C16.34774673 15.25150543 17.13689972 16.04207336 17.94996643 16.8565979 C20.44818661 19.36037626 22.94289044 21.86762475 25.4375 24.375 C27.13974208 26.08226248 28.84221373 27.78929609 30.54492188 29.49609375 C34.69927363 33.66141898 38.85075081 37.82959219 43 42 C42.04676411 43.11963408 41.09245457 44.23835413 40.13769531 45.35668945 C39.60638 45.97977493 39.0750647 46.60286041 38.52764893 47.24482727 C32.02752395 54.71306287 25.06046739 60.10224521 15.05078125 61.375 C6.34788543 61.73158472 -0.94018748 59.67083272 -7.8125 54.25 C-13.65904222 48.78955019 -17.33281117 41.93976346 -18.40625 33.9921875 C-18.71660749 23.672801 -15.98854403 16.17019487 -8.9296875 8.58203125 C-6.04535144 5.61757475 -3.05473111 2.78781286 0 0 Z " fill="#F65546" transform="translate(33,436)"/>
<path d="M0 0 C3.31613882 1.44580966 5.49185728 3.24829792 8.03417969 5.80712891 C8.81468689 6.58778717 9.59519409 7.36844543 10.39935303 8.17276001 C11.23178528 9.01551483 12.06421753 9.85826965 12.921875 10.7265625 C13.78186096 11.58937836 14.64184692 12.45219421 15.52789307 13.34115601 C18.2733231 16.09778029 21.0117169 18.86127799 23.75 21.625 C25.61021783 23.49524857 27.47088946 25.36504589 29.33203125 27.234375 C33.89329945 31.8176936 38.44881011 36.40667478 43 41 C41.46712414 44.22314687 39.85849312 46.37735598 37.3046875 48.890625 C36.58925781 49.59960938 35.87382813 50.30859375 35.13671875 51.0390625 C34.39035156 51.76867187 33.64398438 52.49828125 32.875 53.25 C32.12089844 53.99507813 31.36679688 54.74015625 30.58984375 55.5078125 C28.73099228 57.3431342 26.86762995 59.1736191 25 61 C21.68386118 59.55419034 19.50814272 57.75170208 16.96582031 55.19287109 C16.18531311 54.41221283 15.40480591 53.63155457 14.60064697 52.82723999 C13.76821472 51.98448517 12.93578247 51.14173035 12.078125 50.2734375 C11.21813904 49.41062164 10.35815308 48.54780579 9.47210693 47.65884399 C6.7266769 44.90221971 3.9882831 42.13872201 1.25 39.375 C-0.61021783 37.50475143 -2.47088946 35.63495411 -4.33203125 33.765625 C-8.89329945 29.1823064 -13.44881011 24.59332522 -18 20 C-16.46712414 16.77685313 -14.85849312 14.62264402 -12.3046875 12.109375 C-11.23154297 11.04589844 -11.23154297 11.04589844 -10.13671875 9.9609375 C-9.39035156 9.23132813 -8.64398438 8.50171875 -7.875 7.75 C-7.12089844 7.00492187 -6.36679687 6.25984375 -5.58984375 5.4921875 C-3.73099228 3.6568658 -1.86762995 1.8263809 0 0 Z " fill="#E8E6F7" transform="translate(63,406)"/>
<path d="M0 0 C0.02578125 0.68320312 0.0515625 1.36640625 0.078125 2.0703125 C0.98073374 18.11213154 3.99247335 33.63317699 9.71337891 48.65454102 C10.00905762 49.43112061 10.30473633 50.2077002 10.609375 51.0078125 C10.87717773 51.68473145 11.14498047 52.36165039 11.42089844 53.05908203 C12 55 12 55 12 59 C-3.71661104 54.61996086 -15.77465369 44.45695856 -24.046875 30.609375 C-27.92088878 23.72469908 -30.26832043 16.93295195 -30 9 C-28.91203125 8.76925781 -27.8240625 8.53851563 -26.703125 8.30078125 C-18.46175788 6.49234257 -10.83714782 4.43197429 -3.125 0.953125 C-1 0 -1 0 0 0 Z " fill="#6CC546" transform="translate(355,413)"/>
<path d="M0 0 C1.0118884 13.53681811 -2.35220243 24.87331748 -10.77734375 35.59765625 C-17.55454517 42.92275093 -27.6969877 49.19429284 -37.76171875 50.3046875 C-40.25 50.3125 -40.25 50.3125 -44 50 C-45.30485236 38.77826967 -38.63860318 28.48438303 -32 20 C-31.2575 18.96875 -30.515 17.9375 -29.75 16.875 C-22.7106476 9.51567704 -10.71223876 0 0 0 Z " fill="#6BC546" transform="translate(369,356)"/>
<path d="M0 0 C-3.103106 15.23342947 -12.14649019 27.38167544 -25 36 C-33.00798514 40.60229031 -40.59027211 44.45901112 -50 44 C-50.85185717 33.77771396 -47.17283295 24.79051697 -40.71875 16.87109375 C-29.08680693 4.20813754 -16.98961577 -0.57161324 0 0 Z " fill="#99D67F" transform="translate(442,429)"/>
<path d="M0 0 C0.66 0.33 1.32 0.66 2 1 C1.34 1.66 0.68 2.32 0 3 C-1.98687186 13.97400154 2.65113519 27.0334678 8.17578125 36.37109375 C13.82839344 44.51714943 20.38567463 51.06861084 29 56 C27.02 58.475 27.02 58.475 25 61 C21.68386118 59.55419034 19.50814272 57.75170208 16.96582031 55.19287109 C16.18531311 54.41221283 15.40480591 53.63155457 14.60064697 52.82723999 C13.76821472 51.98448517 12.93578247 51.14173035 12.078125 50.2734375 C11.21813904 49.41062164 10.35815308 48.54780579 9.47210693 47.65884399 C6.7266769 44.90221971 3.9882831 42.13872201 1.25 39.375 C-0.61021783 37.50475143 -2.47088946 35.63495411 -4.33203125 33.765625 C-8.89329945 29.1823064 -13.44881011 24.59332522 -18 20 C-16.46712414 16.77685313 -14.85849312 14.62264402 -12.3046875 12.109375 C-11.23154297 11.04589844 -11.23154297 11.04589844 -10.13671875 9.9609375 C-9.39035156 9.23132813 -8.64398438 8.50171875 -7.875 7.75 C-7.12089844 7.00492187 -6.36679687 6.25984375 -5.58984375 5.4921875 C-3.73099228 3.6568658 -1.86762995 1.8263809 0 0 Z " fill="#D8D8F8" transform="translate(63,406)"/>
<path d="M0 0 C0.93774457 12.54493842 -1.6538108 23.72727511 -9.66796875 33.64453125 C-11 35 -11 35 -13 36 C-13.21076624 29.72788736 -12.45873403 24.07178205 -11.1875 17.9375 C-10.9390332 16.64875977 -10.9390332 16.64875977 -10.68554688 15.33398438 C-9.65255808 10.23140953 -8.43601013 5.62044239 -6 1 C-3 0 -3 0 0 0 Z " fill="#96D37C" transform="translate(369,356)"/>
</svg>
