<?xml version="1.0" encoding="UTF-8"?>
<svg version="1.1" xmlns="http://www.w3.org/2000/svg" width="512" height="512">
<path d="M0 0 C0.97055328 0.00215515 1.94110657 0.0043103 2.94107056 0.00653076 C17.26361716 0.05754633 31.30505979 0.38406747 45.375 3.3125 C46.3846582 3.52181152 47.39431641 3.73112305 48.43457031 3.94677734 C91.6023017 13.16903384 131.3319861 31.80325286 164.375 61.3125 C165.24125 62.06917969 166.1075 62.82585937 167 63.60546875 C177.01111786 72.44340874 186.14027739 81.79673053 194.375 92.3125 C195.17679687 93.30894531 195.97859375 94.30539063 196.8046875 95.33203125 C203.37154108 103.57271312 208.98379123 112.26805231 214.375 121.3125 C214.94516846 122.25319336 214.94516846 122.25319336 215.52685547 123.21289062 C230.45898307 147.95941013 239.53394346 175.13693397 245.375 203.3125 C245.64836182 204.62589355 245.64836182 204.62589355 245.92724609 205.96582031 C251.27640501 233.3343528 251.0370261 266.02678244 245.375 293.3125 C245.06900879 294.80305908 245.06900879 294.80305908 244.75683594 296.32373047 C232.67317485 353.46168251 202.13438688 407.37704527 155.375 443.3125 C154.83037109 443.73354004 154.28574219 444.15458008 153.72460938 444.58837891 C109.52805142 478.55425215 56.50041971 496.84136031 0.75 496.625 C-0.71099625 496.62226578 -0.71099625 496.62226578 -2.20150757 496.61947632 C-16.2346594 496.57522498 -29.83647352 496.10795926 -43.625 493.3125 C-45.45693452 492.97993547 -47.28897011 492.64792732 -49.12109375 492.31640625 C-96.33763137 483.31875063 -139.1942155 459.46570437 -173.625 426.3125 C-174.14868164 425.81073242 -174.67236328 425.30896484 -175.21191406 424.79199219 C-182.22742763 418.03711689 -188.68059464 411.0473889 -194.625 403.3125 C-195.04604004 402.76787109 -195.46708008 402.22324219 -195.90087891 401.66210938 C-203.5788188 391.67153698 -210.31687634 381.21445298 -216.625 370.3125 C-217.01929199 369.63525879 -217.41358398 368.95801758 -217.81982422 368.26025391 C-232.10737749 343.42001736 -241.11862171 315.5526365 -245.625 287.3125 C-245.89316528 285.63450317 -245.89316528 285.63450317 -246.16674805 283.92260742 C-247.81793055 272.36432988 -247.9828062 260.9118654 -247.9375 249.25 C-247.93534485 248.25327271 -247.9331897 247.25654541 -247.93096924 246.22961426 C-247.88067813 231.7451942 -247.59555759 217.54046478 -244.625 203.3125 C-244.42100586 202.32024414 -244.21701172 201.32798828 -244.00683594 200.30566406 C-233.84688498 152.25663837 -211.66902101 109.66842933 -177.625 74.3125 C-177.12323242 73.78881836 -176.62146484 73.26513672 -176.10449219 72.72558594 C-160.20108792 56.20854549 -141.60540677 42.52051743 -121.625 31.3125 C-120.98304688 30.94705078 -120.34109375 30.58160156 -119.6796875 30.20507812 C-97.36552881 17.58226483 -73.27680118 9.14011428 -48.1875 4 C-47.10927979 3.77896606 -47.10927979 3.77896606 -46.00927734 3.5534668 C-30.69956163 0.64390493 -15.54790345 -0.06221224 0 0 Z " fill="#010101" transform="translate(255.625,7.6875)"/>
<path d="M0 0 C0.87836482 25.87183652 -10.32372825 51.5302097 -21.6796875 74.1484375 C-23.92989091 78.67079122 -25.92887479 83.20591926 -27.7578125 87.9140625 C-33.89732009 103.49808578 -33.89732009 103.49808578 -39.03515625 107.16796875 C-42.21729145 108.06305844 -45.197043 108.50000652 -48.48876953 108.73632812 C-53.85936937 109.30022544 -59.11225017 110.69637262 -64.375 111.875 C-66.81977402 112.39835511 -69.26509293 112.91917103 -71.7109375 113.4375 C-74.1407855 113.95758402 -76.57047696 114.47840004 -79 115 C-80.11922852 115.23976563 -81.23845703 115.47953125 -82.39160156 115.7265625 C-122.60708553 124.46331939 -158.74193604 144.41476709 -190 171 C-190.98097656 171.79664063 -191.96195312 172.59328125 -192.97265625 173.4140625 C-201.07572532 180.0671606 -208.53064805 187.34226733 -215.9375 194.75 C-216.68211487 195.49325531 -216.68211487 195.49325531 -217.44177246 196.25152588 C-227.4166462 206.03361327 -227.4166462 206.03361327 -236 217 C-239 216 -239 216 -240.03979492 214.33959961 C-240.35021729 213.61780518 -240.66063965 212.89601074 -240.98046875 212.15234375 C-241.3360083 211.33169434 -241.69154785 210.51104492 -242.05786133 209.66552734 C-242.43064209 208.76527832 -242.80342285 207.8650293 -243.1875 206.9375 C-243.57897217 206.00373535 -243.97044434 205.0699707 -244.3737793 204.10791016 C-255.65186808 176.68159716 -265.16532336 145.03513053 -263 115 C-261.9609375 112.99609375 -261.9609375 112.99609375 -260.375 111.4375 C-259.41400391 110.45136719 -259.41400391 110.45136719 -258.43359375 109.4453125 C-257.63050781 108.63835937 -256.82742188 107.83140625 -256 107 C-254.96523535 105.87681436 -253.93569908 104.74879952 -252.91015625 103.6171875 C-241.81821665 91.42258704 -230.01400694 80.1392197 -217 70 C-216.13084961 69.32203369 -216.13084961 69.32203369 -215.24414062 68.63037109 C-200.90035306 57.50092971 -185.87118969 47.71978722 -169.92333984 39.04980469 C-168.05182491 38.02828727 -166.19147749 36.98859911 -164.33203125 35.9453125 C-154.53650431 30.50890686 -144.40449189 26.1322086 -134 22 C-132.80552246 21.51297607 -132.80552246 21.51297607 -131.58691406 21.01611328 C-107.86065315 11.40989438 -81.50727034 4.50858284 -56 2 C-55.05705078 1.90138672 -54.11410156 1.80277344 -53.14257812 1.70117188 C-35.41282787 -0.09553322 -17.79598254 -0.24123855 0 0 Z " fill="#173D66" transform="translate(287,144)"/>
<path d="M0 0 C31.50420998 2.46285755 61.22140166 12.08766202 89 27 C89.61601074 27.33 90.23202148 27.66 90.86669922 28 C97.1267128 31.38718832 103.25359059 35.00492224 109.1875 38.9375 C110.04730469 39.50339844 110.90710938 40.06929687 111.79296875 40.65234375 C118.05981274 47.31849107 118.04833417 58.05264002 119.125 66.6875 C119.29386719 67.96044922 119.46273437 69.23339844 119.63671875 70.54492188 C126.41278008 123.01938107 121.85626341 177.51031914 106 228 C105.67515625 229.04414063 105.3503125 230.08828125 105.015625 231.1640625 C99.96807249 247.24842758 94.04391882 262.68978404 87 278 C86.27845939 279.59496775 85.55709671 281.19001601 84.8359375 282.78515625 C81.00977032 291.15870539 76.83679739 299.15531924 72 307 C66.8274614 306.52976922 63.41962184 303.8590359 59.3125 300.9375 C58.59916504 300.43726318 57.88583008 299.93702637 57.15087891 299.42163086 C51.58790091 295.48922437 46.21096079 291.39027431 41 287 C40.46665039 286.55543457 39.93330078 286.11086914 39.38378906 285.65283203 C28.75326314 276.78022632 18.94933314 267.63552088 10.28125 256.78515625 C7.94293318 253.93032767 5.50085282 251.21311657 3 248.5 C-0.42151 244.76257594 -3.78994178 240.99398325 -7.0625 237.125 C-7.79597656 236.26132812 -8.52945312 235.39765625 -9.28515625 234.5078125 C-11.16702617 231.7557385 -11.72152881 230.30284604 -12 227 C-10.98706055 224.11938477 -10.98706055 224.11938477 -9.38671875 220.94140625 C-8.80277344 219.76167236 -8.21882813 218.58193848 -7.6171875 217.36645508 C-7.30233398 216.74606354 -6.98748047 216.125672 -6.66308594 215.48648071 C-5.34454689 212.88615244 -4.05869248 210.27012597 -2.77041626 207.65470886 C-1.7958658 205.6777519 -0.81669439 203.70312718 0.16259766 201.72851562 C7.19677311 187.49914964 13.5211178 173.24340669 18 158 C18.37769531 156.75992188 18.75539063 155.51984375 19.14453125 154.2421875 C31.80355739 108.82141205 25.17919731 58.87496485 7 16 C6.65839844 15.1941748 6.31679688 14.38834961 5.96484375 13.55810547 C4.02530175 9.01622171 2.0364247 4.49922582 0 0 Z " fill="#1E5288" transform="translate(278,25)"/>
<path d="M0 0 C3.73567719 3.58839242 6.97626107 7.38481074 10.125 11.5 C27.49008646 33.84501815 46.71821925 54.64834483 69.35595703 71.74560547 C70.94098074 72.95496867 72.50041362 74.19764816 74.05859375 75.44140625 C88.95173727 87.26106028 105.19812738 97.14807222 122 106 C122.6482373 106.34337402 123.29647461 106.68674805 123.96435547 107.04052734 C144.49897232 117.83631951 165.84509384 126.17288432 188 133 C188.80195801 133.25088379 189.60391602 133.50176758 190.43017578 133.76025391 C208.15414352 139.20241836 226.77413689 141.77874311 245 145 C245 145.66 245 146.32 245 147 C227.42175854 156.57624858 210.10566231 164.81821064 191 171 C189.76636719 171.42539062 188.53273438 171.85078125 187.26171875 172.2890625 C177.73512813 175.46055773 167.86679505 177.24328855 158 179 C156.7625 179.22945312 155.525 179.45890625 154.25 179.6953125 C96.29484948 188.71903111 33.7812354 171.49206432 -13.24267578 137.30517578 C-20.42919806 131.96770036 -27.12107528 126.09285898 -33.7109375 120.04296875 C-35.29294705 118.63103873 -36.92380524 117.27266013 -38.58984375 115.9609375 C-40.7259275 114.2229893 -42.4232538 112.53736116 -44.1875 110.4375 C-46.1512211 108.12748829 -48.12644722 105.86686245 -50.21484375 103.66796875 C-59.65365306 93.70903056 -67.46799749 82.4435497 -75 71 C-67.53442197 54.47719785 -49.41398999 39.83587352 -36 28 C-35.45021484 27.51080078 -34.90042969 27.02160156 -34.33398438 26.51757812 C-23.50087344 16.90897108 -12.12350957 7.93266675 0 0 Z " fill="#FEC138" transform="translate(133,307)"/>
<path d="M0 0 C15.33921241 30.17273651 25.9844524 60.3815185 27.55078125 94.4765625 C27.61682556 95.85581909 27.61682556 95.85581909 27.6842041 97.26293945 C27.79145014 99.50854027 27.89667276 101.75421604 28 104 C27.175783 104.02426056 27.175783 104.02426056 26.33491516 104.04901123 C-29.69500862 105.72809654 -81.7937735 112.91417896 -133 137 C-133.84143555 137.39123047 -134.68287109 137.78246094 -135.54980469 138.18554688 C-160.60656129 149.92754353 -183.9260104 165.08098268 -205 183 C-206.08281757 183.89775786 -207.16618204 184.79485637 -208.25 185.69140625 C-215.64579505 191.86377402 -222.56027375 198.38160822 -229.29003906 205.27587891 C-229.89170898 205.89124512 -230.49337891 206.50661133 -231.11328125 207.140625 C-231.64735596 207.69266602 -232.18143066 208.24470703 -232.73168945 208.81347656 C-234 210 -234 210 -235 210 C-230.99492082 150.14119331 -200.23087161 97.23147603 -157 57 C-153.04589411 53.54235522 -148.90890808 50.34840675 -144.67822266 47.23828125 C-143.04426048 46.03265772 -141.433795 44.80040594 -139.82421875 43.5625 C-100.42546777 13.7880537 -49.18767305 -1.79045119 0 0 Z " fill="#F1F1F1" transform="translate(260,24)"/>
<path d="M0 0 C1.9453125 2.0546875 1.9453125 2.0546875 4.125 4.875 C7.14615851 8.6978899 10.20786911 12.40753436 13.5 16 C16.51005421 19.29147083 19.35711386 22.65789429 22.1328125 26.1484375 C26.89070655 31.98669252 32.02935077 37.32651826 37.375 42.625 C38.67824219 43.93984375 38.67824219 43.93984375 40.0078125 45.28125 C55.30910895 60.53727635 73.11822805 73.51202617 92 84 C92.81500977 84.45729492 93.63001953 84.91458984 94.46972656 85.38574219 C115.7937886 97.24808253 137.86221235 105.87397565 161.62060547 111.43896484 C163.66067814 111.91999162 165.69265017 112.43515141 167.72265625 112.95703125 C174.58642298 114.68360454 181.40420006 115.62963155 188.44287109 116.26660156 C193.79137966 116.79137966 193.79137966 116.79137966 196 119 C184.05731751 135.23621232 171.54582201 150.06119262 157.00585938 164.05957031 C155.33905578 165.67200398 153.70648252 167.31012803 152.078125 168.9609375 C148.97951212 171.84690047 146.64075902 173.90576672 142.30493164 174.15478516 C133.80462479 173.30124961 125.41111291 172.05526314 116.99951172 170.58081055 C114.7679572 170.19063968 112.53461282 169.81243536 110.30078125 169.43554688 C62.7638311 161.29549714 16.67761872 143.58589059 -23 116 C-23.5578418 115.61344238 -24.11568359 115.22688477 -24.69042969 114.82861328 C-32.75703558 109.22025326 -40.48861121 103.34132544 -48 97 C-49.01964844 96.16597656 -50.03929687 95.33195312 -51.08984375 94.47265625 C-65.67074546 82.42248515 -79.42210845 68.97221317 -91 54 C-92.2945549 52.43510858 -93.60326786 50.88288531 -94.91430664 49.33178711 C-103.24222338 39.46950004 -103.24222338 39.46950004 -106 35 C-104.57450062 30.72350187 -101.49095707 29.76811683 -97.6875 27.8125 C-96.933479 27.42102783 -96.17945801 27.02955566 -95.40258789 26.6262207 C-89.68593133 23.72316252 -83.87195688 21.11198874 -77.9375 18.6875 C-77.1849292 18.37466064 -76.4323584 18.06182129 -75.65698242 17.73950195 C-61.61279818 12.19196779 -46.25754319 9.65357537 -31.5625 6.375 C-29.78446522 5.976741 -28.00647024 5.57830424 -26.22851562 5.1796875 C-17.99925356 3.33580551 -17.99925356 3.33580551 -14.23562622 2.50067139 C-12.66917119 2.14986176 -11.10423725 1.79222279 -9.54049683 1.42950439 C-8.74201324 1.24603455 -7.94352966 1.0625647 -7.12084961 0.87353516 C-6.40215195 0.70616852 -5.68345428 0.53880188 -4.94297791 0.36636353 C-3 0 -3 0 0 0 Z " fill="#F1F1F1" transform="translate(254,265)"/>
<path d="M0 0 C39.91465482 32.48867253 63.2456626 81.35317588 73 131 C73.2371875 132.17691406 73.474375 133.35382813 73.71875 134.56640625 C76.7841109 151.13287878 76.24083466 168.22940777 76 185 C75.98912354 186.09610596 75.98912354 186.09610596 75.97802734 187.21435547 C75.47216389 220.14692377 63.13206494 253.18468486 48 282 C18.26959159 283.44115086 -25.33802991 273.59650435 -49 255 C-48.68361572 254.40276123 -48.36723145 253.80552246 -48.04125977 253.19018555 C-36.97709016 232.26051474 -27.14279228 211.64773278 -19.18945312 189.32128906 C-18.38441572 187.07339726 -17.56496171 184.83062513 -16.73242188 182.59277344 C-13.61655872 174.13712952 -11.14272773 165.62425987 -9 156.875 C-8.8301358 156.18613708 -8.66027161 155.49727417 -8.48526001 154.78753662 C2.81787898 108.7243273 5.71666806 62.08650193 1.27001953 14.89306641 C0.8069978 9.93211931 0.40764073 4.96575536 0 0 Z " fill="#FDD45C" transform="translate(412,85)"/>
<path d="M0 0 C0.17015625 0.70793701 0.3403125 1.41587402 0.515625 2.14526367 C7.64313216 31.48225377 17.46290471 63.42427903 36.8828125 87.31640625 C37.25148438 87.87199219 37.62015625 88.42757812 38 89 C36.85819428 92.42541716 36.14801848 92.87768713 33.3125 94.9375 C22.11818157 103.44238779 11.99254395 112.81877376 2.0625 122.75 C1.56627136 123.24532227 1.07004272 123.74064453 0.55877686 124.25097656 C-9.41639005 134.03332162 -9.41639005 134.03332162 -18 145 C-21 144 -21 144 -22.03979492 142.33959961 C-22.35021729 141.61780518 -22.66063965 140.89601074 -22.98046875 140.15234375 C-23.3360083 139.33169434 -23.69154785 138.51104492 -24.05786133 137.66552734 C-24.43064209 136.76527832 -24.80342285 135.8650293 -25.1875 134.9375 C-25.57897217 134.00373535 -25.97044434 133.0699707 -26.3737793 132.10791016 C-37.65186808 104.68159716 -47.16532336 73.03513053 -45 43 C-43.9609375 40.99609375 -43.9609375 40.99609375 -42.375 39.4375 C-41.73433594 38.78007812 -41.09367187 38.12265625 -40.43359375 37.4453125 C-39.63050781 36.63835937 -38.82742187 35.83140625 -38 35 C-36.96523535 33.87681436 -35.93569908 32.74879952 -34.91015625 31.6171875 C-6.15111294 0 -6.15111294 0 0 0 Z " fill="#102E4C" transform="translate(69,216)"/>
<path d="M0 0 C1.59210443 0.19384035 3.18328392 0.39998945 4.76708984 0.65283203 C7.31474939 1.04893654 9.86693016 1.36788847 12.42578125 1.68359375 C13.38677734 1.80669922 14.34777344 1.92980469 15.33789062 2.05664062 C17.33969762 2.31294553 19.34233589 2.56283096 21.34570312 2.80664062 C22.30025391 2.93103516 23.25480469 3.05542969 24.23828125 3.18359375 C25.10493408 3.29243896 25.97158691 3.40128418 26.86450195 3.51342773 C29 4 29 4 31 6 C19.05731751 22.23621232 6.54582201 37.06119262 -7.99414062 51.05957031 C-9.66094422 52.67200398 -11.29351748 54.31012803 -12.921875 55.9609375 C-16.02048788 58.84690047 -18.35924098 60.90576672 -22.69506836 61.15478516 C-31.19537521 60.30124961 -39.58888709 59.05526314 -48.00048828 57.58081055 C-50.2320428 57.19063968 -52.46538718 56.81243536 -54.69921875 56.43554688 C-69.19057751 53.95410074 -83.44674857 50.71955617 -97.5 46.375 C-98.58514893 46.04089111 -99.67029785 45.70678223 -100.78833008 45.36254883 C-115.20131564 40.8116811 -129.13556124 34.99176444 -143 29 C-139.47451607 27.86680874 -139.47451607 27.86680874 -137.36914062 28.45776367 C-133.88438949 29.25533501 -130.40146662 29.20305726 -126.84375 29.23828125 C-126.0373558 29.2480751 -125.23096161 29.25786896 -124.40013123 29.26795959 C-80.36574252 29.69094452 -40.38558538 21.2116177 -1 1 C-0.67 0.67 -0.34 0.34 0 0 Z " fill="#CACACA" transform="translate(419,378)"/>
<path d="M0 0 C0.33 0 0.66 0 1 0 C0.54241542 5.57530685 -0.00963428 11.11941049 -0.75688171 16.66413879 C-1.96921515 25.94387584 -2.2799563 35.08036483 -2.20581055 44.43139648 C-2.18737526 46.82872069 -2.18530326 49.22565849 -2.18554688 51.62304688 C-2.18111758 53.19271302 -2.17528192 54.76237589 -2.16796875 56.33203125 C-2.16449936 57.08578033 -2.16102997 57.83952942 -2.15745544 58.61611938 C-2.107274 63.08519094 -1.75778791 67.41478548 -1.203125 71.85546875 C-0.7559133 76.63465733 -0.7559133 76.63465733 -2.81640625 79.71875 C-4.17572266 80.60046875 -4.17572266 80.60046875 -5.5625 81.5 C-6.57957031 82.21929687 -7.59664062 82.93859375 -8.64453125 83.6796875 C-9.19318848 84.0519043 -9.7418457 84.42412109 -10.30712891 84.80761719 C-13.27375934 86.8971792 -16.00188846 89.25947784 -18.75 91.625 C-19.32588867 92.11516602 -19.90177734 92.60533203 -20.49511719 93.11035156 C-26.03420506 97.89066027 -31.18136664 103.04232782 -36.29003906 108.27587891 C-36.89170898 108.89124512 -37.49337891 109.50661133 -38.11328125 110.140625 C-38.64735596 110.69266602 -39.18143066 111.24470703 -39.73168945 111.81347656 C-41 113 -41 113 -42 113 C-39.39637407 74.08692624 -25.01488452 30.5999688 0 0 Z " fill="#C9C9C9" transform="translate(67,121)"/>
<path d="M0 0 C3.73567719 3.58839242 6.97626107 7.38481074 10.125 11.5 C27.95827798 34.44747688 47.75103261 55.4679918 71 73 C72.85201549 74.40389998 74.70247297 75.80974419 76.55004883 77.21948242 C77.69754502 78.09389391 78.84827665 78.96408097 80.00268555 79.8293457 C83.88895451 82.77790902 83.88895451 82.77790902 85 85 C52.20778818 74.78055904 24.68036329 53.18789294 0 30 C-1.00160156 29.06220703 -1.00160156 29.06220703 -2.0234375 28.10546875 C-6.83024352 23.46178963 -10.91186335 18.27741277 -15 13 C-13.48922551 8.60868215 -10.08337724 6.68263208 -6.375 4.25 C-5.45847656 3.63318359 -5.45847656 3.63318359 -4.5234375 3.00390625 C-3.02104672 1.99448744 -1.51123091 0.9961353 0 0 Z " fill="#FCD25B" transform="translate(133,307)"/>
<path d="M0 0 C0.66 0.33 1.32 0.66 2 1 C0.56771766 4.23150562 -0.87174573 7.45976369 -2.3125 10.6875 C-2.71662109 11.59951172 -3.12074219 12.51152344 -3.53710938 13.45117188 C-4.66778378 15.97910246 -5.82869067 18.49070223 -7 21 C-7.69609375 22.54494141 -7.69609375 22.54494141 -8.40625 24.12109375 C-10 26 -10 26 -12.85546875 26.5234375 C-13.95503906 26.47445313 -15.05460937 26.42546875 -16.1875 26.375 C-17.33992188 26.33117187 -18.49234375 26.28734375 -19.6796875 26.2421875 C-23.49034786 25.96423345 -27.22552883 25.59207391 -31 25 C-28.93427159 23.43289569 -26.85603559 21.89939837 -24.73046875 20.4140625 C-16.04612066 14.30433681 -7.51947331 7.51947331 0 0 Z " fill="#F8BD38" transform="translate(470,341)"/>
</svg>
